<svg width="24" height="24" viewBox="0 0 24 24" fill="none" xmlns="http://www.w3.org/2000/svg">
<g clip-path="url(#clip0_775_13665)">
<path fill-rule="evenodd" clip-rule="evenodd" d="M9.50002 3.875C9.76904 3.875 10.0079 4.04714 10.0929 4.30236L14.5 17.5236L16.4071 11.8024C16.4922 11.5471 16.731 11.375 17 11.375H20.3334C20.6785 11.375 20.9584 11.6548 20.9584 12C20.9584 12.3452 20.6785 12.625 20.3334 12.625H17.4505L15.0929 19.6976C15.0079 19.9529 14.769 20.125 14.5 20.125C14.231 20.125 13.9922 19.9529 13.9071 19.6976L9.50002 6.47642L7.59295 12.1976C7.50788 12.4529 7.26904 12.625 7.00002 12.625H3.66669C3.32151 12.625 3.04169 12.3452 3.04169 12C3.04169 11.6548 3.32151 11.375 3.66669 11.375H6.54955L8.90709 4.30236C8.99216 4.04714 9.231 3.875 9.50002 3.875Z" fill="black"/>
</g>
<defs>
<clipPath id="clip0_775_13665">
<rect width="20" height="20" fill="white" transform="translate(2 2)"/>
</clipPath>
</defs>
</svg>
