<svg width="24" height="24" viewBox="0 0 24 24" fill="none" xmlns="http://www.w3.org/2000/svg">
<path fill-rule="evenodd" clip-rule="evenodd" d="M8.10802 3.22468C8.22523 3.10747 8.3842 3.04163 8.54996 3.04163H15.45C15.6157 3.04163 15.7747 3.10747 15.8919 3.22468L20.7752 8.10802C20.8924 8.22523 20.9583 8.3842 20.9583 8.54996V15.45C20.9583 15.6157 20.8924 15.7747 20.7752 15.8919L15.8919 20.7752C15.7747 20.8924 15.6157 20.9583 15.45 20.9583H8.54996C8.3842 20.9583 8.22523 20.8924 8.10802 20.7752L3.22468 15.8919C3.10747 15.7747 3.04163 15.6157 3.04163 15.45V8.54996C3.04163 8.3842 3.10747 8.22523 3.22468 8.10802L8.10802 3.22468ZM8.80884 4.29163L4.29163 8.80884V15.1911L8.80884 19.7083H15.1911L19.7083 15.1911V8.80884L15.1911 4.29163H8.80884ZM12 8.04163C12.3451 8.04163 12.625 8.32145 12.625 8.66663V12C12.625 12.3451 12.3451 12.625 12 12.625C11.6548 12.625 11.375 12.3451 11.375 12V8.66663C11.375 8.32145 11.6548 8.04163 12 8.04163ZM12 14.7083C11.6548 14.7083 11.375 14.9881 11.375 15.3333C11.375 15.6785 11.6548 15.9583 12 15.9583H12.0083C12.3535 15.9583 12.6333 15.6785 12.6333 15.3333C12.6333 14.9881 12.3535 14.7083 12.0083 14.7083H12Z" fill="black"/>
</svg>
