<svg width="24" height="24" viewBox="0 0 24 24" fill="none" xmlns="http://www.w3.org/2000/svg">
<path fill-rule="evenodd" clip-rule="evenodd" d="M10.8757 4.08417C11.2189 3.89094 11.6062 3.78943 12 3.78943C12.3939 3.78943 12.7811 3.89094 13.1243 4.08417C13.4675 4.2774 13.7551 4.55582 13.9594 4.89257L13.9612 4.89554L13.9612 4.89555L21.0195 16.6789L21.0247 16.6875L21.0246 16.6875C21.2247 17.034 21.3306 17.4269 21.3317 17.8271C21.3328 18.2272 21.2291 18.6207 21.031 18.9683C20.8328 19.316 20.5471 19.6057 20.2022 19.8086C19.8573 20.0115 19.4653 20.1206 19.0652 20.125L19.0583 20.1251V20.125H4.94168H4.93481L4.93481 20.125C4.53469 20.1206 4.14269 20.0115 3.79781 19.8086C3.45294 19.6057 3.16721 19.316 2.96905 18.9683C2.7709 18.6207 2.66722 18.2272 2.66834 17.8271C2.66946 17.4269 2.77534 17.034 2.97544 16.6875L2.98045 16.6788L2.98052 16.6789L10.0389 4.89555L10.0406 4.89257L10.0406 4.89257C10.2449 4.55582 10.5325 4.2774 10.8757 4.08417ZM12 5.03943C11.821 5.03943 11.645 5.08557 11.489 5.1734C11.3334 5.26098 11.203 5.38705 11.1102 5.53952L11.1094 5.54086L4.05572 17.3164C3.9662 17.473 3.91884 17.6502 3.91834 17.8306C3.91783 18.0125 3.96495 18.1913 4.05503 18.3493C4.1451 18.5073 4.27497 18.639 4.43173 18.7313C4.58764 18.823 4.76473 18.8725 4.94556 18.875H19.0545C19.2353 18.8725 19.4124 18.823 19.5683 18.7313C19.7251 18.639 19.8549 18.5073 19.945 18.3493C20.0351 18.1913 20.0822 18.0125 20.0817 17.8306C20.0812 17.6501 20.0338 17.473 19.9443 17.3164L12.8906 5.54086L12.8899 5.53957C12.7971 5.38708 12.6666 5.26099 12.5111 5.1734C12.3551 5.08557 12.179 5.03943 12 5.03943ZM12 8.87505C12.3452 8.87505 12.625 9.15487 12.625 9.50005V12.8334C12.625 13.1786 12.3452 13.4584 12 13.4584C11.6548 13.4584 11.375 13.1786 11.375 12.8334V9.50005C11.375 9.15487 11.6548 8.87505 12 8.87505ZM12 15.5417C11.6548 15.5417 11.375 15.8215 11.375 16.1667C11.375 16.5119 11.6548 16.7917 12 16.7917H12.0084C12.3535 16.7917 12.6334 16.5119 12.6334 16.1667C12.6334 15.8215 12.3535 15.5417 12.0084 15.5417H12Z" fill="black"/>
</svg>
