<svg width="24" height="24" viewBox="0 0 24 24" fill="none" xmlns="http://www.w3.org/2000/svg">
<path fill-rule="evenodd" clip-rule="evenodd" d="M12 4.29163C10.9644 4.29163 10.125 5.13109 10.125 6.16663C10.125 7.20216 10.9644 8.04163 12 8.04163C13.0355 8.04163 13.875 7.20216 13.875 6.16663C13.875 5.13109 13.0355 4.29163 12 4.29163ZM15.125 6.16663C15.125 7.67847 14.0514 8.93957 12.625 9.22911V19.6829C14.4405 19.5353 16.153 18.7481 17.4506 17.4506C18.7481 16.153 19.5353 14.4405 19.6829 12.625H17.8333C17.4881 12.625 17.2083 12.3451 17.2083 12C17.2083 11.6548 17.4881 11.375 17.8333 11.375H20.3333C20.6785 11.375 20.9583 11.6548 20.9583 12C20.9583 14.3759 20.0145 16.6544 18.3345 18.3345C16.6544 20.0145 14.3759 20.9583 12 20.9583C9.62406 20.9583 7.34547 20.0145 5.66546 18.3345C3.98545 16.6544 3.04163 14.3759 3.04163 12C3.04163 11.8342 3.10747 11.6752 3.22468 11.558C3.34189 11.4408 3.50087 11.375 3.66663 11.375H6.16663C6.5118 11.375 6.79163 11.6548 6.79163 12C6.79163 12.3451 6.5118 12.625 6.16663 12.625H4.31699C4.46461 14.4405 5.2518 16.153 6.54934 17.4506C7.84689 18.7481 9.5594 19.5353 11.375 19.6829V9.22911C9.94856 8.93957 8.87496 7.67847 8.87496 6.16663C8.87496 4.44074 10.2741 3.04163 12 3.04163C13.7258 3.04163 15.125 4.44074 15.125 6.16663Z" fill="black"/>
</svg>
