<svg width="24" height="24" viewBox="0 0 24 24" fill="none" xmlns="http://www.w3.org/2000/svg">
<path fill-rule="evenodd" clip-rule="evenodd" d="M11.1575 8.04163L13.2635 4.39468C15.5369 4.76955 17.475 6.13919 18.6157 8.04163H13.9358C13.9282 8.04149 13.9206 8.04149 13.913 8.04163H11.1575ZM8.15002 10.75L9.53242 8.35612L9.53426 8.35294L11.879 4.29256C9.52951 4.3287 7.43504 5.416 6.04509 7.10493L8.15002 10.75ZM7.61712 12.3269L8.99232 14.7083H4.78085C4.46459 13.8657 4.29163 12.953 4.29163 12C4.29163 10.639 4.64431 9.36046 5.26328 8.25068L7.60107 12.2991C7.60618 12.3084 7.61153 12.3177 7.61712 12.3269ZM12.8424 15.9583H10.087C10.0794 15.9584 10.0717 15.9584 10.0641 15.9583H5.38422C6.52493 17.8607 8.463 19.2304 10.7365 19.6052L12.8424 15.9583ZM13.5643 14.7083H10.4358L8.87174 11.9999L10.4356 9.29163H13.5642L15.1282 12.0001L13.5643 14.7083ZM14.4673 15.6441C14.4668 15.6449 14.4663 15.6458 14.4658 15.6467L12.1209 19.7074C14.4704 19.6712 16.5649 18.5839 17.9548 16.895L15.8499 13.2499L14.4673 15.6441ZM16.3989 11.7009L18.7366 15.7492C19.3556 14.6395 19.7083 13.3609 19.7083 12C19.7083 11.0469 19.5353 10.1342 19.2191 9.29163H15.0076L16.3828 11.673C16.3884 11.6822 16.3937 11.6915 16.3989 11.7009ZM11.0457 20.9081C11.3592 20.9413 11.6776 20.9583 12 20.9583C14.9321 20.9583 17.5353 19.5496 19.1695 17.372C19.1991 17.3397 19.2249 17.3047 19.2467 17.2676C20.3232 15.7892 20.9583 13.9687 20.9583 12C20.9583 10.7425 20.6992 9.54556 20.2315 8.45959C20.2213 8.43037 20.2089 8.40214 20.1946 8.37509C18.9381 5.53878 16.2523 3.47673 13.0509 3.10262C13.0188 3.09647 12.9865 3.09291 12.9542 3.09185C12.6407 3.05865 12.3223 3.04163 12 3.04163C9.06779 3.04163 6.46465 4.45035 4.83042 6.62792C4.80085 6.66021 4.77506 6.69525 4.75322 6.73234C3.67672 8.21074 3.04163 10.0312 3.04163 12C3.04163 13.2574 3.3007 14.4544 3.7684 15.5403C3.77865 15.5695 3.79102 15.5978 3.80532 15.6248C5.0618 18.4611 7.74759 20.5232 10.949 20.8973C10.9811 20.9034 11.0134 20.907 11.0457 20.9081Z" fill="black"/>
</svg>
