<svg width="24" height="24" viewBox="0 0 24 24" fill="none" xmlns="http://www.w3.org/2000/svg">
<path fill-rule="evenodd" clip-rule="evenodd" d="M2.20837 4.5C2.20837 4.15482 2.4882 3.875 2.83337 3.875H21.1667C21.5119 3.875 21.7917 4.15482 21.7917 4.5V8.66667C21.7917 9.01184 21.5119 9.29167 21.1667 9.29167H20.125V19.5C20.125 19.8452 19.8452 20.125 19.5 20.125H4.50004C4.15486 20.125 3.87504 19.8452 3.87504 19.5V9.29167H2.83337C2.4882 9.29167 2.20837 9.01184 2.20837 8.66667V4.5ZM18.875 18.875V9.29167H5.12504V18.875H18.875ZM20.5417 8.04167L19.5 8.04167H4.50004L3.45837 8.04167V5.125H20.5417V8.04167ZM10.3334 11.375C9.9882 11.375 9.70837 11.6548 9.70837 12C9.70837 12.3452 9.9882 12.625 10.3334 12.625H13.6667C14.0119 12.625 14.2917 12.3452 14.2917 12C14.2917 11.6548 14.0119 11.375 13.6667 11.375H10.3334Z" fill="black"/>
</svg>
