<svg width="24" height="24" viewBox="0 0 24 24" fill="none" xmlns="http://www.w3.org/2000/svg">
<path fill-rule="evenodd" clip-rule="evenodd" d="M12.4419 5.72468C12.1978 5.48061 11.8021 5.48061 11.558 5.72468C11.3139 5.96876 11.3139 6.36449 11.558 6.60857L16.3244 11.375H6.16663C5.82145 11.375 5.54163 11.6548 5.54163 12C5.54163 12.3451 5.82145 12.625 6.16663 12.625H16.3244L11.558 17.3914C11.3139 17.6354 11.3139 18.0312 11.558 18.2752C11.8021 18.5193 12.1978 18.5193 12.4419 18.2752L18.2752 12.4419C18.3352 12.382 18.3804 12.3129 18.4109 12.2392C18.4407 12.1672 18.4575 12.0884 18.4583 12.0057C18.4583 12.0038 18.4583 12.0019 18.4583 12C18.4583 11.998 18.4583 11.9961 18.4583 11.9942C18.4575 11.9115 18.4407 11.8327 18.4109 11.7607C18.3804 11.687 18.3352 11.6179 18.2752 11.558L12.4419 5.72468Z" fill="black"/>
</svg>
