<svg width="24" height="24" viewBox="0 0 24 24" fill="none" xmlns="http://www.w3.org/2000/svg">
<path fill-rule="evenodd" clip-rule="evenodd" d="M12.442 6.60857C12.686 6.36449 12.686 5.96876 12.442 5.72468C12.1979 5.48061 11.8022 5.48061 11.5581 5.72468L5.72491 11.5579L5.72475 11.558C5.60271 11.6801 5.54169 11.84 5.54169 12C5.54169 12.0847 5.55855 12.1655 5.58911 12.2392C5.61961 12.3129 5.66482 12.382 5.72474 12.4419C5.7248 12.442 5.72485 12.442 5.72491 12.4421L11.5581 18.2752C11.8022 18.5193 12.1979 18.5193 12.442 18.2752C12.686 18.0312 12.686 17.6354 12.442 17.3914L7.67557 12.625H17.8334C18.1785 12.625 18.4584 12.3451 18.4584 12C18.4584 11.6548 18.1785 11.375 17.8334 11.375H7.67557L12.442 6.60857Z" fill="black"/>
</svg>
