<svg width="24" height="24" viewBox="0 0 24 24" fill="none" xmlns="http://www.w3.org/2000/svg">
<path fill-rule="evenodd" clip-rule="evenodd" d="M12 4.29163C7.74276 4.29163 4.29163 7.74276 4.29163 12C4.29163 16.2572 7.74276 19.7083 12 19.7083C16.2572 19.7083 19.7083 16.2572 19.7083 12C19.7083 7.74276 16.2572 4.29163 12 4.29163ZM3.04163 12C3.04163 7.05241 7.05241 3.04163 12 3.04163C16.9475 3.04163 20.9583 7.05241 20.9583 12C20.9583 16.9475 16.9475 20.9583 12 20.9583C7.05241 20.9583 3.04163 16.9475 3.04163 12ZM8.22468 11.558C8.46876 11.3139 8.86449 11.3139 9.10857 11.558L11.375 13.8244V8.66663C11.375 8.32145 11.6548 8.04163 12 8.04163C12.3451 8.04163 12.625 8.32145 12.625 8.66663V13.8244L14.8914 11.558C15.1354 11.3139 15.5312 11.3139 15.7752 11.558C16.0193 11.8021 16.0193 12.1978 15.7752 12.4419L12.4419 15.7752C12.382 15.8352 12.3129 15.8804 12.2392 15.9109C12.1672 15.9407 12.0884 15.9575 12.0057 15.9583C12.0038 15.9583 12.0019 15.9583 12 15.9583C11.998 15.9583 11.9961 15.9583 11.9942 15.9583C11.9115 15.9575 11.8327 15.9407 11.7607 15.9109C11.687 15.8804 11.6179 15.8352 11.558 15.7752L11.5578 15.775L8.22468 12.4419C7.98061 12.1978 7.98061 11.8021 8.22468 11.558Z" fill="black"/>
</svg>
