<svg width="24" height="24" viewBox="0 0 24 24" fill="none" xmlns="http://www.w3.org/2000/svg">
<path fill-rule="evenodd" clip-rule="evenodd" d="M7.59413 7.2558C7.52042 7.2863 7.45136 7.33151 7.39143 7.39143C7.26939 7.51347 7.20837 7.67342 7.20837 7.83337V16.1667C7.20837 16.5119 7.4882 16.7917 7.83337 16.7917C8.17855 16.7917 8.45837 16.5119 8.45837 16.1667V9.34226L15.7248 16.6086C15.9688 16.8527 16.3646 16.8527 16.6086 16.6086C16.8527 16.3646 16.8527 15.9688 16.6086 15.7248L9.34226 8.45837H16.1667C16.5119 8.45837 16.7917 8.17855 16.7917 7.83337C16.7917 7.4882 16.5119 7.20837 16.1667 7.20837H7.83337C7.74863 7.20837 7.66783 7.22524 7.59413 7.2558Z" fill="black"/>
</svg>
