<svg width="24" height="24" viewBox="0 0 24 24" fill="none" xmlns="http://www.w3.org/2000/svg">
<path fill-rule="evenodd" clip-rule="evenodd" d="M12 4.29163C7.74283 4.29163 4.29169 7.74276 4.29169 12C4.29169 16.2572 7.74283 19.7083 12 19.7083C16.2572 19.7083 19.7084 16.2572 19.7084 12C19.7084 7.74276 16.2572 4.29163 12 4.29163ZM3.04169 12C3.04169 7.05241 7.05247 3.04163 12 3.04163C16.9476 3.04163 20.9584 7.05241 20.9584 12C20.9584 16.9475 16.9476 20.9583 12 20.9583C7.05247 20.9583 3.04169 16.9475 3.04169 12ZM12.442 8.22468C12.686 8.46876 12.686 8.86449 12.442 9.10857L10.1756 11.375H15.3334C15.6785 11.375 15.9584 11.6548 15.9584 12C15.9584 12.3451 15.6785 12.625 15.3334 12.625H10.1756L12.442 14.8914C12.686 15.1354 12.686 15.5312 12.442 15.7752C12.1979 16.0193 11.8022 16.0193 11.5581 15.7752L8.22475 12.4419C8.10271 12.3199 8.04169 12.1599 8.04169 12C8.04169 11.9152 8.05855 11.8344 8.08911 11.7607C8.11892 11.6887 8.16278 11.6211 8.22068 11.5621M8.22516 11.5576L11.5581 8.22468C11.8022 7.98061 12.1979 7.98061 12.442 8.22468" fill="black"/>
</svg>
