<svg width="24" height="24" viewBox="0 0 24 24" fill="none" xmlns="http://www.w3.org/2000/svg">
<path fill-rule="evenodd" clip-rule="evenodd" d="M11.7607 5.58905C11.687 5.61955 11.6179 5.66476 11.558 5.72468C11.558 5.72474 11.5579 5.72479 11.5579 5.72485L5.72468 11.558C5.48061 11.8021 5.48061 12.1978 5.72468 12.4419C5.96876 12.686 6.36449 12.686 6.60857 12.4419L11.375 7.67551V17.8333C11.375 18.1785 11.6548 18.4583 12 18.4583C12.3451 18.4583 12.625 18.1785 12.625 17.8333V7.67551L17.3914 12.4419C17.6354 12.686 18.0312 12.686 18.2752 12.4419C18.5193 12.1978 18.5193 11.8021 18.2752 11.558L12.4421 5.72485L12.4419 5.72468C12.3199 5.60265 12.1599 5.54163 12 5.54163C11.9152 5.54163 11.8344 5.55849 11.7607 5.58905Z" fill="black"/>
</svg>
