<svg width="24" height="24" viewBox="0 0 24 24" fill="none" xmlns="http://www.w3.org/2000/svg">
<path fill-rule="evenodd" clip-rule="evenodd" d="M12.625 6.16663C12.625 5.82145 12.3452 5.54163 12 5.54163C11.6548 5.54163 11.375 5.82145 11.375 6.16663V16.3244L6.60863 11.558C6.36455 11.3139 5.96882 11.3139 5.72475 11.558C5.48067 11.8021 5.48067 12.1978 5.72475 12.4419L11.5581 18.2752C11.618 18.3352 11.6871 18.3804 11.7608 18.4109C11.8328 18.4407 11.9116 18.4575 11.9942 18.4583C11.9962 18.4583 11.9981 18.4583 12 18.4583C12.0019 18.4583 12.0039 18.4583 12.0058 18.4583C12.1638 18.4568 12.3214 18.3958 12.442 18.2752L18.2753 12.4419C18.5194 12.1978 18.5194 11.8021 18.2753 11.558C18.0312 11.3139 17.6355 11.3139 17.3914 11.558L12.625 16.3244V6.16663Z" fill="black"/>
</svg>
