<svg width="24" height="24" viewBox="0 0 24 24" fill="none" xmlns="http://www.w3.org/2000/svg">
<g clip-path="url(#clip0_775_13783)">
<path d="M12 15.3333C13.8409 15.3333 15.3333 13.8409 15.3333 12C15.3333 10.159 13.8409 8.66663 12 8.66663C10.159 8.66663 8.66663 10.159 8.66663 12C8.66663 13.8409 10.159 15.3333 12 15.3333Z" stroke="black" stroke-width="1.25" stroke-linecap="round" stroke-linejoin="round"/>
<path d="M15.3333 8.66672V12.8334C15.3333 13.4964 15.5967 14.1323 16.0655 14.6012C16.5344 15.07 17.1703 15.3334 17.8333 15.3334C18.4963 15.3334 19.1322 15.07 19.6011 14.6012C20.0699 14.1323 20.3333 13.4964 20.3333 12.8334V12.0001C20.3332 10.1192 19.6968 8.29378 18.5277 6.8205C17.3586 5.34721 15.7254 4.31274 13.8938 3.8853C12.0622 3.45786 10.1399 3.66259 8.43942 4.46619C6.73894 5.2698 5.3603 6.62502 4.52768 8.31149C3.69507 9.99796 3.45744 11.9165 3.85344 13.7551C4.24944 15.5938 5.25578 17.2444 6.70883 18.4386C8.16187 19.6328 9.97616 20.3003 11.8567 20.3327C13.7372 20.365 15.5734 19.7603 17.0666 18.6167" stroke="black" stroke-width="1.25" stroke-linecap="round" stroke-linejoin="round"/>
</g>
<defs>
<clipPath id="clip0_775_13783">
<rect width="20" height="20" fill="white" transform="translate(2 2)"/>
</clipPath>
</defs>
</svg>
