<svg width="24" height="24" viewBox="0 0 24 24" fill="none" xmlns="http://www.w3.org/2000/svg">
<g clip-path="url(#clip0_775_13791)">
<path d="M6.16671 17H4.50004C4.05801 17 3.63409 16.8244 3.32153 16.5118C3.00897 16.1993 2.83337 15.7754 2.83337 15.3333V8.66667C2.83337 8.22464 3.00897 7.80072 3.32153 7.48816C3.63409 7.17559 4.05801 7 4.50004 7H7.15837M14.5 7H16.1667C16.6087 7 17.0327 7.17559 17.3452 7.48816C17.6578 7.80072 17.8334 8.22464 17.8334 8.66667V15.3333C17.8334 15.7754 17.6578 16.1993 17.3452 16.5118C17.0327 16.8244 16.6087 17 16.1667 17H13.5084" stroke="black" stroke-width="1.25" stroke-linecap="round" stroke-linejoin="round"/>
<path d="M21.1666 12.8333V11.1666" stroke="black" stroke-width="1.25" stroke-linecap="round" stroke-linejoin="round"/>
<path d="M11.1667 7L7.83337 12H12.8334L9.50004 17" stroke="black" stroke-width="1.25" stroke-linecap="round" stroke-linejoin="round"/>
</g>
<defs>
<clipPath id="clip0_775_13791">
<rect width="20" height="20" fill="white" transform="translate(2 2)"/>
</clipPath>
</defs>
</svg>
