<svg width="24" height="24" viewBox="0 0 24 24" fill="none" xmlns="http://www.w3.org/2000/svg">
<path fill-rule="evenodd" clip-rule="evenodd" d="M3.66669 3.875C3.32151 3.875 3.04169 4.15482 3.04169 4.5V17C3.04169 17.3452 3.32151 17.625 3.66669 17.625H9.50002C9.9973 17.625 10.4742 17.8225 10.8258 18.1742C11.1775 18.5258 11.375 19.0027 11.375 19.5C11.375 19.8452 11.6548 20.125 12 20.125C12.3452 20.125 12.625 19.8452 12.625 19.5C12.625 19.0027 12.8226 18.5258 13.1742 18.1742C13.5258 17.8225 14.0027 17.625 14.5 17.625H20.3334C20.6785 17.625 20.9584 17.3452 20.9584 17V4.5C20.9584 4.15482 20.6785 3.875 20.3334 3.875H15.3334C14.2835 3.875 13.2767 4.29204 12.5344 5.03437C12.3313 5.23747 12.1525 5.46037 12 5.69852C11.8475 5.46037 11.6688 5.23747 11.4657 5.03437C10.7233 4.29204 9.7165 3.875 8.66669 3.875H3.66669ZM12.625 17C13.1628 16.5967 13.82 16.375 14.5 16.375H19.7084V5.125H15.3334C14.6151 5.125 13.9262 5.41034 13.4183 5.91825C12.9104 6.42616 12.625 7.11504 12.625 7.83333V17ZM11.375 17V7.83333C11.375 7.11504 11.0897 6.42616 10.5818 5.91825C10.0739 5.41034 9.38498 5.125 8.66669 5.125H4.29169V16.375H9.50002C10.1801 16.375 10.8373 16.5967 11.375 17Z" fill="black"/>
</svg>
