<svg width="24" height="24" viewBox="0 0 24 24" fill="none" xmlns="http://www.w3.org/2000/svg">
<path fill-rule="evenodd" clip-rule="evenodd" d="M6.38551 4.71876C6.659 4.44527 7.02993 4.29163 7.41671 4.29163H18.0417V15.5416H7.41671C6.89587 15.5416 6.3905 15.6917 5.95837 15.9678V5.74996C5.95837 5.36318 6.11202 4.99225 6.38551 4.71876ZM5.95837 18.25C5.95837 18.6367 6.11202 19.0077 6.38551 19.2812C6.659 19.5546 7.02993 19.7083 7.41671 19.7083H18.0417V16.7916H7.41671C7.02993 16.7916 6.659 16.9453 6.38551 17.2188C6.11202 17.4923 5.95837 17.8632 5.95837 18.25ZM19.2917 16.1666V3.66663C19.2917 3.32145 19.0119 3.04163 18.6667 3.04163H7.41671C6.69841 3.04163 6.00954 3.32697 5.50163 3.83488C4.99372 4.34279 4.70837 5.03166 4.70837 5.74996V18.25C4.70837 18.9683 4.99372 19.6571 5.50163 20.165C6.00954 20.673 6.69841 20.9583 7.41671 20.9583H18.6667C19.0119 20.9583 19.2917 20.6785 19.2917 20.3333V16.1666Z" fill="black"/>
</svg>
