<svg width="24" height="24" viewBox="0 0 24 24" fill="none" xmlns="http://www.w3.org/2000/svg">
<path fill-rule="evenodd" clip-rule="evenodd" d="M7.83329 5.125C7.55703 5.125 7.29207 5.23475 7.09672 5.4301C6.90137 5.62545 6.79163 5.8904 6.79163 6.16667V18.2855L11.6367 14.8247C11.854 14.6695 12.1459 14.6695 12.3632 14.8247L17.2083 18.2855V6.16667C17.2083 5.8904 17.0985 5.62545 16.9032 5.4301C16.7078 5.23475 16.4429 5.125 16.1666 5.125H7.83329ZM6.21284 4.54621C6.64261 4.11644 7.2255 3.875 7.83329 3.875H16.1666C16.7744 3.875 17.3573 4.11644 17.7871 4.54621C18.2168 4.97598 18.4583 5.55888 18.4583 6.16667V19.5C18.4583 19.7341 18.3275 19.9486 18.1193 20.0557C17.9111 20.1629 17.6605 20.1447 17.47 20.0086L12 16.1014L6.5299 20.0086C6.33939 20.1447 6.08881 20.1629 5.88064 20.0557C5.67247 19.9486 5.54163 19.7341 5.54163 19.5V6.16667C5.54163 5.55888 5.78307 4.97598 6.21284 4.54621Z" fill="black"/>
</svg>
