<svg width="24" height="24" viewBox="0 0 24 24" fill="none" xmlns="http://www.w3.org/2000/svg">
<path fill-rule="evenodd" clip-rule="evenodd" d="M10.8555 3.34962C11.2035 3.14896 11.5982 3.04333 12 3.04333C12.4018 3.04333 12.7964 3.14895 13.1445 3.34959L13.1458 3.35036L18.9768 6.68231L18.9792 6.68369C19.2671 6.8499 19.5146 7.07632 19.7054 7.34653C19.7478 7.38683 19.7852 7.4338 19.816 7.48701C19.8429 7.5335 19.8631 7.58201 19.877 7.63145C20.0394 7.95154 20.1246 8.30588 20.125 8.66598V8.66663V15.3333V15.3339C20.1246 15.7358 20.0185 16.1305 19.8174 16.4784C19.6163 16.8264 19.3272 17.1153 18.9792 17.3162L18.9768 17.3176L13.1458 20.6496L13.1444 20.6504C12.8912 20.7963 12.6134 20.892 12.3261 20.9333C12.2311 20.9914 12.1195 21.025 12 21.025C11.8805 21.025 11.7689 20.9914 11.6739 20.9333C11.3866 20.892 11.1088 20.7963 10.8556 20.6504L10.8542 20.6496L5.02325 17.3176L5.02083 17.3162C4.6728 17.1153 4.38373 16.8264 4.18261 16.4784C3.9815 16.1305 3.87541 15.7358 3.875 15.3339V15.3333V8.66663V8.66598C3.87537 8.30589 3.96058 7.95155 4.12299 7.63146C4.13686 7.58202 4.1571 7.5335 4.184 7.48701C4.21478 7.4338 4.2522 7.38682 4.29462 7.34653C4.48541 7.07632 4.73295 6.8499 5.02083 6.68369L5.02324 6.6823L5.02325 6.68231L10.8542 3.35036L10.8555 3.34962ZM12.625 19.5075L18.3542 16.2337L18.3552 16.2331C18.5129 16.1418 18.644 16.0107 18.7352 15.8529C18.8266 15.6947 18.8748 15.5153 18.875 15.3327V8.75338L12.625 12.3688V19.5075ZM11.375 12.3688V19.5075L5.64583 16.2337L5.6448 16.2331C5.48707 16.1418 5.35604 16.0107 5.26482 15.8529C5.17346 15.6948 5.12524 15.5155 5.125 15.333V8.75338L11.375 12.3688ZM12.5232 4.43428L18.2188 7.68888L12 11.2863L5.78118 7.68888L11.4768 4.43428L11.4768 4.43428L11.4792 4.43289C11.6375 4.34147 11.8171 4.29333 12 4.29333C12.1829 4.29333 12.3625 4.34147 12.5208 4.43289L12.5232 4.43428Z" fill="black"/>
</svg>
