<svg width="24" height="24" viewBox="0 0 24 24" fill="none" xmlns="http://www.w3.org/2000/svg">
<path fill-rule="evenodd" clip-rule="evenodd" d="M15.9583 3.66663C15.9583 3.32145 15.6785 3.04163 15.3333 3.04163C14.9882 3.04163 14.7083 3.32145 14.7083 3.66663V4.70829H9.29167V3.66663C9.29167 3.32145 9.01184 3.04163 8.66667 3.04163C8.32149 3.04163 8.04167 3.32145 8.04167 3.66663V4.70829H6.16667C4.90101 4.70829 3.875 5.73431 3.875 6.99996V10.3333V18.6666C3.875 19.9323 4.90101 20.9583 6.16667 20.9583H17.8333C19.099 20.9583 20.125 19.9323 20.125 18.6666V10.3333V6.99996C20.125 5.73431 19.099 4.70829 17.8333 4.70829H15.9583V3.66663ZM18.875 9.70829V6.99996C18.875 6.42466 18.4086 5.95829 17.8333 5.95829H15.9583V6.99996C15.9583 7.34514 15.6785 7.62496 15.3333 7.62496C14.9882 7.62496 14.7083 7.34514 14.7083 6.99996V5.95829H9.29167V6.99996C9.29167 7.34514 9.01184 7.62496 8.66667 7.62496C8.32149 7.62496 8.04167 7.34514 8.04167 6.99996V5.95829H6.16667C5.59137 5.95829 5.125 6.42466 5.125 6.99996V9.70829H18.875ZM5.125 10.9583H18.875V18.6666C18.875 19.2419 18.4086 19.7083 17.8333 19.7083H6.16667C5.59137 19.7083 5.125 19.2419 5.125 18.6666V10.9583Z" fill="black"/>
</svg>
