<svg width="24" height="24" viewBox="0 0 24 24" fill="none" xmlns="http://www.w3.org/2000/svg">
<path fill-rule="evenodd" clip-rule="evenodd" d="M4.59672 6.26347C4.79207 6.06812 5.05703 5.95837 5.33329 5.95837H18.6666C18.9429 5.95837 19.2078 6.06812 19.4032 6.26347C19.5985 6.45882 19.7083 6.72377 19.7083 7.00004V17C19.7083 17.2763 19.5985 17.5413 19.4032 17.7366C19.2078 17.932 18.9429 18.0417 18.6666 18.0417H13.6666C13.3214 18.0417 13.0416 18.3215 13.0416 18.6667C13.0416 19.0119 13.3214 19.2917 13.6666 19.2917H18.6666C19.2744 19.2917 19.8573 19.0503 20.2871 18.6205C20.7168 18.1907 20.9583 17.6078 20.9583 17V7.00004C20.9583 6.39225 20.7168 5.80936 20.2871 5.37959C19.8573 4.94982 19.2744 4.70837 18.6666 4.70837H5.33329C4.72551 4.70837 4.14261 4.94982 3.71284 5.37959C3.28307 5.80936 3.04163 6.39225 3.04163 7.00004V8.66671C3.04163 9.01189 3.32145 9.29171 3.66663 9.29171C4.0118 9.29171 4.29163 9.01189 4.29163 8.66671V7.00004C4.29163 6.72377 4.40137 6.45882 4.59672 6.26347ZM3.73571 11.4205C3.39265 11.3824 3.08361 11.6296 3.04546 11.9726C3.0073 12.3157 3.25448 12.6247 3.59754 12.6629C5.14884 12.8354 6.59525 13.5307 7.69895 14.6344C8.80264 15.7381 9.49792 17.1845 9.67046 18.7358C9.70861 19.0789 10.0177 19.326 10.3607 19.2879C10.7038 19.2497 10.951 18.9407 10.9128 18.5976C10.7089 16.7643 9.8872 15.0549 8.58283 13.7505C7.27846 12.4461 5.56906 11.6244 3.73571 11.4205ZM3.79152 14.8043C3.4533 14.7353 3.12321 14.9536 3.05423 15.2918C2.98526 15.63 3.20352 15.9601 3.54173 16.0291C4.22236 16.1679 4.84715 16.5038 5.33834 16.995C5.82952 17.4862 6.16542 18.111 6.30423 18.7916C6.37321 19.1298 6.7033 19.3481 7.04152 19.2791C7.37974 19.2101 7.598 18.88 7.52902 18.5418C7.34122 17.621 6.88677 16.7757 6.22222 16.1111C5.55767 15.4466 4.71238 14.9921 3.79152 14.8043ZM3.66663 18.0417C3.32145 18.0417 3.04163 18.3215 3.04163 18.6667C3.04163 19.0119 3.32145 19.2917 3.66663 19.2917H3.67496C4.02014 19.2917 4.29996 19.0119 4.29996 18.6667C4.29996 18.3215 4.02014 18.0417 3.67496 18.0417H3.66663Z" fill="black"/>
</svg>
