<svg width="24" height="24" viewBox="0 0 24 24" fill="none" xmlns="http://www.w3.org/2000/svg">
<path fill-rule="evenodd" clip-rule="evenodd" d="M10.3012 4.47639C11.9226 4.11006 13.6189 4.27766 15.1373 4.9542C15.4526 5.09468 15.822 4.95297 15.9625 4.63768C16.103 4.32238 15.9613 3.9529 15.646 3.81241C13.8815 3.02617 11.91 2.83139 10.0257 3.25712C8.14141 3.68286 6.44521 4.70629 5.19009 6.17479C3.93496 7.64328 3.18815 9.47816 3.06104 11.4058C2.93394 13.3334 3.43334 15.2504 4.48478 16.871C5.53621 18.4916 7.08334 19.7289 8.89542 20.3984C10.7075 21.0679 12.6875 21.1336 14.54 20.5859C16.3925 20.0382 18.0183 18.9063 19.175 17.359C20.3317 15.8118 20.9572 13.9321 20.9583 12.0003V12V11.2333C20.9583 10.8881 20.6785 10.6083 20.3333 10.6083C19.9881 10.6083 19.7083 10.8881 19.7083 11.2333V11.9996C19.7073 13.6619 19.1691 15.2793 18.1738 16.6106C17.1785 17.9419 15.7796 18.9159 14.1855 19.3872C12.5915 19.8585 10.8878 19.8019 9.32861 19.2259C7.76938 18.6498 6.43813 17.5851 5.53341 16.1907C4.62869 14.7962 4.19897 13.1467 4.30834 11.488C4.41771 9.82938 5.06031 8.25053 6.1403 6.98694C7.22029 5.72335 8.67982 4.84272 10.3012 4.47639ZM20.7755 5.77502C21.0194 5.53082 21.0192 5.1351 20.775 4.89114C20.5308 4.64718 20.1351 4.64738 19.8911 4.89158L11.9997 12.7909L9.94191 10.733C9.69783 10.4889 9.3021 10.4889 9.05802 10.733C8.81394 10.9771 8.81394 11.3728 9.05802 11.6169L11.558 14.1169C11.6753 14.2342 11.8343 14.3 12.0001 14.3C12.1659 14.2999 12.3249 14.234 12.4421 14.1167L20.7755 5.77502Z" fill="black"/>
</svg>
