<svg width="24" height="24" viewBox="0 0 24 24" fill="none" xmlns="http://www.w3.org/2000/svg">
<g clip-path="url(#clip0_775_13823)">
<path fill-rule="evenodd" clip-rule="evenodd" d="M5.4301 5.4301C5.62545 5.23475 5.8904 5.125 6.16667 5.125H15.3333C15.6785 5.125 15.9583 4.84518 15.9583 4.5C15.9583 4.15482 15.6785 3.875 15.3333 3.875H6.16667C5.55888 3.875 4.97598 4.11644 4.54621 4.54621C4.11644 4.97598 3.875 5.55888 3.875 6.16667V17.8333C3.875 18.4411 4.11644 19.024 4.54621 19.4538C4.97598 19.8836 5.55888 20.125 6.16667 20.125H17.8333C18.4411 20.125 19.024 19.8836 19.4538 19.4538C19.8836 19.024 20.125 18.4411 20.125 17.8333V12C20.125 11.6548 19.8452 11.375 19.5 11.375C19.1548 11.375 18.875 11.6548 18.875 12V17.8333C18.875 18.1096 18.7653 18.3746 18.5699 18.5699C18.3746 18.7653 18.1096 18.875 17.8333 18.875H6.16667C5.8904 18.875 5.62545 18.7653 5.4301 18.5699C5.23475 18.3746 5.125 18.1096 5.125 17.8333V6.16667C5.125 5.8904 5.23475 5.62545 5.4301 5.4301ZM20.7753 5.77532C21.0194 5.53124 21.0194 5.13551 20.7753 4.89143C20.5312 4.64735 20.1355 4.64735 19.8914 4.89143L12 12.7828L9.94194 10.7248C9.69786 10.4807 9.30214 10.4807 9.05806 10.7248C8.81398 10.9688 8.81398 11.3646 9.05806 11.6086L11.5581 14.1086C11.8021 14.3527 12.1979 14.3527 12.4419 14.1086L20.7753 5.77532Z" fill="black"/>
</g>
<defs>
<clipPath id="clip0_775_13823">
<rect width="20" height="20" fill="white" transform="translate(2 2)"/>
</clipPath>
</defs>
</svg>
