<svg width="24" height="24" viewBox="0 0 24 24" fill="none" xmlns="http://www.w3.org/2000/svg">
<path fill-rule="evenodd" clip-rule="evenodd" d="M11.6086 8.27532C11.8527 8.03124 11.8527 7.63551 11.6086 7.39143C11.3645 7.14735 10.9688 7.14735 10.7247 7.39143L6.55806 11.5581C6.31398 11.8022 6.31398 12.1979 6.55806 12.442L10.7247 16.6086C10.9688 16.8527 11.3645 16.8527 11.6086 16.6086C11.8527 16.3646 11.8527 15.9688 11.6086 15.7248L7.88388 12L11.6086 8.27532ZM17.4419 8.27532C17.686 8.03124 17.686 7.63551 17.4419 7.39143C17.1979 7.14735 16.8021 7.14735 16.5581 7.39143L12.3914 11.5581C12.1473 11.8022 12.1473 12.1979 12.3914 12.442L16.5581 16.6086C16.8021 16.8527 17.1979 16.8527 17.4419 16.6086C17.686 16.3646 17.686 15.9688 17.4419 15.7248L13.7172 12L17.4419 8.27532Z" fill="black"/>
</svg>
