<svg width="24" height="24" viewBox="0 0 24 24" fill="none" xmlns="http://www.w3.org/2000/svg">
<path fill-rule="evenodd" clip-rule="evenodd" d="M7.44194 7.39143C7.19786 7.14735 6.80214 7.14735 6.55806 7.39143C6.31398 7.63551 6.31398 8.03124 6.55806 8.27532L10.2828 12L6.55806 15.7248C6.31398 15.9688 6.31398 16.3646 6.55806 16.6086C6.80214 16.8527 7.19786 16.8527 7.44194 16.6086L11.6086 12.442C11.8527 12.1979 11.8527 11.8022 11.6086 11.5581L7.44194 7.39143ZM13.2753 7.39143C13.0312 7.14735 12.6355 7.14735 12.3914 7.39143C12.1473 7.63551 12.1473 8.03124 12.3914 8.27532L16.1161 12L12.3914 15.7248C12.1473 15.9688 12.1473 16.3646 12.3914 16.6086C12.6355 16.8527 13.0312 16.8527 13.2753 16.6086L17.4419 12.442C17.686 12.1979 17.686 11.8022 17.4419 11.5581L13.2753 7.39143Z" fill="black"/>
</svg>
