<svg width="24" height="24" viewBox="0 0 24 24" fill="none" xmlns="http://www.w3.org/2000/svg">
<path fill-rule="evenodd" clip-rule="evenodd" d="M4.29163 12C4.29163 7.74276 7.74276 4.29163 12 4.29163C16.2572 4.29163 19.7083 7.74276 19.7083 12C19.7083 16.2572 16.2572 19.7083 12 19.7083C7.74276 19.7083 4.29163 16.2572 4.29163 12ZM12 3.04163C7.05241 3.04163 3.04163 7.05241 3.04163 12C3.04163 16.9475 7.05241 20.9583 12 20.9583C16.9475 20.9583 20.9583 16.9475 20.9583 12C20.9583 7.05241 16.9475 3.04163 12 3.04163ZM12.625 6.99996C12.625 6.65478 12.3451 6.37496 12 6.37496C11.6548 6.37496 11.375 6.65478 11.375 6.99996V12C11.375 12.2367 11.5087 12.4531 11.7205 12.559L15.0538 14.2256C15.3625 14.38 15.7379 14.2549 15.8923 13.9461C16.0467 13.6374 15.9215 13.262 15.6128 13.1076L12.625 11.6137V6.99996Z" fill="black"/>
</svg>
