<svg width="24" height="24" viewBox="0 0 24 24" fill="none" xmlns="http://www.w3.org/2000/svg">
<path fill-rule="evenodd" clip-rule="evenodd" d="M8.75637 3.07938C9.90592 2.96233 11.0668 3.12015 12.1434 3.53983C13.22 3.95952 14.1814 4.62905 14.9485 5.49325C15.6072 6.23539 16.1063 7.10285 16.4171 8.04163H16.9999H17.0007C18.1005 8.04292 19.1664 8.42253 20.0195 9.11672C20.8725 9.81092 21.4608 10.7774 21.6856 11.8541C21.9103 12.9307 21.7579 14.0518 21.2538 15.0294C20.7498 16.0069 19.9248 16.7812 18.9173 17.2225C18.6012 17.3609 18.2326 17.2169 18.0941 16.9007C17.9556 16.5845 18.0997 16.2159 18.4159 16.0775C19.1605 15.7513 19.7703 15.179 20.1429 14.4565C20.5154 13.734 20.6281 12.9053 20.462 12.1095C20.2958 11.3138 19.861 10.5994 19.2305 10.0863C18.6001 9.57325 17.8124 9.29268 16.9996 9.29163L16.9992 9.29163L15.9499 9.29163C15.665 9.29163 15.4161 9.09884 15.3448 8.8229C15.1054 7.8959 14.6491 7.03906 14.0136 6.32301C13.3781 5.60696 12.5814 5.05221 11.6894 4.70447C10.7974 4.35673 9.83548 4.22596 8.883 4.32295C7.93051 4.41994 7.01471 4.74191 6.21108 5.26231C5.40745 5.78271 4.739 6.48665 4.26084 7.31611C3.78267 8.14557 3.50847 9.07678 3.46085 10.033C3.41323 10.9892 3.59354 11.9431 3.98692 12.816C4.38031 13.6888 4.9755 14.4557 5.72344 15.0534C5.9931 15.2689 6.03702 15.6621 5.82154 15.9318C5.60606 16.2015 5.21277 16.2454 4.94312 16.0299C4.04042 15.3086 3.32209 14.383 2.84731 13.3296C2.37254 12.2761 2.15492 11.1249 2.2124 9.97083C2.26987 8.81677 2.6008 7.69288 3.1779 6.69181C3.755 5.69075 4.56174 4.84116 5.53164 4.21309C6.50154 3.58502 7.60681 3.19644 8.75637 3.07938ZM8.04161 15.3333C8.04161 14.9881 8.32144 14.7083 8.66661 14.7083H8.67495C9.02012 14.7083 9.29995 14.9881 9.29995 15.3333C9.29995 15.6785 9.02012 15.9583 8.67495 15.9583H8.66661C8.32144 15.9583 8.04161 15.6785 8.04161 15.3333ZM8.66661 18.0416C8.32144 18.0416 8.04161 18.3215 8.04161 18.6666C8.04161 19.0118 8.32144 19.2916 8.66661 19.2916H8.67495C9.02012 19.2916 9.29995 19.0118 9.29995 18.6666C9.29995 18.3215 9.02012 18.0416 8.67495 18.0416H8.66661ZM11.3749 17C11.3749 16.6548 11.6548 16.375 11.9999 16.375H12.0083C12.3535 16.375 12.6333 16.6548 12.6333 17C12.6333 17.3451 12.3535 17.625 12.0083 17.625H11.9999C11.6548 17.625 11.3749 17.3451 11.3749 17ZM11.9999 19.7083C11.6548 19.7083 11.3749 19.9881 11.3749 20.3333C11.3749 20.6785 11.6548 20.9583 11.9999 20.9583H12.0083C12.3535 20.9583 12.6333 20.6785 12.6333 20.3333C12.6333 19.9881 12.3535 19.7083 12.0083 19.7083H11.9999ZM14.7083 15.3333C14.7083 14.9881 14.9881 14.7083 15.3333 14.7083H15.3416C15.6868 14.7083 15.9666 14.9881 15.9666 15.3333C15.9666 15.6785 15.6868 15.9583 15.3416 15.9583H15.3333C14.9881 15.9583 14.7083 15.6785 14.7083 15.3333ZM15.3333 18.0416C14.9881 18.0416 14.7083 18.3215 14.7083 18.6666C14.7083 19.0118 14.9881 19.2916 15.3333 19.2916H15.3416C15.6868 19.2916 15.9666 19.0118 15.9666 18.6666C15.9666 18.3215 15.6868 18.0416 15.3416 18.0416H15.3333Z" fill="black"/>
</svg>
