<svg width="24" height="24" viewBox="0 0 24 24" fill="none" xmlns="http://www.w3.org/2000/svg">
<g clip-path="url(#clip0_775_13679)">
<path fill-rule="evenodd" clip-rule="evenodd" d="M6.96357 5.16191C8.24275 4.68836 9.62911 4.5831 10.9651 4.8581C12.3011 5.13311 13.5332 5.77733 14.5214 6.71759C15.3913 7.5453 16.0414 8.5732 16.4172 9.70837H17C18.2708 9.70837 19.4896 10.2132 20.3882 11.1118C21.2868 12.0104 21.7917 13.2292 21.7917 14.5C21.7917 15.7709 21.2868 16.9896 20.3882 17.8883C19.4896 18.7869 18.2708 19.2917 17 19.2917H9.50048M10.7131 6.08244C9.60612 5.85458 8.45743 5.94179 7.39754 6.33416C6.33765 6.72653 5.40906 7.40833 4.7173 8.30207C4.02554 9.19582 3.59834 10.2657 3.48424 11.3901C3.37014 12.5145 3.57372 13.6484 4.07184 14.6629C4.56997 15.6774 5.34266 16.5318 6.30213 17.1291C7.2616 17.7264 8.36936 18.0426 9.49954 18.0417H17C17.9393 18.0417 18.8402 17.6686 19.5043 17.0044C20.1685 16.3402 20.5417 15.4393 20.5417 14.5C20.5417 13.5607 20.1685 12.6599 19.5043 11.9957C18.8402 11.3315 17.9393 10.9584 17 10.9584H15.95C15.665 10.9584 15.4161 10.7656 15.3449 10.4896C15.0623 9.39533 14.4785 8.40222 13.6597 7.62315C12.841 6.84408 11.8201 6.31029 10.7131 6.08244Z" fill="black"/>
</g>
<defs>
<clipPath id="clip0_775_13679">
<rect width="20" height="20" fill="white" transform="translate(2 2)"/>
</clipPath>
</defs>
</svg>
