<svg width="24" height="24" viewBox="0 0 24 24" fill="none" xmlns="http://www.w3.org/2000/svg">
<path fill-rule="evenodd" clip-rule="evenodd" d="M3.27531 2.39143C3.03123 2.14735 2.6355 2.14735 2.39143 2.39143C2.14735 2.63551 2.14735 3.03124 2.39143 3.27532L5.17142 6.05532C4.07708 6.83226 3.21375 7.89973 2.68382 9.14427C2.04651 10.641 1.928 12.3079 2.34716 13.8797C2.76631 15.4515 3.69905 16.8381 4.997 17.8187C6.29358 18.7983 7.8802 19.3167 9.50496 19.2917H17H17.0008C17.4207 19.2912 17.8382 19.2355 18.2426 19.1265L20.7248 21.6086C20.9688 21.8527 21.3646 21.8527 21.6086 21.6086C21.8527 21.3646 21.8527 20.9688 21.6086 20.7248L18.8685 17.9847C18.8623 17.9781 18.8559 17.9717 18.8493 17.9655L6.61844 5.73456C6.6119 5.72772 6.60523 5.72105 6.59842 5.71455L3.27531 2.39143ZM6.07062 6.95451C5.08056 7.60624 4.30095 8.53711 3.8339 9.63398C3.30584 10.8741 3.20765 12.2552 3.55495 13.5576C3.90225 14.86 4.6751 16.0088 5.75054 16.8214C6.82598 17.6339 8.14225 18.0635 9.48996 18.0418L9.50003 18.0416V18.0417H16.9993C17.051 18.0416 17.1027 18.0405 17.1542 18.0381L6.07062 6.95451ZM10.13 4.7108C9.78619 4.68043 9.48283 4.93454 9.45246 5.27838L16.2624 9.27558C16.3191 9.41792 16.3714 9.56225 16.4191 9.70837L16.9993 9.70837L16.9997 9.70837L16.2624 9.27558C15.8243 8.17589 15.123 7.19467 14.2143 6.42129C13.0631 5.44154 11.6358 4.84381 10.13 4.7108Z" fill="black"/>
</svg>
