<svg width="24" height="24" viewBox="0 0 24 24" fill="none" xmlns="http://www.w3.org/2000/svg">
<path fill-rule="evenodd" clip-rule="evenodd" d="M12 3.04333C11.5982 3.04333 11.2035 3.14896 10.8554 3.34962L10.8541 3.35036L8.16022 4.88975C8.00716 4.91206 7.86359 4.99076 7.76251 5.11701L5.02323 6.68231L5.02323 6.6823L5.02082 6.68369C4.73293 6.8499 4.48539 7.07632 4.2946 7.34653C4.25218 7.38682 4.21476 7.4338 4.18398 7.48701C4.15708 7.5335 4.13684 7.58202 4.12297 7.63146C3.96057 7.95155 3.87535 8.30589 3.87498 8.66598L3.87498 8.66663V11.988C3.87484 11.9956 3.87484 12.0032 3.87498 12.0108V15.3333L3.87498 15.3339C3.87539 15.7358 3.98148 16.1305 4.18259 16.4784C4.38371 16.8264 4.67278 17.1153 5.02082 17.3162L5.02323 17.3176L7.76266 18.883C7.85952 19.0034 8.00012 19.0872 8.16035 19.1102L10.8541 20.6496L10.8555 20.6504C11.1087 20.7963 11.3866 20.892 11.6739 20.9333C11.7688 20.9914 11.8805 21.025 12 21.025C12.1195 21.025 12.2311 20.9914 12.326 20.9333C12.6133 20.892 12.8912 20.7963 13.1444 20.6504L13.1458 20.6496L15.8396 19.1102C15.9998 19.0872 16.1404 19.0034 16.2373 18.883L18.9767 17.3176L18.9791 17.3162C19.3272 17.1153 19.6163 16.8264 19.8174 16.4784C20.0185 16.1305 20.1246 15.7358 20.125 15.3339L20.125 15.3333V12.0107C20.1251 12.0032 20.1251 11.9956 20.125 11.988V8.66663L20.125 8.66598C20.1246 8.30589 20.0394 7.95155 19.877 7.63146C19.8631 7.58202 19.8429 7.5335 19.816 7.48701C19.7852 7.4338 19.7478 7.38682 19.7054 7.34653C19.5146 7.07632 19.267 6.8499 18.9792 6.68369L18.9767 6.68231L16.2375 5.11701C16.1364 4.99076 15.9928 4.91206 15.8397 4.88975L13.1458 3.35036L13.1445 3.34959C12.7964 3.14895 12.4017 3.04333 12 3.04333ZM12.625 19.5075L15.125 18.0789V14.1666C15.125 13.9434 15.244 13.7371 15.4373 13.6255L18.875 11.6392V8.75338L12.625 12.3688V19.5075ZM11.375 12.3688L5.12498 8.75338V11.6392L8.56266 13.6255C8.75593 13.7371 8.87498 13.9434 8.87498 14.1666V18.0789L11.375 19.5075V12.3688ZM12 11.2863L18.2188 7.68888L15.7082 6.25426L12.3127 8.21612C12.1192 8.3279 11.8808 8.3279 11.6873 8.21612L8.29177 6.25426L5.78116 7.68888L12 11.2863ZM16.375 17.3646L18.3541 16.2337L18.3552 16.2331C18.5129 16.1418 18.6439 16.0107 18.7352 15.8529C18.8266 15.6947 18.8748 15.5153 18.875 15.3327V13.0829L16.375 14.5273V17.3646ZM5.12498 15.333V13.0829L7.62498 14.5273V17.3646L5.64582 16.2337L5.64479 16.2331C5.48705 16.1418 5.35602 16.0107 5.26481 15.8529C5.17344 15.6948 5.12522 15.5155 5.12498 15.333ZM14.452 5.53642L12.5232 4.43428L12.5208 4.43289C12.3625 4.34147 12.1828 4.29333 12 4.29333C11.8171 4.29333 11.6375 4.34147 11.4791 4.43289L11.4767 4.43428L11.4767 4.43428L9.54798 5.53642L12 6.95314L14.452 5.53642Z" fill="black"/>
</svg>
