<svg width="24" height="24" viewBox="0 0 24 24" fill="none" xmlns="http://www.w3.org/2000/svg">
<g clip-path="url(#clip0_775_13689)">
<path fill-rule="evenodd" clip-rule="evenodd" d="M4.54621 4.54621C4.97598 4.11644 5.55888 3.875 6.16667 3.875H17.8333C18.4411 3.875 19.024 4.11644 19.4538 4.54621C19.8836 4.97598 20.125 5.55888 20.125 6.16667V17.8333C20.125 18.4411 19.8836 19.024 19.4538 19.4538C19.024 19.8836 18.4411 20.125 17.8333 20.125H6.16667C5.55888 20.125 4.97598 19.8836 4.54621 19.4538C4.11644 19.024 3.875 18.4411 3.875 17.8333V6.16667C3.875 5.55888 4.11644 4.97598 4.54621 4.54621ZM6.16667 5.125C5.8904 5.125 5.62545 5.23475 5.4301 5.4301C5.23475 5.62545 5.125 5.8904 5.125 6.16667V17.8333C5.125 18.1096 5.23475 18.3746 5.4301 18.5699C5.62545 18.7653 5.8904 18.875 6.16667 18.875H11.375V5.125H6.16667ZM12.625 5.125V18.875H17.8333C18.1096 18.875 18.3746 18.7653 18.5699 18.5699C18.7653 18.3746 18.875 18.1096 18.875 17.8333V6.16667C18.875 5.8904 18.7653 5.62545 18.5699 5.4301C18.3746 5.23475 18.1096 5.125 17.8333 5.125H12.625Z" fill="black"/>
</g>
<defs>
<clipPath id="clip0_775_13689">
<rect width="20" height="20" fill="white" transform="translate(2 2)"/>
</clipPath>
</defs>
</svg>
