<svg width="24" height="24" viewBox="0 0 24 24" fill="none" xmlns="http://www.w3.org/2000/svg">
<g clip-path="url(#clip0_775_13691)">
<path fill-rule="evenodd" clip-rule="evenodd" d="M4.79029 4.79029C5.37634 4.20424 6.1712 3.875 7 3.875C7.8288 3.875 8.62366 4.20424 9.20971 4.79029C9.79576 5.37634 10.125 6.1712 10.125 7V8.875H13.875V7C13.875 6.1712 14.2042 5.37634 14.7903 4.79029C15.3763 4.20424 16.1712 3.875 17 3.875C17.8288 3.875 18.6237 4.20424 19.2097 4.79029C19.7958 5.37634 20.125 6.1712 20.125 7C20.125 7.8288 19.7958 8.62366 19.2097 9.20971C18.6237 9.79576 17.8288 10.125 17 10.125H15.125V13.875H17C17.8288 13.875 18.6237 14.2042 19.2097 14.7903C19.7958 15.3763 20.125 16.1712 20.125 17C20.125 17.8288 19.7958 18.6237 19.2097 19.2097C18.6237 19.7958 17.8288 20.125 17 20.125C16.1712 20.125 15.3763 19.7958 14.7903 19.2097C14.2042 18.6237 13.875 17.8288 13.875 17V15.125H10.125V17C10.125 17.8288 9.79576 18.6237 9.20971 19.2097C8.62366 19.7958 7.8288 20.125 7 20.125C6.1712 20.125 5.37634 19.7958 4.79029 19.2097C4.20424 18.6237 3.875 17.8288 3.875 17C3.875 16.1712 4.20424 15.3763 4.79029 14.7903C5.37634 14.2042 6.1712 13.875 7 13.875H8.875V10.125H7C6.1712 10.125 5.37634 9.79576 4.79029 9.20971C4.20424 8.62366 3.875 7.8288 3.875 7C3.875 6.1712 4.20424 5.37634 4.79029 4.79029ZM8.875 8.875V7C8.875 6.50272 8.67746 6.02581 8.32583 5.67417C7.9742 5.32254 7.49728 5.125 7 5.125C6.50272 5.125 6.02581 5.32254 5.67417 5.67417C5.32254 6.02581 5.125 6.50272 5.125 7C5.125 7.49728 5.32254 7.9742 5.67417 8.32583C6.02581 8.67746 6.50272 8.875 7 8.875H8.875ZM10.125 10.125V13.875H13.875V10.125H10.125ZM8.875 15.125H7C6.50272 15.125 6.02581 15.3225 5.67417 15.6742C5.32254 16.0258 5.125 16.5027 5.125 17C5.125 17.4973 5.32254 17.9742 5.67417 18.3258C6.02581 18.6775 6.50272 18.875 7 18.875C7.49728 18.875 7.9742 18.6775 8.32583 18.3258C8.67746 17.9742 8.875 17.4973 8.875 17V15.125ZM15.125 15.125V17C15.125 17.4973 15.3225 17.9742 15.6742 18.3258C16.0258 18.6775 16.5027 18.875 17 18.875C17.4973 18.875 17.9742 18.6775 18.3258 18.3258C18.6775 17.9742 18.875 17.4973 18.875 17C18.875 16.5027 18.6775 16.0258 18.3258 15.6742C17.9742 15.3225 17.4973 15.125 17 15.125H15.125ZM15.125 8.875H17C17.4973 8.875 17.9742 8.67746 18.3258 8.32583C18.6775 7.9742 18.875 7.49728 18.875 7C18.875 6.50272 18.6775 6.02581 18.3258 5.67417C17.9742 5.32254 17.4973 5.125 17 5.125C16.5027 5.125 16.0258 5.32254 15.6742 5.67417C15.3225 6.02581 15.125 6.50272 15.125 7V8.875Z" fill="black"/>
</g>
<defs>
<clipPath id="clip0_775_13691">
<rect width="20" height="20" fill="white" transform="translate(2 2)"/>
</clipPath>
</defs>
</svg>
