<svg width="24" height="24" viewBox="0 0 24 24" fill="none" xmlns="http://www.w3.org/2000/svg">
<path fill-rule="evenodd" clip-rule="evenodd" d="M4.29163 12C4.29163 7.74276 7.74276 4.29163 12 4.29163C16.2572 4.29163 19.7083 7.74276 19.7083 12C19.7083 16.2572 16.2572 19.7083 12 19.7083C7.74276 19.7083 4.29163 16.2572 4.29163 12ZM12 3.04163C7.05241 3.04163 3.04163 7.05241 3.04163 12C3.04163 16.9475 7.05241 20.9583 12 20.9583C16.9475 20.9583 20.9583 16.9475 20.9583 12C20.9583 7.05241 16.9475 3.04163 12 3.04163ZM16.1262 8.66427C16.2011 8.43968 16.1426 8.19208 15.9752 8.02468C15.8078 7.85729 15.5602 7.79884 15.3356 7.8737L10.0357 9.64037C9.84902 9.70257 9.70257 9.84902 9.64037 10.0357L7.8737 15.3356C7.79884 15.5602 7.85729 15.8078 8.02468 15.9752C8.19208 16.1426 8.43968 16.2011 8.66427 16.1262L13.9643 14.3596C14.1509 14.2973 14.2973 14.1509 14.3596 13.9643L16.1262 8.66427ZM9.45484 14.5451L10.7274 10.7274L14.5451 9.45484L13.2725 13.2725L9.45484 14.5451Z" fill="black"/>
</svg>
