<svg width="24" height="24" viewBox="0 0 24 24" fill="none" xmlns="http://www.w3.org/2000/svg">
<g clip-path="url(#clip0_775_13678)">
<g clip-path="url(#clip1_775_13678)">
<path fill-rule="evenodd" clip-rule="evenodd" d="M12.8333 19.2916C11.7835 19.2916 10.7767 18.8746 10.0344 18.1323C9.29204 17.3899 8.875 16.3831 8.875 15.3333V6.84226L5.77532 9.94194C5.53124 10.186 5.13551 10.186 4.89143 9.94194C4.64735 9.69786 4.64735 9.30214 4.89143 9.05806L9.0521 4.89739C9.16564 4.78074 9.32436 4.70829 9.5 4.70829C9.59335 4.70829 9.68193 4.72876 9.76148 4.76545C9.82686 4.79554 9.88811 4.83752 9.94198 4.89139L14.1086 9.05806C14.3527 9.30214 14.3527 9.69786 14.1086 9.94194C13.8646 10.186 13.4688 10.186 13.2248 9.94194L10.125 6.84218V15.3333C10.125 16.0516 10.4103 16.7405 10.9183 17.2484C11.4262 17.7563 12.115 18.0416 12.8333 18.0416H18.6667C19.0118 18.0416 19.2917 18.3214 19.2917 18.6666C19.2917 19.0118 19.0118 19.2916 18.6667 19.2916H12.8333Z" fill="black"/>
</g>
</g>
<defs>
<clipPath id="clip0_775_13678">
<rect width="20" height="20" fill="white" transform="translate(2 2)"/>
</clipPath>
<clipPath id="clip1_775_13678">
<rect width="20" height="20" fill="white" transform="matrix(1 0 0 -1 2 22)"/>
</clipPath>
</defs>
</svg>
