<svg width="24" height="24" viewBox="0 0 24 24" fill="none" xmlns="http://www.w3.org/2000/svg">
<g clip-path="url(#clip0_775_13682)">
<path fill-rule="evenodd" clip-rule="evenodd" d="M14.7393 4.7558C14.6656 4.72524 14.5848 4.70837 14.5 4.70837C14.4153 4.70837 14.3345 4.72524 14.2608 4.7558C14.1888 4.7856 14.1212 4.82946 14.0622 4.88737M14.0575 4.89199L9.89143 9.0581C9.64735 9.30218 9.64735 9.6979 9.89143 9.94198C10.1355 10.1861 10.5312 10.1861 10.7753 9.94198L13.875 6.84226V15.3334C13.875 16.0517 13.5897 16.7405 13.0818 17.2485C12.5739 17.7564 11.885 18.0417 11.1667 18.0417H5.33337C4.9882 18.0417 4.70837 18.3215 4.70837 18.6667C4.70837 19.0119 4.9882 19.2917 5.33337 19.2917H11.1667C12.2165 19.2917 13.2233 18.8747 13.9657 18.1323C14.708 17.39 15.125 16.3832 15.125 15.3334V6.84226L18.2248 9.94198C18.4688 10.1861 18.8646 10.1861 19.1086 9.94198C19.3527 9.6979 19.3527 9.30218 19.1086 9.0581L14.942 4.89143C14.8821 4.83151 14.813 4.7863 14.7393 4.7558" fill="black"/>
</g>
<defs>
<clipPath id="clip0_775_13682">
<rect width="20" height="20" fill="white" transform="translate(2 2)"/>
</clipPath>
</defs>
</svg>
