<svg width="24" height="24" viewBox="0 0 24 24" fill="none" xmlns="http://www.w3.org/2000/svg">
<g clip-path="url(#clip0_775_13699)">
<path fill-rule="evenodd" clip-rule="evenodd" d="M5.95837 5.33337C5.95837 4.9882 5.67855 4.70837 5.33337 4.70837C4.9882 4.70837 4.70837 4.9882 4.70837 5.33337V11.1667C4.70837 12.2165 5.12541 13.2233 5.86774 13.9657C6.61007 14.708 7.61689 15.125 8.66671 15.125H17.1578L14.0581 18.2248C13.814 18.4688 13.814 18.8646 14.0581 19.1086C14.3021 19.3527 14.6979 19.3527 14.9419 19.1086L19.1044 14.9462C19.1225 14.9285 19.1394 14.9097 19.1552 14.8899C19.1824 14.8559 19.2055 14.8198 19.2246 14.7822C19.2675 14.6974 19.2917 14.6016 19.2917 14.5C19.2917 14.3526 19.2406 14.2171 19.1552 14.1102C19.1394 14.0904 19.1224 14.0716 19.1044 14.0538L14.9419 9.89143C14.6979 9.64735 14.3021 9.64735 14.0581 9.89143C13.814 10.1355 13.814 10.5312 14.0581 10.7753L17.1578 13.875H8.66671C7.94841 13.875 7.25954 13.5897 6.75163 13.0818C6.24372 12.5739 5.95837 11.885 5.95837 11.1667V5.33337Z" fill="black"/>
</g>
<defs>
<clipPath id="clip0_775_13699">
<rect width="20" height="20" fill="white" transform="translate(2 2)"/>
</clipPath>
</defs>
</svg>
