<svg width="24" height="24" viewBox="0 0 24 24" fill="none" xmlns="http://www.w3.org/2000/svg">
<path fill-rule="evenodd" clip-rule="evenodd" d="M9.50004 2.20837C9.84522 2.20837 10.125 2.4882 10.125 2.83337V4.70837H13.875V2.83337C13.875 2.4882 14.1549 2.20837 14.5 2.20837C14.8452 2.20837 15.125 2.4882 15.125 2.83337V4.70837H17C18.2657 4.70837 19.2917 5.73439 19.2917 7.00004V8.87504H21.1667C21.5119 8.87504 21.7917 9.15486 21.7917 9.50004C21.7917 9.84522 21.5119 10.125 21.1667 10.125H19.2917V13.0417H21.1667C21.5119 13.0417 21.7917 13.3215 21.7917 13.6667C21.7917 14.0119 21.5119 14.2917 21.1667 14.2917H19.2917V17C19.2917 18.2657 18.2657 19.2917 17 19.2917H15.125V21.1667C15.125 21.5119 14.8452 21.7917 14.5 21.7917C14.1549 21.7917 13.875 21.5119 13.875 21.1667V19.2917H10.125V21.1667C10.125 21.5119 9.84522 21.7917 9.50004 21.7917C9.15486 21.7917 8.87504 21.5119 8.87504 21.1667V19.2917H7.00004C5.73439 19.2917 4.70837 18.2657 4.70837 17V14.2917H2.83337C2.4882 14.2917 2.20837 14.0119 2.20837 13.6667C2.20837 13.3215 2.4882 13.0417 2.83337 13.0417H4.70837V10.125H2.83337C2.4882 10.125 2.20837 9.84522 2.20837 9.50004C2.20837 9.15486 2.4882 8.87504 2.83337 8.87504H4.70837V7.00004C4.70837 5.73439 5.73439 4.70837 7.00004 4.70837H8.87504V2.83337C8.87504 2.4882 9.15486 2.20837 9.50004 2.20837ZM5.95837 13.6667V17C5.95837 17.5753 6.42474 18.0417 7.00004 18.0417H9.49894L9.50004 18.0417L9.50114 18.0417H14.4989L14.5 18.0417L14.5011 18.0417H17C17.5753 18.0417 18.0417 17.5753 18.0417 17V13.6678L18.0417 13.6667L18.0417 13.6656V9.50114L18.0417 9.50004L18.0417 9.49894V7.00004C18.0417 6.42474 17.5753 5.95837 17 5.95837H14.5H9.50004H7.00004C6.42474 5.95837 5.95837 6.42474 5.95837 7.00004V9.50004V13.6667ZM9.50004 8.87504C9.15486 8.87504 8.87504 9.15486 8.87504 9.50004V14.5C8.87504 14.8452 9.15486 15.125 9.50004 15.125H14.5C14.8452 15.125 15.125 14.8452 15.125 14.5V9.50004C15.125 9.15486 14.8452 8.87504 14.5 8.87504H9.50004ZM10.125 13.875V10.125H13.875V13.875H10.125Z" fill="black"/>
</svg>
