<svg width="24" height="24" viewBox="0 0 24 24" fill="none" xmlns="http://www.w3.org/2000/svg">
<path fill-rule="evenodd" clip-rule="evenodd" d="M3.45837 7.00004C3.45837 6.42474 3.92474 5.95837 4.50004 5.95837H19.5C20.0753 5.95837 20.5417 6.42474 20.5417 7.00004V9.70837H3.45837V7.00004ZM2.20837 10.3334V7.00004C2.20837 5.73439 3.23439 4.70837 4.50004 4.70837H19.5C20.7657 4.70837 21.7917 5.73439 21.7917 7.00004V10.3334V17C21.7917 18.2657 20.7657 19.2917 19.5 19.2917H4.50004C3.23439 19.2917 2.20837 18.2657 2.20837 17V10.3334ZM20.5417 10.9584V17C20.5417 17.5753 20.0753 18.0417 19.5 18.0417H4.50004C3.92474 18.0417 3.45837 17.5753 3.45837 17V10.9584H20.5417Z" fill="black"/>
</svg>
