<svg width="24" height="24" viewBox="0 0 24 24" fill="none" xmlns="http://www.w3.org/2000/svg">
<g clip-path="url(#clip0_775_13935)">
<path d="M8.66663 16.1666L12 19.5L15.3333 16.1666" stroke="black" stroke-width="1.25" stroke-linecap="round" stroke-linejoin="round"/>
<path d="M12 12V19.5" stroke="black" stroke-width="1.25" stroke-linecap="round" stroke-linejoin="round"/>
<path d="M19.3999 17.0749C20.1244 16.5655 20.6677 15.8384 20.951 14.9992C21.2343 14.1601 21.2428 13.2525 20.9753 12.4081C20.7078 11.5638 20.1782 10.8267 19.4633 10.3037C18.7485 9.7808 17.8856 9.49925 16.9999 9.49994H15.9499C15.6993 8.52317 15.2304 7.61598 14.5784 6.84668C13.9264 6.07737 13.1084 5.46599 12.186 5.05857C11.2635 4.65115 10.2606 4.4583 9.25288 4.49454C8.24512 4.53078 7.2587 4.79517 6.3679 5.2678C5.47711 5.74043 4.70513 6.40898 4.1101 7.22314C3.51507 8.03729 3.11249 8.97582 2.93266 9.96807C2.75284 10.9603 2.80045 11.9804 3.07193 12.9516C3.3434 13.9228 3.83166 14.8198 4.49994 15.5749" stroke="black" stroke-width="1.25" stroke-linecap="round" stroke-linejoin="round"/>
</g>
<defs>
<clipPath id="clip0_775_13935">
<rect width="20" height="20" fill="white" transform="translate(2 2)"/>
</clipPath>
</defs>
</svg>
