<svg width="24" height="24" viewBox="0 0 24 24" fill="none" xmlns="http://www.w3.org/2000/svg">
<path fill-rule="evenodd" clip-rule="evenodd" d="M12.625 4.5C12.625 4.15482 12.3452 3.875 12 3.875C11.6548 3.875 11.375 4.15482 11.375 4.5V12.9911L8.27528 9.89139C8.0312 9.64731 7.63547 9.64731 7.39139 9.89139C7.14731 10.1355 7.14731 10.5312 7.39139 10.7753L11.5581 14.9419C11.618 15.0019 11.687 15.0471 11.7608 15.0776C11.8345 15.1081 11.9153 15.125 12 15.125C12.0847 15.125 12.1655 15.1081 12.2392 15.0776C12.3113 15.0478 12.3789 15.0039 12.4378 14.946M12.4425 14.9414L16.6086 10.7753C16.8527 10.5312 16.8527 10.1355 16.6086 9.89139C16.3645 9.64731 15.9688 9.64731 15.7247 9.89139L12.625 12.9911V4.5M4.5 13.875C4.84518 13.875 5.125 14.1548 5.125 14.5V17.8333C5.125 18.1096 5.23475 18.3746 5.4301 18.5699C5.62545 18.7653 5.8904 18.875 6.16667 18.875H17.8333C18.1096 18.875 18.3746 18.7653 18.5699 18.5699C18.7653 18.3746 18.875 18.1096 18.875 17.8333V14.5C18.875 14.1548 19.1548 13.875 19.5 13.875C19.8452 13.875 20.125 14.1548 20.125 14.5V17.8333C20.125 18.4411 19.8836 19.024 19.4538 19.4538C19.024 19.8836 18.4411 20.125 17.8333 20.125H6.16667C5.55888 20.125 4.97598 19.8836 4.54621 19.4538C4.11644 19.024 3.875 18.4411 3.875 17.8333V14.5C3.875 14.1548 4.15482 13.875 4.5 13.875Z" fill="black"/>
</svg>
