<svg width="24" height="24" viewBox="0 0 24 24" fill="none" xmlns="http://www.w3.org/2000/svg">
<g clip-path="url(#clip0_775_13947)">
<path fill-rule="evenodd" clip-rule="evenodd" d="M17.8333 4.43469C17.6059 4.43469 17.3806 4.47949 17.1705 4.56653C16.9604 4.65358 16.7694 4.78116 16.6086 4.94199L5.47595 16.0746L4.5574 19.4426L7.9254 18.5241L19.058 7.39144C19.2189 7.23061 19.3464 7.03967 19.4335 6.82953C19.5205 6.61939 19.5653 6.39417 19.5653 6.16671C19.5653 5.93926 19.5205 5.71404 19.4335 5.5039C19.3464 5.29376 19.2189 5.10282 19.058 4.94199C18.8972 4.78116 18.7063 4.65358 18.4961 4.56653C18.286 4.47949 18.0608 4.43469 17.8333 4.43469ZM16.6921 3.41169C17.0539 3.26182 17.4417 3.18469 17.8333 3.18469C18.2249 3.18469 18.6127 3.26182 18.9745 3.41169C19.3363 3.56155 19.665 3.7812 19.9419 4.05811C20.2188 4.33501 20.4385 4.66375 20.5883 5.02554C20.7382 5.38734 20.8153 5.77511 20.8153 6.16671C20.8153 6.55832 20.7382 6.94609 20.5883 7.30789C20.4385 7.66968 20.2188 7.99842 19.9419 8.27532L8.69192 19.5253C8.61501 19.6022 8.51936 19.6577 8.41442 19.6864L3.83109 20.9364C3.61471 20.9954 3.38329 20.9339 3.2247 20.7753C3.0661 20.6167 3.00465 20.3853 3.06366 20.1689L4.31366 15.5856C4.34228 15.4807 4.39779 15.385 4.4747 15.3081L15.7247 4.05811C16.0016 3.7812 16.3303 3.56155 16.6921 3.41169Z" fill="black"/>
</g>
<defs>
<clipPath id="clip0_775_13947">
<rect width="20" height="20" fill="white" transform="translate(2 2)"/>
</clipPath>
</defs>
</svg>
