<svg width="24" height="24" viewBox="0 0 24 24" fill="none" xmlns="http://www.w3.org/2000/svg">
<path fill-rule="evenodd" clip-rule="evenodd" d="M16.192 5.35863C16.4063 5.14432 16.6969 5.02393 17 5.02393C17.1501 5.02393 17.2987 5.05348 17.4373 5.11091C17.576 5.16834 17.702 5.25252 17.8081 5.35863C17.9142 5.46475 17.9984 5.59073 18.0558 5.72937C18.1132 5.86802 18.1428 6.01662 18.1428 6.16669C18.1428 6.31676 18.1132 6.46536 18.0558 6.60401C17.9984 6.74266 17.9142 6.86863 17.8081 6.97475L7.51382 17.269L5.35899 17.8077L5.8977 15.6529L16.192 5.35863ZM17 3.77393C16.3654 3.77393 15.7568 4.02602 15.3081 4.47475L4.8914 14.8914C4.81131 14.9715 4.75448 15.0719 4.72701 15.1818L3.89367 18.5151C3.84043 18.7281 3.90283 18.9534 4.05807 19.1086C4.21331 19.2639 4.43861 19.3263 4.6516 19.273L7.98493 18.4397C8.09483 18.4122 8.19519 18.3554 8.27529 18.2753L18.692 7.85863C18.9141 7.63645 19.0904 7.37267 19.2106 7.08237C19.3309 6.79206 19.3928 6.48092 19.3928 6.16669C19.3928 5.85247 19.3309 5.54132 19.2106 5.25102C19.0904 4.96072 18.9141 4.69694 18.692 4.47475C18.4698 4.25256 18.206 4.07631 17.9157 3.95606C17.6254 3.83582 17.3142 3.77393 17 3.77393ZM12 18.0417C11.6548 18.0417 11.375 18.3215 11.375 18.6667C11.375 19.0119 11.6548 19.2917 12 19.2917H19.5C19.8452 19.2917 20.125 19.0119 20.125 18.6667C20.125 18.3215 19.8452 18.0417 19.5 18.0417H12Z" fill="black"/>
</svg>
