<svg width="24" height="24" viewBox="0 0 24 24" fill="none" xmlns="http://www.w3.org/2000/svg">
<path fill-rule="evenodd" clip-rule="evenodd" d="M14.5 5.125C14.1548 5.125 13.875 4.84518 13.875 4.5C13.875 4.15482 14.1548 3.875 14.5 3.875H19.5C19.5847 3.875 19.6655 3.89187 19.7392 3.92242C19.81 3.95171 19.8765 3.99456 19.9347 4.05098C19.9396 4.05566 19.9443 4.06042 19.949 4.06525C20.0054 4.12348 20.0483 4.18998 20.0776 4.26076C20.1042 4.32507 20.1205 4.3948 20.1242 4.46784C20.1247 4.47849 20.125 4.48921 20.125 4.5V9.5C20.125 9.84518 19.8452 10.125 19.5 10.125C19.1548 10.125 18.875 9.84518 18.875 9.5V6.00888L10.7753 14.1086C10.5312 14.3527 10.1355 14.3527 9.89139 14.1086C9.64731 13.8645 9.64731 13.4688 9.89139 13.2247L17.9911 5.125H14.5ZM6.16667 7.625C5.8904 7.625 5.62545 7.73475 5.4301 7.9301C5.23475 8.12545 5.125 8.3904 5.125 8.66667V17.8333C5.125 18.1096 5.23475 18.3746 5.4301 18.5699C5.62545 18.7653 5.8904 18.875 6.16667 18.875H15.3333C15.6096 18.875 15.8746 18.7653 16.0699 18.5699C16.2653 18.3746 16.375 18.1096 16.375 17.8333V12.8333C16.375 12.4882 16.6548 12.2083 17 12.2083C17.3452 12.2083 17.625 12.4882 17.625 12.8333V17.8333C17.625 18.4411 17.3836 19.024 16.9538 19.4538C16.524 19.8836 15.9411 20.125 15.3333 20.125H6.16667C5.55888 20.125 4.97598 19.8836 4.54621 19.4538C4.11644 19.024 3.875 18.4411 3.875 17.8333V8.66667C3.875 8.05888 4.11644 7.47598 4.54621 7.04621C4.97598 6.61644 5.55888 6.375 6.16667 6.375H11.1667C11.5118 6.375 11.7917 6.65482 11.7917 7C11.7917 7.34518 11.5118 7.625 11.1667 7.625H6.16667Z" fill="black"/>
</svg>
