<svg width="24" height="24" viewBox="0 0 24 24" fill="none" xmlns="http://www.w3.org/2000/svg">
<path fill-rule="evenodd" clip-rule="evenodd" d="M5.37951 3.71288C5.80928 3.28311 6.39217 3.04167 6.99996 3.04167H13.6666C13.8324 3.04167 13.9914 3.10751 14.1086 3.22473L14.1088 3.22497L19.1086 8.22473L19.1154 8.23164C19.2245 8.34415 19.2916 8.49757 19.2916 8.66667V18.6667C19.2916 19.2745 19.0502 19.8573 18.6204 20.2871C18.1906 20.7169 17.6077 20.9583 17 20.9583H6.99996C6.39217 20.9583 5.80928 20.7169 5.37951 20.2871C4.94974 19.8573 4.70829 19.2745 4.70829 18.6667V5.33333C4.70829 4.72555 4.94974 4.14265 5.37951 3.71288ZM6.99996 4.29167H13.0416V8.66667C13.0416 9.01184 13.3214 9.29167 13.6666 9.29167H18.0416V18.6667C18.0416 18.9429 17.9319 19.2079 17.7365 19.4032C17.5412 19.5986 17.2762 19.7083 17 19.7083H6.99996C6.72369 19.7083 6.45874 19.5986 6.26339 19.4032C6.06804 19.2079 5.95829 18.9429 5.95829 18.6667V5.33333C5.95829 5.05707 6.06804 4.79211 6.26339 4.59676C6.45874 4.40141 6.72369 4.29167 6.99996 4.29167ZM14.2916 5.17555L17.1577 8.04167H14.2916V5.17555ZM8.66663 12.2083C8.32145 12.2083 8.04163 12.4882 8.04163 12.8333C8.04163 13.1785 8.32145 13.4583 8.66663 13.4583H15.3333C15.6785 13.4583 15.9583 13.1785 15.9583 12.8333C15.9583 12.4882 15.6785 12.2083 15.3333 12.2083H8.66663ZM8.04163 16.1667C8.04163 15.8215 8.32145 15.5417 8.66663 15.5417H15.3333C15.6785 15.5417 15.9583 15.8215 15.9583 16.1667C15.9583 16.5118 15.6785 16.7917 15.3333 16.7917H8.66663C8.32145 16.7917 8.04163 16.5118 8.04163 16.1667ZM8.66663 8.875C8.32145 8.875 8.04163 9.15482 8.04163 9.5C8.04163 9.84518 8.32145 10.125 8.66663 10.125H9.49996H10.3333C10.6785 10.125 10.9583 9.84518 10.9583 9.5C10.9583 9.15482 10.6785 8.875 10.3333 8.875H9.49996H8.66663Z" fill="black"/>
</svg>
