<svg width="24" height="24" viewBox="0 0 24 24" fill="none" xmlns="http://www.w3.org/2000/svg">
<path fill-rule="evenodd" clip-rule="evenodd" d="M5.37955 3.71288C5.80932 3.28311 6.39221 3.04167 7 3.04167H13.6667C13.8324 3.04167 13.9914 3.10751 14.1086 3.22473L14.109 3.22514L19.1079 8.22405C19.2214 8.33721 19.2917 8.49374 19.2917 8.66667V8.66823V18.6667C19.2917 19.2745 19.0502 19.8573 18.6205 20.2871C18.1907 20.7169 17.6078 20.9583 17 20.9583H7C6.39221 20.9583 5.80932 20.7169 5.37955 20.2871C4.94978 19.8573 4.70833 19.2745 4.70833 18.6667V5.33333C4.70833 4.72555 4.94978 4.14265 5.37955 3.71288ZM7 4.29167H13.0417V8.66667C13.0417 9.01184 13.3215 9.29167 13.6667 9.29167H18.0417V18.6667C18.0417 18.9429 17.9319 19.2079 17.7366 19.4032C17.5412 19.5986 17.2763 19.7083 17 19.7083H7C6.72373 19.7083 6.45878 19.5986 6.26343 19.4032C6.06808 19.2079 5.95833 18.9429 5.95833 18.6667V5.33333C5.95833 5.05707 6.06808 4.79211 6.26343 4.59676C6.45878 4.40141 6.72373 4.29167 7 4.29167ZM14.2917 5.17555L17.1578 8.04167H14.2917V5.17555ZM9.5 13.875C9.15482 13.875 8.875 14.1548 8.875 14.5C8.875 14.8452 9.15482 15.125 9.5 15.125H14.5C14.8452 15.125 15.125 14.8452 15.125 14.5C15.125 14.1548 14.8452 13.875 14.5 13.875H9.5Z" fill="black"/>
</svg>
