<svg width="24" height="24" viewBox="0 0 24 24" fill="none" xmlns="http://www.w3.org/2000/svg">
<path fill-rule="evenodd" clip-rule="evenodd" d="M8.66671 3.04163C7.34626 3.04163 6.43305 3.26194 5.83042 3.50299C5.52966 3.6233 5.30899 3.7477 5.15596 3.84972C5.07955 3.90065 5.02036 3.94578 4.97675 3.9817C4.95495 3.99964 4.93708 4.01527 4.92292 4.02814C4.91585 4.03457 4.9097 4.04031 4.90446 4.04531L4.89728 4.05225L4.89419 4.05528L4.89277 4.05669L4.89209 4.05736C4.89176 4.05769 4.89143 4.05802 5.33337 4.49996L4.89143 4.05802C4.77422 4.17523 4.70837 4.3342 4.70837 4.49996V14.5V20.3333C4.70837 20.6785 4.9882 20.9583 5.33337 20.9583C5.67855 20.9583 5.95837 20.6785 5.95837 20.3333V14.823C6.04079 14.7763 6.15165 14.7208 6.29466 14.6636C6.7337 14.488 7.48716 14.2916 8.66671 14.2916C9.77964 14.2916 10.7149 14.6591 11.7679 15.0803L11.8043 15.0948C12.8253 15.5033 13.9626 15.9583 15.3334 15.9583C16.6538 15.9583 17.567 15.738 18.1697 15.4969C18.4704 15.3766 18.6911 15.2522 18.8441 15.1502C18.9205 15.0993 18.9797 15.0541 19.0233 15.0182C19.0451 15.0003 19.063 14.9846 19.0772 14.9718C19.0842 14.9653 19.0904 14.9596 19.0956 14.9546L19.1028 14.9477L19.1059 14.9446L19.1073 14.9432L19.108 14.9426C19.1083 14.9422 19.1086 14.9419 18.6667 14.5L19.1086 14.9419C19.2259 14.8247 19.2917 14.6657 19.2917 14.5V4.49996C19.2917 4.24717 19.1394 4.01927 18.9059 3.92253C18.6768 3.82764 18.4137 3.87729 18.2351 4.04795L18.2287 4.05331C18.217 4.06297 18.1915 4.08295 18.1507 4.11014C18.0694 4.16436 17.9255 4.2483 17.7054 4.33633C17.2664 4.51194 16.5129 4.70829 15.3334 4.70829C14.2204 4.70829 13.2851 4.34085 12.2322 3.91966L12.1958 3.90512C11.1748 3.49664 10.0375 3.04163 8.66671 3.04163ZM5.95837 13.4539V4.82299C6.04079 4.77627 6.15165 4.7208 6.29466 4.66359C6.7337 4.48798 7.48716 4.29163 8.66671 4.29163C9.77964 4.29163 10.7149 4.65907 11.7679 5.08026L11.8043 5.0948C12.8253 5.50328 13.9626 5.95829 15.3334 5.95829C16.5636 5.95829 17.4403 5.76706 18.0417 5.546V14.1769C17.9593 14.2236 17.8484 14.2791 17.7054 14.3363C17.2664 14.5119 16.5129 14.7083 15.3334 14.7083C14.2204 14.7083 13.2851 14.3409 12.2322 13.9197L12.1958 13.9051C11.1748 13.4966 10.0375 13.0416 8.66671 13.0416C7.43651 13.0416 6.55979 13.2329 5.95837 13.4539Z" fill="black"/>
</svg>
