<svg width="24" height="24" viewBox="0 0 24 24" fill="none" xmlns="http://www.w3.org/2000/svg">
<g clip-path="url(#clip0_775_13718)">
<path fill-rule="evenodd" clip-rule="evenodd" d="M5.33329 5.125C5.05703 5.125 4.79207 5.23475 4.59672 5.4301C4.40137 5.62545 4.29163 5.8904 4.29163 6.16667V17.8333C4.29163 18.1096 4.40137 18.3746 4.59672 18.5699C4.79207 18.7653 5.05703 18.875 5.33329 18.875H18.6666C18.9429 18.875 19.2078 18.7653 19.4032 18.5699C19.5985 18.3746 19.7083 18.1096 19.7083 17.8333V8.66667C19.7083 8.3904 19.5985 8.12545 19.4032 7.9301C19.2078 7.73475 18.9429 7.625 18.6666 7.625H11.1666C10.9577 7.625 10.7625 7.52056 10.6466 7.34669L9.16547 5.125H5.33329ZM3.71284 4.54621C4.14261 4.11644 4.7255 3.875 5.33329 3.875H9.49996C9.70893 3.875 9.90407 3.97944 10.02 4.15331L11.5011 6.375H18.6666C19.2744 6.375 19.8573 6.61644 20.2871 7.04621C20.7168 7.47598 20.9583 8.05888 20.9583 8.66667V17.8333C20.9583 18.4411 20.7168 19.024 20.2871 19.4538C19.8573 19.8836 19.2744 20.125 18.6666 20.125H5.33329C4.7255 20.125 4.14261 19.8836 3.71284 19.4538C3.28307 19.024 3.04163 18.4411 3.04163 17.8333V6.16667C3.04163 5.55888 3.28307 4.97598 3.71284 4.54621Z" fill="black"/>
</g>
<defs>
<clipPath id="clip0_775_13718">
<rect width="20" height="20" fill="white" transform="translate(2 2)"/>
</clipPath>
</defs>
</svg>
