<svg width="24" height="24" viewBox="0 0 24 24" fill="none" xmlns="http://www.w3.org/2000/svg">
<path fill-rule="evenodd" clip-rule="evenodd" d="M4.29163 12C4.29163 7.74276 7.74276 4.29163 12 4.29163C16.2572 4.29163 19.7083 7.74276 19.7083 12C19.7083 16.2572 16.2572 19.7083 12 19.7083C7.74276 19.7083 4.29163 16.2572 4.29163 12ZM12 3.04163C7.05241 3.04163 3.04163 7.05241 3.04163 12C3.04163 16.9475 7.05241 20.9583 12 20.9583C16.9475 20.9583 20.9583 16.9475 20.9583 12C20.9583 7.05241 16.9475 3.04163 12 3.04163ZM12 13.0416C10.7861 13.0416 9.82638 13.5276 9.18444 13.9945C8.86226 14.2288 8.61323 14.4631 8.44325 14.6404C8.358 14.7294 8.29189 14.8048 8.24567 14.8599C8.22254 14.8874 8.20434 14.91 8.19114 14.9266L8.17511 14.9472L8.16992 14.9539L8.16804 14.9564L8.16727 14.9574L8.16693 14.9579C8.16678 14.9581 8.16663 14.9583 8.66663 15.3333L8.16663 14.9583C7.95952 15.2344 8.01548 15.6262 8.29163 15.8333C8.56714 16.0399 8.95775 15.9847 9.16522 15.7102L9.16527 15.7101L9.16565 15.7096L9.16567 15.7096L9.16609 15.709L9.1712 15.7025C9.17734 15.6948 9.18802 15.6815 9.20314 15.6635C9.23342 15.6274 9.28124 15.5726 9.34573 15.5053C9.47523 15.3702 9.66891 15.1878 9.91965 15.0054C10.4235 14.639 11.1305 14.2916 12 14.2916C12.8694 14.2916 13.5764 14.639 14.0803 15.0054C14.331 15.1878 14.5247 15.3702 14.6542 15.5053C14.7187 15.5726 14.7665 15.6274 14.7968 15.6635C14.8119 15.6815 14.8226 15.6948 14.8287 15.7025L14.8342 15.7096L14.8345 15.7099L14.8347 15.7101C15.0421 15.9847 15.4328 16.0399 15.7083 15.8333C15.9844 15.6262 16.0404 15.2344 15.8333 14.9583L15.345 15.3245C15.8333 14.9583 15.8331 14.9581 15.833 14.9579L15.8326 14.9574L15.8319 14.9564L15.83 14.9539L15.8248 14.9472L15.8088 14.9266C15.7956 14.91 15.7774 14.8874 15.7542 14.8599C15.708 14.8048 15.6419 14.7294 15.5567 14.6404C15.3867 14.4631 15.1377 14.2288 14.8155 13.9945C14.1735 13.5276 13.2138 13.0416 12 13.0416ZM14.8333 15.7083L14.8336 15.7087C14.8334 15.7085 14.8333 15.7083 15.3331 15.3334L14.8333 15.7083ZM8.87496 9.49996C8.87496 9.15478 9.15478 8.87496 9.49996 8.87496H9.50829C9.85347 8.87496 10.1333 9.15478 10.1333 9.49996C10.1333 9.84514 9.85347 10.125 9.50829 10.125H9.49996C9.15478 10.125 8.87496 9.84514 8.87496 9.49996ZM14.5 8.87496C14.1548 8.87496 13.875 9.15478 13.875 9.49996C13.875 9.84514 14.1548 10.125 14.5 10.125H14.5083C14.8535 10.125 15.1333 9.84514 15.1333 9.49996C15.1333 9.15478 14.8535 8.87496 14.5083 8.87496H14.5Z" fill="black"/>
</svg>
