<svg width="24" height="24" viewBox="0 0 24 24" fill="none" xmlns="http://www.w3.org/2000/svg">
<path fill-rule="evenodd" clip-rule="evenodd" d="M8.25002 4.29163C7.86325 4.29163 7.49231 4.44527 7.21882 4.71876C6.94533 4.99225 6.79169 5.36318 6.79169 5.74996C6.79169 6.13673 6.94533 6.50767 7.21882 6.78116C7.49231 7.05465 7.86325 7.20829 8.25002 7.20829H11.175C11.0597 6.86915 10.8949 6.45802 10.6711 6.05116C10.1348 5.07601 9.36079 4.29163 8.25002 4.29163ZM5.54169 5.74996C5.54169 6.2708 5.69171 6.77617 5.96783 7.20829H3.66669C3.32151 7.20829 3.04169 7.48811 3.04169 7.83329V12C3.04169 12.3451 3.32151 12.625 3.66669 12.625H4.70835V20.3333C4.70835 20.6785 4.98818 20.9583 5.33335 20.9583H12H18.6667C19.0119 20.9583 19.2917 20.6785 19.2917 20.3333V12.625H20.3334C20.6785 12.625 20.9584 12.3451 20.9584 12V7.83329C20.9584 7.48811 20.6785 7.20829 20.3334 7.20829H18.0322C18.3083 6.77617 18.4584 6.2708 18.4584 5.74996C18.4584 5.03166 18.173 4.34279 17.6651 3.83488C17.1572 3.32697 16.4683 3.04163 15.75 3.04163C13.9441 3.04163 12.8431 4.34058 12.2336 5.44876C12.1483 5.60394 12.0706 5.75868 12 5.91013C11.9295 5.75868 11.8518 5.60394 11.7664 5.44876C11.1569 4.34058 10.0559 3.04163 8.25002 3.04163C7.53173 3.04163 6.84285 3.32697 6.33494 3.83488C5.82703 4.34279 5.54169 5.03166 5.54169 5.74996ZM12.825 7.20829H15.75C16.1368 7.20829 16.5077 7.05465 16.7812 6.78116C17.0547 6.50767 17.2084 6.13673 17.2084 5.74996C17.2084 5.36318 17.0547 4.99225 16.7812 4.71876C16.5077 4.44527 16.1368 4.29163 15.75 4.29163C14.6392 4.29163 13.8652 5.07601 13.3289 6.05116C13.1051 6.45802 12.9404 6.86915 12.825 7.20829ZM12.625 8.45829V11.375H18.6667H19.7084V8.45829H15.75H12.625ZM8.25002 8.45829H11.375V11.375H5.33335H4.29169V8.45829H8.25002ZM12.625 19.7083H18.0417V12.625H12.625V19.7083ZM11.375 12.625V19.7083H5.95835V12.625H11.375Z" fill="black"/>
</svg>
