<svg width="24" height="24" viewBox="0 0 24 24" fill="none" xmlns="http://www.w3.org/2000/svg">
<path fill-rule="evenodd" clip-rule="evenodd" d="M7 5.125C5.96447 5.125 5.125 5.96447 5.125 7C5.125 8.03553 5.96447 8.875 7 8.875C8.03553 8.875 8.875 8.03553 8.875 7C8.875 5.96447 8.03553 5.125 7 5.125ZM3.875 7C3.875 5.27411 5.27411 3.875 7 3.875C8.72589 3.875 10.125 5.27411 10.125 7C10.125 8.50384 9.06275 9.75957 7.64765 10.0578C7.77939 11.6769 8.48146 13.2042 9.63864 14.3614C10.7958 15.5185 12.3231 16.2206 13.9422 16.3523C14.2404 14.9372 15.4962 13.875 17 13.875C18.7259 13.875 20.125 15.2741 20.125 17C20.125 18.7259 18.7259 20.125 17 20.125C15.4812 20.125 14.2154 19.0415 13.9336 17.6052C11.9857 17.4692 10.1444 16.6349 8.75476 15.2452C8.32318 14.8137 7.94517 14.3385 7.625 13.8302V19.5C7.625 19.8452 7.34518 20.125 7 20.125C6.65482 20.125 6.375 19.8452 6.375 19.5V10.0625C4.9486 9.77294 3.875 8.51185 3.875 7ZM15.125 17C15.125 18.0355 15.9645 18.875 17 18.875C18.0355 18.875 18.875 18.0355 18.875 17C18.875 15.9645 18.0355 15.125 17 15.125C15.9645 15.125 15.125 15.9645 15.125 17Z" fill="black"/>
</svg>
