<svg width="24" height="24" viewBox="0 0 24 24" fill="none" xmlns="http://www.w3.org/2000/svg">
<path fill-rule="evenodd" clip-rule="evenodd" d="M12 9.29163C10.5042 9.29163 9.29167 10.5042 9.29167 12C9.29167 13.4957 10.5042 14.7083 12 14.7083C13.4958 14.7083 14.7083 13.4957 14.7083 12C14.7083 10.5042 13.4958 9.29163 12 9.29163ZM7.83333 12.625C7.92204 12.625 8.00643 12.6065 8.08287 12.5732C8.36057 14.4877 10.0085 15.9583 12 15.9583C13.9927 15.9583 15.6414 14.4859 15.9176 12.5697C15.9961 12.6052 16.0833 12.625 16.175 12.625H21.1333C21.4785 12.625 21.7583 12.3451 21.7583 12C21.7583 11.6548 21.4785 11.375 21.1333 11.375H16.175C16.0833 11.375 15.9961 11.3947 15.9176 11.4302C15.6414 9.51405 13.9927 8.04163 12 8.04163C10.0085 8.04163 8.36057 9.51227 8.08287 11.4268C8.00643 11.3934 7.92204 11.375 7.83333 11.375H2.875C2.52982 11.375 2.25 11.6548 2.25 12C2.25 12.3451 2.52982 12.625 2.875 12.625H7.83333Z" fill="black"/>
</svg>
