<svg width="24" height="24" viewBox="0 0 24 24" fill="none" xmlns="http://www.w3.org/2000/svg">
<path fill-rule="evenodd" clip-rule="evenodd" d="M7.625 4.5C7.625 4.15482 7.34518 3.875 7 3.875C6.65482 3.875 6.375 4.15482 6.375 4.5V13.9375C4.9486 14.2271 3.875 15.4882 3.875 17C3.875 18.7259 5.27411 20.125 7 20.125C8.51882 20.125 9.78457 19.0415 10.0664 17.6052C12.0143 17.4692 13.8556 16.6349 15.2452 15.2452C16.6349 13.8556 17.4692 12.0143 17.6052 10.0664C19.0415 9.78457 20.125 8.51882 20.125 7C20.125 5.27411 18.7259 3.875 17 3.875C15.2741 3.875 13.875 5.27411 13.875 7C13.875 8.50384 14.9372 9.75957 16.3523 10.0578C16.2206 11.6769 15.5185 13.2042 14.3614 14.3614C13.2042 15.5185 11.6769 16.2206 10.0578 16.3523C9.80202 15.1387 8.8419 14.1845 7.625 13.9375V4.5ZM8.875 17C8.875 15.9645 8.03553 15.125 7 15.125C5.96447 15.125 5.125 15.9645 5.125 17C5.125 18.0355 5.96447 18.875 7 18.875C8.03553 18.875 8.875 18.0355 8.875 17ZM17 8.875C18.0355 8.875 18.875 8.03553 18.875 7C18.875 5.96447 18.0355 5.125 17 5.125C15.9645 5.125 15.125 5.96447 15.125 7C15.125 8.03553 15.9645 8.875 17 8.875Z" fill="black"/>
</svg>
