<svg width="24" height="24" viewBox="0 0 24 24" fill="none" xmlns="http://www.w3.org/2000/svg">
<path fill-rule="evenodd" clip-rule="evenodd" d="M5.125 7C5.125 5.96447 5.96447 5.125 7 5.125C8.03553 5.125 8.875 5.96447 8.875 7C8.875 8.03553 8.03553 8.875 7 8.875C5.96447 8.875 5.125 8.03553 5.125 7ZM7 3.875C5.27411 3.875 3.875 5.27411 3.875 7C3.875 8.51185 4.9486 9.77294 6.375 10.0625V19.5C6.375 19.8452 6.65482 20.125 7 20.125C7.34518 20.125 7.625 19.8452 7.625 19.5V10.0625C9.0514 9.77294 10.125 8.51185 10.125 7C10.125 5.27411 8.72589 3.875 7 3.875ZM15.125 17C15.125 15.9645 15.9645 15.125 17 15.125C18.0355 15.125 18.875 15.9645 18.875 17C18.875 18.0355 18.0355 18.875 17 18.875C15.9645 18.875 15.125 18.0355 15.125 17ZM17.625 8.66667V13.9375C19.0514 14.2271 20.125 15.4882 20.125 17C20.125 18.7259 18.7259 20.125 17 20.125C15.2741 20.125 13.875 18.7259 13.875 17C13.875 15.4882 14.9486 14.2271 16.375 13.9375V8.66667C16.375 8.3904 16.2653 8.12545 16.0699 7.9301C15.8746 7.73475 15.6096 7.625 15.3333 7.625H12.8333C12.4882 7.625 12.2083 7.34518 12.2083 7C12.2083 6.65482 12.4882 6.375 12.8333 6.375H15.3333C15.9411 6.375 16.524 6.61644 16.9538 7.04621C17.3836 7.47598 17.625 8.05888 17.625 8.66667Z" fill="black"/>
</svg>
