<svg width="24" height="24" viewBox="0 0 24 24" fill="none" xmlns="http://www.w3.org/2000/svg">
<g clip-path="url(#clip0_775_13730)">
<path d="M20.3333 12H3.66663" stroke="black" stroke-width="1.25" stroke-linecap="round" stroke-linejoin="round"/>
<path d="M6.54163 6.25837L3.66663 12V17C3.66663 17.4421 3.84222 17.866 4.15478 18.1786C4.46734 18.4911 4.89127 18.6667 5.33329 18.6667H18.6666C19.1087 18.6667 19.5326 18.4911 19.8451 18.1786C20.1577 17.866 20.3333 17.4421 20.3333 17V12L17.4583 6.25837C17.3203 5.9807 17.1076 5.74702 16.8441 5.58361C16.5806 5.4202 16.2767 5.33354 15.9666 5.33337H8.03329C7.72322 5.33354 7.41935 5.4202 7.15583 5.58361C6.89231 5.74702 6.67961 5.9807 6.54163 6.25837Z" stroke="black" stroke-width="1.25" stroke-linecap="round" stroke-linejoin="round"/>
<path d="M7 15.3334H7.00833" stroke="black" stroke-width="1.25" stroke-linecap="round" stroke-linejoin="round"/>
<path d="M10.3334 15.3334H10.3417" stroke="black" stroke-width="1.25" stroke-linecap="round" stroke-linejoin="round"/>
</g>
<defs>
<clipPath id="clip0_775_13730">
<rect width="20" height="20" fill="white" transform="translate(2 2)"/>
</clipPath>
</defs>
</svg>
