<svg width="24" height="24" viewBox="0 0 24 24" fill="none" xmlns="http://www.w3.org/2000/svg">
<g clip-path="url(#clip0_775_13733)">
<path fill-rule="evenodd" clip-rule="evenodd" d="M14.1314 4.27023C14.7634 4.00833 15.4409 3.87354 16.1251 3.87354C16.8092 3.87354 17.4867 4.00833 18.1188 4.27023C18.7508 4.53213 19.3251 4.91599 19.8088 5.39989C20.2926 5.88351 20.6764 6.45771 20.9382 7.08968C21.2001 7.72174 21.3349 8.39921 21.3349 9.08339C21.3349 9.76756 21.2001 10.445 20.9382 11.0771C20.6763 11.7092 20.2925 12.2834 19.8086 12.7671L12.442 20.1337C12.1979 20.3777 11.8022 20.3777 11.5581 20.1337L4.19145 12.767C3.2145 11.79 2.66565 10.465 2.66565 9.08339C2.66565 7.70177 3.2145 6.37674 4.19145 5.39978C5.1684 4.42283 6.49344 3.87398 7.87506 3.87398C9.25668 3.87398 10.5817 4.42283 11.5587 5.39978L12.0001 5.84117L12.4413 5.39989C12.4413 5.39992 12.4414 5.39985 12.4413 5.39989C12.925 4.91604 13.4993 4.53211 14.1314 4.27023ZM16.1251 5.12354C15.6051 5.12354 15.0902 5.22598 14.6098 5.42502C14.1295 5.62406 13.693 5.9158 13.3254 6.28356L12.442 7.167C12.1979 7.41108 11.8022 7.41108 11.5581 7.167L10.6748 6.28366C9.93225 5.54113 8.92516 5.12398 7.87506 5.12398C6.82496 5.12398 5.81787 5.54113 5.07533 6.28366C4.3328 7.0262 3.91565 8.03329 3.91565 9.08339C3.91565 10.1335 4.3328 11.1406 5.07533 11.8831L12.0001 18.8078L18.9248 11.8831C19.2925 11.5155 19.5844 11.079 19.7834 10.5986C19.9825 10.1182 20.0849 9.60336 20.0849 9.08339C20.0849 8.56342 19.9825 8.04854 19.7834 7.56817C19.5844 7.0878 19.2926 6.65136 18.9249 6.28377C18.5573 5.91601 18.1206 5.62406 17.6403 5.42502C17.1599 5.22598 16.645 5.12354 16.1251 5.12354Z" fill="black"/>
</g>
<defs>
<clipPath id="clip0_775_13733">
<rect width="20" height="20" fill="white" transform="translate(2 2)"/>
</clipPath>
</defs>
</svg>
