<svg width="24" height="24" viewBox="0 0 24 24" fill="none" xmlns="http://www.w3.org/2000/svg">
<path fill-rule="evenodd" clip-rule="evenodd" d="M10.8555 3.34962C11.2035 3.14896 11.5982 3.04333 12 3.04333C12.4018 3.04333 12.7964 3.14895 13.1445 3.34959C13.1449 3.34984 13.1454 3.3501 13.1458 3.35036L18.9792 6.68369C19.3272 6.88463 19.6163 7.17355 19.8174 7.52148C20.0185 7.86941 20.1246 8.26411 20.125 8.66598V15.3333C20.1246 15.7352 20.0185 16.1305 19.8174 16.4784C19.6163 16.8264 19.3272 17.1153 18.9792 17.3162L18.9768 17.3176L13.1458 20.6496C13.1453 20.6498 13.1449 20.6501 13.1444 20.6504C12.7964 20.851 12.4017 20.9566 12 20.9566C11.5983 20.9566 11.2036 20.851 10.8556 20.6504C10.8551 20.6501 10.8546 20.6498 10.8542 20.6496L5.02325 17.3176L5.02083 17.3162C4.6728 17.1153 4.38373 16.8264 4.18261 16.4784C3.9815 16.1305 3.87541 15.7358 3.875 15.3339L3.875 8.66663C3.87541 8.26475 3.9815 7.86941 4.18261 7.52148C4.38373 7.17355 4.6728 6.88463 5.02083 6.68369L5.02324 6.6823L10.8542 3.35036C10.8546 3.35011 10.855 3.34987 10.8555 3.34962ZM12 4.29333C11.8171 4.29333 11.6375 4.34147 11.4792 4.43289L11.4768 4.43428L5.64583 7.76622C5.64547 7.76644 5.6451 7.76665 5.64474 7.76686C5.48703 7.85817 5.35603 7.98925 5.26482 8.14704C5.17346 8.3051 5.12524 8.4844 5.125 8.66696V15.333C5.12524 15.5155 5.17346 15.6948 5.26482 15.8529C5.35604 16.0107 5.48707 16.1418 5.6448 16.2331C5.64515 16.2333 5.64549 16.2335 5.64583 16.2337L11.4792 19.567C11.6375 19.6585 11.8172 19.7066 12 19.7066C12.1828 19.7066 12.3625 19.6585 12.5208 19.567L12.5232 19.5656L18.3542 16.2337C18.3545 16.2335 18.3549 16.2333 18.3552 16.2331C18.5129 16.1418 18.644 16.0107 18.7352 15.8529C18.8266 15.6947 18.8748 15.5153 18.875 15.3327V8.66727C18.8748 8.4846 18.8266 8.30519 18.7352 8.14704C18.644 7.98926 18.513 7.85817 18.3553 7.76686C18.3549 7.76665 18.3545 7.76644 18.3542 7.76622L12.5232 4.43428L12.5208 4.43289C12.3625 4.34147 12.1829 4.29333 12 4.29333Z" fill="black"/>
</svg>
