<svg width="24" height="24" viewBox="0 0 24 24" fill="none" xmlns="http://www.w3.org/2000/svg">
<path fill-rule="evenodd" clip-rule="evenodd" d="M8.03335 4.70837H8.03302C7.60668 4.7086 7.18885 4.82776 6.82651 5.05244C6.46445 5.27696 6.17215 5.59795 5.98242 5.97937L5.98198 5.98025L3.11345 11.709C3.06763 11.7959 3.04169 11.8949 3.04169 12V17C3.04169 17.6078 3.28313 18.1907 3.7129 18.6205C4.14267 19.0503 4.72557 19.2917 5.33335 19.2917H18.6667C19.2745 19.2917 19.8574 19.0503 20.2871 18.6205C20.7169 18.1907 20.9584 17.6078 20.9584 17V12C20.9584 11.9892 20.9581 11.9784 20.9575 11.9677C20.9528 11.8746 20.9277 11.7869 20.8866 11.709L18.0181 5.98025L18.0177 5.9795C17.828 5.59802 17.5356 5.27699 17.1735 5.05244C16.8112 4.82776 16.3934 4.7086 15.967 4.70837H15.9667H8.03335ZM19.3214 11.375L16.8995 6.53821L16.8986 6.5365C16.8124 6.36295 16.6795 6.2169 16.5148 6.11477C16.3501 6.01266 16.1602 5.9585 15.9665 5.95837H15.9664H8.03369C7.83989 5.95848 7.64997 6.01264 7.48527 6.11477C7.32057 6.2169 7.18763 6.36295 7.10139 6.5365L7.10054 6.53821L4.67862 11.375H8.66669C8.87566 11.375 9.0708 11.4795 9.18672 11.6534L10.6678 13.875H13.3322L14.8133 11.6534C14.9292 11.4795 15.1244 11.375 15.3334 11.375H19.3214ZM4.29169 12.625V17C4.29169 17.2763 4.40143 17.5413 4.59678 17.7366C4.79213 17.932 5.05709 18.0417 5.33335 18.0417H18.6667C18.943 18.0417 19.2079 17.932 19.4033 17.7366C19.5986 17.5413 19.7084 17.2763 19.7084 17V12.625H15.6678L14.1867 14.8467C14.0708 15.0206 13.8757 15.125 13.6667 15.125H10.3334C10.1244 15.125 9.92924 15.0206 9.81332 14.8467L8.3322 12.625H4.29169Z" fill="black"/>
</svg>
