<svg width="24" height="24" viewBox="0 0 24 24" fill="none" xmlns="http://www.w3.org/2000/svg">
<path fill-rule="evenodd" clip-rule="evenodd" d="M6.12524 7.00912C4.98166 8.35391 4.29163 10.0964 4.29163 12C4.29163 13.9036 4.98166 15.646 6.12524 16.9908L8.79396 14.3221C8.3207 13.6698 8.04163 12.8675 8.04163 12C8.04163 11.1324 8.3207 10.3301 8.79396 9.67784L6.12524 7.00912ZM9.67784 15.206L7.00912 17.8747C8.35391 19.0183 10.0964 19.7083 12 19.7083C13.9036 19.7083 15.646 19.0183 16.9908 17.8747L14.3221 15.206C13.6698 15.6792 12.8675 15.9583 12 15.9583C11.1324 15.9583 10.3301 15.6792 9.67784 15.206ZM19.7083 12C19.7083 13.9036 19.0183 15.646 17.8747 16.9908L15.206 14.3221C15.6792 13.6698 15.9583 12.8675 15.9583 12C15.9583 11.1324 15.6792 10.3301 15.206 9.67784L17.7419 7.1419L17.7422 7.1416L17.8747 7.00912C19.0183 8.35391 19.7083 10.0964 19.7083 12ZM16.858 6.25802L14.3221 8.79396C13.6698 8.3207 12.8675 8.04163 12 8.04163C11.1324 8.04163 10.3301 8.3207 9.67784 8.79396L7.00912 6.12524C8.35391 4.98166 10.0964 4.29163 12 4.29163C13.9036 4.29163 15.646 4.98166 16.9908 6.12524L16.858 6.25802ZM3.04163 12C3.04163 7.05241 7.05241 3.04163 12 3.04163C16.9475 3.04163 20.9583 7.05241 20.9583 12C20.9583 16.9475 16.9475 20.9583 12 20.9583C7.05241 20.9583 3.04163 16.9475 3.04163 12ZM12 9.29163C10.5042 9.29163 9.29163 10.5042 9.29163 12C9.29163 13.4957 10.5042 14.7083 12 14.7083C13.4957 14.7083 14.7083 13.4957 14.7083 12C14.7083 10.5042 13.4957 9.29163 12 9.29163Z" fill="black"/>
</svg>
