<svg width="24" height="24" viewBox="0 0 24 24" fill="none" xmlns="http://www.w3.org/2000/svg">
<path fill-rule="evenodd" clip-rule="evenodd" d="M16.1613 3.09723C14.905 3.08631 13.6946 3.56928 12.7908 4.44212L12.7908 4.44208L12.7844 4.44845L11.3511 5.87345C11.1063 6.11682 11.1051 6.51254 11.3485 6.75733C11.5918 7.00212 11.9876 7.00327 12.2324 6.75991L13.6624 5.33822C14.33 4.69498 15.2233 4.33912 16.1504 4.34718C17.0791 4.35525 17.9674 4.72772 18.624 5.38438C19.2807 6.04103 19.6531 6.92932 19.6612 7.85794C19.6693 8.78481 19.3136 9.67784 18.6708 10.3454L16.1748 12.8414L16.1747 12.8415C15.8156 13.2007 15.3836 13.4784 14.9077 13.6559C14.4319 13.8334 13.9235 13.9065 13.4169 13.8702C12.9103 13.8339 12.4175 13.6891 11.9718 13.4456C11.5261 13.2022 11.1381 12.8657 10.8339 12.459C10.6271 12.1826 10.2354 12.1261 9.95902 12.3329C9.68261 12.5396 9.62614 12.9313 9.8329 13.2077C10.2445 13.7579 10.7695 14.2132 11.3725 14.5426C11.9755 14.872 12.6423 15.0679 13.3276 15.117C14.013 15.1661 14.7008 15.0672 15.3446 14.8271C15.9883 14.5869 16.5729 14.2112 17.0587 13.7253L17.0587 13.7252L19.5587 11.2253L19.5587 11.2254L19.5663 11.2175C20.4391 10.3138 20.9221 9.10344 20.9112 7.84708C20.9002 6.59072 20.3963 5.38891 19.5079 4.50049C18.6195 3.61208 17.4177 3.10814 16.1613 3.09723ZM10.6725 8.883C9.98714 8.83391 9.29925 8.9328 8.65548 9.17294C8.01175 9.41307 7.42719 9.78883 6.94144 10.2747L6.94136 10.2748L4.44144 12.7747L4.44137 12.7747L4.43382 12.7825C3.56098 13.6862 3.07801 14.8966 3.08893 16.1529C3.09984 17.4093 3.60378 18.6111 4.49219 19.4995C5.38061 20.3879 6.58242 20.8919 7.83878 20.9028C9.09513 20.9137 10.3055 20.4307 11.2092 19.5579L11.2093 19.558L11.217 19.5503L12.642 18.1253C12.8861 17.8812 12.8861 17.4855 12.642 17.2414C12.3979 16.9973 12.0022 16.9973 11.7581 17.2414L10.3371 18.6624C9.66952 19.3053 8.77651 19.6609 7.84964 19.6528C6.92102 19.6448 6.03273 19.2723 5.37608 18.6156C4.71942 17.959 4.34695 17.0707 4.33888 16.1421C4.33082 15.2152 4.68646 14.3222 5.32932 13.6546L7.82532 11.1586L7.8254 11.1585C8.18444 10.7994 8.61653 10.5216 9.09236 10.3441C9.56819 10.1666 10.0766 10.0935 10.5832 10.1298C11.0897 10.1661 11.5826 10.3109 12.0283 10.5544C12.4739 10.7979 12.862 11.1344 13.1662 11.541C13.373 11.8174 13.7647 11.8739 14.0411 11.6672C14.3175 11.4604 14.3739 11.0687 14.1672 10.7923C13.7556 10.2421 13.2306 9.78685 12.6276 9.45742C12.0246 9.12798 11.3578 8.93208 10.6725 8.883Z" fill="black"/>
</svg>
