<svg width="24" height="24" viewBox="0 0 24 24" fill="none" xmlns="http://www.w3.org/2000/svg">
<path fill-rule="evenodd" clip-rule="evenodd" d="M7.13864 5.47189C8.42795 4.18258 10.1766 3.45825 12 3.45825C13.8234 3.45825 15.572 4.18258 16.8614 5.47189C18.1507 6.7612 18.875 8.50989 18.875 10.3333C18.875 12.9987 17.1464 15.5547 15.2963 17.5076C14.384 18.4705 13.4696 19.2582 12.7825 19.8053C12.464 20.0589 12.1954 20.26 12 20.402C11.8046 20.26 11.536 20.0589 11.2175 19.8053C10.5304 19.2582 9.61601 18.4705 8.70372 17.5076C6.85359 15.5547 5.125 12.9987 5.125 10.3333C5.125 8.50989 5.84933 6.7612 7.13864 5.47189ZM11.653 21.6864C11.6531 21.6865 11.6533 21.6866 12 21.1666L11.6533 21.6866C11.8632 21.8266 12.1368 21.8266 12.3467 21.6866L12 21.1666C12.3467 21.6866 12.3469 21.6865 12.347 21.6864L12.3476 21.686L12.3492 21.685L12.3543 21.6815L12.3727 21.6691C12.3884 21.6584 12.411 21.6429 12.4401 21.6228C12.4982 21.5826 12.5821 21.5236 12.6882 21.447C12.9002 21.2939 13.2011 21.0699 13.5612 20.7831C14.2804 20.2104 15.241 19.3835 16.2037 18.3673C18.1036 16.3618 20.125 13.5011 20.125 10.3333C20.125 8.17837 19.269 6.11174 17.7452 4.58801C16.2215 3.06428 14.1549 2.20825 12 2.20825C9.84512 2.20825 7.77849 3.06428 6.25476 4.58801C4.73102 6.11174 3.875 8.17837 3.875 10.3333C3.875 13.5011 5.89641 16.3618 7.79628 18.3673C8.75899 19.3835 9.71958 20.2104 10.4388 20.7831C10.7989 21.0699 11.0998 21.2939 11.3118 21.447C11.4179 21.5236 11.5018 21.5826 11.5599 21.6228C11.589 21.6429 11.6116 21.6584 11.6273 21.6691L11.6457 21.6815L11.6508 21.685L11.6524 21.686L11.653 21.6864ZM10.125 10.3333C10.125 9.29772 10.9645 8.45825 12 8.45825C13.0355 8.45825 13.875 9.29772 13.875 10.3333C13.875 11.3688 13.0355 12.2083 12 12.2083C10.9645 12.2083 10.125 11.3688 10.125 10.3333ZM12 7.20825C10.2741 7.20825 8.875 8.60736 8.875 10.3333C8.875 12.0591 10.2741 13.4583 12 13.4583C13.7259 13.4583 15.125 12.0591 15.125 10.3333C15.125 8.60736 13.7259 7.20825 12 7.20825Z" fill="black"/>
</svg>
