<svg width="24" height="24" viewBox="0 0 24 24" fill="none" xmlns="http://www.w3.org/2000/svg">
<path fill-rule="evenodd" clip-rule="evenodd" d="M4.29163 12.0001C4.29163 7.74289 7.74276 4.29175 12 4.29175C16.2572 4.29175 19.7083 7.74289 19.7083 12.0001C19.7083 16.2573 16.2572 19.7084 12 19.7084C7.74276 19.7084 4.29163 16.2573 4.29163 12.0001ZM12 3.04175C7.05241 3.04175 3.04163 7.05253 3.04163 12.0001C3.04163 16.9476 7.05241 20.9584 12 20.9584C16.9475 20.9584 20.9583 16.9476 20.9583 12.0001C20.9583 7.05253 16.9475 3.04175 12 3.04175ZM8.66663 13.8751C8.32145 13.8751 8.04163 14.1549 8.04163 14.5001C8.04163 14.8453 8.32145 15.1251 8.66663 15.1251H15.3333C15.6785 15.1251 15.9583 14.8453 15.9583 14.5001C15.9583 14.1549 15.6785 13.8751 15.3333 13.8751H8.66663ZM8.87496 9.50008C8.87496 9.1549 9.15478 8.87508 9.49996 8.87508H9.50829C9.85347 8.87508 10.1333 9.1549 10.1333 9.50008C10.1333 9.84526 9.85347 10.1251 9.50829 10.1251H9.49996C9.15478 10.1251 8.87496 9.84526 8.87496 9.50008ZM14.5 8.87508C14.1548 8.87508 13.875 9.1549 13.875 9.50008C13.875 9.84526 14.1548 10.1251 14.5 10.1251H14.5083C14.8535 10.1251 15.1333 9.84526 15.1333 9.50008C15.1333 9.1549 14.8535 8.87508 14.5083 8.87508H14.5Z" fill="black"/>
</svg>
