<svg width="24" height="24" viewBox="0 0 24 24" fill="none" xmlns="http://www.w3.org/2000/svg">
<g clip-path="url(#clip0_775_13768)">
<path fill-rule="evenodd" clip-rule="evenodd" d="M12.4151 5.12502C11.4136 5.12241 10.4257 5.35639 9.5318 5.8079L9.52943 5.80909L9.52943 5.80909C8.45678 6.34518 7.55457 7.16933 6.92385 8.18921C6.29313 9.2091 5.95881 10.3844 5.95835 11.5836L5.95835 11.585C5.95574 12.5864 6.18971 13.5743 6.64122 14.4682C6.71636 14.617 6.72897 14.7896 6.67628 14.9477L5.48823 18.5118L9.05237 17.3238C9.21047 17.2711 9.38306 17.2837 9.5318 17.3588C10.4257 17.8103 11.4136 18.0443 12.4151 18.0417L12.4164 18.0417C13.6156 18.0412 14.7909 17.7069 15.8108 17.0762C16.8307 16.4455 17.6549 15.5433 18.191 14.4706L18.1921 14.4682C18.6437 13.5743 18.8776 12.5864 18.875 11.585L18.875 11.5834V11.1843C18.7839 9.60721 18.1163 8.11834 16.999 7.00101C15.8817 5.88369 14.3928 5.21616 12.8157 5.12502H12.4167L12.4151 5.12502ZM12.4175 3.87502C11.2199 3.87203 10.0385 4.1518 8.96941 4.69156C7.68967 5.33143 6.61328 6.31485 5.86072 7.53175C5.10805 8.74884 4.70903 10.1514 4.70835 11.5824C4.70835 11.5822 4.70835 11.582 4.70835 11.5817L5.33324 11.5834L4.70835 11.5831C4.70835 11.5829 4.70835 11.5827 4.70835 11.5824C4.70556 12.6921 4.94552 13.7878 5.41014 14.7932L3.90709 19.3024C3.83223 19.527 3.89068 19.7746 4.05808 19.942C4.22547 20.1094 4.47308 20.1678 4.69766 20.093L9.20681 18.5899C10.2122 19.0545 11.308 19.2945 12.4177 19.2917C12.4174 19.2917 12.4172 19.2917 12.4169 19.2917L12.4167 18.6667L12.4183 19.2917C12.4181 19.2917 12.4179 19.2917 12.4177 19.2917C13.8487 19.291 15.2512 18.892 16.4683 18.1393C17.6852 17.3868 18.6686 16.3104 19.3085 15.0306C19.8482 13.9616 20.128 12.7804 20.125 11.5829V11.5834H19.5001L20.125 11.5817C20.125 11.5821 20.125 11.5825 20.125 11.5829" fill="black"/>
</g>
<defs>
<clipPath id="clip0_775_13768">
<rect width="20" height="20" fill="white" transform="translate(2 2)"/>
</clipPath>
</defs>
</svg>
