<svg width="24" height="24" viewBox="0 0 24 24" fill="none" xmlns="http://www.w3.org/2000/svg">
<path fill-rule="evenodd" clip-rule="evenodd" d="M10.1466 2.81478C10.7706 2.35515 11.5431 2.14376 12.3141 2.22164C13.0851 2.29952 13.7997 2.66113 14.3192 3.23625C14.8385 3.81122 15.1257 4.55858 15.125 5.33333V5.33344V5.33396V9.78333C15.125 10.1285 14.8452 10.4083 14.5 10.4083C14.1549 10.4083 13.875 10.1285 13.875 9.78333V5.33333V5.3327C13.8755 4.86772 13.7032 4.41915 13.3915 4.07408C13.0799 3.729 12.6511 3.51204 12.1885 3.46531C11.7258 3.41858 11.2624 3.54542 10.888 3.82119C10.5136 4.09697 10.2551 4.50202 10.1625 4.9577C10.0939 5.29598 9.76394 5.51452 9.42567 5.44583C9.08739 5.37714 8.86885 5.04723 8.93754 4.70896C9.09176 3.94949 9.52267 3.27441 10.1466 2.81478ZM10.125 11.9997V11.0089L12.8066 13.6904C12.6669 13.757 12.5188 13.8064 12.3654 13.8369C12.0019 13.9091 11.6251 13.8719 11.2827 13.7302C10.9403 13.5884 10.6476 13.3483 10.4416 13.0403C10.2356 12.7323 10.1254 12.3702 10.125 11.9997ZM15.2381 16.122L13.7218 14.6057C13.3856 14.8277 13.008 14.9836 12.6089 15.0629C12.0031 15.1833 11.3752 15.1214 10.8045 14.8851C10.2338 14.6488 9.74599 14.2487 9.40257 13.7353C9.05916 13.2219 8.87558 12.6182 8.87504 12.0005L8.87504 12V9.75888L2.39143 3.27527C2.14735 3.03119 2.14735 2.63547 2.39143 2.39139C2.63551 2.14731 3.03124 2.14731 3.27532 2.39139L14.2089 13.325L16.4533 15.5694C16.5074 15.5973 16.5583 15.6337 16.6041 15.6786C16.6531 15.7265 16.6925 15.7806 16.7223 15.8384L21.6086 20.7247C21.8527 20.9688 21.8527 21.3645 21.6086 21.6086C21.3646 21.8527 20.9688 21.8527 20.7248 21.6086L16.1267 17.0105C15.3122 17.6872 14.3409 18.1554 13.2969 18.3694C13.0741 18.4151 12.8499 18.4488 12.625 18.4707V20.5417H15.3334C15.6786 20.5417 15.9584 20.8215 15.9584 21.1667C15.9584 21.5118 15.6786 21.7917 15.3334 21.7917H12H8.66671C8.32153 21.7917 8.04171 21.5118 8.04171 21.1667C8.04171 20.8215 8.32153 20.5417 8.66671 20.5417H11.375V18.4707C10.7467 18.4096 10.1272 18.2564 9.53712 18.013C8.34737 17.5222 7.33138 16.6872 6.6195 15.615C5.90805 14.5435 5.53276 13.2839 5.54171 11.9978V10.3333C5.54171 9.98815 5.82153 9.70833 6.16671 9.70833C6.51189 9.70833 6.79171 9.98815 6.79171 10.3333V12V12.0046H6.79169C6.7841 13.0424 7.08677 14.0589 7.66086 14.9236C8.23496 15.7882 9.05431 16.4617 10.0138 16.8575C10.5797 17.0909 11.1792 17.2215 11.7844 17.2465C11.8516 17.2218 11.9242 17.2083 12 17.2083C12.0758 17.2083 12.1485 17.2218 12.2157 17.2465C12.4935 17.235 12.7711 17.2012 13.0459 17.1449C13.8497 16.9801 14.6002 16.6284 15.2381 16.122ZM18.4584 10.3333C18.4584 9.98815 18.1786 9.70833 17.8334 9.70833C17.4882 9.70833 17.2084 9.98815 17.2084 10.3333L17.2084 11.9995L17.8334 9.70833L17.2084 12C17.2081 12.3067 17.1807 12.6128 17.1265 12.9146C17.0656 13.2544 17.2916 13.5792 17.6313 13.6402C17.9711 13.7011 18.2959 13.4751 18.3569 13.1354C18.4241 12.7608 18.458 12.3811 18.4584 12.0005V12V10.3333Z" fill="black"/>
</svg>
