<svg width="24" height="24" viewBox="0 0 24 24" fill="none" xmlns="http://www.w3.org/2000/svg">
<path fill-rule="evenodd" clip-rule="evenodd" d="M12 2.20825C11.1712 2.20825 10.3763 2.53749 9.79025 3.12354C9.2042 3.70959 8.87496 4.50445 8.87496 5.33325V11.9999C8.87496 12.8287 9.2042 13.6236 9.79025 14.2096C10.3763 14.7957 11.1712 15.1249 12 15.1249C12.8288 15.1249 13.6236 14.7957 14.2097 14.2096C14.7957 13.6236 15.125 12.8287 15.125 11.9999V5.33325C15.125 4.50445 14.7957 3.70959 14.2097 3.12354C13.6236 2.53749 12.8288 2.20825 12 2.20825ZM10.6741 4.00743C11.0258 3.6558 11.5027 3.45825 12 3.45825C12.4972 3.45825 12.9742 3.6558 13.3258 4.00743C13.6774 4.35906 13.875 4.83597 13.875 5.33325V11.9999C13.875 12.4972 13.6774 12.9741 13.3258 13.3257C12.9742 13.6774 12.4972 13.8749 12 13.8749C11.5027 13.8749 11.0258 13.6774 10.6741 13.3257C10.3225 12.9741 10.125 12.4972 10.125 11.9999V5.33325C10.125 4.83597 10.3225 4.35906 10.6741 4.00743ZM6.79163 10.3333C6.79163 9.98807 6.5118 9.70825 6.16663 9.70825C5.82145 9.70825 5.54163 9.98807 5.54163 10.3333V11.9999C5.54163 13.7128 6.22206 15.3555 7.43323 16.5666C8.49619 17.6296 9.89153 18.2838 11.375 18.428V20.5416H8.66663C8.32145 20.5416 8.04163 20.8214 8.04163 21.1666C8.04163 21.5118 8.32145 21.7916 8.66663 21.7916H12H15.3333C15.6785 21.7916 15.9583 21.5118 15.9583 21.1666C15.9583 20.8214 15.6785 20.5416 15.3333 20.5416H12.625V18.428C14.1084 18.2838 15.5037 17.6296 16.5667 16.5666C17.7779 15.3555 18.4583 13.7128 18.4583 11.9999V10.3333C18.4583 9.98807 18.1785 9.70825 17.8333 9.70825C17.4881 9.70825 17.2083 9.98807 17.2083 10.3333V11.9999C17.2083 13.3813 16.6596 14.706 15.6828 15.6828C14.7061 16.6595 13.3813 17.2083 12 17.2083C10.6186 17.2083 9.29386 16.6595 8.31711 15.6828C7.34036 14.706 6.79163 13.3813 6.79163 11.9999V10.3333Z" fill="black"/>
</svg>
