<svg width="24" height="24" viewBox="0 0 24 24" fill="none" xmlns="http://www.w3.org/2000/svg">
<path fill-rule="evenodd" clip-rule="evenodd" d="M19.904 4.02312C20.0442 4.14187 20.125 4.31628 20.125 4.5V15.3333C20.125 17.0592 18.7259 18.4583 17 18.4583C15.2741 18.4583 13.875 17.0592 13.875 15.3333C13.875 13.6074 15.2741 12.2083 17 12.2083C17.7035 12.2083 18.3527 12.4408 18.875 12.8331V5.23779L10.125 6.69613V17C10.125 18.7259 8.72589 20.125 7 20.125C5.27411 20.125 3.875 18.7259 3.875 17C3.875 15.2741 5.27411 13.875 7 13.875C7.7035 13.875 8.35271 14.1075 8.875 14.4998V6.16667C8.875 5.86115 9.09588 5.6004 9.39725 5.55018L19.3973 3.88351C19.5785 3.85331 19.7638 3.90437 19.904 4.02312ZM18.875 15.3333C18.875 14.2978 18.0355 13.4583 17 13.4583C15.9645 13.4583 15.125 14.2978 15.125 15.3333C15.125 16.3689 15.9645 17.2083 17 17.2083C18.0355 17.2083 18.875 16.3689 18.875 15.3333ZM7 15.125C8.03553 15.125 8.875 15.9645 8.875 17C8.875 18.0355 8.03553 18.875 7 18.875C5.96447 18.875 5.125 18.0355 5.125 17C5.125 15.9645 5.96447 15.125 7 15.125Z" fill="black"/>
</svg>
