<svg width="24" height="24" viewBox="0 0 24 24" fill="none" xmlns="http://www.w3.org/2000/svg">
<g clip-path="url(#clip0_775_13808)">
<path fill-rule="evenodd" clip-rule="evenodd" d="M15.15 3.78149C14.4313 3.78149 13.7419 4.06703 13.2336 4.57529L5.57531 12.2336C4.75432 13.0546 4.29309 14.1681 4.29309 15.3292C4.29309 16.4902 4.75432 17.6037 5.57531 18.4247C6.39631 19.2457 7.50981 19.707 8.67087 19.707C9.83193 19.707 10.9454 19.2457 11.7664 18.4247L19.4248 10.7664C19.6688 10.5223 20.0646 10.5223 20.3086 10.7664C20.5527 11.0105 20.5527 11.4062 20.3086 11.6503L12.6503 19.3086C11.5949 20.364 10.1635 20.957 8.67087 20.957C7.17829 20.957 5.74684 20.364 4.69143 19.3086C3.63602 18.2532 3.04309 16.8218 3.04309 15.3292C3.04309 13.8366 3.63602 12.4052 4.69143 11.3497L12.3498 3.69141C13.0924 2.94873 14.0997 2.53149 15.15 2.53149C16.2003 2.53149 17.2076 2.94873 17.9503 3.69141C18.693 4.43409 19.1102 5.44137 19.1102 6.49168C19.1102 7.54199 18.693 8.54928 17.9503 9.29196L10.2836 16.9503C9.8537 17.3802 9.27057 17.6218 8.66254 17.6218C8.0545 17.6218 7.47137 17.3802 7.04143 16.9503C6.61149 16.5203 6.36994 15.9372 6.36994 15.3292C6.36994 14.7211 6.61149 14.138 7.04143 13.7081L14.1167 6.64114C14.3609 6.39721 14.7566 6.39744 15.0006 6.64167C15.2445 6.88589 15.2443 7.28162 15.0001 7.52555L7.92531 14.592C7.92523 14.592 7.9254 14.5919 7.92531 14.592C7.72995 14.7875 7.61994 15.0528 7.61994 15.3292C7.61994 15.6057 7.72979 15.8709 7.92531 16.0664C8.12084 16.2619 8.38603 16.3718 8.66254 16.3718C8.93905 16.3718 9.20424 16.2619 9.39976 16.0664L17.0664 8.40807C17.0663 8.40815 17.0665 8.40799 17.0664 8.40807C17.5745 7.89984 17.8602 7.21035 17.8602 6.49168C17.8602 5.77289 17.5747 5.08355 17.0664 4.57529C16.5582 4.06703 15.8688 3.78149 15.15 3.78149Z" fill="black"/>
</g>
<defs>
<clipPath id="clip0_775_13808">
<rect width="20" height="20" fill="white" transform="translate(2 2)"/>
</clipPath>
</defs>
</svg>
