<svg width="24" height="24" viewBox="0 0 24 24" fill="none" xmlns="http://www.w3.org/2000/svg">
<g clip-path="url(#clip0_775_13816)">
<path d="M17.8333 6.16675L6.16663 17.8334" stroke="black" stroke-width="1.25" stroke-linecap="round" stroke-linejoin="round"/>
<path d="M7.41671 9.49992C8.5673 9.49992 9.50004 8.56718 9.50004 7.41659C9.50004 6.26599 8.5673 5.33325 7.41671 5.33325C6.26611 5.33325 5.33337 6.26599 5.33337 7.41659C5.33337 8.56718 6.26611 9.49992 7.41671 9.49992Z" stroke="black" stroke-width="1.25" stroke-linecap="round" stroke-linejoin="round"/>
<path d="M16.5833 18.6667C17.7339 18.6667 18.6667 17.7339 18.6667 16.5833C18.6667 15.4327 17.7339 14.5 16.5833 14.5C15.4327 14.5 14.5 15.4327 14.5 16.5833C14.5 17.7339 15.4327 18.6667 16.5833 18.6667Z" stroke="black" stroke-width="1.25" stroke-linecap="round" stroke-linejoin="round"/>
</g>
<defs>
<clipPath id="clip0_775_13816">
<rect width="20" height="20" fill="white" transform="translate(2 2)"/>
</clipPath>
</defs>
</svg>
