<svg width="24" height="24" viewBox="0 0 24 24" fill="none" xmlns="http://www.w3.org/2000/svg">
<g clip-path="url(#clip0_775_13826)">
<g clip-path="url(#clip1_775_13826)">
<path d="M10.9 13.0916C11.7457 13.938 12.7015 14.6668 13.7417 15.2583L14.8 14.1999C15.0266 13.9759 15.3126 13.8215 15.6243 13.755C15.9359 13.6885 16.26 13.7128 16.5583 13.8249C17.3144 14.107 18.0999 14.3027 18.9 14.4083C19.3004 14.4649 19.6667 14.6651 19.9304 14.9718C20.1941 15.2784 20.3373 15.6705 20.3333 16.0749V18.5749C20.3343 18.807 20.2867 19.0367 20.1937 19.2494C20.1008 19.462 19.9644 19.6529 19.7934 19.8098C19.6224 19.9667 19.4205 20.0862 19.2006 20.1605C18.9808 20.2349 18.7478 20.2625 18.5167 20.2416C15.9523 19.963 13.4892 19.0867 11.325 17.6833C10.321 17.0458 9.39042 16.2996 8.54999 15.4583M6.32499 12.6749C4.92153 10.5108 4.04528 8.04756 3.76665 5.48325C3.74583 5.25281 3.77321 5.02055 3.84707 4.80127C3.92092 4.58199 4.03963 4.38049 4.19562 4.2096C4.35162 4.03871 4.54149 3.90218 4.75314 3.80869C4.9648 3.7152 5.1936 3.6668 5.42499 3.66658H7.92499C8.32941 3.6626 8.72148 3.80582 9.02812 4.06953C9.33476 4.33324 9.53505 4.69946 9.59165 5.09992C9.69717 5.89997 9.89286 6.68552 10.175 7.44158C10.2871 7.73985 10.3114 8.06401 10.2449 8.37565C10.1784 8.68729 10.024 8.97334 9.79998 9.19992L8.74165 10.2583" stroke="black" stroke-width="1.25" stroke-linecap="round" stroke-linejoin="round"/>
<path d="M21.1666 2.83325L2.83331 21.1666" stroke="black" stroke-width="1.25" stroke-linecap="round" stroke-linejoin="round"/>
</g>
</g>
<defs>
<clipPath id="clip0_775_13826">
<rect width="20" height="20" fill="white" transform="translate(2 2)"/>
</clipPath>
<clipPath id="clip1_775_13826">
<rect width="20" height="20" fill="white" transform="translate(2 2)"/>
</clipPath>
</defs>
</svg>
