<svg width="24" height="24" viewBox="0 0 24 24" fill="none" xmlns="http://www.w3.org/2000/svg">
<path fill-rule="evenodd" clip-rule="evenodd" d="M12.0001 3.04175C11.8343 3.04175 11.6753 3.1076 11.5581 3.22481C11.4409 3.34202 11.3751 3.50099 11.3751 3.66675V12.0001C11.3751 12.3453 11.6549 12.6251 12.0001 12.6251H20.3334C20.6786 12.6251 20.9584 12.3453 20.9584 12.0001C20.9584 10.8237 20.7267 9.65875 20.2765 8.57188C19.8263 7.485 19.1664 6.49744 18.3345 5.66558C17.5027 4.83372 16.5151 4.17386 15.4283 3.72366C14.3414 3.27346 13.1765 3.04175 12.0001 3.04175ZM12.6251 11.3751V4.31713C13.4232 4.38206 14.2077 4.57108 14.9499 4.87851C15.8851 5.26589 16.7349 5.83368 17.4507 6.54947C18.1665 7.26525 18.7342 8.11501 19.1216 9.05023C19.4291 9.79243 19.6181 10.5769 19.683 11.3751H12.6251ZM8.91669 4.93125C9.23306 4.79319 9.37761 4.42481 9.23955 4.10844C9.10149 3.79207 8.73311 3.64752 8.41674 3.78558C7.07557 4.37085 5.89819 5.27574 4.98753 6.42115C4.07687 7.56656 3.46067 8.91761 3.19278 10.3562C2.92489 11.7948 3.01348 13.2771 3.45081 14.6735C3.88814 16.0699 4.66088 17.338 5.70149 18.3668C6.74209 19.3955 8.01888 20.1538 9.42021 20.5751C10.8215 20.9965 12.3048 21.0681 13.7402 20.7838C15.1756 20.4995 16.5195 19.8679 17.6545 18.9442C18.7894 18.0206 19.6808 16.8329 20.2507 15.4852C20.3851 15.1672 20.2364 14.8005 19.9185 14.6661C19.6005 14.5317 19.2338 14.6804 19.0994 14.9983C18.609 16.158 17.842 17.18 16.8654 17.9747C15.8889 18.7695 14.7325 19.313 13.4973 19.5576C12.2622 19.8023 10.9859 19.7406 9.78014 19.378C8.57434 19.0155 7.47572 18.3631 6.58031 17.4778C5.68491 16.5926 5.01999 15.5015 4.64368 14.2999C4.26738 13.0983 4.19115 11.8229 4.42165 10.585C4.65216 9.34718 5.18239 8.18465 5.96598 7.19906C6.74957 6.21348 7.76266 5.43485 8.91669 4.93125Z" fill="black"/>
</svg>
