<svg width="24" height="24" viewBox="0 0 24 24" fill="none" xmlns="http://www.w3.org/2000/svg">
<path fill-rule="evenodd" clip-rule="evenodd" d="M4.29163 12.0001C4.29163 7.74289 7.74276 4.29175 12 4.29175C16.2572 4.29175 19.7083 7.74289 19.7083 12.0001C19.7083 16.2573 16.2572 19.7084 12 19.7084C7.74276 19.7084 4.29163 16.2573 4.29163 12.0001ZM12 3.04175C7.05241 3.04175 3.04163 7.05253 3.04163 12.0001C3.04163 16.9476 7.05241 20.9584 12 20.9584C16.9475 20.9584 20.9583 16.9476 20.9583 12.0001C20.9583 7.05253 16.9475 3.04175 12 3.04175ZM10.68 8.14672C10.4882 8.01886 10.2416 8.00694 10.0384 8.1157C9.83516 8.22446 9.70829 8.43625 9.70829 8.66675V15.3334C9.70829 15.5639 9.83516 15.7757 10.0384 15.8845C10.2416 15.9932 10.4882 15.9813 10.68 15.8534L15.68 12.5201C15.8539 12.4042 15.9583 12.2091 15.9583 12.0001C15.9583 11.7911 15.8539 11.596 15.68 11.4801L10.68 8.14672ZM14.2066 12.0001L10.9583 14.1656V9.83457L14.2066 12.0001Z" fill="black"/>
</svg>
