<svg width="24" height="24" viewBox="0 0 24 24" fill="none" xmlns="http://www.w3.org/2000/svg">
<path fill-rule="evenodd" clip-rule="evenodd" d="M12.625 3.66675C12.625 3.32157 12.3452 3.04175 12 3.04175C11.6548 3.04175 11.375 3.32157 11.375 3.66675V12.0001C11.375 12.3453 11.6548 12.6251 12 12.6251C12.3452 12.6251 12.625 12.3453 12.625 12.0001V3.66675ZM7.1337 7.97528C7.37774 7.73117 7.37767 7.33544 7.13356 7.0914C6.88944 6.84736 6.49371 6.84743 6.24967 7.09154C5.11364 8.22795 4.34007 9.67569 4.02678 11.2517C3.71349 12.8277 3.87455 14.4613 4.48959 15.9458C5.10463 17.4303 6.14603 18.6991 7.48212 19.5917C8.81821 20.4844 10.389 20.9608 11.9959 20.9608C13.6027 20.9608 15.1735 20.4844 16.5096 19.5917C17.8457 18.6991 18.8871 17.4303 19.5021 15.9458C20.1172 14.4613 20.2782 12.8277 19.9649 11.2517C19.6516 9.67569 18.8781 8.22795 17.742 7.09154C17.498 6.84743 17.1023 6.84736 16.8582 7.0914C16.614 7.33544 16.614 7.73117 16.858 7.97528C17.8193 8.93686 18.4738 10.1619 18.7389 11.4954C19.004 12.829 18.8677 14.2112 18.3473 15.4673C17.8269 16.7234 16.9457 17.797 15.8152 18.5524C14.6846 19.3077 13.3555 19.7108 11.9959 19.7108C10.6362 19.7108 9.30708 19.3077 8.17654 18.5524C7.046 17.797 6.16481 16.7234 5.6444 15.4673C5.12398 14.2112 4.9877 12.829 5.25279 11.4954C5.51788 10.1619 6.17244 8.93686 7.1337 7.97528Z" fill="black"/>
</svg>
