<svg width="24" height="24" viewBox="0 0 24 24" fill="none" xmlns="http://www.w3.org/2000/svg">
<path fill-rule="evenodd" clip-rule="evenodd" d="M6.55035 6.55027C6.79439 6.30616 6.79433 5.91043 6.55022 5.66639C6.3061 5.42235 5.91038 5.42241 5.66634 5.66652C3.98691 7.34646 3.04346 9.62464 3.04346 12.0001C3.04346 14.3755 3.98691 16.6537 5.66634 18.3336C5.91038 18.5777 6.3061 18.5778 6.55022 18.3337C6.79433 18.0897 6.79439 17.694 6.55035 17.4499C5.10526 16.0043 4.29346 14.044 4.29346 12.0001C4.29346 9.95609 5.10526 7.9958 6.55035 6.55027ZM18.3337 5.66652C18.0896 5.42241 17.6939 5.42235 17.4498 5.66639C17.2057 5.91043 17.2056 6.30616 17.4497 6.55027C18.8948 7.9958 19.7066 9.95609 19.7066 12.0001C19.7066 14.044 18.8948 16.0043 17.4497 17.4499C17.2056 17.694 17.2057 18.0897 17.4498 18.3337C17.6939 18.5778 18.0896 18.5777 18.3337 18.3336C20.0131 16.6537 20.9566 14.3755 20.9566 12.0001C20.9566 9.62464 20.0131 7.34646 18.3337 5.66652ZM8.90837 8.90059C9.15259 8.65664 9.15281 8.26092 8.90886 8.0167C8.66492 7.77249 8.2692 7.77227 8.02498 8.01621C7.50199 8.53862 7.08709 9.15899 6.80402 9.84186C6.52095 10.5247 6.37524 11.2567 6.37524 11.9959C6.37524 12.7351 6.52095 13.4671 6.80402 14.1499C7.08709 14.8328 7.50199 15.4532 8.02498 15.9756C8.2692 16.2195 8.66492 16.2193 8.90886 15.9751C9.15281 15.7309 9.15259 15.3352 8.90837 15.0912C8.5016 14.6849 8.17891 14.2024 7.95874 13.6713C7.73857 13.1401 7.62524 12.5708 7.62524 11.9959C7.62524 11.421 7.73857 10.8517 7.95874 10.3205C8.17891 9.78942 8.5016 9.30691 8.90837 8.90059ZM15.975 8.02454C15.7308 7.7806 15.3351 7.78082 15.0912 8.02504C14.8472 8.26925 14.8474 8.66498 15.0916 8.90892C15.4984 9.31524 15.8211 9.79775 16.0413 10.3289C16.2615 10.86 16.3748 11.4293 16.3748 12.0042C16.3748 12.5792 16.2615 13.1485 16.0413 13.6796C15.8211 14.2107 15.4984 14.6932 15.0916 15.0995C14.8474 15.3435 14.8472 15.7392 15.0912 15.9834C15.3351 16.2276 15.7308 16.2279 15.975 15.9839C16.498 15.4615 16.9129 14.8411 17.196 14.1583C17.4791 13.4754 17.6248 12.7434 17.6248 12.0042C17.6248 11.265 17.4791 10.5331 17.196 9.85019C16.9129 9.16733 16.498 8.54696 15.975 8.02454ZM10.9583 12.0001C10.9583 11.4248 11.4247 10.9584 12 10.9584C12.5753 10.9584 13.0417 11.4248 13.0417 12.0001C13.0417 12.5754 12.5753 13.0417 12 13.0417C11.4247 13.0417 10.9583 12.5754 10.9583 12.0001ZM12 9.7084C10.7344 9.7084 9.70834 10.7344 9.70834 12.0001C9.70834 13.2657 10.7344 14.2917 12 14.2917C13.2657 14.2917 14.2917 13.2657 14.2917 12.0001C14.2917 10.7344 13.2657 9.7084 12 9.7084Z" fill="black"/>
</svg>
