<svg width="24" height="24" viewBox="0 0 24 24" fill="none" xmlns="http://www.w3.org/2000/svg">
<g clip-path="url(#clip0_775_13883)">
<path d="M21.1666 5.33325V10.3333H16.1666" stroke="black" stroke-width="1.25" stroke-linecap="round" stroke-linejoin="round"/>
<path d="M2.83337 18.6667V13.6667H7.83337" stroke="black" stroke-width="1.25" stroke-linecap="round" stroke-linejoin="round"/>
<path d="M4.92504 9.49998C5.34768 8.30564 6.06598 7.23782 7.01293 6.39616C7.95987 5.55451 9.10459 4.96645 10.3403 4.68686C11.576 4.40727 12.8623 4.44527 14.0794 4.79729C15.2964 5.14932 16.4044 5.80391 17.3 6.69998L21.1667 10.3333M2.83337 13.6666L6.70004 17.3C7.59566 18.1961 8.70368 18.8506 9.92071 19.2027C11.1377 19.5547 12.4241 19.5927 13.6598 19.3131C14.8955 19.0335 16.0402 18.4455 16.9872 17.6038C17.9341 16.7621 18.6524 15.6943 19.075 14.5" stroke="black" stroke-width="1.25" stroke-linecap="round" stroke-linejoin="round"/>
</g>
<defs>
<clipPath id="clip0_775_13883">
<rect width="20" height="20" fill="white" transform="translate(2 2)"/>
</clipPath>
</defs>
</svg>
