<svg width="24" height="24" viewBox="0 0 24 24" fill="none" xmlns="http://www.w3.org/2000/svg">
<g clip-path="url(#clip0_775_13835)">
<path d="M5.33337 11.1667C7.3225 11.1667 9.23015 11.9569 10.6367 13.3634C12.0432 14.77 12.8334 16.6776 12.8334 18.6667" stroke="black" stroke-width="1.25" stroke-linecap="round" stroke-linejoin="round"/>
<path d="M5.33337 5.33325C8.86959 5.33325 12.261 6.73801 14.7615 9.23849C17.2619 11.739 18.6667 15.1304 18.6667 18.6666" stroke="black" stroke-width="1.25" stroke-linecap="round" stroke-linejoin="round"/>
<path d="M6.16671 18.6667C6.62694 18.6667 7.00004 18.2936 7.00004 17.8333C7.00004 17.3731 6.62694 17 6.16671 17C5.70647 17 5.33337 17.3731 5.33337 17.8333C5.33337 18.2936 5.70647 18.6667 6.16671 18.6667Z" stroke="black" stroke-width="1.25" stroke-linecap="round" stroke-linejoin="round"/>
</g>
<defs>
<clipPath id="clip0_775_13835">
<rect width="20" height="20" fill="white" transform="translate(2 2)"/>
</clipPath>
</defs>
</svg>
