<svg width="24" height="24" viewBox="0 0 24 24" fill="none" xmlns="http://www.w3.org/2000/svg">
<g clip-path="url(#clip0_775_13842)">
<g clip-path="url(#clip1_775_13842)">
<path fill-rule="evenodd" clip-rule="evenodd" d="M12 10.125C10.9645 10.125 10.125 10.9645 10.125 12C10.125 13.0355 10.9645 13.875 12 13.875C13.0355 13.875 13.875 13.0355 13.875 12C13.875 10.9645 13.0355 10.125 12 10.125ZM8.875 12C8.875 10.2741 10.2741 8.875 12 8.875C13.7259 8.875 15.125 10.2741 15.125 12C15.125 13.7259 13.7259 15.125 12 15.125C10.2741 15.125 8.875 13.7259 8.875 12Z" fill="black"/>
<path fill-rule="evenodd" clip-rule="evenodd" d="M12 3.45825C11.7238 3.45825 11.4588 3.568 11.2635 3.76335C11.0681 3.9587 10.9584 4.22365 10.9584 4.49992V4.64159L10.9584 4.64408C10.9568 5.03412 10.8412 5.4152 10.6259 5.7404C10.4105 6.0656 10.1048 6.32073 9.74625 6.47438C9.68705 6.49975 9.62441 6.51577 9.56055 6.52198C9.22879 6.6424 8.87022 6.67315 8.52138 6.60989C8.12817 6.5386 7.76534 6.35115 7.47967 6.07171L7.47474 6.06689L7.42476 6.01686C7.32802 5.92001 7.21289 5.84293 7.08644 5.79051C6.95998 5.73809 6.82443 5.71111 6.68754 5.71111C6.55065 5.71111 6.4151 5.73809 6.28864 5.79051C6.16219 5.84293 6.0473 5.91976 5.95056 6.01661C5.85371 6.11336 5.77639 6.22873 5.72397 6.35519C5.67154 6.48165 5.64456 6.61719 5.64456 6.75408C5.64456 6.89098 5.67154 7.02652 5.72397 7.15298C5.77639 7.27944 5.85322 7.39432 5.95007 7.49106L6.00519 7.54618C6.28463 7.83186 6.47205 8.19472 6.54335 8.58792C6.61347 8.97465 6.56807 9.37331 6.41305 9.73416C6.27325 10.103 6.02744 10.4224 5.70638 10.652C5.37996 10.8855 4.99086 11.0154 4.58966 11.0247L4.57504 11.0249H4.50004C4.22377 11.0249 3.95882 11.1347 3.76347 11.33C3.56812 11.5254 3.45837 11.7903 3.45837 12.0666C3.45837 12.3429 3.56812 12.6078 3.76347 12.8032C3.95882 12.9985 4.22377 13.1083 4.50004 13.1083H4.6442C5.03425 13.1098 5.41532 13.2254 5.74052 13.4408C6.06479 13.6555 6.31939 13.9601 6.47318 14.3173C6.63345 14.6821 6.68111 15.0865 6.61002 15.4786C6.53872 15.8718 6.35127 16.2346 6.07183 16.5203L6.06701 16.5252L6.01698 16.5752C5.92013 16.6719 5.84305 16.7871 5.79063 16.9135C5.73821 17.04 5.71123 17.1755 5.71123 17.3124C5.71123 17.4493 5.73821 17.5849 5.79063 17.7113C5.84305 17.8378 5.91989 17.9527 6.01674 18.0494C6.11348 18.1462 6.22885 18.2236 6.35531 18.276C6.48177 18.3284 6.61732 18.3554 6.75421 18.3554C6.8911 18.3554 7.02665 18.3284 7.1531 18.276C7.27956 18.2236 7.39444 18.1467 7.49119 18.0499L7.54631 17.9948C7.83198 17.7153 8.19484 17.5279 8.58804 17.4566C8.97477 17.3865 9.37343 17.4319 9.73428 17.5869C10.1031 17.7267 10.4225 17.9725 10.6522 18.2936C10.8856 18.62 11.0155 19.0091 11.0249 19.4103L11.025 19.4249V19.4999C11.025 19.7762 11.1348 20.0411 11.3301 20.2365C11.5255 20.4318 11.7904 20.5416 12.0667 20.5416C12.343 20.5416 12.6079 20.4318 12.8033 20.2365C12.9986 20.0411 13.1084 19.7762 13.1084 19.4999V19.3582L13.1084 19.3558C13.1099 18.9657 13.2255 18.5846 13.4409 18.2594C13.6556 17.9352 13.9602 17.6806 14.3174 17.5268C14.6822 17.3665 15.0866 17.3188 15.4787 17.3899C15.8719 17.4612 16.2347 17.6487 16.5204 17.9281L16.5253 17.9329L16.5753 17.983C16.6721 18.0798 16.7872 18.1569 16.9136 18.2093C17.0401 18.2617 17.1756 18.2887 17.3125 18.2887C17.4494 18.2887 17.585 18.2617 17.7114 18.2093C17.8379 18.1569 17.9528 18.0801 18.0495 17.9832C18.1464 17.8865 18.2237 17.7711 18.2761 17.6446C18.3285 17.5182 18.3555 17.3826 18.3555 17.2458C18.3555 17.1089 18.3285 16.9733 18.2761 16.8469C18.2237 16.7204 18.1469 16.6055 18.05 16.5088L17.9949 16.4537C17.7155 16.168 17.528 15.8051 17.4567 15.4119C17.3856 15.0198 17.4333 14.6154 17.5936 14.2506C17.7474 13.8934 18.002 13.5888 18.3262 13.3741C18.6514 13.1587 19.0325 13.0431 19.4225 13.0416L19.425 13.0416L19.5 13.0416C19.7763 13.0416 20.0413 12.9318 20.2366 12.7365C20.432 12.5411 20.5417 12.2762 20.5417 11.9999C20.5417 11.7237 20.432 11.4587 20.2366 11.2633C20.0413 11.068 19.7763 10.9583 19.5 10.9583H19.3584L19.3559 10.9582C18.9658 10.9567 18.5848 10.8411 18.2596 10.6258C17.9344 10.4104 17.6792 10.1046 17.5256 9.74613C17.5002 9.68693 17.4842 9.62428 17.478 9.56042C17.3576 9.22866 17.3268 8.8701 17.3901 8.52125C17.4614 8.12805 17.6488 7.76522 17.9283 7.47954L17.9331 7.47462L17.9831 7.42464C18.0799 7.3279 18.157 7.21277 18.2094 7.08631C18.2619 6.95986 18.2889 6.82431 18.2889 6.68742C18.2889 6.55053 18.2619 6.41498 18.2094 6.28852C18.157 6.16207 18.0802 6.04718 17.9833 5.95044C17.8866 5.85359 17.7712 5.77626 17.6448 5.72384C17.5183 5.67142 17.3828 5.64444 17.2459 5.64444C17.109 5.64444 16.9734 5.67142 16.847 5.72384C16.7205 5.77627 16.6056 5.8531 16.5089 5.94995L16.4538 6.00507C16.1681 6.28451 15.8052 6.47193 15.412 6.54323C15.0199 6.61432 14.6155 6.56666 14.2508 6.40639C13.8936 6.2526 13.589 5.998 13.3742 5.67373C13.1588 5.34853 13.0433 4.96746 13.0417 4.57741L13.0417 4.57492V4.49992C13.0417 4.22365 12.932 3.9587 12.7366 3.76335C12.5413 3.568 12.2763 3.45825 12 3.45825ZM10.3796 2.87947C10.8094 2.44969 11.3923 2.20825 12 2.20825C12.6078 2.20825 13.1907 2.44969 13.6205 2.87947C14.0503 3.30924 14.2917 3.89213 14.2917 4.49992V4.57345C14.2925 4.71936 14.3358 4.86188 14.4164 4.98355C14.4971 5.1055 14.6118 5.20117 14.7462 5.25879L14.7524 5.26143C14.8895 5.32194 15.0416 5.34002 15.189 5.31328C15.3355 5.28672 15.4708 5.21716 15.5776 5.1135L15.6245 5.06656C15.8374 4.85348 16.0901 4.68445 16.3683 4.56913C16.6465 4.4538 16.9447 4.39444 17.2459 4.39444C17.547 4.39444 17.8452 4.4538 18.1234 4.56913C18.4016 4.68445 18.6544 4.85349 18.8672 5.06656C19.0801 5.27929 19.2489 5.53186 19.3642 5.80985C19.4795 6.08805 19.5389 6.38626 19.5389 6.68742C19.5389 6.98858 19.4795 7.28679 19.3642 7.56499C19.2489 7.84309 19.0799 8.09574 18.867 8.30852C18.8669 8.30861 18.8671 8.30844 18.867 8.30852L18.8198 8.35574C18.7161 8.46254 18.6466 8.59778 18.62 8.74427C18.5933 8.89172 18.6113 9.0438 18.6718 9.1809C18.6942 9.23161 18.7097 9.28494 18.718 9.33947C18.7755 9.43699 18.8546 9.52059 18.9497 9.58357C19.0714 9.66414 19.2139 9.70747 19.3598 9.70825H19.5C20.1078 9.70825 20.6907 9.94969 21.1205 10.3795C21.5503 10.8092 21.7917 11.3921 21.7917 11.9999C21.7917 12.6077 21.5503 13.1906 21.1205 13.6204C20.6907 14.0501 20.1078 14.2916 19.5 14.2916H19.4265C19.2806 14.2924 19.1381 14.3357 19.0164 14.4163C18.8945 14.497 18.7988 14.6117 18.7412 14.7461L18.7385 14.7523C18.678 14.8894 18.6599 15.0414 18.6867 15.1889C18.7132 15.3354 18.7828 15.4706 18.8864 15.5774L18.9334 15.6244C18.9333 15.6243 18.9335 15.6245 18.9334 15.6244C19.1464 15.8372 19.3155 16.0901 19.4308 16.3682C19.5462 16.6464 19.6055 16.9446 19.6055 17.2458C19.6055 17.5469 19.5462 17.8451 19.4308 18.1233C19.3155 18.4014 19.1466 18.6541 18.9336 18.8669C18.7209 19.0798 18.4682 19.2488 18.1901 19.364C17.9119 19.4794 17.6137 19.5387 17.3125 19.5387C17.0114 19.5387 16.7132 19.4794 16.435 19.364C16.1568 19.2487 15.904 19.0797 15.6912 18.8666L15.6442 18.8196C15.5374 18.716 15.4022 18.6464 15.2557 18.6199C15.1082 18.5932 14.9562 18.6112 14.8191 18.6717L14.8129 18.6744C14.6785 18.732 14.5638 18.8277 14.4831 18.9496C14.4025 19.0713 14.3592 19.2138 14.3584 19.3597V19.4999C14.3584 20.1077 14.1169 20.6906 13.6872 21.1204C13.2574 21.5501 12.6745 21.7916 12.0667 21.7916C11.4589 21.7916 10.876 21.5501 10.4463 21.1204C10.0165 20.6906 9.77504 20.1077 9.77504 19.4999V19.4333C9.77035 19.2851 9.72179 19.1415 9.63544 19.0208C9.54789 18.8984 9.42554 18.8051 9.2843 18.7532C9.27194 18.7486 9.25973 18.7437 9.24769 18.7384C9.11059 18.6779 8.95851 18.6598 8.81106 18.6866C8.66455 18.7131 8.52929 18.7827 8.42249 18.8864L8.37556 18.9333C8.16273 19.1464 7.90998 19.3154 7.63178 19.4307C7.35357 19.546 7.05537 19.6054 6.75421 19.6054C6.45305 19.6054 6.15484 19.546 5.87664 19.4307C5.59865 19.3155 5.34608 19.1466 5.13334 18.9338C4.92027 18.7209 4.75124 18.4682 4.63592 18.19C4.52059 17.9118 4.46123 17.6136 4.46123 17.3124C4.46123 17.0113 4.52059 16.713 4.63592 16.4348C4.75124 16.1566 4.92027 15.9039 5.13334 15.6911L5.18029 15.6441C5.28395 15.5373 5.35351 15.4021 5.38007 15.2556C5.40681 15.1081 5.38876 14.956 5.32825 14.8189L5.32554 14.8128C5.26793 14.6784 5.17229 14.5637 5.05033 14.4829C4.92867 14.4024 4.78615 14.359 4.64024 14.3583H4.50004C3.89225 14.3583 3.30936 14.1168 2.87959 13.687C2.44982 13.2573 2.20837 12.6744 2.20837 12.0666C2.20837 11.4588 2.44982 10.8759 2.87959 10.4461C3.30936 10.0164 3.89225 9.77492 4.50004 9.77492H4.56663C4.71488 9.77022 4.85847 9.72167 4.9792 9.63532C5.1016 9.54777 5.19484 9.42542 5.24679 9.28418C5.25133 9.27182 5.25627 9.25961 5.26158 9.24756C5.32209 9.11047 5.34014 8.95839 5.3134 8.81093C5.28684 8.66444 5.21729 8.52919 5.11363 8.42239L5.06668 8.37544C5.0666 8.37536 5.06676 8.37552 5.06668 8.37544C4.85372 8.16266 4.68453 7.90975 4.56925 7.63166C4.45392 7.35345 4.39456 7.05525 4.39456 6.75408C4.39456 6.45292 4.45392 6.15472 4.56925 5.87651C4.68453 5.59842 4.85348 5.34576 5.06643 5.13298C5.27922 4.92002 5.53187 4.75108 5.80997 4.63579C6.08817 4.52047 6.38638 4.46111 6.68754 4.46111C6.9887 4.46111 7.28691 4.52047 7.56511 4.63579C7.84321 4.75108 8.09587 4.92002 8.30865 5.13298C8.30857 5.1329 8.30873 5.13306 8.30865 5.13298L8.35584 5.18017C8.46264 5.28383 8.5979 5.35339 8.74439 5.37995C8.89184 5.40669 9.04392 5.38864 9.18102 5.32813C9.23173 5.30575 9.28506 5.29027 9.33959 5.282C9.43711 5.22444 9.52071 5.14532 9.58369 5.05021C9.66427 4.92855 9.70759 4.78602 9.70837 4.64011V4.49992C9.70837 3.89213 9.94982 3.30924 10.3796 2.87947Z" fill="black"/>
</g>
</g>
<defs>
<clipPath id="clip0_775_13842">
<rect width="20" height="20" fill="white" transform="translate(2 2)"/>
</clipPath>
<clipPath id="clip1_775_13842">
<rect width="20" height="20" fill="white" transform="translate(2 2)"/>
</clipPath>
</defs>
</svg>
