<svg width="24" height="24" viewBox="0 0 24 24" fill="none" xmlns="http://www.w3.org/2000/svg">
<path fill-rule="evenodd" clip-rule="evenodd" d="M3.27532 2.39131C3.03124 2.14723 2.63551 2.14723 2.39143 2.39131C2.14735 2.63539 2.14735 3.03112 2.39143 3.27519L4.86687 5.75064C4.767 5.8627 4.70837 6.00966 4.70837 6.16659V11.9999C4.70837 14.7789 6.55113 17.0209 8.25514 18.5119C9.12028 19.2689 9.98246 19.8614 10.6271 20.2643C10.9501 20.4662 11.2202 20.6215 11.4109 20.7271C11.5063 20.7799 11.582 20.8203 11.6346 20.848C11.661 20.8618 11.6816 20.8724 11.696 20.8798L11.713 20.8885L11.718 20.891L11.7196 20.8918L11.7201 20.8921C11.7203 20.8922 11.7205 20.8923 12 20.3333L11.7205 20.8923C11.9008 20.9824 12.1135 20.9801 12.2917 20.886C13.9268 20.0233 15.4139 18.908 16.6987 17.5825L20.7248 21.6085C20.9688 21.8526 21.3646 21.8526 21.6086 21.6085C21.8527 21.3644 21.8527 20.9687 21.6086 20.7246L17.1288 16.2448C17.1267 16.2427 17.1247 16.2406 17.1226 16.2386L6.39362 5.50961C6.38729 5.503 6.38082 5.49653 6.37423 5.49023L3.27532 2.39131ZM5.95837 6.84214V11.9999C5.95837 14.2209 7.44895 16.1456 9.07827 17.5712C9.8798 18.2726 10.6843 18.826 11.2896 19.2043C11.5815 19.3867 11.8255 19.5275 11.9985 19.6236C13.4088 18.8426 14.6948 17.8567 15.8147 16.6985L5.95837 6.84214ZM11.7814 3.08108C11.9227 3.02832 12.0783 3.02843 12.2195 3.08138L18.8862 5.58138C19.1301 5.67286 19.2917 5.90606 19.2917 6.16659V11.9999V12.004C19.2876 12.6307 19.1911 13.2533 19.0053 13.8519C18.903 14.1815 18.5528 14.3658 18.2231 14.2635C17.8934 14.1612 17.7091 13.811 17.8115 13.4813C17.9606 13.0008 18.0382 12.5009 18.0417 11.9978V6.59971L11.9996 4.33391L9.58535 5.23543C9.26198 5.35618 8.90195 5.19193 8.7812 4.86856C8.66045 4.54519 8.8247 4.18516 9.14807 4.06441L11.7814 3.08108Z" fill="black"/>
</svg>
