<svg width="24" height="24" viewBox="0 0 24 24" fill="none" xmlns="http://www.w3.org/2000/svg">
<g clip-path="url(#clip0_775_13848)">
<path d="M9.49996 20.3334C9.9602 20.3334 10.3333 19.9603 10.3333 19.5001C10.3333 19.0398 9.9602 18.6667 9.49996 18.6667C9.03972 18.6667 8.66663 19.0398 8.66663 19.5001C8.66663 19.9603 9.03972 20.3334 9.49996 20.3334Z" stroke="black" stroke-width="1.25" stroke-linecap="round" stroke-linejoin="round"/>
<path d="M18.6667 20.3334C19.1269 20.3334 19.5 19.9603 19.5 19.5001C19.5 19.0398 19.1269 18.6667 18.6667 18.6667C18.2065 18.6667 17.8334 19.0398 17.8334 19.5001C17.8334 19.9603 18.2065 20.3334 18.6667 20.3334Z" stroke="black" stroke-width="1.25" stroke-linecap="round" stroke-linejoin="round"/>
<path d="M2.83337 2.83325H6.16671L8.40004 13.9916C8.47624 14.3752 8.68496 14.7199 8.98966 14.9652C9.29436 15.2104 9.67562 15.3407 10.0667 15.3333H18.1667C18.5578 15.3407 18.9391 15.2104 19.2438 14.9652C19.5484 14.7199 19.7572 14.3752 19.8334 13.9916L21.1667 6.99992H7.00004" stroke="black" stroke-width="1.25" stroke-linecap="round" stroke-linejoin="round"/>
</g>
<defs>
<clipPath id="clip0_775_13848">
<rect width="20" height="20" fill="white" transform="translate(2 2)"/>
</clipPath>
</defs>
</svg>
