<svg width="24" height="24" viewBox="0 0 24 24" fill="none" xmlns="http://www.w3.org/2000/svg">
<g clip-path="url(#clip0_775_13847)">
<path d="M7 3.66675L4.5 7.00008V18.6667C4.5 19.1088 4.67559 19.5327 4.98816 19.8453C5.30072 20.1578 5.72464 20.3334 6.16667 20.3334H17.8333C18.2754 20.3334 18.6993 20.1578 19.0118 19.8453C19.3244 19.5327 19.5 19.1088 19.5 18.6667V7.00008L17 3.66675H7Z" stroke="black" stroke-width="1.25" stroke-linecap="round" stroke-linejoin="round"/>
<path d="M4.5 7H19.5" stroke="black" stroke-width="1.25" stroke-linecap="round" stroke-linejoin="round"/>
<path d="M15.3333 10.3333C15.3333 11.2173 14.9821 12.0652 14.357 12.6903C13.7319 13.3154 12.884 13.6666 12 13.6666C11.1159 13.6666 10.2681 13.3154 9.64294 12.6903C9.01782 12.0652 8.66663 11.2173 8.66663 10.3333" stroke="black" stroke-width="1.25" stroke-linecap="round" stroke-linejoin="round"/>
</g>
<defs>
<clipPath id="clip0_775_13847">
<rect width="20" height="20" fill="white" transform="translate(2 2)"/>
</clipPath>
</defs>
</svg>
