<svg width="24" height="24" viewBox="0 0 24 24" fill="none" xmlns="http://www.w3.org/2000/svg">
<g clip-path="url(#clip0_775_13857)">
<path d="M14.0834 10.3334C13.3917 10.3334 12.8334 9.77508 12.8334 9.08341V4.91675C12.8334 4.22508 13.3917 3.66675 14.0834 3.66675C14.775 3.66675 15.3334 4.22508 15.3334 4.91675V9.08341C15.3334 9.77508 14.775 10.3334 14.0834 10.3334Z" stroke="black" stroke-width="1.25" stroke-linecap="round" stroke-linejoin="round"/>
<path d="M19.0834 10.3333H17.8334V9.08325C17.8334 8.39159 18.3917 7.83325 19.0834 7.83325C19.775 7.83325 20.3334 8.39159 20.3334 9.08325C20.3334 9.77492 19.775 10.3333 19.0834 10.3333Z" stroke="black" stroke-width="1.25" stroke-linecap="round" stroke-linejoin="round"/>
<path d="M9.91663 13.6667C10.6083 13.6667 11.1666 14.2251 11.1666 14.9167V19.0834C11.1666 19.7751 10.6083 20.3334 9.91663 20.3334C9.22496 20.3334 8.66663 19.7751 8.66663 19.0834V14.9167C8.66663 14.2251 9.22496 13.6667 9.91663 13.6667Z" stroke="black" stroke-width="1.25" stroke-linecap="round" stroke-linejoin="round"/>
<path d="M4.91663 13.6667H6.16663V14.9167C6.16663 15.6084 5.60829 16.1667 4.91663 16.1667C4.22496 16.1667 3.66663 15.6084 3.66663 14.9167C3.66663 14.2251 4.22496 13.6667 4.91663 13.6667Z" stroke="black" stroke-width="1.25" stroke-linecap="round" stroke-linejoin="round"/>
<path d="M13.6666 14.0833C13.6666 13.3916 14.225 12.8333 14.9166 12.8333H19.0833C19.775 12.8333 20.3333 13.3916 20.3333 14.0833C20.3333 14.7749 19.775 15.3333 19.0833 15.3333H14.9166C14.225 15.3333 13.6666 14.7749 13.6666 14.0833Z" stroke="black" stroke-width="1.25" stroke-linecap="round" stroke-linejoin="round"/>
<path d="M14.9166 17.8333H13.6666V19.0833C13.6666 19.7749 14.225 20.3333 14.9166 20.3333C15.6083 20.3333 16.1666 19.7749 16.1666 19.0833C16.1666 18.3916 15.6083 17.8333 14.9166 17.8333Z" stroke="black" stroke-width="1.25" stroke-linecap="round" stroke-linejoin="round"/>
<path d="M10.3333 9.91675C10.3333 9.22508 9.77496 8.66675 9.08329 8.66675H4.91663C4.22496 8.66675 3.66663 9.22508 3.66663 9.91675C3.66663 10.6084 4.22496 11.1667 4.91663 11.1667H9.08329C9.77496 11.1667 10.3333 10.6084 10.3333 9.91675Z" stroke="black" stroke-width="1.25" stroke-linecap="round" stroke-linejoin="round"/>
<path d="M9.08337 6.16675H10.3334V4.91675C10.3334 4.22508 9.77504 3.66675 9.08337 3.66675C8.39171 3.66675 7.83337 4.22508 7.83337 4.91675C7.83337 5.60841 8.39171 6.16675 9.08337 6.16675Z" stroke="black" stroke-width="1.25" stroke-linecap="round" stroke-linejoin="round"/>
</g>
<defs>
<clipPath id="clip0_775_13857">
<rect width="20" height="20" fill="white" transform="translate(2 2)"/>
</clipPath>
</defs>
</svg>
