<svg width="24" height="24" viewBox="0 0 24 24" fill="none" xmlns="http://www.w3.org/2000/svg">
<path fill-rule="evenodd" clip-rule="evenodd" d="M12.625 3.66675C12.625 3.32157 12.3452 3.04175 12 3.04175C11.6549 3.04175 11.375 3.32157 11.375 3.66675V7.9912L9.10865 5.72481C8.86457 5.48073 8.46884 5.48073 8.22477 5.72481C7.98069 5.96888 7.98069 6.36461 8.22477 6.60869L11.5581 9.94202C11.618 10.0019 11.6871 10.0472 11.7608 10.0777C11.8344 10.1082 11.915 10.125 11.9996 10.1251C11.9997 10.1251 11.9999 10.1251 12 10.1251C12.0007 10.1251 12.0014 10.1251 12.0021 10.1251C12.1613 10.1246 12.3205 10.0635 12.442 9.94202L15.7753 6.60869C16.0194 6.36461 16.0194 5.96888 15.7753 5.72481C15.5312 5.48073 15.1355 5.48073 14.8914 5.72481L12.625 7.9912V3.66675ZM12 12.2084C10.7292 12.2084 9.51043 12.7132 8.61182 13.6119C7.71321 14.5105 7.20837 15.7293 7.20837 17.0001C7.20837 17.3453 7.4882 17.6251 7.83337 17.6251C8.17855 17.6251 8.45837 17.3453 8.45837 17.0001C8.45837 16.0608 8.83151 15.1599 9.4957 14.4957C10.1599 13.8316 11.0607 13.4584 12 13.4584C12.9393 13.4584 13.8402 13.8316 14.5044 14.4957C15.1686 15.1599 15.5417 16.0608 15.5417 17.0001C15.5417 17.3453 15.8215 17.6251 16.1667 17.6251C16.5119 17.6251 16.7917 17.3453 16.7917 17.0001C16.7917 15.7293 16.2869 14.5105 15.3883 13.6119C14.4896 12.7132 13.2709 12.2084 12 12.2084ZM5.07477 10.0748C5.31884 9.83073 5.71457 9.83073 5.95865 10.0748L7.14198 11.2581C7.38606 11.5022 7.38606 11.8979 7.14198 12.142C6.8979 12.3861 6.50218 12.3861 6.2581 12.142L5.07477 10.9587C4.83069 10.7146 4.83069 10.3189 5.07477 10.0748ZM2.83337 16.3751C2.4882 16.3751 2.20837 16.6549 2.20837 17.0001C2.20837 17.3453 2.4882 17.6251 2.83337 17.6251H4.50004C4.84522 17.6251 5.12504 17.3453 5.12504 17.0001C5.12504 16.6549 4.84522 16.3751 4.50004 16.3751H2.83337ZM18.875 17.0001C18.875 16.6549 19.1549 16.3751 19.5 16.3751H21.1667C21.5119 16.3751 21.7917 16.6549 21.7917 17.0001C21.7917 17.3453 21.5119 17.6251 21.1667 17.6251H19.5C19.1549 17.6251 18.875 17.3453 18.875 17.0001ZM18.9253 10.9587C19.1694 10.7146 19.1694 10.3189 18.9253 10.0748C18.6812 9.83073 18.2855 9.83073 18.0414 10.0748L16.8581 11.2581C16.614 11.5022 16.614 11.8979 16.8581 12.142C17.1022 12.3861 17.4979 12.3861 17.742 12.142L18.9253 10.9587ZM2.20837 20.3334C2.20837 19.9882 2.4882 19.7084 2.83337 19.7084H21.1667C21.5119 19.7084 21.7917 19.9882 21.7917 20.3334C21.7917 20.6786 21.5119 20.9584 21.1667 20.9584H2.83337C2.4882 20.9584 2.20837 20.6786 2.20837 20.3334Z" fill="black"/>
</svg>
