<svg width="24" height="24" viewBox="0 0 24 24" fill="none" xmlns="http://www.w3.org/2000/svg">
<g clip-path="url(#clip0_775_13917)">
<path fill-rule="evenodd" clip-rule="evenodd" d="M9.66829 3.0015C10.1762 2.49359 10.8651 2.20825 11.5834 2.20825C12.3017 2.20825 12.9905 2.49359 13.4985 3.0015C14.0064 3.50942 14.2917 4.19829 14.2917 4.91659V13.982C14.9351 14.4892 15.4251 15.1684 15.7026 15.944C16.0188 16.8277 16.0425 17.7897 15.77 18.6879C15.4975 19.5861 14.9435 20.3729 14.1896 20.932C13.4357 21.4911 12.522 21.793 11.5834 21.793C10.6448 21.793 9.73106 21.4911 8.97717 20.932C8.22329 20.3729 7.6692 19.5861 7.39675 18.6879C7.1243 17.7897 7.14792 16.8277 7.46414 15.944C7.74167 15.1684 8.23168 14.4892 8.87504 13.982V4.91659C8.87504 4.19829 9.16038 3.50942 9.66829 3.0015ZM11.5834 3.45825C11.1966 3.45825 10.8257 3.6119 10.5522 3.88539C10.2787 4.15888 10.125 4.52981 10.125 4.91659V14.2999C10.125 14.5087 10.0208 14.7036 9.84726 14.8196C9.28982 15.1921 8.86693 15.7339 8.64106 16.3651C8.41519 16.9964 8.39832 17.6835 8.59293 18.3251C8.78754 18.9666 9.18331 19.5286 9.7218 19.928C10.2603 20.3274 10.9129 20.543 11.5834 20.543C12.2538 20.543 12.9065 20.3274 13.4449 19.928C13.9834 19.5286 14.3792 18.9666 14.5738 18.3251C14.7684 17.6835 14.7516 16.9964 14.5257 16.3651C14.2998 15.7339 13.8769 15.1921 13.3195 14.8196C13.1459 14.7036 13.0417 14.5087 13.0417 14.2999V4.91659C13.0417 4.52981 12.8881 4.15888 12.6146 3.88539C12.3411 3.6119 11.9701 3.45825 11.5834 3.45825Z" fill="black"/>
</g>
<defs>
<clipPath id="clip0_775_13917">
<rect width="20" height="20" fill="white" transform="translate(2 2)"/>
</clipPath>
</defs>
</svg>
