<svg width="24" height="24" viewBox="0 0 24 24" fill="none" xmlns="http://www.w3.org/2000/svg">
<path d="M7.83329 11.1667L11.1666 3.66675C11.8297 3.66675 12.4656 3.93014 12.9344 4.39898C13.4032 4.86782 13.6666 5.50371 13.6666 6.16675V9.50008H18.3833C18.6249 9.49735 18.8642 9.54717 19.0846 9.6461C19.305 9.74502 19.5013 9.89069 19.6598 10.073C19.8184 10.2553 19.9354 10.4699 20.0027 10.702C20.0701 10.934 20.0862 11.1779 20.05 11.4167L18.9 18.9167C18.8397 19.3142 18.6378 19.6764 18.3315 19.9368C18.0253 20.1971 17.6352 20.338 17.2333 20.3334H7.83329M7.83329 11.1667V20.3334M7.83329 11.1667H5.33329C4.89127 11.1667 4.46734 11.3423 4.15478 11.6549C3.84222 11.9675 3.66663 12.3914 3.66663 12.8334V18.6667C3.66663 19.1088 3.84222 19.5327 4.15478 19.8453C4.46734 20.1578 4.89127 20.3334 5.33329 20.3334H7.83329" stroke="black" stroke-width="1.25" stroke-linecap="round" stroke-linejoin="round"/>
</svg>
