<svg width="24" height="24" viewBox="0 0 24 24" fill="none" xmlns="http://www.w3.org/2000/svg">
<path fill-rule="evenodd" clip-rule="evenodd" d="M9.59676 4.59684C9.79211 4.40149 10.0571 4.29175 10.3333 4.29175H13.6667C13.9429 4.29175 14.2079 4.40149 14.4032 4.59684C14.5986 4.7922 14.7083 5.05715 14.7083 5.33341V6.37508H9.29167V5.33341C9.29167 5.05715 9.40141 4.7922 9.59676 4.59684ZM8.04167 6.37508V5.33341C8.04167 4.72563 8.28311 4.14273 8.71288 3.71296C9.14265 3.28319 9.72555 3.04175 10.3333 3.04175H13.6667C14.2745 3.04175 14.8573 3.28319 15.2871 3.71296C15.7169 4.14273 15.9583 4.72563 15.9583 5.33341V6.37508H17.8333H19.5C19.8452 6.37508 20.125 6.6549 20.125 7.00008C20.125 7.34526 19.8452 7.62508 19.5 7.62508H18.4583V18.6667C18.4583 19.2745 18.2169 19.8574 17.7871 20.2872C17.3573 20.717 16.7745 20.9584 16.1667 20.9584H7.83333C7.22555 20.9584 6.64265 20.717 6.21288 20.2872C5.78311 19.8574 5.54167 19.2745 5.54167 18.6667V7.62508H4.5C4.15482 7.62508 3.875 7.34526 3.875 7.00008C3.875 6.6549 4.15482 6.37508 4.5 6.37508H6.16667H8.04167ZM6.79167 7.62508H8.66667H15.3333H17.2083V18.6667C17.2083 18.943 17.0986 19.208 16.9032 19.4033C16.7079 19.5987 16.4429 19.7084 16.1667 19.7084H7.83333C7.55707 19.7084 7.29211 19.5987 7.09676 19.4033C6.90141 19.208 6.79167 18.943 6.79167 18.6667V7.62508Z" fill="black"/>
</svg>
