<svg width="24" height="24" viewBox="0 0 24 24" fill="none" xmlns="http://www.w3.org/2000/svg">
<path fill-rule="evenodd" clip-rule="evenodd" d="M6.16667 5.125C5.59137 5.125 5.125 5.59137 5.125 6.16667V17.8333C5.125 18.4086 5.59137 18.875 6.16667 18.875H17.8333C18.4086 18.875 18.875 18.4086 18.875 17.8333V6.16667C18.875 5.59137 18.4086 5.125 17.8333 5.125H6.16667ZM3.875 6.16667C3.875 4.90101 4.90101 3.875 6.16667 3.875H17.8333C19.099 3.875 20.125 4.90101 20.125 6.16667V17.8333C20.125 19.099 19.099 20.125 17.8333 20.125H6.16667C4.90101 20.125 3.875 19.099 3.875 17.8333V6.16667ZM7.20833 7.83333C7.20833 7.48816 7.48816 7.20833 7.83333 7.20833H10.3333C10.6785 7.20833 10.9583 7.48816 10.9583 7.83333V15.3333C10.9583 15.6785 10.6785 15.9583 10.3333 15.9583H7.83333C7.48816 15.9583 7.20833 15.6785 7.20833 15.3333V7.83333ZM8.45833 8.45833V14.7083H9.70833V8.45833H8.45833ZM13.6667 7.20833C13.3215 7.20833 13.0417 7.48816 13.0417 7.83333V12C13.0417 12.3452 13.3215 12.625 13.6667 12.625H16.1667C16.5118 12.625 16.7917 12.3452 16.7917 12V7.83333C16.7917 7.48816 16.5118 7.20833 16.1667 7.20833H13.6667ZM14.2917 11.375V8.45833H15.5417V11.375H14.2917Z" fill="black"/>
</svg>
