<svg width="24" height="24" viewBox="0 0 24 24" fill="none" xmlns="http://www.w3.org/2000/svg">
<g clip-path="url(#clip0_775_13943)">
<path fill-rule="evenodd" clip-rule="evenodd" d="M10.8757 4.08405C11.2189 3.89082 11.6062 3.78931 12 3.78931C12.3939 3.78931 12.7811 3.89082 13.1243 4.08405C13.4675 4.27728 13.7551 4.5557 13.9594 4.89245L13.9612 4.89542L21.0247 16.6873C21.2248 17.0339 21.3306 17.4268 21.3317 17.8269C21.3328 18.2271 21.2291 18.6206 21.031 18.9682C20.8328 19.3158 20.5471 19.6055 20.2022 19.8085C19.8573 20.0114 19.4653 20.1205 19.0652 20.1249L19.0583 20.125L4.93481 20.1249C4.53469 20.1205 4.14269 20.0114 3.79781 19.8085C3.45294 19.6055 3.16721 19.3158 2.96905 18.9682C2.7709 18.6206 2.66722 18.2271 2.66834 17.8269C2.66946 17.4268 2.77534 17.0339 2.97544 16.6874L2.98045 16.6787L10.0406 4.89245C10.2449 4.55569 10.5325 4.27728 10.8757 4.08405ZM12 5.03931C11.821 5.03931 11.645 5.08545 11.489 5.17328C11.3334 5.26085 11.203 5.38693 11.1102 5.5394C11.1099 5.53984 11.1097 5.54029 11.1094 5.54074L4.05572 17.3163C3.9662 17.4729 3.91884 17.65 3.91834 17.8304C3.91783 18.0123 3.96495 18.1912 4.05503 18.3492C4.1451 18.5072 4.27497 18.6389 4.43173 18.7311C4.58764 18.8229 4.76473 18.8724 4.94556 18.8749H19.0545C19.2353 18.8724 19.4124 18.8229 19.5683 18.7311C19.7251 18.6389 19.8549 18.5072 19.945 18.3492C20.0351 18.1912 20.0822 18.0123 20.0817 17.8304C20.0812 17.65 20.0338 17.4729 19.9443 17.3163L12.8906 5.54074C12.8904 5.54031 12.8901 5.53988 12.8899 5.53945C12.7971 5.38696 12.6666 5.26086 12.5111 5.17328C12.3551 5.08545 12.179 5.03931 12 5.03931Z" fill="black"/>
</g>
<defs>
<clipPath id="clip0_775_13943">
<rect width="20" height="20" fill="white" transform="translate(2 2)"/>
</clipPath>
</defs>
</svg>
