<svg width="24" height="24" viewBox="0 0 24 24" fill="none" xmlns="http://www.w3.org/2000/svg">
<g clip-path="url(#clip0_775_13946)">
<path fill-rule="evenodd" clip-rule="evenodd" d="M2.20837 4.5C2.20837 4.15482 2.4882 3.875 2.83337 3.875H15.3334C15.6786 3.875 15.9584 4.15482 15.9584 4.5V15.3333C15.9584 15.6785 15.6786 15.9583 15.3334 15.9583H2.83337C2.4882 15.9583 2.20837 15.6785 2.20837 15.3333V4.5ZM3.45837 5.125V14.7083H14.7084V5.125H3.45837Z" fill="black"/>
<path fill-rule="evenodd" clip-rule="evenodd" d="M14.7084 8.66675C14.7084 8.32157 14.9882 8.04175 15.3334 8.04175H18.6667C18.8325 8.04175 18.9914 8.1076 19.1086 8.22481L21.6086 10.7248C21.7259 10.842 21.7917 11.001 21.7917 11.1667V15.3334C21.7917 15.6786 21.5119 15.9584 21.1667 15.9584H15.3334C14.9882 15.9584 14.7084 15.6786 14.7084 15.3334V8.66675ZM15.9584 9.29175V14.7084H20.5417V11.4256L18.4078 9.29175H15.9584Z" fill="black"/>
<path fill-rule="evenodd" clip-rule="evenodd" d="M6.58333 15.9583C5.77792 15.9583 5.125 16.6112 5.125 17.4166C5.125 18.222 5.77792 18.8749 6.58333 18.8749C7.38875 18.8749 8.04167 18.222 8.04167 17.4166C8.04167 16.6112 7.38875 15.9583 6.58333 15.9583ZM3.875 17.4166C3.875 15.9208 5.08756 14.7083 6.58333 14.7083C8.0791 14.7083 9.29167 15.9208 9.29167 17.4166C9.29167 18.9124 8.0791 20.1249 6.58333 20.1249C5.08756 20.1249 3.875 18.9124 3.875 17.4166Z" fill="black"/>
<path fill-rule="evenodd" clip-rule="evenodd" d="M17.4167 15.9583C16.6113 15.9583 15.9584 16.6112 15.9584 17.4166C15.9584 18.222 16.6113 18.8749 17.4167 18.8749C18.2221 18.8749 18.875 18.222 18.875 17.4166C18.875 16.6112 18.2221 15.9583 17.4167 15.9583ZM14.7084 17.4166C14.7084 15.9208 15.9209 14.7083 17.4167 14.7083C18.9125 14.7083 20.125 15.9208 20.125 17.4166C20.125 18.9124 18.9125 20.1249 17.4167 20.1249C15.9209 20.1249 14.7084 18.9124 14.7084 17.4166Z" fill="black"/>
</g>
<defs>
<clipPath id="clip0_775_13946">
<rect width="20" height="20" fill="white" transform="translate(2 2)"/>
</clipPath>
</defs>
</svg>
