<svg width="24" height="24" viewBox="0 0 24 24" fill="none" xmlns="http://www.w3.org/2000/svg">
<g clip-path="url(#clip0_775_13951)">
<path fill-rule="evenodd" clip-rule="evenodd" d="M5.33329 8.45825C4.758 8.45825 4.29163 8.92462 4.29163 9.49992V18.6666C4.29163 19.2419 4.758 19.7083 5.33329 19.7083H18.6666C19.2419 19.7083 19.7083 19.2419 19.7083 18.6666V9.49992C19.7083 8.92462 19.2419 8.45825 18.6666 8.45825H5.33329ZM3.04163 9.49992C3.04163 8.23427 4.06764 7.20825 5.33329 7.20825H18.6666C19.9323 7.20825 20.9583 8.23427 20.9583 9.49992V18.6666C20.9583 19.9322 19.9323 20.9583 18.6666 20.9583H5.33329C4.06764 20.9583 3.04163 19.9322 3.04163 18.6666V9.49992Z" fill="black"/>
<path fill-rule="evenodd" clip-rule="evenodd" d="M7.39143 3.22481C7.63551 2.98073 8.03124 2.98073 8.27532 3.22481L12 6.94953L15.7248 3.22481C15.9688 2.98073 16.3646 2.98073 16.6086 3.22481C16.8527 3.46888 16.8527 3.86461 16.6086 4.10869L12.442 8.27536C12.1979 8.51943 11.8022 8.51943 11.5581 8.27536L7.39143 4.10869C7.14735 3.86461 7.14735 3.46888 7.39143 3.22481Z" fill="black"/>
</g>
<defs>
<clipPath id="clip0_775_13951">
<rect width="20" height="20" fill="white" transform="translate(2 2)"/>
</clipPath>
</defs>
</svg>
