<svg width="24" height="24" viewBox="0 0 24 24" fill="none" xmlns="http://www.w3.org/2000/svg">
<g clip-path="url(#clip0_775_13895)">
<path fill-rule="evenodd" clip-rule="evenodd" d="M3.875 3.66675C3.875 3.32157 4.15482 3.04175 4.5 3.04175H19.5C19.8452 3.04175 20.125 3.32157 20.125 3.66675V13.6667C20.125 13.8325 20.0592 13.9915 19.9419 14.1087L16.6086 17.442C16.4914 17.5592 16.3324 17.6251 16.1667 17.6251H12.2589L9.10861 20.7754C8.92986 20.9541 8.66104 21.0076 8.42749 20.9108C8.19394 20.8141 8.04167 20.5862 8.04167 20.3334V17.6251H4.5C4.15482 17.6251 3.875 17.3453 3.875 17.0001V3.66675ZM5.125 4.29175V16.3751H8.66667C9.01184 16.3751 9.29167 16.6549 9.29167 17.0001V18.8245L11.5581 16.5581C11.6753 16.4409 11.8342 16.3751 12 16.3751H15.9078L18.875 13.4079V4.29175H5.125ZM11.1667 7.20841C11.5118 7.20841 11.7917 7.48824 11.7917 7.83341V11.1667C11.7917 11.5119 11.5118 11.7917 11.1667 11.7917C10.8215 11.7917 10.5417 11.5119 10.5417 11.1667V7.83341C10.5417 7.48824 10.8215 7.20841 11.1667 7.20841ZM15.3333 7.20841C15.6785 7.20841 15.9583 7.48824 15.9583 7.83341V11.1667C15.9583 11.5119 15.6785 11.7917 15.3333 11.7917C14.9882 11.7917 14.7083 11.5119 14.7083 11.1667V7.83341C14.7083 7.48824 14.9882 7.20841 15.3333 7.20841Z" fill="black"/>
</g>
<defs>
<clipPath id="clip0_775_13895">
<rect width="20" height="20" fill="white" transform="translate(2 2)"/>
</clipPath>
</defs>
</svg>
