<svg width="24" height="24" viewBox="0 0 24 24" fill="none" xmlns="http://www.w3.org/2000/svg">
<g clip-path="url(#clip0_775_13901)">
<path fill-rule="evenodd" clip-rule="evenodd" d="M6.16667 11.7917C5.59137 11.7917 5.125 12.2581 5.125 12.8334V18.6667C5.125 19.242 5.59137 19.7084 6.16667 19.7084H17.8333C18.4086 19.7084 18.875 19.242 18.875 18.6667V12.8334C18.875 12.2581 18.4086 11.7917 17.8333 11.7917H6.16667ZM3.875 12.8334C3.875 11.5678 4.90101 10.5417 6.16667 10.5417H17.8333C19.099 10.5417 20.125 11.5678 20.125 12.8334V18.6667C20.125 19.9324 19.099 20.9584 17.8333 20.9584H6.16667C4.90101 20.9584 3.875 19.9324 3.875 18.6667V12.8334Z" fill="black"/>
<path d="M7.83338 11.1666V7.83322C7.83234 6.79992 8.21528 5.80311 8.90785 5.03627C9.60043 4.26944 10.5532 3.7873 11.5813 3.68346C12.6094 3.57961 13.6393 3.86147 14.4713 4.47431C15.3032 5.08715 15.8778 5.98726 16.0834 6.99988" stroke="black" stroke-width="1.25" stroke-linecap="round" stroke-linejoin="round"/>
</g>
<defs>
<clipPath id="clip0_775_13901">
<rect width="20" height="20" fill="white" transform="translate(2 2)"/>
</clipPath>
</defs>
</svg>
