<svg width="24" height="24" viewBox="0 0 24 24" fill="none" xmlns="http://www.w3.org/2000/svg">
<path fill-rule="evenodd" clip-rule="evenodd" d="M9.22705 3.8819C10.3285 3.84132 11.4248 4.05096 12.4335 4.49506C13.4423 4.93916 14.3373 5.60617 15.0511 6.44593C15.6593 7.1614 16.1226 7.98641 16.417 8.87491H17H17.0004C18.065 8.87561 19.099 9.23081 19.9393 9.88446C20.7796 10.5381 21.3782 11.453 21.6408 12.4846C21.9034 13.5163 21.815 14.6061 21.3894 15.5819C20.9639 16.5578 20.2255 17.3641 19.2908 17.8737C18.9877 18.0389 18.6081 17.9271 18.4429 17.6241C18.2777 17.321 18.3894 16.9414 18.6925 16.7762C19.3833 16.3995 19.9291 15.8035 20.2436 15.0823C20.5582 14.361 20.6235 13.5555 20.4295 12.793C20.2354 12.0304 19.7929 11.3542 19.1718 10.8711C18.5508 10.3881 17.7867 10.1255 17 10.1249L14.8747 8.41794C14.6626 8.00308 14.4025 7.61282 14.0987 7.25553C13.5072 6.55973 12.7657 6.00707 11.9299 5.6391C11.6349 5.50924 11.3309 5.40358 11.0209 5.32269L9.22705 3.8819ZM11.0208 5.32265L11.0209 5.32269L14.8747 8.41794L14.8749 8.41835L11.0208 5.32265ZM14.8749 8.41835L16.9996 10.1249L15.95 10.1249C15.665 10.1249 15.4162 9.9322 15.3449 9.65635C15.2337 9.22634 15.0758 8.81131 14.8749 8.41835ZM11.0208 5.32265L9.22705 3.8819C8.12562 3.92248 7.04771 4.21223 6.07437 4.72936C5.10104 5.24649 4.25759 5.97754 3.60746 6.86756C2.95733 7.75758 2.51742 8.78341 2.32081 9.86791C2.1242 10.9524 2.176 12.0674 2.47232 13.129C2.76865 14.1906 3.30178 15.1712 4.03163 15.9971C4.26021 16.2558 4.65518 16.2801 4.91384 16.0516C5.17249 15.823 5.19688 15.428 4.9683 15.1694C4.36356 14.485 3.92182 13.6725 3.6763 12.7929C3.43078 11.9133 3.38785 10.9895 3.55076 10.0909C3.71367 9.1923 4.07816 8.34233 4.61684 7.60489C5.15552 6.86744 5.85438 6.26171 6.66086 5.83323C7.46734 5.40475 8.36046 5.16467 9.27308 5.13105C9.86359 5.10929 10.4523 5.17434 11.0208 5.32265ZM11.7607 11.4223C11.687 11.4528 11.6179 11.498 11.558 11.558L8.22469 14.8913C7.98061 15.1354 7.98061 15.5311 8.22469 15.7752C8.46877 16.0193 8.8645 16.0193 9.10858 15.7752L11.375 13.5088V19.4999C11.375 19.8451 11.6548 20.1249 12 20.1249C12.3451 20.1249 12.625 19.8451 12.625 19.4999V13.5088L14.8914 15.7752C15.1354 16.0193 15.5312 16.0193 15.7752 15.7752C16.0193 15.5311 16.0193 15.1354 15.7752 14.8913L12.4424 11.5584L12.4419 11.558C12.382 11.4981 12.313 11.4529 12.2394 11.4224C12.1656 11.3918 12.0848 11.3749 12 11.3749C11.9186 11.3749 11.8371 11.3907 11.7607 11.4223Z" fill="black"/>
</svg>
