<svg width="24" height="24" viewBox="0 0 24 24" fill="none" xmlns="http://www.w3.org/2000/svg">
<path fill-rule="evenodd" clip-rule="evenodd" d="M12.4378 4.054C12.3789 3.99609 12.3113 3.95223 12.2392 3.92242L12.4378 4.054ZM12.625 6.00888L15.7247 9.10861C15.9688 9.35269 16.3645 9.35269 16.6086 9.10861C16.8527 8.86453 16.8527 8.4688 16.6086 8.22472L12.4424 4.05847M12 3.875C11.84 3.875 11.6801 3.93602 11.5581 4.05806L7.39139 8.22472C7.14731 8.4688 7.14731 8.86453 7.39139 9.10861C7.63547 9.35269 8.0312 9.35269 8.27528 9.10861L11.375 6.00888V14.5C11.375 14.8452 11.6548 15.125 12 15.125C12.3452 15.125 12.625 14.8452 12.625 14.5V6.00888M12 3.875C12.0847 3.875 12.1655 3.89187 12.2392 3.92242L12 3.875ZM4.5 13.875C4.84518 13.875 5.125 14.1548 5.125 14.5V17.8333C5.125 18.1096 5.23475 18.3746 5.4301 18.5699C5.62545 18.7653 5.8904 18.875 6.16667 18.875H17.8333C18.1096 18.875 18.3746 18.7653 18.5699 18.5699C18.7653 18.3746 18.875 18.1096 18.875 17.8333V14.5C18.875 14.1548 19.1548 13.875 19.5 13.875C19.8452 13.875 20.125 14.1548 20.125 14.5V17.8333C20.125 18.4411 19.8836 19.024 19.4538 19.4538C19.024 19.8836 18.4411 20.125 17.8333 20.125H6.16667C5.55888 20.125 4.97598 19.8836 4.54621 19.4538C4.11644 19.024 3.875 18.4411 3.875 17.8333V14.5C3.875 14.1548 4.15482 13.875 4.5 13.875Z" fill="black"/>
</svg>
