<svg width="24" height="24" viewBox="0 0 24 24" fill="none" xmlns="http://www.w3.org/2000/svg">
<path fill-rule="evenodd" clip-rule="evenodd" d="M9.08337 5.125C7.5876 5.125 6.37504 6.33756 6.37504 7.83333C6.37504 9.3291 7.5876 10.5417 9.08337 10.5417C10.5791 10.5417 11.7917 9.3291 11.7917 7.83333C11.7917 6.33756 10.5791 5.125 9.08337 5.125ZM5.12504 7.83333C5.12504 5.64721 6.89725 3.875 9.08337 3.875C11.2695 3.875 13.0417 5.64721 13.0417 7.83333C13.0417 10.0195 11.2695 11.7917 9.08337 11.7917C6.89725 11.7917 5.12504 10.0195 5.12504 7.83333ZM3.36774 15.0344C4.11007 14.292 5.11689 13.875 6.16671 13.875H12C13.0499 13.875 14.0567 14.292 14.799 15.0344C15.5413 15.7767 15.9584 16.7835 15.9584 17.8333V19.5C15.9584 19.8452 15.6786 20.125 15.3334 20.125C14.9882 20.125 14.7084 19.8452 14.7084 19.5V17.8333C14.7084 17.115 14.423 16.4262 13.9151 15.9183C13.4072 15.4103 12.7183 15.125 12 15.125H6.16671C5.44841 15.125 4.75954 15.4103 4.25163 15.9183C3.74372 16.4262 3.45837 17.115 3.45837 17.8333V19.5C3.45837 19.8452 3.17855 20.125 2.83337 20.125C2.4882 20.125 2.20837 19.8452 2.20837 19.5V17.8333C2.20837 16.7835 2.62541 15.7767 3.36774 15.0344ZM21.6087 9.94194C21.8527 9.69786 21.8527 9.30214 21.6087 9.05806C21.3646 8.81398 20.9688 8.81398 20.7248 9.05806L17.8334 11.9494L16.6086 10.7247C16.3646 10.4806 15.9688 10.4806 15.7248 10.7247C15.4807 10.9688 15.4807 11.3645 15.7248 11.6086L17.3914 13.2753C17.6355 13.5194 18.0312 13.5194 18.2753 13.2753L21.6087 9.94194Z" fill="black"/>
</svg>
