<svg width="24" height="24" viewBox="0 0 24 24" fill="none" xmlns="http://www.w3.org/2000/svg">
<path fill-rule="evenodd" clip-rule="evenodd" d="M6.37504 7.83333C6.37504 6.33756 7.5876 5.125 9.08337 5.125C10.5791 5.125 11.7917 6.33756 11.7917 7.83333C11.7917 9.3291 10.5791 10.5417 9.08337 10.5417C7.5876 10.5417 6.37504 9.3291 6.37504 7.83333ZM9.08337 3.875C6.89725 3.875 5.12504 5.64721 5.12504 7.83333C5.12504 10.0195 6.89725 11.7917 9.08337 11.7917C11.2695 11.7917 13.0417 10.0195 13.0417 7.83333C13.0417 5.64721 11.2695 3.875 9.08337 3.875ZM6.16671 13.875C5.11689 13.875 4.11007 14.292 3.36774 15.0344C2.62541 15.7767 2.20837 16.7835 2.20837 17.8333V19.5C2.20837 19.8452 2.4882 20.125 2.83337 20.125C3.17855 20.125 3.45837 19.8452 3.45837 19.5V17.8333C3.45837 17.115 3.74372 16.4262 4.25163 15.9183C4.75954 15.4103 5.44841 15.125 6.16671 15.125H12C12.7183 15.125 13.4072 15.4103 13.9151 15.9183C14.423 16.4262 14.7084 17.115 14.7084 17.8333V19.5C14.7084 19.8452 14.9882 20.125 15.3334 20.125C15.6786 20.125 15.9584 19.8452 15.9584 19.5V17.8333C15.9584 16.7835 15.5413 15.7767 14.799 15.0344C14.0567 14.292 13.0499 13.875 12 13.875H6.16671ZM18.6667 8.04167C19.0119 8.04167 19.2917 8.32149 19.2917 8.66667V10.5417H21.1667C21.5119 10.5417 21.7917 10.8215 21.7917 11.1667C21.7917 11.5118 21.5119 11.7917 21.1667 11.7917H19.2917V13.6667C19.2917 14.0118 19.0119 14.2917 18.6667 14.2917C18.3215 14.2917 18.0417 14.0118 18.0417 13.6667V11.7917H16.1667C15.8215 11.7917 15.5417 11.5118 15.5417 11.1667C15.5417 10.8215 15.8215 10.5417 16.1667 10.5417H18.0417V8.66667C18.0417 8.32149 18.3215 8.04167 18.6667 8.04167Z" fill="black"/>
</svg>
