<svg width="24" height="24" viewBox="0 0 24 24" fill="none" xmlns="http://www.w3.org/2000/svg">
<path fill-rule="evenodd" clip-rule="evenodd" d="M6.37504 7.83333C6.37504 6.33756 7.5876 5.125 9.08337 5.125C10.5791 5.125 11.7917 6.33756 11.7917 7.83333C11.7917 9.3291 10.5791 10.5417 9.08337 10.5417C7.5876 10.5417 6.37504 9.3291 6.37504 7.83333ZM9.08337 3.875C6.89725 3.875 5.12504 5.64721 5.12504 7.83333C5.12504 10.0195 6.89725 11.7917 9.08337 11.7917C11.2695 11.7917 13.0417 10.0195 13.0417 7.83333C13.0417 5.64721 11.2695 3.875 9.08337 3.875ZM6.16671 13.875C5.11689 13.875 4.11007 14.292 3.36774 15.0344C2.62541 15.7767 2.20837 16.7835 2.20837 17.8333V19.5C2.20837 19.8452 2.4882 20.125 2.83337 20.125C3.17855 20.125 3.45837 19.8452 3.45837 19.5V17.8333C3.45837 17.115 3.74372 16.4262 4.25163 15.9183C4.75954 15.4103 5.44841 15.125 6.16671 15.125H12C12.7183 15.125 13.4072 15.4103 13.9151 15.9183C14.423 16.4262 14.7084 17.115 14.7084 17.8333V19.5C14.7084 19.8452 14.9882 20.125 15.3334 20.125C15.6786 20.125 15.9584 19.8452 15.9584 19.5V17.8333C15.9584 16.7835 15.5413 15.7767 14.799 15.0344C14.0567 14.292 13.0499 13.875 12 13.875H6.16671ZM16.5581 8.22472C16.8022 7.98065 17.1979 7.98065 17.442 8.22472L19.0834 9.86612L20.7248 8.22472C20.9688 7.98065 21.3646 7.98065 21.6086 8.22472C21.8527 8.4688 21.8527 8.86453 21.6086 9.10861L19.9673 10.75L21.6086 12.3914C21.8527 12.6355 21.8527 13.0312 21.6086 13.2753C21.3646 13.5194 20.9688 13.5194 20.7248 13.2753L19.0834 11.6339L17.442 13.2753C17.1979 13.5194 16.8022 13.5194 16.5581 13.2753C16.314 13.0312 16.314 12.6355 16.5581 12.3914L18.1995 10.75L16.5581 9.10861C16.314 8.86453 16.314 8.4688 16.5581 8.22472Z" fill="black"/>
</svg>
