<svg width="24" height="24" viewBox="0 0 24 24" fill="none" xmlns="http://www.w3.org/2000/svg">
<path fill-rule="evenodd" clip-rule="evenodd" d="M3.27532 2.39131C3.03124 2.14723 2.63551 2.14723 2.39143 2.39131C2.14735 2.63539 2.14735 3.03112 2.39143 3.27519L4.65782 5.54159H4.50004C3.89225 5.54159 3.30936 5.78303 2.87959 6.2128C2.44982 6.64257 2.20837 7.22546 2.20837 7.83325V16.1666C2.20837 16.7744 2.44982 17.3573 2.87959 17.787C3.30936 18.2168 3.89225 18.4583 4.50004 18.4583H13.6667C14.2745 18.4583 14.8574 18.2168 15.2872 17.787C15.5732 17.501 15.7758 17.1471 15.8794 16.7631L20.7248 21.6085C20.9688 21.8526 21.3646 21.8526 21.6086 21.6085C21.8527 21.3644 21.8527 20.9687 21.6086 20.7246L3.27532 2.39131ZM14.7084 15.5921L5.90782 6.79159H4.50004C4.22377 6.79159 3.95882 6.90133 3.76347 7.09668C3.56812 7.29203 3.45837 7.55698 3.45837 7.83325V16.1666C3.45837 16.4429 3.56812 16.7078 3.76347 16.9032C3.95882 17.0985 4.22377 17.2083 4.50004 17.2083H13.6667C13.943 17.2083 14.2079 17.0985 14.4033 16.9032C14.5986 16.7078 14.7084 16.4429 14.7084 16.1666V15.5921ZM10.8834 5.54159C10.5382 5.54159 10.2584 5.82141 10.2584 6.16659C10.2584 6.51176 10.5382 6.79159 10.8834 6.79159H13.6667C13.943 6.79159 14.2079 6.90133 14.4033 7.09668C14.5986 7.29203 14.7084 7.55698 14.7084 7.83325V10.6166C14.7084 10.7823 14.7742 10.9413 14.8914 11.0585L15.7248 11.8919C15.9418 12.1089 16.2843 12.1362 16.533 11.9563L20.5417 9.0567V16.1666C20.5417 16.5118 20.8215 16.7916 21.1667 16.7916C21.5119 16.7916 21.7917 16.5118 21.7917 16.1666V7.83325C21.7917 7.59846 21.6601 7.38348 21.451 7.27667C21.2419 7.16986 20.9906 7.18924 20.8004 7.32684L16.232 10.6313L15.9584 10.3577V7.83325C15.9584 7.22546 15.7169 6.64257 15.2872 6.2128C14.8574 5.78303 14.2745 5.54159 13.6667 5.54159H10.8834Z" fill="black"/>
</svg>
