<svg width="24" height="24" viewBox="0 0 24 24" fill="none" xmlns="http://www.w3.org/2000/svg">
<path fill-rule="evenodd" clip-rule="evenodd" d="M18.3337 5.66652C18.0896 5.42241 17.6939 5.42235 17.4498 5.66639C17.2057 5.91043 17.2056 6.30616 17.4497 6.55027C18.8948 7.9958 19.7066 9.95609 19.7066 12.0001C19.7066 14.044 18.8948 16.0043 17.4497 17.4499C17.2056 17.694 17.2057 18.0897 17.4498 18.3337C17.6939 18.5778 18.0896 18.5777 18.3337 18.3336C20.0131 16.6537 20.9566 14.3755 20.9566 12.0001C20.9566 9.62464 20.0131 7.34646 18.3337 5.66652ZM15.392 8.60819C15.148 8.36408 14.7523 8.36402 14.5081 8.60806C14.264 8.8521 14.264 9.24783 14.508 9.49194C15.172 10.1561 15.545 11.0568 15.545 11.9959C15.545 12.935 15.172 13.8357 14.508 14.4999C14.264 14.744 14.264 15.1397 14.5081 15.3837C14.7523 15.6278 15.148 15.6277 15.392 15.3836C16.2903 14.485 16.795 13.2665 16.795 11.9959C16.795 10.7253 16.2903 9.50676 15.392 8.60819ZM11.7917 6.16675C11.7917 5.92649 11.654 5.70751 11.4374 5.60343C11.2209 5.49936 10.9639 5.52862 10.7763 5.67871L6.78078 8.87508H3.66669C3.32151 8.87508 3.04169 9.1549 3.04169 9.50008V14.5001C3.04169 14.8453 3.32151 15.1251 3.66669 15.1251H6.78078L10.7763 18.3215C10.9639 18.4715 11.2209 18.5008 11.4374 18.3967C11.654 18.2927 11.7917 18.0737 11.7917 17.8334V6.16675ZM7.39045 9.98812L10.5417 7.46714V16.533L7.39045 14.012C7.27963 13.9234 7.14194 13.8751 7.00002 13.8751H4.29169V10.1251H7.00002C7.14194 10.1251 7.27963 10.0768 7.39045 9.98812Z" fill="black"/>
</svg>
