<svg width="24" height="24" viewBox="0 0 24 24" fill="none" xmlns="http://www.w3.org/2000/svg">
<g clip-path="url(#clip0_775_13920)">
<path fill-rule="evenodd" clip-rule="evenodd" d="M11.4374 5.60344C11.654 5.70751 11.7917 5.9265 11.7917 6.16675V17.8334C11.7917 18.0737 11.654 18.2927 11.4374 18.3967C11.2209 18.5008 10.9639 18.4715 10.7763 18.3215L6.78078 15.1251H3.66669C3.32151 15.1251 3.04169 14.8453 3.04169 14.5001V9.50009C3.04169 9.15491 3.32151 8.87509 3.66669 8.87509H6.78078L10.7763 5.67871C10.9639 5.52863 11.2209 5.49936 11.4374 5.60344ZM10.5417 7.46714L7.39045 9.98813C7.27963 10.0768 7.14194 10.1251 7.00002 10.1251H4.29169V13.8751H7.00002C7.14194 13.8751 7.27963 13.9234 7.39045 14.012L10.5417 16.533V7.46714Z" fill="black"/>
<path fill-rule="evenodd" clip-rule="evenodd" d="M21.6086 9.05806C21.8527 9.30214 21.8527 9.69786 21.6086 9.94194L16.6086 14.9419C16.3646 15.186 15.9688 15.186 15.7247 14.9419C15.4807 14.6979 15.4807 14.3021 15.7247 14.0581L20.7247 9.05806C20.9688 8.81398 21.3646 8.81398 21.6086 9.05806Z" fill="black"/>
<path fill-rule="evenodd" clip-rule="evenodd" d="M15.7247 9.05806C15.9688 8.81398 16.3646 8.81398 16.6086 9.05806L21.6086 14.0581C21.8527 14.3021 21.8527 14.6979 21.6086 14.9419C21.3646 15.186 20.9688 15.186 20.7247 14.9419L15.7247 9.94194C15.4807 9.69786 15.4807 9.30214 15.7247 9.05806Z" fill="black"/>
</g>
<defs>
<clipPath id="clip0_775_13920">
<rect width="20" height="20" fill="white" transform="translate(2 2)"/>
</clipPath>
</defs>
</svg>
