<svg width="24" height="24" viewBox="0 0 24 24" fill="none" xmlns="http://www.w3.org/2000/svg">
<g clip-path="url(#clip0_775_13924)">
<path fill-rule="evenodd" clip-rule="evenodd" d="M12 6.79175C9.12348 6.79175 6.79163 9.1236 6.79163 12.0001C6.79163 14.8766 9.12348 17.2084 12 17.2084C14.8764 17.2084 17.2083 14.8766 17.2083 12.0001C17.2083 9.1236 14.8764 6.79175 12 6.79175ZM5.54163 12.0001C5.54163 8.43324 8.43312 5.54175 12 5.54175C15.5668 5.54175 18.4583 8.43324 18.4583 12.0001C18.4583 15.5669 15.5668 18.4584 12 18.4584C8.43312 18.4584 5.54163 15.5669 5.54163 12.0001Z" fill="black"/>
<path fill-rule="evenodd" clip-rule="evenodd" d="M12 8.875C12.3452 8.875 12.625 9.15482 12.625 9.5V11.7411L13.6919 12.8081C13.936 13.0521 13.936 13.4479 13.6919 13.6919C13.4479 13.936 13.0521 13.936 12.8081 13.6919L11.5581 12.4419C11.4408 12.3247 11.375 12.1658 11.375 12V9.5C11.375 9.15482 11.6548 8.875 12 8.875Z" fill="black"/>
</g>
<defs>
<clipPath id="clip0_775_13924">
<rect width="20" height="20" fill="white" transform="translate(2 2)"/>
</clipPath>
</defs>
</svg>
