<svg width="24" height="24" viewBox="0 0 24 24" fill="none" xmlns="http://www.w3.org/2000/svg">
<path fill-rule="evenodd" clip-rule="evenodd" d="M3.59664 9.96892C5.91783 7.92285 8.90578 6.79395 12 6.79395C15.0943 6.79395 18.0822 7.92285 20.4034 9.96892C20.6623 10.1972 21.0573 10.1723 21.2855 9.91335C21.5138 9.65441 21.4889 9.25947 21.23 9.03122C18.6805 6.7839 15.3986 5.54395 12 5.54395C8.60143 5.54395 5.31959 6.7839 2.77008 9.03122C2.51114 9.25947 2.48625 9.65441 2.7145 9.91335C2.94275 10.1723 3.3377 10.1972 3.59664 9.96892ZM6.56669 12.9386C8.10152 11.6602 10.0359 10.9602 12.0334 10.9602C14.0309 10.9602 15.9652 11.6602 17.5 12.9386C17.7653 13.1596 18.1593 13.1236 18.3803 12.8584C18.6012 12.5932 18.5652 12.1991 18.3 11.9782C16.5406 10.5127 14.3232 9.71017 12.0334 9.71017C9.74354 9.71017 7.52613 10.5127 5.76669 11.9782C5.50146 12.1991 5.46554 12.5932 5.68646 12.8584C5.90737 13.1236 6.30146 13.1596 6.56669 12.9386ZM12.0042 15.1261C11.0961 15.1261 10.2106 15.4087 9.47034 15.9346C9.18894 16.1345 8.79877 16.0684 8.59885 15.7871C8.39894 15.5057 8.46499 15.1155 8.74638 14.9156C9.69813 14.2394 10.8367 13.8761 12.0042 13.8761C13.1717 13.8761 14.3103 14.2394 15.262 14.9156C15.5434 15.1155 15.6094 15.5057 15.4095 15.7871C15.2096 16.0684 14.8194 16.1345 14.538 15.9346C13.7978 15.4087 12.9122 15.1261 12.0042 15.1261ZM12 18.0417C11.6548 18.0417 11.375 18.3216 11.375 18.6667C11.375 19.0119 11.6548 19.2917 12 19.2917H12.0084C12.3535 19.2917 12.6334 19.0119 12.6334 18.6667C12.6334 18.3216 12.3535 18.0417 12.0084 18.0417H12Z" fill="black"/>
</svg>
