<svg width="24" height="24" viewBox="0 0 24 24" fill="none" xmlns="http://www.w3.org/2000/svg">
<path fill-rule="evenodd" clip-rule="evenodd" d="M5.125 11.1667C5.125 7.82995 7.82995 5.125 11.1667 5.125C14.5034 5.125 17.2083 7.82995 17.2083 11.1667C17.2083 12.8005 16.5598 14.2829 15.5061 15.3704C15.4806 15.3891 15.4561 15.41 15.4331 15.4331C15.41 15.4561 15.3891 15.4806 15.3704 15.5061C14.2829 16.5598 12.8005 17.2083 11.1667 17.2083C7.82995 17.2083 5.125 14.5034 5.125 11.1667ZM15.8619 16.7457C14.5933 17.8144 12.9552 18.4583 11.1667 18.4583C7.13959 18.4583 3.875 15.1937 3.875 11.1667C3.875 7.13959 7.13959 3.875 11.1667 3.875C15.1937 3.875 18.4583 7.13959 18.4583 11.1667C18.4583 12.9552 17.8144 14.5933 16.7457 15.8619L19.9419 19.0581C20.186 19.3021 20.186 19.6979 19.9419 19.9419C19.6979 20.186 19.3021 20.186 19.0581 19.9419L15.8619 16.7457ZM11.1667 8.04167C11.5118 8.04167 11.7917 8.32149 11.7917 8.66667V10.5417H13.6667C14.0118 10.5417 14.2917 10.8215 14.2917 11.1667C14.2917 11.5118 14.0118 11.7917 13.6667 11.7917H11.7917V13.6667C11.7917 14.0118 11.5118 14.2917 11.1667 14.2917C10.8215 14.2917 10.5417 14.0118 10.5417 13.6667V11.7917H8.66667C8.32149 11.7917 8.04167 11.5118 8.04167 11.1667C8.04167 10.8215 8.32149 10.5417 8.66667 10.5417H10.5417V8.66667C10.5417 8.32149 10.8215 8.04167 11.1667 8.04167Z" fill="black"/>
</svg>
