<svg width="24" height="24" viewBox="0 0 24 24" fill="none" xmlns="http://www.w3.org/2000/svg">
<g clip-path="url(#clip0_775_13666)">
<path d="M6.16663 16.1667H5.33329C4.89127 16.1667 4.46734 15.9911 4.15478 15.6785C3.84222 15.366 3.66663 14.942 3.66663 14.5V6.16667C3.66663 5.72464 3.84222 5.30072 4.15478 4.98816C4.46734 4.67559 4.89127 4.5 5.33329 4.5H18.6666C19.1087 4.5 19.5326 4.67559 19.8451 4.98816C20.1577 5.30072 20.3333 5.72464 20.3333 6.16667V14.5C20.3333 14.942 20.1577 15.366 19.8451 15.6785C19.5326 15.9911 19.1087 16.1667 18.6666 16.1667H17.8333" stroke="black" stroke-width="1.25" stroke-linecap="round" stroke-linejoin="round"/>
<path d="M12 14.5L16.1667 19.5H7.83337L12 14.5Z" stroke="black" stroke-width="1.25" stroke-linecap="round" stroke-linejoin="round"/>
</g>
<defs>
<clipPath id="clip0_775_13666">
<rect width="20" height="20" fill="white" transform="translate(2 2)"/>
</clipPath>
</defs>
</svg>
