<svg width="24" height="24" viewBox="0 0 24 24" fill="none" xmlns="http://www.w3.org/2000/svg">
<path fill-rule="evenodd" clip-rule="evenodd" d="M12 4.29163C7.74276 4.29163 4.29163 7.74276 4.29163 12C4.29163 16.2572 7.74276 19.7083 12 19.7083C16.2572 19.7083 19.7083 16.2572 19.7083 12C19.7083 7.74276 16.2572 4.29163 12 4.29163ZM3.04163 12C3.04163 7.05241 7.05241 3.04163 12 3.04163C16.9475 3.04163 20.9583 7.05241 20.9583 12C20.9583 16.9475 16.9475 20.9583 12 20.9583C7.05241 20.9583 3.04163 16.9475 3.04163 12ZM12 8.04163C12.3451 8.04163 12.625 8.32145 12.625 8.66663V12C12.625 12.3451 12.3451 12.625 12 12.625C11.6548 12.625 11.375 12.3451 11.375 12V8.66663C11.375 8.32145 11.6548 8.04163 12 8.04163ZM12 14.7083C11.6548 14.7083 11.375 14.9881 11.375 15.3333C11.375 15.6785 11.6548 15.9583 12 15.9583H12.0083C12.3535 15.9583 12.6333 15.6785 12.6333 15.3333C12.6333 14.9881 12.3535 14.7083 12.0083 14.7083H12Z" fill="black"/>
</svg>
