<svg width="24" height="24" viewBox="0 0 24 24" fill="none" xmlns="http://www.w3.org/2000/svg">
<path fill-rule="evenodd" clip-rule="evenodd" d="M4.5 6.375C4.15482 6.375 3.875 6.65482 3.875 7C3.875 7.34518 4.15482 7.625 4.5 7.625H19.5C19.8452 7.625 20.125 7.34518 20.125 7C20.125 6.65482 19.8452 6.375 19.5 6.375H4.5ZM7 9.70833C6.65482 9.70833 6.375 9.98816 6.375 10.3333C6.375 10.6785 6.65482 10.9583 7 10.9583H17C17.3452 10.9583 17.625 10.6785 17.625 10.3333C17.625 9.98816 17.3452 9.70833 17 9.70833H7ZM3.875 13.6667C3.875 13.3215 4.15482 13.0417 4.5 13.0417H19.5C19.8452 13.0417 20.125 13.3215 20.125 13.6667C20.125 14.0118 19.8452 14.2917 19.5 14.2917H4.5C4.15482 14.2917 3.875 14.0118 3.875 13.6667ZM7 16.375C6.65482 16.375 6.375 16.6548 6.375 17C6.375 17.3452 6.65482 17.625 7 17.625H17C17.3452 17.625 17.625 17.3452 17.625 17C17.625 16.6548 17.3452 16.375 17 16.375H7Z" fill="black"/>
</svg>
