<svg width="24" height="24" viewBox="0 0 24 24" fill="none" xmlns="http://www.w3.org/2000/svg">
<path fill-rule="evenodd" clip-rule="evenodd" d="M4.5 6.375C4.15482 6.375 3.875 6.65482 3.875 7C3.875 7.34518 4.15482 7.625 4.5 7.625H19.5C19.8452 7.625 20.125 7.34518 20.125 7C20.125 6.65482 19.8452 6.375 19.5 6.375H4.5ZM7.83333 9.70833C7.48816 9.70833 7.20833 9.98816 7.20833 10.3333C7.20833 10.6785 7.48816 10.9583 7.83333 10.9583H19.5C19.8452 10.9583 20.125 10.6785 20.125 10.3333C20.125 9.98816 19.8452 9.70833 19.5 9.70833H7.83333ZM3.875 13.6667C3.875 13.3215 4.15482 13.0417 4.5 13.0417H19.5C19.8452 13.0417 20.125 13.3215 20.125 13.6667C20.125 14.0118 19.8452 14.2917 19.5 14.2917H4.5C4.15482 14.2917 3.875 14.0118 3.875 13.6667ZM7.83333 16.375C7.48816 16.375 7.20833 16.6548 7.20833 17C7.20833 17.3452 7.48816 17.625 7.83333 17.625H19.5C19.8452 17.625 20.125 17.3452 20.125 17C20.125 16.6548 19.8452 16.375 19.5 16.375H7.83333Z" fill="black"/>
</svg>
