<svg width="24" height="24" viewBox="0 0 24 24" fill="none" xmlns="http://www.w3.org/2000/svg">
<path fill-rule="evenodd" clip-rule="evenodd" d="M16.7443 7.59413C16.7138 7.52042 16.6686 7.45136 16.6086 7.39143C16.4866 7.26939 16.3267 7.20837 16.1667 7.20837H7.83337C7.4882 7.20837 7.20837 7.4882 7.20837 7.83337C7.20837 8.17855 7.4882 8.45837 7.83337 8.45837H14.6578L7.39143 15.7248C7.14735 15.9688 7.14735 16.3646 7.39143 16.6086C7.63551 16.8527 8.03124 16.8527 8.27532 16.6086L15.5417 9.34226V16.1667C15.5417 16.5119 15.8215 16.7917 16.1667 16.7917C16.5119 16.7917 16.7917 16.5119 16.7917 16.1667V7.83415C16.7917 7.83197 16.7917 7.82979 16.7917 7.8276C16.791 7.74812 16.7752 7.66874 16.7443 7.59413Z" fill="black"/>
</svg>
