<svg width="24" height="24" viewBox="0 0 24 24" fill="none" xmlns="http://www.w3.org/2000/svg">
<path fill-rule="evenodd" clip-rule="evenodd" d="M8.27532 7.39143C8.03124 7.14735 7.63551 7.14735 7.39143 7.39143C7.14735 7.63551 7.14735 8.03124 7.39143 8.27532L14.6578 15.5417H7.83337C7.4882 15.5417 7.20837 15.8215 7.20837 16.1667C7.20837 16.5119 7.4882 16.7917 7.83337 16.7917H16.1659C16.1681 16.7917 16.1703 16.7917 16.1725 16.7917C16.252 16.791 16.3313 16.7752 16.4059 16.7443C16.4797 16.7138 16.5487 16.6686 16.6086 16.6086C16.6686 16.5487 16.7138 16.4797 16.7443 16.4059C16.6809 16.5587 16.5587 16.6809 16.4059 16.7443M16.7917 16.1659V7.83337C16.7917 7.4882 16.5119 7.20837 16.1667 7.20837C15.8215 7.20837 15.5417 7.4882 15.5417 7.83337V14.6578L8.27532 7.39143" fill="black"/>
</svg>
