<svg width="24" height="24" viewBox="0 0 24 24" fill="none" xmlns="http://www.w3.org/2000/svg">
<path fill-rule="evenodd" clip-rule="evenodd" d="M9.34226 15.5417L16.6086 8.27532C16.8527 8.03124 16.8527 7.63551 16.6086 7.39143C16.3646 7.14735 15.9688 7.14735 15.7248 7.39143L8.45837 14.6578V7.83337C8.45837 7.4882 8.17855 7.20837 7.83337 7.20837C7.4882 7.20837 7.20837 7.4882 7.20837 7.83337V16.1667C7.20837 16.2515 7.22524 16.3323 7.2558 16.4059C7.2863 16.4797 7.33151 16.5487 7.39143 16.6086C7.45136 16.6686 7.52042 16.7138 7.59413 16.7443C7.66615 16.7741 7.74496 16.7909 7.8276 16.7917C7.82953 16.7917 7.83145 16.7917 7.83337 16.7917H7.83415" fill="black"/>
</svg>
