<svg width="24" height="24" viewBox="0 0 24 24" fill="none" xmlns="http://www.w3.org/2000/svg">
<g clip-path="url(#clip0_775_13797)">
<path fill-rule="evenodd" clip-rule="evenodd" d="M12 3.04163C10.5082 3.04163 9.07747 3.63426 8.02257 4.68915C6.96768 5.74404 6.37505 7.17478 6.37505 8.66663C6.37505 11.4912 5.77063 13.2612 5.20136 14.3048C4.91587 14.8283 4.63581 15.1753 4.43695 15.3852C4.33736 15.4903 4.25771 15.5615 4.20736 15.6035C4.18217 15.6245 4.1643 15.6382 4.15491 15.6452L4.14772 15.6504C3.92253 15.8041 3.82271 16.0863 3.90187 16.3477C3.98168 16.6113 4.22463 16.7916 4.50005 16.7916H19.5C19.7755 16.7916 20.0184 16.6113 20.0982 16.3477C20.1774 16.0863 20.0776 15.8041 19.8524 15.6504L19.8452 15.6452C19.8358 15.6382 19.8179 15.6245 19.7927 15.6035C19.7424 15.5615 19.6627 15.4903 19.5631 15.3852C19.3643 15.1753 19.0842 14.8283 18.7987 14.3048C18.2295 13.2612 17.625 11.4912 17.625 8.66663C17.625 7.17478 17.0324 5.74404 15.9775 4.68915C14.9226 3.63426 13.4919 3.04163 12 3.04163ZM17.7014 14.9034C17.8323 15.1434 17.964 15.3554 18.0919 15.5416H5.90823C6.03613 15.3554 6.16784 15.1434 6.29873 14.9034C6.97947 13.6554 7.62505 11.6754 7.62505 8.66663C7.62505 7.5063 8.08598 6.39351 8.90646 5.57303C9.72693 4.75256 10.8397 4.29163 12 4.29163C13.1604 4.29163 14.2732 4.75256 15.0936 5.57303C15.9141 6.39351 16.375 7.5063 16.375 8.66663C16.375 11.6754 17.0206 13.6554 17.7014 14.9034ZM11.099 19.1864C10.9258 18.8878 10.5434 18.7862 10.2448 18.9594C9.94621 19.1326 9.84457 19.515 10.0178 19.8136C10.2192 20.1609 10.5084 20.4491 10.8563 20.6495C11.2042 20.8499 11.5986 20.9554 12.0001 20.9554C12.4015 20.9554 12.796 20.8499 13.1439 20.6495C13.4918 20.4491 13.7809 20.1609 13.9824 19.8136C14.1556 19.515 14.0539 19.1326 13.7553 18.9594C13.4568 18.7862 13.0743 18.8878 12.9011 19.1864C12.8095 19.3442 12.6781 19.4753 12.52 19.5664C12.3618 19.6574 12.1826 19.7054 12.0001 19.7054C11.8176 19.7054 11.6383 19.6574 11.4802 19.5664C11.322 19.4753 11.1906 19.3442 11.099 19.1864Z" fill="black"/>
</g>
<defs>
<clipPath id="clip0_775_13797">
<rect width="20" height="20" fill="white" transform="translate(2 2)"/>
</clipPath>
</defs>
</svg>
