<svg width="24" height="24" viewBox="0 0 24 24" fill="none" xmlns="http://www.w3.org/2000/svg">
<g clip-path="url(#clip0_775_13799)">
<path fill-rule="evenodd" clip-rule="evenodd" d="M11.7608 2.25597C11.9944 2.15923 12.2632 2.2127 12.442 2.39145L17.0253 6.97478C17.2694 7.21886 17.2694 7.61459 17.0253 7.85867L12.8839 12.0001L17.0253 16.1414C17.2694 16.3855 17.2694 16.7813 17.0253 17.0253L12.442 21.6087C12.2632 21.7874 11.9944 21.8409 11.7608 21.7442C11.5273 21.6474 11.375 21.4195 11.375 21.1667V13.5089L7.85863 17.0253C7.61455 17.2694 7.21882 17.2694 6.97475 17.0253C6.73067 16.7813 6.73067 16.3855 6.97475 16.1414L11.1161 12.0001L6.97475 7.85867C6.73067 7.61459 6.73067 7.21886 6.97475 6.97478C7.21882 6.73071 7.61455 6.73071 7.85863 6.97478L11.375 10.4912V2.83339C11.375 2.5806 11.5273 2.35271 11.7608 2.25597ZM12.625 13.5089L15.6995 16.5834L12.625 19.6578V13.5089ZM12.625 10.4912V4.34228L15.6995 7.41673L12.625 10.4912Z" fill="black"/>
</g>
<defs>
<clipPath id="clip0_775_13799">
<rect width="20" height="20" fill="white" transform="translate(2 2)"/>
</clipPath>
</defs>
</svg>
