<svg width="24" height="24" viewBox="0 0 24 24" fill="none" xmlns="http://www.w3.org/2000/svg">
<path fill-rule="evenodd" clip-rule="evenodd" d="M7 4.70837C6.65482 4.70837 6.375 4.9882 6.375 5.33337V12V18.6667C6.375 19.0119 6.65482 19.2917 7 19.2917H14.5C15.5498 19.2917 16.5566 18.8747 17.299 18.1323C18.0413 17.39 18.4583 16.3832 18.4583 15.3334C18.4583 14.2836 18.0413 13.2767 17.299 12.5344C16.9661 12.2016 16.5801 11.9341 16.1609 11.7404C16.2667 11.6545 16.3684 11.5629 16.4656 11.4657C17.208 10.7233 17.625 9.71652 17.625 8.66671C17.625 7.61689 17.208 6.61007 16.4656 5.86774C15.7233 5.12541 14.7165 4.70837 13.6667 4.70837H7ZM13.6667 11.375C14.385 11.375 15.0738 11.0897 15.5817 10.5818C16.0897 10.0739 16.375 9.385 16.375 8.66671C16.375 7.94841 16.0897 7.25954 15.5817 6.75163C15.0738 6.24372 14.385 5.95837 13.6667 5.95837H7.625V11.375H13.6667ZM7.625 12.625V18.0417H14.5C15.2183 18.0417 15.9072 17.7564 16.4151 17.2485C16.923 16.7405 17.2083 16.0517 17.2083 15.3334C17.2083 14.6151 16.923 13.9262 16.4151 13.4183C15.9072 12.9104 15.2183 12.625 14.5 12.625H13.6667H7.625Z" fill="black"/>
</svg>
