<svg width="24" height="24" viewBox="0 0 24 24" fill="none" xmlns="http://www.w3.org/2000/svg">
<path fill-rule="evenodd" clip-rule="evenodd" d="M10.3333 3.875C9.7255 3.875 9.14261 4.11644 8.71284 4.54621C8.28307 4.97598 8.04163 5.55888 8.04163 6.16667V7.20833H5.33329C4.06764 7.20833 3.04163 8.23435 3.04163 9.5V17.8333C3.04163 19.099 4.06764 20.125 5.33329 20.125H8.66663H15.3333H18.6666C19.9323 20.125 20.9583 19.099 20.9583 17.8333V9.5C20.9583 8.23435 19.9323 7.20833 18.6666 7.20833H15.9583V6.16667C15.9583 5.55888 15.7168 4.97598 15.2871 4.54621C14.8573 4.11644 14.2744 3.875 13.6666 3.875H10.3333ZM14.7083 7.20833V6.16667C14.7083 5.8904 14.5985 5.62545 14.4032 5.4301C14.2078 5.23475 13.9429 5.125 13.6666 5.125H10.3333C10.057 5.125 9.79207 5.23475 9.59672 5.4301C9.40137 5.62545 9.29163 5.8904 9.29163 6.16667V7.20833H14.7083ZM9.29163 8.45833H14.7083V18.875H9.29163V8.45833ZM8.04163 8.45833H5.33329C4.758 8.45833 4.29163 8.9247 4.29163 9.5V17.8333C4.29163 18.4086 4.758 18.875 5.33329 18.875H8.04163V8.45833ZM15.9583 18.875V8.45833H18.6666C19.2419 8.45833 19.7083 8.9247 19.7083 9.5V17.8333C19.7083 18.4086 19.2419 18.875 18.6666 18.875H15.9583Z" fill="black"/>
</svg>
