<svg width="24" height="24" viewBox="0 0 24 24" fill="none" xmlns="http://www.w3.org/2000/svg">
<path fill-rule="evenodd" clip-rule="evenodd" d="M9.50004 3.875C9.29107 3.875 9.09592 3.97944 8.98001 4.15331L7.49888 6.375H4.50004C3.89225 6.375 3.30936 6.61644 2.87959 7.04621C2.44982 7.47598 2.20837 8.05888 2.20837 8.66667V17.8333C2.20837 18.4411 2.44982 19.024 2.87959 19.4538C3.30936 19.8836 3.89225 20.125 4.50004 20.125H19.5C20.1078 20.125 20.6907 19.8836 21.1205 19.4538C21.5503 19.024 21.7917 18.4411 21.7917 17.8333V8.66667C21.7917 8.05888 21.5503 7.47598 21.1205 7.04621C20.6907 6.61644 20.1078 6.375 19.5 6.375H16.5012L15.0201 4.15331C14.9042 3.97944 14.709 3.875 14.5 3.875H9.50004ZM8.3534 7.34669L9.83453 5.125H14.1656L15.6467 7.34669C15.7626 7.52056 15.9577 7.625 16.1667 7.625H19.5C19.7763 7.625 20.0413 7.73475 20.2366 7.9301C20.432 8.12545 20.5417 8.3904 20.5417 8.66667V17.8333C20.5417 18.1096 20.432 18.3746 20.2366 18.5699C20.0413 18.7653 19.7763 18.875 19.5 18.875H4.50004C4.22377 18.875 3.95882 18.7653 3.76347 18.5699C3.56812 18.3746 3.45837 18.1096 3.45837 17.8333V8.66667C3.45837 8.3904 3.56812 8.12545 3.76347 7.9301C3.95882 7.73475 4.22377 7.625 4.50004 7.625H7.83337C8.04234 7.625 8.23749 7.52056 8.3534 7.34669ZM9.29171 12.8333C9.29171 11.3376 10.5043 10.125 12 10.125C13.4958 10.125 14.7084 11.3376 14.7084 12.8333C14.7084 14.3291 13.4958 15.5417 12 15.5417C10.5043 15.5417 9.29171 14.3291 9.29171 12.8333ZM12 8.875C9.81391 8.875 8.04171 10.6472 8.04171 12.8333C8.04171 15.0195 9.81391 16.7917 12 16.7917C14.1862 16.7917 15.9584 15.0195 15.9584 12.8333C15.9584 10.6472 14.1862 8.875 12 8.875Z" fill="black"/>
</svg>
