<svg width="24" height="24" viewBox="0 0 24 24" fill="none" xmlns="http://www.w3.org/2000/svg">
<path fill-rule="evenodd" clip-rule="evenodd" d="M3.27532 2.39143C3.03124 2.14735 2.63551 2.14735 2.39143 2.39143C2.14735 2.63551 2.14735 3.03124 2.39143 3.27532L5.49116 6.37504H4.50004C3.89225 6.37504 3.30936 6.61648 2.87959 7.04625C2.44982 7.47603 2.20837 8.05892 2.20837 8.66671V17.8334C2.20837 18.4412 2.44982 19.0241 2.87959 19.4538C3.30936 19.8836 3.89225 20.125 4.50004 20.125H19.2412L20.7248 21.6086C20.9688 21.8527 21.3646 21.8527 21.6086 21.6086C21.8527 21.3646 21.8527 20.9688 21.6086 20.7248L15.1841 14.3003C15.1787 14.2946 15.1732 14.2891 15.1675 14.2836L10.5498 9.66594C10.5444 9.66026 10.5388 9.6547 10.5332 9.64927L3.27532 2.39143ZM9.17581 10.0597L6.74116 7.62504H4.50004C4.22377 7.62504 3.95882 7.73479 3.76347 7.93014C3.56812 8.12549 3.45837 8.39044 3.45837 8.66671V17.8334C3.45837 18.1096 3.56812 18.3746 3.76347 18.5699C3.95882 18.7653 4.22377 18.875 4.50004 18.875H17.9912L14.7737 15.6576C14.5393 15.8907 14.2759 16.0943 13.9892 16.2629C13.4879 16.5578 12.9278 16.7385 12.3487 16.7924C11.7695 16.8462 11.1857 16.7717 10.6386 16.5743C10.0915 16.3768 9.59471 16.0612 9.18345 15.65C8.77219 15.2387 8.45661 14.7419 8.25916 14.1948C8.06171 13.6477 7.98725 13.0639 8.04106 12.4848C8.09487 11.9056 8.27564 11.3455 8.57051 10.8442C8.73912 10.5575 8.94267 10.2941 9.17581 10.0597ZM13.8898 14.7737L10.0597 10.9436C9.90119 11.1034 9.76274 11.2828 9.64795 11.4779C9.4462 11.8209 9.32252 12.2042 9.2857 12.6004C9.24888 12.9967 9.29983 13.3961 9.43492 13.7704C9.57002 14.1448 9.78594 14.4847 10.0673 14.7661C10.3487 15.0475 10.6887 15.2634 11.063 15.3985C11.4373 15.5336 11.8368 15.5845 12.233 15.5477C12.6292 15.5109 13.0125 15.3872 13.3555 15.1855C13.5507 15.0707 13.73 14.9322 13.8898 14.7737ZM9.50004 3.87504C9.15486 3.87504 8.87504 4.15486 8.87504 4.50004C8.87504 4.84522 9.15486 5.12504 9.50004 5.12504H14.1656L15.6467 7.34673C15.7626 7.5206 15.9577 7.62504 16.1667 7.62504H19.5C19.7763 7.62504 20.0413 7.73479 20.2366 7.93014C20.432 8.12549 20.5417 8.39044 20.5417 8.66671V16.45C20.5417 16.7952 20.8215 17.075 21.1667 17.075C21.5119 17.075 21.7917 16.7952 21.7917 16.45V8.66671C21.7917 8.05892 21.5503 7.47602 21.1205 7.04625C20.6907 6.61648 20.1078 6.37504 19.5 6.37504H16.5012L15.0201 4.15335C14.9042 3.97948 14.709 3.87504 14.5 3.87504H9.50004Z" fill="black"/>
</svg>
