<svg width="24" height="24" viewBox="0 0 24 24" fill="none" xmlns="http://www.w3.org/2000/svg">
<path fill-rule="evenodd" clip-rule="evenodd" d="M8.27525 6.55806C8.03118 6.31398 7.63545 6.31398 7.39137 6.55806C7.14729 6.80214 7.14729 7.19786 7.39137 7.44194L11.558 11.6086C11.8021 11.8527 12.1978 11.8527 12.4419 11.6086L16.6086 7.44194C16.8527 7.19786 16.8527 6.80214 16.6086 6.55806C16.3645 6.31398 15.9688 6.31398 15.7247 6.55806L12 10.2828L8.27525 6.55806ZM8.27525 12.3914C8.03118 12.1473 7.63545 12.1473 7.39137 12.3914C7.14729 12.6355 7.14729 13.0312 7.39137 13.2753L11.558 17.4419C11.8021 17.686 12.1978 17.686 12.4419 17.4419L16.6086 13.2753C16.8527 13.0312 16.8527 12.6355 16.6086 12.3914C16.3645 12.1473 15.9688 12.1473 15.7247 12.3914L12 16.1161L8.27525 12.3914Z" fill="black"/>
</svg>
