<svg width="24" height="24" viewBox="0 0 24 24" fill="none" xmlns="http://www.w3.org/2000/svg">
<path fill-rule="evenodd" clip-rule="evenodd" d="M12.442 6.55806C12.1979 6.31398 11.8022 6.31398 11.5581 6.55806L7.39143 10.7247C7.14735 10.9688 7.14735 11.3645 7.39143 11.6086C7.63551 11.8527 8.03124 11.8527 8.27532 11.6086L12 7.88388L15.7248 11.6086C15.9688 11.8527 16.3646 11.8527 16.6086 11.6086C16.8527 11.3645 16.8527 10.9688 16.6086 10.7247L12.442 6.55806ZM16.6086 16.5581L12.442 12.3914C12.1979 12.1473 11.8022 12.1473 11.5581 12.3914L7.39143 16.5581C7.14735 16.8021 7.14735 17.1979 7.39143 17.4419C7.63551 17.686 8.03124 17.686 8.27532 17.4419L12 13.7172L15.7248 17.4419C15.9688 17.686 16.3646 17.686 16.6086 17.4419C16.8527 17.1979 16.8527 16.8021 16.6086 16.5581Z" fill="black"/>
</svg>
