<svg width="24" height="24" viewBox="0 0 24 24" fill="none" xmlns="http://www.w3.org/2000/svg">
<path fill-rule="evenodd" clip-rule="evenodd" d="M12 4.29163C9.60155 4.29163 7.45898 5.387 6.04523 7.10476L8.21092 10.8511C8.70324 9.22524 10.2134 8.04163 12 8.04163H18.6157C17.2687 5.79517 14.8099 4.29163 12 4.29163ZM3.04163 12C3.04163 10.0312 3.67672 8.21074 4.75322 6.73234C4.77506 6.69525 4.80085 6.66021 4.83042 6.62792C6.46465 4.45035 9.06779 3.04163 12 3.04163C15.6574 3.04163 18.8028 5.23338 20.1946 8.37509C20.2089 8.40214 20.2213 8.43037 20.2315 8.45959C20.6992 9.54555 20.9583 10.7425 20.9583 12C20.9583 16.9475 16.9475 20.9583 12 20.9583C11.6776 20.9583 11.3592 20.9413 11.0457 20.9081C11.0134 20.907 10.9811 20.9035 10.949 20.8973C6.49667 20.377 3.04163 16.592 3.04163 12ZM12.1204 19.7074C16.322 19.643 19.7083 16.2169 19.7083 12C19.7083 11.0469 19.5353 10.1342 19.2191 9.29163H14.8867C15.5513 9.99967 15.9583 10.9523 15.9583 12C15.9583 12.7798 15.7328 13.5069 15.3434 14.1197L12.1204 19.7074ZM12.899 15.8557L10.7362 19.6052C7.08024 19.0023 4.29163 15.8268 4.29163 12C4.29163 10.6388 4.64442 9.36009 5.26355 8.2502L8.48913 13.83C9.14982 15.0949 10.4741 15.9583 12 15.9583C12.3092 15.9583 12.6102 15.9228 12.899 15.8557ZM14.3745 13.3036C14.3629 13.3198 14.352 13.3368 14.3419 13.3543L14.2768 13.4673C13.7945 14.214 12.955 14.7083 12 14.7083C11.0191 14.7083 10.1599 14.1868 9.68473 13.406C9.67662 13.3884 9.66762 13.371 9.65772 13.3538L9.58858 13.2342C9.39874 12.8641 9.29163 12.4445 9.29163 12C9.29163 10.5042 10.5042 9.29163 12 9.29163C13.4957 9.29163 14.7083 10.5042 14.7083 12C14.7083 12.4726 14.5872 12.9169 14.3745 13.3036Z" fill="black"/>
</svg>
