<svg width="24" height="24" viewBox="0 0 24 24" fill="none" xmlns="http://www.w3.org/2000/svg">
<path fill-rule="evenodd" clip-rule="evenodd" d="M9.29171 4.49996C9.29171 4.3849 9.38498 4.29163 9.50004 4.29163H14.5C14.6151 4.29163 14.7084 4.3849 14.7084 4.49996V5.33329V6.16663C14.7084 6.28169 14.6151 6.37496 14.5 6.37496H9.50004C9.38498 6.37496 9.29171 6.28169 9.29171 6.16663L9.29171 5.33329L9.29171 4.49996ZM8.04171 4.70829V4.49996C8.04171 3.69454 8.69463 3.04163 9.50004 3.04163H14.5C15.3055 3.04163 15.9584 3.69454 15.9584 4.49996V4.70829H17C17.6078 4.70829 18.1907 4.94974 18.6205 5.37951C19.0503 5.80928 19.2917 6.39217 19.2917 6.99996V18.6666C19.2917 19.2744 19.0503 19.8573 18.6205 20.2871C18.1907 20.7168 17.6078 20.9583 17 20.9583H7.00004C6.39225 20.9583 5.80936 20.7168 5.37959 20.2871C4.94982 19.8573 4.70837 19.2744 4.70837 18.6666V6.99996C4.70837 6.39217 4.94982 5.80928 5.37959 5.37951C5.80936 4.94974 6.39225 4.70829 7.00004 4.70829H8.04171ZM15.9584 5.95829H17C17.2763 5.95829 17.5413 6.06804 17.7366 6.26339C17.932 6.45874 18.0417 6.72369 18.0417 6.99996V18.6666C18.0417 18.9429 17.932 19.2078 17.7366 19.4032C17.5413 19.5985 17.2763 19.7083 17 19.7083H7.00004C6.72377 19.7083 6.45882 19.5985 6.26347 19.4032C6.06812 19.2078 5.95837 18.9429 5.95837 18.6666V6.99996C5.95837 6.72369 6.06812 6.45874 6.26347 6.26339C6.45882 6.06804 6.72377 5.95829 7.00004 5.95829H8.04171V6.16663C8.04171 6.97204 8.69463 7.62496 9.50004 7.62496H14.5C15.3055 7.62496 15.9584 6.97204 15.9584 6.16663V5.95829Z" fill="black"/>
</svg>
