<svg width="24" height="24" viewBox="0 0 24 24" fill="none" xmlns="http://www.w3.org/2000/svg">
<path fill-rule="evenodd" clip-rule="evenodd" d="M11.8546 2.60114C10.7121 2.21043 9.49039 2.10956 8.29926 2.3076C7.10813 2.50564 5.98482 2.99638 5.0302 3.73577C4.07557 4.47515 3.3195 5.44004 2.82987 6.54379C2.34024 7.64754 2.13238 8.85561 2.22495 10.0595C2.31752 11.2635 2.70763 12.4256 3.36024 13.4415C4.01285 14.4574 4.90754 15.2954 5.96398 15.8801C6.26598 16.0473 6.64631 15.938 6.81347 15.636C6.98064 15.334 6.87133 14.9536 6.56932 14.7865C5.69399 14.302 4.95267 13.6077 4.41194 12.7659C3.8712 11.9241 3.54797 10.9612 3.47127 9.96371C3.39457 8.96617 3.5668 7.9652 3.97249 7.05066C4.37818 6.13612 5.00464 5.33665 5.79562 4.72401C6.5866 4.11138 7.51733 3.70476 8.50427 3.54067C9.49121 3.37659 10.5034 3.46016 11.4501 3.78389C12.3968 4.10763 13.2482 4.66138 13.928 5.39545C14.6078 6.12952 15.0946 7.02091 15.3448 7.9896C15.4161 8.26552 15.665 8.4583 15.95 8.4583H17H17.0006C17.8789 8.45742 18.7262 8.78291 19.378 9.3716C20.0298 9.96029 20.4396 10.7702 20.5279 11.644C20.6162 12.5179 20.3766 13.3934 19.8557 14.1005C19.3348 14.8077 18.5697 15.296 17.7089 15.4708C17.3707 15.5395 17.1521 15.8694 17.2208 16.2077C17.2895 16.5459 17.6194 16.7645 17.9577 16.6958C19.1222 16.4593 20.1573 15.7986 20.8621 14.8419C21.5669 13.8851 21.891 12.7007 21.7716 11.5184C21.6522 10.3361 21.0977 9.24041 20.2158 8.44395C19.3341 7.64762 18.188 7.20726 17 7.2083H16.9999L16.9994 7.2083L16.4172 7.2083C16.0901 6.22054 15.5547 5.31232 14.8451 4.54612C14.0247 3.66018 12.9971 2.99185 11.8546 2.60114ZM13.3534 11.5133C13.5448 11.2261 13.4672 10.8381 13.18 10.6466C12.8928 10.4551 12.5048 10.5327 12.3133 10.8199L8.97995 15.8199C8.8521 16.0117 8.84018 16.2583 8.94894 16.4615C9.0577 16.6648 9.26949 16.7916 9.49999 16.7916H13.3322L10.6466 20.8199C10.4552 21.1071 10.5328 21.4952 10.82 21.6867C11.1072 21.8781 11.4952 21.8005 11.6867 21.5133L15.02 16.5133C15.1479 16.3215 15.1598 16.0749 15.051 15.8717C14.9423 15.6685 14.7305 15.5416 14.5 15.5416H10.6678L13.3534 11.5133Z" fill="black"/>
</svg>
