<svg width="24" height="24" viewBox="0 0 24 24" fill="none" xmlns="http://www.w3.org/2000/svg">
<path fill-rule="evenodd" clip-rule="evenodd" d="M12.1434 2.70658C11.0668 2.28689 9.90592 2.12908 8.75637 2.24613C7.60681 2.36319 6.50154 2.75177 5.53164 3.37984C4.56174 4.00791 3.755 4.8575 3.1779 5.85856C2.6008 6.85963 2.26987 7.98351 2.2124 9.13758C2.15492 10.2917 2.37254 11.4429 2.84731 12.4963C3.32209 13.5498 4.04042 14.4753 4.94312 15.1966C5.21277 15.4121 5.60606 15.3682 5.82154 15.0985C6.03702 14.8289 5.9931 14.4356 5.72344 14.2201C4.9755 13.6224 4.38031 12.8556 3.98692 11.9827C3.59354 11.1098 3.41323 10.156 3.46085 9.19976C3.50847 8.24353 3.78267 7.31231 4.26084 6.48286C4.739 5.6534 5.40745 4.94946 6.21108 4.42906C7.01471 3.90865 7.93051 3.58669 8.883 3.4897C9.83548 3.39271 10.7974 3.52348 11.6894 3.87122C12.5814 4.21895 13.3781 4.77371 14.0136 5.48976C14.6491 6.20581 15.1054 7.06265 15.3448 7.98965C15.4161 8.26559 15.665 8.45838 15.9499 8.45838L16.9992 8.45838L16.9996 8.45838C17.8124 8.45942 18.6001 8.73999 19.2305 9.25301C19.861 9.76611 20.2958 10.4805 20.462 11.2763C20.6281 12.072 20.5154 12.9007 20.1429 13.6232C19.7703 14.3457 19.1605 14.9181 18.4159 15.2442C18.0997 15.3827 17.9556 15.7513 18.0941 16.0674C18.2326 16.3836 18.6012 16.5277 18.9173 16.3892C19.9248 15.948 20.7498 15.1736 21.2538 14.1961C21.7579 13.2186 21.9103 12.0974 21.6856 11.0208C21.4608 9.94419 20.8725 8.97767 20.0195 8.28347C19.1664 7.58928 18.1005 7.20967 17.0007 7.20838H16.9999H16.4171C16.1063 6.2696 15.6072 5.40214 14.9485 4.66C14.1814 3.7958 13.22 3.12627 12.1434 2.70658ZM8.66661 12.2084C9.01179 12.2084 9.29161 12.4882 9.29161 12.8334V14.5C9.29161 14.8452 9.01179 15.125 8.66661 15.125C8.32144 15.125 8.04161 14.8452 8.04161 14.5V12.8334C8.04161 12.4882 8.32144 12.2084 8.66661 12.2084ZM8.66661 17.2084C9.01179 17.2084 9.29161 17.4882 9.29161 17.8334V19.5C9.29161 19.8452 9.01179 20.125 8.66661 20.125C8.32144 20.125 8.04161 19.8452 8.04161 19.5V17.8334C8.04161 17.4882 8.32144 17.2084 8.66661 17.2084ZM15.9583 17.8334C15.9583 17.4882 15.6785 17.2084 15.3333 17.2084C14.9881 17.2084 14.7083 17.4882 14.7083 17.8334V19.5C14.7083 19.8452 14.9881 20.125 15.3333 20.125C15.6785 20.125 15.9583 19.8452 15.9583 19.5V17.8334ZM15.3333 12.2084C15.6785 12.2084 15.9583 12.4882 15.9583 12.8334V14.5C15.9583 14.8452 15.6785 15.125 15.3333 15.125C14.9881 15.125 14.7083 14.8452 14.7083 14.5V12.8334C14.7083 12.4882 14.9881 12.2084 15.3333 12.2084ZM12.6249 19.5C12.6249 19.1549 12.3451 18.875 11.9999 18.875C11.6548 18.875 11.3749 19.1549 11.3749 19.5V21.1667C11.3749 21.5119 11.6548 21.7917 11.9999 21.7917C12.3451 21.7917 12.6249 21.5119 12.6249 21.1667V19.5ZM11.9999 13.875C12.3451 13.875 12.6249 14.1549 12.6249 14.5V16.1667C12.6249 16.5119 12.3451 16.7917 11.9999 16.7917C11.6548 16.7917 11.3749 16.5119 11.3749 16.1667V14.5C11.3749 14.1549 11.6548 13.875 11.9999 13.875Z" fill="black"/>
</svg>
