<svg width="24" height="24" viewBox="0 0 24 24" fill="none" xmlns="http://www.w3.org/2000/svg">
<path fill-rule="evenodd" clip-rule="evenodd" d="M12.3482 3.14749C12.2487 3.08063 12.1289 3.04163 12 3.04163C11.87 3.04163 11.7493 3.0813 11.6493 3.1492L3.15466 8.72488L3.16527 8.71016C3.15914 8.71841 3.15321 8.7268 3.1475 8.73533C3.07437 8.84435 3.04008 8.96844 3.04168 9.09095C3.04422 9.28517 3.13699 9.47542 3.30827 9.59531L4.29168 10.2837V13.7162L3.30827 14.4046C3.02548 14.6026 2.95671 14.9923 3.15466 15.275C3.35261 15.5578 3.74231 15.6266 4.02509 15.4286L4.78397 14.8974L11.375 19.1816V15.242L11.6416 15.4286C11.8568 15.5793 12.1432 15.5793 12.3584 15.4286L12.625 15.242V19.1816L19.2161 14.8974L19.9749 15.4286C20.2577 15.6266 20.6474 15.5578 20.8454 15.275C21.0433 14.9923 20.9745 14.6026 20.6918 14.4046L19.7083 13.7162V10.2837L20.6918 9.59531C20.863 9.47542 20.9558 9.28518 20.9583 9.09097C20.96 8.9677 20.9252 8.84284 20.8512 8.73333L20.8454 8.72488C20.8405 8.71797 20.8356 8.71116 20.8304 8.70445C20.7829 8.64191 20.7255 8.59074 20.6621 8.55156L12.3482 3.14749Z" fill="black"/>
</svg>
