<svg width="24" height="24" viewBox="0 0 24 24" fill="none" xmlns="http://www.w3.org/2000/svg">
<path fill-rule="evenodd" clip-rule="evenodd" d="M9.10857 7.44194C9.35265 7.19786 9.35265 6.80214 9.10857 6.55806C8.86449 6.31398 8.46876 6.31398 8.22468 6.55806L3.22468 11.5581C2.98061 11.8021 2.98061 12.1979 3.22468 12.4419L8.22468 17.4419C8.46876 17.686 8.86449 17.686 9.10857 17.4419C9.35265 17.1979 9.35265 16.8021 9.10857 16.5581L4.55051 12L9.10857 7.44194ZM15.7752 6.55806C15.5312 6.31398 15.1354 6.31398 14.8913 6.55806C14.6473 6.80214 14.6473 7.19786 14.8913 7.44194L19.4494 12L14.8913 16.5581C14.6473 16.8021 14.6473 17.1979 14.8913 17.4419C15.1354 17.686 15.5312 17.686 15.7752 17.4419L20.7752 12.4419C21.0193 12.1979 21.0193 11.8021 20.7752 11.5581L15.7752 6.55806Z" fill="black"/>
</svg>
