<svg width="24" height="24" viewBox="0 0 24 24" fill="none" xmlns="http://www.w3.org/2000/svg">
<path fill-rule="evenodd" clip-rule="evenodd" d="M7.62502 2.83337C7.62502 2.4882 7.3452 2.20837 7.00002 2.20837C6.65484 2.20837 6.37502 2.4882 6.37502 2.83337V5.33337C6.37502 5.67855 6.65484 5.95837 7.00002 5.95837C7.3452 5.95837 7.62502 5.67855 7.62502 5.33337V2.83337ZM3.04169 8.66671C3.04169 8.32153 3.32151 8.04171 3.66669 8.04171H17H17.8334C18.8832 8.04171 19.89 8.45875 20.6323 9.20108C21.3746 9.94341 21.7917 10.9502 21.7917 12C21.7917 13.0499 21.3746 14.0567 20.6323 14.799C19.89 15.5413 18.8832 15.9584 17.8334 15.9584H17.625V16.1667C17.625 17.2165 17.208 18.2233 16.4657 18.9657C15.7233 19.708 14.7165 20.125 13.6667 20.125H7.00002C5.9502 20.125 4.94339 19.708 4.20106 18.9657C3.45872 18.2233 3.04169 17.2165 3.04169 16.1667V8.66671ZM17.625 14.7084V9.29171H17.8334C18.5516 9.29171 19.2405 9.57705 19.7484 10.085C20.2563 10.5929 20.5417 11.2817 20.5417 12C20.5417 12.7183 20.2563 13.4072 19.7484 13.9151C19.2405 14.423 18.5516 14.7084 17.8334 14.7084H17.625ZM16.375 9.29171V15.3334V16.1667C16.375 16.885 16.0897 17.5739 15.5818 18.0818C15.0739 18.5897 14.385 18.875 13.6667 18.875H7.00002C6.28173 18.875 5.59285 18.5897 5.08494 18.0818C4.57703 17.5739 4.29169 16.885 4.29169 16.1667V9.29171H16.375ZM10.3334 2.20837C10.6785 2.20837 10.9584 2.4882 10.9584 2.83337V5.33337C10.9584 5.67855 10.6785 5.95837 10.3334 5.95837C9.98817 5.95837 9.70835 5.67855 9.70835 5.33337V2.83337C9.70835 2.4882 9.98817 2.20837 10.3334 2.20837ZM14.2917 2.83337C14.2917 2.4882 14.0119 2.20837 13.6667 2.20837C13.3215 2.20837 13.0417 2.4882 13.0417 2.83337V5.33337C13.0417 5.67855 13.3215 5.95837 13.6667 5.95837C14.0119 5.95837 14.2917 5.67855 14.2917 5.33337V2.83337Z" fill="black"/>
</svg>
