<svg width="24" height="24" viewBox="0 0 24 24" fill="none" xmlns="http://www.w3.org/2000/svg">
<path fill-rule="evenodd" clip-rule="evenodd" d="M4.59672 4.59672C4.79207 4.40137 5.05703 4.29163 5.33329 4.29163H12.8333C13.1096 4.29163 13.3745 4.40137 13.5699 4.59672C13.7652 4.79207 13.875 5.05703 13.875 5.33329V6.16663C13.875 6.5118 14.1548 6.79163 14.5 6.79163C14.8451 6.79163 15.125 6.5118 15.125 6.16663V5.33329C15.125 4.7255 14.8835 4.14261 14.4537 3.71284C14.024 3.28307 13.4411 3.04163 12.8333 3.04163H5.33329C4.7255 3.04163 4.14261 3.28307 3.71284 3.71284C3.28307 4.14261 3.04163 4.7255 3.04163 5.33329V12.8333C3.04163 13.4411 3.28307 14.024 3.71284 14.4537C4.14261 14.8835 4.7255 15.125 5.33329 15.125H6.16663C6.5118 15.125 6.79163 14.8451 6.79163 14.5C6.79163 14.1548 6.5118 13.875 6.16663 13.875H5.33329C5.05703 13.875 4.79207 13.7652 4.59672 13.5699C4.40137 13.3745 4.29163 13.1096 4.29163 12.8333V5.33329C4.29163 5.05703 4.40137 4.79207 4.59672 4.59672ZM10.125 11.1666C10.125 10.5913 10.5913 10.125 11.1666 10.125H18.6666C19.2419 10.125 19.7083 10.5913 19.7083 11.1666V18.6666C19.7083 19.2419 19.2419 19.7083 18.6666 19.7083H11.1666C10.5913 19.7083 10.125 19.2419 10.125 18.6666V11.1666ZM11.1666 8.87496C9.90097 8.87496 8.87496 9.90097 8.87496 11.1666V18.6666C8.87496 19.9323 9.90097 20.9583 11.1666 20.9583H18.6666C19.9323 20.9583 20.9583 19.9323 20.9583 18.6666V11.1666C20.9583 9.90097 19.9323 8.87496 18.6666 8.87496H11.1666Z" fill="black"/>
</svg>
