<svg width="24" height="24" viewBox="0 0 24 24" fill="none" xmlns="http://www.w3.org/2000/svg">
<path fill-rule="evenodd" clip-rule="evenodd" d="M19.2917 5.33337C19.2917 4.9882 19.0119 4.70837 18.6667 4.70837C18.3215 4.70837 18.0417 4.9882 18.0417 5.33337V11.1667C18.0417 11.885 17.7564 12.5739 17.2485 13.0818C16.7405 13.5897 16.0517 13.875 15.3334 13.875H6.84226L9.94198 10.7753C10.1861 10.5312 10.1861 10.1355 9.94198 9.89143C9.6979 9.64735 9.30218 9.64735 9.0581 9.89143L4.89143 14.0581C4.83151 14.118 4.7863 14.1871 4.7558 14.2608C4.72524 14.3345 4.70837 14.4153 4.70837 14.5C4.70837 14.5848 4.72524 14.6656 4.7558 14.7393C4.7863 14.813 4.83151 14.8821 4.89143 14.942L9.0581 19.1086C9.30218 19.3527 9.6979 19.3527 9.94198 19.1086C10.1861 18.8646 10.1861 18.4688 9.94198 18.2248L6.84226 15.125H15.3334C16.3832 15.125 17.39 14.708 18.1323 13.9657C18.8747 13.2233 19.2917 12.2165 19.2917 11.1667V5.33337Z" fill="black"/>
</svg>
