<svg width="24" height="24" viewBox="0 0 24 24" fill="none" xmlns="http://www.w3.org/2000/svg">
<g clip-path="url(#clip0_775_13686)">
<path fill-rule="evenodd" clip-rule="evenodd" d="M14.9419 4.89143C14.6979 4.64735 14.3021 4.64735 14.0581 4.89143C13.814 5.13551 13.814 5.53124 14.0581 5.77532L17.1577 8.875H8.66671C7.61689 8.875 6.61007 9.29204 5.86774 10.0344C5.12541 10.7767 4.70837 11.7835 4.70837 12.8333V18.6667C4.70837 19.0118 4.9882 19.2917 5.33337 19.2917C5.67855 19.2917 5.95837 19.0118 5.95837 18.6667V12.8333C5.95837 12.115 6.24372 11.4262 6.75163 10.9183C7.25954 10.4103 7.94841 10.125 8.66671 10.125H17.1578L14.0581 13.2248C13.814 13.4688 13.814 13.8646 14.0581 14.1086C14.3021 14.3527 14.6979 14.3527 14.9419 14.1086L19.1086 9.94198C19.1625 9.88811 19.2045 9.82686 19.2345 9.76148C19.2712 9.68193 19.2917 9.59335 19.2917 9.5C19.2917 9.32436 19.2193 9.16564 19.1026 9.0521L14.9419 4.89143Z" fill="black"/>
</g>
<defs>
<clipPath id="clip0_775_13686">
<rect width="20" height="20" fill="white" transform="translate(2 2)"/>
</clipPath>
</defs>
</svg>
