<svg width="24" height="24" viewBox="0 0 24 24" fill="none" xmlns="http://www.w3.org/2000/svg">
<g clip-path="url(#clip0_775_13676)">
<path fill-rule="evenodd" clip-rule="evenodd" d="M12.8333 4.70837C11.7835 4.70837 10.7767 5.12541 10.0344 5.86774C9.29204 6.61007 8.875 7.61689 8.875 8.66671V17.1577L5.77532 14.0581C5.53124 13.814 5.13551 13.814 4.89143 14.0581C4.64735 14.3021 4.64735 14.6979 4.89143 14.9419L9.0521 19.1026C9.16564 19.2193 9.32436 19.2917 9.5 19.2917C9.59335 19.2917 9.68193 19.2712 9.76148 19.2345C9.82686 19.2045 9.88811 19.1625 9.94198 19.1086L14.1086 14.9419C14.3527 14.6979 14.3527 14.3021 14.1086 14.0581C13.8646 13.814 13.4688 13.814 13.2248 14.0581L10.125 17.1578V8.66671C10.125 7.94841 10.4103 7.25954 10.9183 6.75163C11.4262 6.24372 12.115 5.95837 12.8333 5.95837H18.6667C19.0118 5.95837 19.2917 5.67855 19.2917 5.33337C19.2917 4.9882 19.0118 4.70837 18.6667 4.70837H12.8333Z" fill="black"/>
</g>
<defs>
<clipPath id="clip0_775_13676">
<rect width="20" height="20" fill="white" transform="translate(2 2)"/>
</clipPath>
</defs>
</svg>
