<svg width="24" height="24" viewBox="0 0 24 24" fill="none" xmlns="http://www.w3.org/2000/svg">
<g clip-path="url(#clip0_775_13684)">
<path fill-rule="evenodd" clip-rule="evenodd" d="M9.94198 5.77532C10.1861 5.53124 10.1861 5.13551 9.94198 4.89143C9.6979 4.64735 9.30218 4.64735 9.0581 4.89143L4.8957 9.05383C4.88046 9.06878 4.86598 9.08451 4.85233 9.10095C4.81609 9.14452 4.7867 9.19187 4.76414 9.24157C4.72832 9.32033 4.70837 9.40784 4.70837 9.5C4.70837 9.50193 4.70838 9.50386 4.7084 9.50579C4.70907 9.57951 4.72271 9.65313 4.74931 9.72295C4.77973 9.80279 4.8271 9.87765 4.89143 9.94198L9.0581 14.1086C9.30218 14.3527 9.6979 14.3527 9.94198 14.1086C10.1861 13.8646 10.1861 13.4688 9.94198 13.2248L6.84222 10.125H15.3334C16.0517 10.125 16.7405 10.4103 17.2485 10.9183C17.7564 11.4262 18.0417 12.115 18.0417 12.8333V18.6667C18.0417 19.0118 18.3215 19.2917 18.6667 19.2917C19.0119 19.2917 19.2917 19.0118 19.2917 18.6667V12.8333C19.2917 11.7835 18.8747 10.7767 18.1323 10.0344C17.39 9.29204 16.3832 8.875 15.3334 8.875H6.8423L9.94198 5.77532Z" fill="black"/>
</g>
<defs>
<clipPath id="clip0_775_13684">
<rect width="20" height="20" fill="white" transform="translate(2 2)"/>
</clipPath>
</defs>
</svg>
