<svg width="24" height="24" viewBox="0 0 24 24" fill="none" xmlns="http://www.w3.org/2000/svg">
<g clip-path="url(#clip0_775_13680)">
<path fill-rule="evenodd" clip-rule="evenodd" d="M5.33337 4.70837C4.9882 4.70837 4.70837 4.9882 4.70837 5.33337C4.70837 5.67855 4.9882 5.95837 5.33337 5.95837H11.1667C11.885 5.95837 12.5739 6.24372 13.0818 6.75163C13.5897 7.25954 13.875 7.94841 13.875 8.66671V17.1578L10.7753 14.0581C10.5312 13.814 10.1355 13.814 9.89143 14.0581C9.64735 14.3021 9.64735 14.6979 9.89143 14.9419L14.0538 19.1044C14.0716 19.1224 14.0904 19.1394 14.1102 19.1552C14.1434 19.1818 14.1786 19.2045 14.2154 19.2233C14.3007 19.267 14.3975 19.2917 14.5 19.2917C14.6016 19.2917 14.6974 19.2675 14.7822 19.2246C14.8198 19.2055 14.8559 19.1824 14.8899 19.1552C14.9097 19.1394 14.9285 19.1225 14.9462 19.1044L19.1086 14.9419C19.3527 14.6979 19.3527 14.3021 19.1086 14.0581C18.8646 13.814 18.4688 13.814 18.2248 14.0581L15.125 17.1578V8.66671C15.125 7.61689 14.708 6.61007 13.9657 5.86774C13.2233 5.12541 12.2165 4.70837 11.1667 4.70837H5.33337Z" fill="black"/>
</g>
<defs>
<clipPath id="clip0_775_13680">
<rect width="20" height="20" fill="white" transform="translate(2 2)"/>
</clipPath>
</defs>
</svg>
