<svg width="24" height="24" viewBox="0 0 24 24" fill="none" xmlns="http://www.w3.org/2000/svg">
<g clip-path="url(#clip0_775_13703)">
<path d="M12 8.66671C12.9205 8.66671 13.6667 7.92052 13.6667 7.00004C13.6667 6.07957 12.9205 5.33337 12 5.33337C11.0796 5.33337 10.3334 6.07957 10.3334 7.00004C10.3334 7.92052 11.0796 8.66671 12 8.66671Z" stroke="black" stroke-width="1.25" stroke-linecap="round" stroke-linejoin="round"/>
<path d="M6.16663 12H17.8333" stroke="black" stroke-width="1.25" stroke-linecap="round" stroke-linejoin="round"/>
<path d="M12 18.6667C12.9205 18.6667 13.6667 17.9205 13.6667 17C13.6667 16.0796 12.9205 15.3334 12 15.3334C11.0796 15.3334 10.3334 16.0796 10.3334 17C10.3334 17.9205 11.0796 18.6667 12 18.6667Z" stroke="black" stroke-width="1.25" stroke-linecap="round" stroke-linejoin="round"/>
</g>
<defs>
<clipPath id="clip0_775_13703">
<rect width="20" height="20" fill="white" transform="translate(2 2)"/>
</clipPath>
</defs>
</svg>
