<svg width="24" height="24" viewBox="0 0 24 24" fill="none" xmlns="http://www.w3.org/2000/svg">
<path fill-rule="evenodd" clip-rule="evenodd" d="M10.0769 4.53344C10.6916 4.37558 11.336 4.29163 12 4.29163C13.9617 4.29163 15.7523 5.02447 17.113 6.23134C15.9409 7.4868 14.581 8.39915 12.9587 9.05048C12.1727 7.59648 11.2421 6.16828 10.0769 4.53344ZM8.84755 4.96361C6.60934 5.96791 4.9373 8.00877 4.44241 10.4752C7.33508 10.3789 9.73694 10.0862 11.7635 9.46962C10.9839 8.05136 10.0476 6.63286 8.84755 4.96361ZM4.29625 11.7305C4.29318 11.8199 4.29163 11.9098 4.29163 12C4.29163 13.9879 5.04412 15.8 6.27979 17.1671C8.25361 14.4815 10.275 12.8922 12.465 12.1113L12.4659 12.111C12.629 12.0531 12.7962 11.9992 12.9675 11.9496C12.8637 11.7047 12.7575 11.4639 12.6485 11.2261C12.5514 11.0142 12.4518 10.8045 12.3496 10.5962C10.0737 11.3224 7.41647 11.6362 4.29625 11.7305ZM7.19757 18.0299C8.51487 19.0804 10.1841 19.7083 12 19.7083C13.1315 19.7083 14.2061 19.4645 15.174 19.0265C14.592 16.6405 14.0475 14.7631 13.4322 13.1173C13.2431 13.1691 13.0604 13.2263 12.8845 13.2888C10.9629 13.9741 9.09963 15.4061 7.19757 18.0299ZM16.3059 18.3944C18.0399 17.2245 19.2723 15.3679 19.6131 13.2146C17.7779 12.7681 16.0985 12.684 14.6738 12.8705C15.2542 14.4526 15.7694 16.2262 16.3059 18.3944ZM19.7081 11.9525C19.6971 10.1261 19.0509 8.4503 17.9793 7.13485C16.7002 8.49096 15.2311 9.46973 13.5312 10.1674C13.6174 10.3452 13.7019 10.5243 13.7847 10.7051C13.9306 11.0231 14.0712 11.3456 14.2076 11.6749C15.8233 11.4186 17.6981 11.4878 19.7081 11.9525ZM12 3.04163C7.05241 3.04163 3.04163 7.05241 3.04163 12C3.04163 16.9475 7.05241 20.9583 12 20.9583C16.9475 20.9583 20.9583 16.9475 20.9583 12C20.9583 7.05241 16.9475 3.04163 12 3.04163Z" fill="black"/>
</svg>
