<svg width="24" height="24" viewBox="0 0 24 24" fill="none" xmlns="http://www.w3.org/2000/svg">
<g clip-path="url(#clip0_775_13944)">
<path fill-rule="evenodd" clip-rule="evenodd" d="M11.9998 3.6167C12.1656 3.61663 12.3247 3.68248 12.442 3.79976L17.1585 8.51628C17.1584 8.51623 17.1585 8.51633 17.1585 8.51628C18.1786 9.53582 18.8737 10.8352 19.1554 12.2497C19.4371 13.6642 19.293 15.1306 18.7413 16.4633C18.1895 17.7959 17.2549 18.935 16.0557 19.7364C14.8565 20.5379 13.4466 20.9656 12.0042 20.9656C10.5618 20.9656 9.15188 20.5379 7.95266 19.7364C6.75345 18.935 5.81886 17.7959 5.26712 16.4633C4.71537 15.1306 4.57125 13.6642 4.85298 12.2497C5.13469 10.8353 5.8295 9.53614 6.84955 8.51663C6.84943 8.51675 6.84966 8.51651 6.84955 8.51663L11.5577 3.80015C11.6749 3.68277 11.8339 3.61677 11.9998 3.6167ZM12.0004 5.12597L16.2748 9.40031C17.1201 10.2451 17.696 11.3218 17.9295 12.4938C18.1629 13.6659 18.0435 14.8809 17.5863 15.9851C17.1292 17.0893 16.3548 18.0331 15.3612 18.6971C14.3675 19.3612 13.1993 19.7156 12.0042 19.7156C10.8091 19.7156 9.64085 19.3612 8.64721 18.6971C7.65358 18.0331 6.87921 17.0893 6.42204 15.9851C5.96488 14.8809 5.84547 13.6659 6.07891 12.4938C6.31235 11.3218 6.88815 10.2452 7.73349 9.40045L12.0004 5.12597Z" fill="black"/>
</g>
<defs>
<clipPath id="clip0_775_13944">
<rect width="20" height="20" fill="white" transform="translate(2 2)"/>
</clipPath>
</defs>
</svg>
