<svg width="24" height="24" viewBox="0 0 24 24" fill="none" xmlns="http://www.w3.org/2000/svg">
<path fill-rule="evenodd" clip-rule="evenodd" d="M17.8586 4.52526C18.0729 4.31095 18.3635 4.19055 18.6666 4.19055C18.9697 4.19055 19.2604 4.31095 19.4747 4.52526C19.689 4.73957 19.8094 5.03024 19.8094 5.33332C19.8094 5.6364 19.689 5.92707 19.4747 6.14138L11.6804 13.9356L9.52561 14.4743L10.0643 12.3195L17.8586 4.52526ZM18.6666 2.94055C18.032 2.94055 17.4234 3.19265 16.9747 3.64138L9.05802 11.558C8.97792 11.6381 8.92109 11.7385 8.89362 11.8484L8.06029 15.1817C8.00704 15.3947 8.06945 15.62 8.22468 15.7753C8.37992 15.9305 8.60523 15.9929 8.81821 15.9397L12.1515 15.1063C12.2614 15.0789 12.3618 15.022 12.4419 14.9419L20.3586 7.02526C20.8073 6.57653 21.0594 5.96792 21.0594 5.33332C21.0594 4.69872 20.8073 4.09011 20.3586 3.64138C19.9098 3.19265 19.3012 2.94055 18.6666 2.94055ZM5.33329 4.70832C4.7255 4.70832 4.14261 4.94976 3.71284 5.37953C3.28307 5.8093 3.04163 6.3922 3.04163 6.99999V18.6667C3.04163 19.2744 3.28307 19.8573 3.71284 20.2871C4.14261 20.7169 4.7255 20.9583 5.33329 20.9583H17C17.6077 20.9583 18.1906 20.7169 18.6204 20.2871C19.0502 19.8573 19.2916 19.2744 19.2916 18.6667V12.8333C19.2916 12.4881 19.0118 12.2083 18.6666 12.2083C18.3214 12.2083 18.0416 12.4881 18.0416 12.8333V18.6667C18.0416 18.9429 17.9319 19.2079 17.7365 19.4032C17.5412 19.5986 17.2762 19.7083 17 19.7083H5.33329C5.05703 19.7083 4.79207 19.5986 4.59672 19.4032C4.40137 19.2079 4.29163 18.9429 4.29163 18.6667V6.99999C4.29163 6.72372 4.40137 6.45877 4.59672 6.26342C4.79207 6.06807 5.05703 5.95832 5.33329 5.95832H11.1666C11.5118 5.95832 11.7916 5.6785 11.7916 5.33332C11.7916 4.98814 11.5118 4.70832 11.1666 4.70832H5.33329Z" fill="black"/>
</svg>
