<svg width="24" height="24" viewBox="0 0 24 24" fill="none" xmlns="http://www.w3.org/2000/svg">
<g clip-path="url(#clip0_775_13896)">
<g clip-path="url(#clip1_775_13896)">
<path d="M16.95 16.9499C15.5255 18.0358 13.791 18.6373 12 18.6666C6.16671 18.6666 2.83337 11.9999 2.83337 11.9999C3.86995 10.0682 5.30765 8.38045 7.05004 7.04994M10.25 5.53327C10.8236 5.39901 11.4109 5.33189 12 5.33327C17.8334 5.33327 21.1667 11.9999 21.1667 11.9999C20.6609 12.9463 20.0576 13.8372 19.3667 14.6583M13.7667 13.7666C13.5378 14.0122 13.2618 14.2092 12.9552 14.3459C12.6485 14.4825 12.3175 14.556 11.9818 14.5619C11.6461 14.5678 11.3127 14.5061 11.0014 14.3803C10.6901 14.2546 10.4073 14.0675 10.1699 13.8301C9.93252 13.5927 9.74537 13.3099 9.61963 12.9986C9.49389 12.6873 9.43215 12.3539 9.43807 12.0182C9.44399 11.6825 9.51746 11.3515 9.6541 11.0448C9.79074 10.7381 9.98775 10.4621 10.2334 10.2333" stroke="black" stroke-width="1.25" stroke-linecap="round" stroke-linejoin="round"/>
<path d="M2.83337 2.83337L21.1667 21.1667" stroke="black" stroke-width="1.25" stroke-linecap="round" stroke-linejoin="round"/>
</g>
</g>
<defs>
<clipPath id="clip0_775_13896">
<rect width="20" height="20" fill="white" transform="translate(2 2)"/>
</clipPath>
<clipPath id="clip1_775_13896">
<rect width="20" height="20" fill="white" transform="translate(2 2)"/>
</clipPath>
</defs>
</svg>
