<svg width="24" height="24" viewBox="0 0 24 24" fill="none" xmlns="http://www.w3.org/2000/svg">
<path fill-rule="evenodd" clip-rule="evenodd" d="M3.97032 12.7026C3.78354 12.4134 3.6409 12.1716 3.54392 12C3.6409 11.8285 3.78354 11.5867 3.97032 11.2975C4.35937 10.6951 4.93581 9.89342 5.68511 9.09417C7.1951 7.48352 9.333 5.95837 12 5.95837C14.667 5.95837 16.8049 7.48352 18.3149 9.09417C19.0641 9.89342 19.6406 10.6951 20.0296 11.2975C20.2164 11.5867 20.3591 11.8285 20.456 12C20.3591 12.1716 20.2164 12.4134 20.0296 12.7026C19.6406 13.305 19.0641 14.1067 18.3149 14.9059C16.8049 16.5166 14.667 18.0417 12 18.0417C9.333 18.0417 7.1951 16.5166 5.68511 14.9059C4.93581 14.1067 4.35937 13.305 3.97032 12.7026ZM21.7254 11.7201C21.7256 11.7203 21.7257 11.7205 21.1666 12C21.7257 12.2795 21.7256 12.2798 21.7254 12.28L21.7251 12.2806L21.7243 12.2823L21.7217 12.2875L21.7127 12.3049C21.7052 12.3197 21.6943 12.3406 21.6802 12.3672C21.652 12.4205 21.6108 12.4969 21.5568 12.5929C21.4487 12.785 21.2892 13.0564 21.0797 13.3808C20.6614 14.0284 20.04 14.8934 19.2268 15.7608C17.6118 17.4835 15.1663 19.2917 12 19.2917C8.83362 19.2917 6.3882 17.4835 4.77319 15.7608C3.95998 14.8934 3.33851 14.0284 2.92027 13.3808C2.71076 13.0564 2.55122 12.785 2.4432 12.5929C2.38917 12.4969 2.34795 12.4205 2.31975 12.3672C2.30565 12.3406 2.29479 12.3197 2.28721 12.3049L2.27829 12.2875L2.27568 12.2823L2.27483 12.2806L2.27453 12.28C2.2744 12.2798 2.2743 12.2795 2.83331 12C2.2743 11.7205 2.2744 11.7203 2.27453 11.7201L2.27483 11.7195L2.27568 11.7178L2.27829 11.7126L2.28721 11.6951C2.29479 11.6804 2.30565 11.6595 2.31975 11.6328C2.34795 11.5796 2.38917 11.5032 2.4432 11.4072C2.55122 11.2151 2.71076 10.9437 2.92027 10.6193C3.33851 9.97169 3.95998 9.10666 4.77319 8.23924C6.3882 6.51657 8.83362 4.70837 12 4.70837C15.1663 4.70837 17.6118 6.51657 19.2268 8.23924C20.04 9.10666 20.6614 9.97169 21.0797 10.6193C21.2892 10.9437 21.4487 11.2151 21.5568 11.4072C21.6108 11.5032 21.652 11.5796 21.6802 11.6328C21.6943 11.6595 21.7052 11.6804 21.7127 11.6951L21.7217 11.7126L21.7243 11.7178L21.7251 11.7195L21.7254 11.7201ZM2.83331 12L2.2743 12.2795C2.18632 12.1036 2.18632 11.8965 2.2743 11.7205L2.83331 12ZM21.1666 12L21.7257 11.7205C21.8136 11.8965 21.8136 12.1036 21.7257 12.2795L21.1666 12ZM10.125 12C10.125 10.9645 10.9644 10.125 12 10.125C13.0355 10.125 13.875 10.9645 13.875 12C13.875 13.0356 13.0355 13.875 12 13.875C10.9644 13.875 10.125 13.0356 10.125 12ZM12 8.87504C10.2741 8.87504 8.87498 10.2742 8.87498 12C8.87498 13.7259 10.2741 15.125 12 15.125C13.7259 15.125 15.125 13.7259 15.125 12C15.125 10.2742 13.7259 8.87504 12 8.87504Z" fill="black"/>
</svg>
