<svg width="24" height="24" viewBox="0 0 24 24" fill="none" xmlns="http://www.w3.org/2000/svg">
<path fill-rule="evenodd" clip-rule="evenodd" d="M4.0504 5.67329C3.86197 5.52673 3.60653 5.50031 3.39209 5.60518C3.17766 5.71006 3.04169 5.92792 3.04169 6.16663V17.8333C3.04169 18.072 3.17766 18.2899 3.39209 18.3947C3.60653 18.4996 3.86197 18.4732 4.0504 18.3266L11.5504 12.4933C11.7026 12.3749 11.7917 12.1928 11.7917 12C11.7917 11.8071 11.7026 11.625 11.5504 11.5066L4.0504 5.67329ZM10.1487 12L4.29169 16.5554V7.44453L10.1487 12ZM13.2171 5.67329C13.0286 5.52673 12.7732 5.50031 12.5588 5.60518C12.3443 5.71006 12.2084 5.92792 12.2084 6.16663V17.8333C12.2084 18.072 12.3443 18.2899 12.5588 18.3947C12.7732 18.4996 13.0286 18.4732 13.2171 18.3266L20.7171 12.4933C20.8693 12.3749 20.9584 12.1928 20.9584 12C20.9584 11.8071 20.8693 11.625 20.7171 11.5066L13.2171 5.67329ZM19.3153 12L13.4584 16.5554V7.44453L19.3153 12Z" fill="black"/>
</svg>
