<svg width="24" height="24" viewBox="0 0 24 24" fill="none" xmlns="http://www.w3.org/2000/svg">
<g clip-path="url(#clip0_775_13707)">
<path d="M18.8666 12.1999C19.8048 11.2617 20.3319 9.98927 20.3319 8.66245C20.3319 7.33563 19.8048 6.06315 18.8666 5.12495C17.9284 4.18675 16.6559 3.65967 15.3291 3.65967C14.0023 3.65967 12.7298 4.18675 11.7916 5.12495L6.16663 10.7499V17.8333H13.25L18.8666 12.1999Z" stroke="black" stroke-width="1.25" stroke-linecap="round" stroke-linejoin="round"/>
<path fill-rule="evenodd" clip-rule="evenodd" d="M15.7752 8.22468C16.0193 8.46876 16.0193 8.86449 15.7752 9.10857L4.10857 20.7752C3.86449 21.0193 3.46876 21.0193 3.22468 20.7752C2.98061 20.5312 2.98061 20.1354 3.22468 19.8914L14.8914 8.22468C15.1354 7.98061 15.5312 7.98061 15.7752 8.22468Z" fill="black"/>
<path fill-rule="evenodd" clip-rule="evenodd" d="M8.875 14.5C8.875 14.1548 9.15482 13.875 9.5 13.875H16.5833C16.9285 13.875 17.2083 14.1548 17.2083 14.5C17.2083 14.8452 16.9285 15.125 16.5833 15.125H9.5C9.15482 15.125 8.875 14.8452 8.875 14.5Z" fill="black"/>
</g>
<defs>
<clipPath id="clip0_775_13707">
<rect width="20" height="20" fill="white" transform="translate(2 2)"/>
</clipPath>
</defs>
</svg>
