<svg width="24" height="24" viewBox="0 0 24 24" fill="none" xmlns="http://www.w3.org/2000/svg">
<path fill-rule="evenodd" clip-rule="evenodd" d="M9.08329 4.29163C8.4755 4.29163 7.89261 4.53307 7.46284 4.96284C7.03307 5.39261 6.79163 5.9755 6.79163 6.58329C6.79163 7.19108 7.03307 7.77397 7.46284 8.20375C7.89261 8.63352 8.4755 8.87496 9.08329 8.87496H11.375V4.29163H9.08329ZM12.625 15.1169C12.905 15.3546 13.2208 15.5477 13.5613 15.6887C13.991 15.8667 14.4515 15.9583 14.9166 15.9583C15.3817 15.9583 15.8423 15.8667 16.272 15.6887C16.7017 15.5107 17.0921 15.2498 17.421 14.921C17.7498 14.5921 18.0107 14.2017 18.1887 13.772C18.3667 13.3423 18.4583 12.8817 18.4583 12.4166C18.4583 11.9515 18.3667 11.491 18.1887 11.0613C18.0107 10.6316 17.7498 10.2412 17.421 9.91229C17.2684 9.75971 17.1026 9.62178 16.9257 9.49996C17.1026 9.37814 17.2684 9.2402 17.421 9.08763C17.7498 8.75875 18.0107 8.36832 18.1887 7.93863C18.3667 7.50894 18.4583 7.04839 18.4583 6.58329C18.4583 6.11819 18.3667 5.65765 18.1887 5.22796C18.0107 4.79826 17.7498 4.40783 17.421 4.07896C17.0921 3.75008 16.7017 3.4892 16.272 3.31122C15.8423 3.13323 15.3817 3.04163 14.9166 3.04163H12H9.08329C8.14398 3.04163 7.24315 3.41476 6.57896 4.07896C5.91477 4.74315 5.54163 5.64398 5.54163 6.58329C5.54163 7.5226 5.91477 8.42344 6.57896 9.08763C6.73224 9.24091 6.89812 9.37869 7.07417 9.49996C6.89812 9.62123 6.73224 9.75901 6.57896 9.91229C5.91477 10.5765 5.54163 11.4773 5.54163 12.4166C5.54163 13.3559 5.91477 14.2568 6.57896 14.921C6.73224 15.0742 6.89812 15.212 7.07417 15.3333C6.89812 15.4546 6.73224 15.5923 6.57896 15.7456C5.91476 16.4098 5.54163 17.3106 5.54163 18.25C5.54163 19.1893 5.91476 20.0901 6.57896 20.7543C7.24315 21.4185 8.14398 21.7916 9.08329 21.7916C10.0226 21.7916 10.9234 21.4185 11.5876 20.7543C12.2518 20.0901 12.625 19.1893 12.625 18.25V15.3333V15.1169ZM11.375 15.9583H9.08329C8.4755 15.9583 7.89261 16.1997 7.46284 16.6295C7.03307 17.0593 6.79163 17.6422 6.79163 18.25C6.79163 18.8577 7.03307 19.4406 7.46284 19.8704C7.89261 20.3002 8.4755 20.5416 9.08329 20.5416C9.69108 20.5416 10.274 20.3002 10.7037 19.8704C11.1335 19.4406 11.375 18.8577 11.375 18.25V15.9583ZM9.08329 10.125C8.4755 10.125 7.89261 10.3664 7.46284 10.7962C7.03307 11.2259 6.79163 11.8088 6.79163 12.4166C6.79163 13.0244 7.03307 13.6073 7.46284 14.0371C7.89261 14.4668 8.4755 14.7083 9.08329 14.7083H11.375V12.4166V10.125H9.08329ZM12.625 12.4166C12.625 12.7176 12.6842 13.0156 12.7994 13.2936C12.9146 13.5716 13.0834 13.8243 13.2962 14.0371C13.509 14.2499 13.7616 14.4187 14.0396 14.5338C14.3177 14.649 14.6157 14.7083 14.9166 14.7083C15.2176 14.7083 15.5156 14.649 15.7936 14.5338C16.0716 14.4187 16.3243 14.2499 16.5371 14.0371C16.7499 13.8243 16.9187 13.5716 17.0338 13.2936C17.149 13.0156 17.2083 12.7176 17.2083 12.4166C17.2083 12.1157 17.149 11.8177 17.0338 11.5396C16.9187 11.2616 16.7499 11.009 16.5371 10.7962C16.3243 10.5834 16.0716 10.4146 15.7936 10.2994C15.5156 10.1842 15.2176 10.125 14.9166 10.125C14.6157 10.125 14.3177 10.1842 14.0396 10.2994C13.7616 10.4146 13.509 10.5834 13.2962 10.7962C13.0834 11.009 12.9146 11.2616 12.7994 11.5396C12.6842 11.8177 12.625 12.1157 12.625 12.4166ZM14.9166 8.87496C15.2176 8.87496 15.5156 8.81568 15.7936 8.70052C16.0716 8.58535 16.3243 8.41655 16.5371 8.20375C16.7499 7.99095 16.9187 7.73831 17.0338 7.46028C17.149 7.18224 17.2083 6.88424 17.2083 6.58329C17.2083 6.28235 17.149 5.98435 17.0338 5.70631C16.9187 5.42827 16.7499 5.17564 16.5371 4.96284C16.3243 4.75004 16.0716 4.58124 15.7936 4.46607C15.5156 4.3509 15.2176 4.29163 14.9166 4.29163H12.625V8.87496H14.9166Z" fill="black"/>
</svg>
