<svg width="24" height="24" viewBox="0 0 24 24" fill="none" xmlns="http://www.w3.org/2000/svg">
<path fill-rule="evenodd" clip-rule="evenodd" d="M7.00004 3.04163C6.39225 3.04163 5.80936 3.28307 5.37959 3.71284C4.94982 4.14261 4.70837 4.7255 4.70837 5.33329V18.6666C4.70837 19.2744 4.94982 19.8573 5.37959 20.2871C5.80936 20.7168 6.39225 20.9583 7.00004 20.9583H17C17.6078 20.9583 18.1907 20.7168 18.6205 20.2871C19.0503 19.8573 19.2917 19.2744 19.2917 18.6666V9.49996C19.2917 9.49732 19.2917 9.49468 19.2917 9.49204C19.2897 9.33411 19.2279 9.18287 19.1191 9.06869C19.1156 9.06509 19.1122 9.06154 19.1086 9.05802L13.2753 3.22468C13.273 3.22239 13.2707 3.22013 13.2684 3.21788C13.1559 3.10878 13.0025 3.04163 12.8334 3.04163H7.00004ZM12.2084 4.29163H7.00004C6.72377 4.29163 6.45882 4.40137 6.26347 4.59672C6.06812 4.79207 5.95837 5.05703 5.95837 5.33329V18.6666C5.95837 18.9429 6.06812 19.2078 6.26347 19.4032C6.45882 19.5985 6.72377 19.7083 7.00004 19.7083H17C17.2763 19.7083 17.5413 19.5985 17.7366 19.4032C17.932 19.2078 18.0417 18.9429 18.0417 18.6666V10.125H12.8334C12.4882 10.125 12.2084 9.84514 12.2084 9.49996V4.29163ZM17.1578 8.87496L13.4584 5.17551V8.87496H17.1578Z" fill="black"/>
</svg>
