<svg width="24" height="24" viewBox="0 0 24 24" fill="none" xmlns="http://www.w3.org/2000/svg">
<path fill-rule="evenodd" clip-rule="evenodd" d="M7.00004 3.04163C6.39225 3.04163 5.80936 3.28307 5.37959 3.71284C4.94982 4.14261 4.70837 4.7255 4.70837 5.33329V18.6666C4.70837 19.2744 4.94982 19.8573 5.37959 20.2871C5.80936 20.7168 6.39225 20.9583 7.00004 20.9583H17C17.6078 20.9583 18.1907 20.7168 18.6205 20.2871C19.0503 19.8573 19.2917 19.2744 19.2917 18.6666V8.66773V8.66663C19.2917 8.49395 19.2217 8.33763 19.1085 8.22452L14.109 3.22508L14.1086 3.22468C13.9914 3.10747 13.8325 3.04163 13.6667 3.04163H7.00004ZM13.0417 4.29163H7.00004C6.72377 4.29163 6.45882 4.40137 6.26347 4.59672C6.06812 4.79207 5.95837 5.05703 5.95837 5.33329V18.6666C5.95837 18.9429 6.06812 19.2078 6.26347 19.4032C6.45882 19.5985 6.72377 19.7083 7.00004 19.7083H17C17.2763 19.7083 17.5413 19.5985 17.7366 19.4032C17.932 19.2078 18.0417 18.9429 18.0417 18.6666V9.29163H13.6667C13.3215 9.29163 13.0417 9.0118 13.0417 8.66663V4.29163ZM17.1578 8.04163L14.2917 5.17551V8.04163H17.1578ZM12 11.375C12.3452 11.375 12.625 11.6548 12.625 12V13.875H14.5C14.8452 13.875 15.125 14.1548 15.125 14.5C15.125 14.8451 14.8452 15.125 14.5 15.125H12.625V17C12.625 17.3451 12.3452 17.625 12 17.625C11.6549 17.625 11.375 17.3451 11.375 17V15.125H9.50004C9.15486 15.125 8.87504 14.8451 8.87504 14.5C8.87504 14.1548 9.15486 13.875 9.50004 13.875H11.375V12C11.375 11.6548 11.6549 11.375 12 11.375Z" fill="black"/>
</svg>
