<svg width="24" height="24" viewBox="0 0 24 24" fill="none" xmlns="http://www.w3.org/2000/svg">
<path fill-rule="evenodd" clip-rule="evenodd" d="M4.29163 5.48329C4.29163 4.82515 4.82515 4.29163 5.48329 4.29163H7.20829V7.20829H4.29163V5.48329ZM4.29163 8.45829H7.20829V11.375H4.29163V8.45829ZM3.04163 5.48329V7.83329V12V16.1666V18.5166C3.04163 19.8651 4.1348 20.9583 5.48329 20.9583H7.83329H16.1666H18.5166C19.8651 20.9583 20.9583 19.8651 20.9583 18.5166V16.1682L20.9583 16.1666L20.9583 16.1651V12V7.83485C20.9583 7.83433 20.9583 7.83381 20.9583 7.83329C20.9583 7.83277 20.9583 7.83225 20.9583 7.83173V5.48329C20.9583 4.1348 19.8651 3.04163 18.5166 3.04163H16.1666H7.83329H5.48329C4.1348 3.04163 3.04163 4.1348 3.04163 5.48329ZM19.7083 7.20829V5.48329C19.7083 4.82515 19.1748 4.29163 18.5166 4.29163H16.7916V7.20829H19.7083ZM15.5416 7.83329V4.29163H8.45829V7.83329V11.375H15.5416V7.83329ZM16.7916 8.45829H19.7083V11.375H16.7916V8.45829ZM19.7083 12.625V15.5416H16.7916V12.625H19.7083ZM19.7083 16.7916H16.7916V19.7083H18.5166C19.1748 19.7083 19.7083 19.1748 19.7083 18.5166V16.7916ZM15.5416 12.625V16.1666V19.7083H8.45829V16.1666V12.625H15.5416ZM4.29163 16.7916V18.5166C4.29163 19.1748 4.82515 19.7083 5.48329 19.7083H7.20829V16.7916H4.29163ZM7.20829 15.5416H4.29163V12.625H7.20829V15.5416Z" fill="black"/>
</svg>
