<svg width="24" height="24" viewBox="0 0 24 24" fill="none" xmlns="http://www.w3.org/2000/svg">
<path fill-rule="evenodd" clip-rule="evenodd" d="M3.09969 4.23695C3.2021 4.01622 3.42331 3.875 3.66663 3.875H20.3333C20.5766 3.875 20.7978 4.01622 20.9002 4.23695C21.0027 4.45768 20.9677 4.71778 20.8105 4.90358L14.2916 12.6122V19.5C14.2916 19.7166 14.1795 19.9178 13.9952 20.0317C13.811 20.1455 13.5809 20.1559 13.3871 20.059L10.0538 18.3924C9.84205 18.2865 9.7083 18.0701 9.7083 17.8333V12.6122L3.1894 4.90358C3.03228 4.71778 2.99727 4.45768 3.09969 4.23695ZM5.0137 5.125L10.8105 11.9798C10.9059 12.0926 10.9583 12.2356 10.9583 12.3833V17.4471L13.0416 18.4887V12.3833C13.0416 12.2356 13.094 12.0926 13.1894 11.9798L18.9862 5.125H5.0137Z" fill="black"/>
</svg>
