<svg width="24" height="24" viewBox="0 0 24 24" fill="none" xmlns="http://www.w3.org/2000/svg">
<path fill-rule="evenodd" clip-rule="evenodd" d="M4.59672 5.4301C4.79207 5.23475 5.05703 5.125 5.33329 5.125H9.16547L10.6466 7.34669C10.7625 7.52056 10.9577 7.625 11.1666 7.625H18.6666C18.9429 7.625 19.2078 7.73475 19.4032 7.9301C19.5985 8.12545 19.7083 8.3904 19.7083 8.66667V17.8333C19.7083 18.1096 19.5985 18.3746 19.4032 18.5699C19.2078 18.7653 18.9429 18.875 18.6666 18.875H5.33329C5.05703 18.875 4.79207 18.7653 4.59672 18.5699C4.40137 18.3746 4.29163 18.1096 4.29163 17.8333V6.16667C4.29163 5.8904 4.40137 5.62545 4.59672 5.4301ZM5.33329 3.875C4.7255 3.875 4.14261 4.11644 3.71284 4.54621C3.28307 4.97598 3.04163 5.55888 3.04163 6.16667V17.8333C3.04163 18.4411 3.28307 19.024 3.71284 19.4538C4.14261 19.8836 4.7255 20.125 5.33329 20.125H18.6666C19.2744 20.125 19.8573 19.8836 20.2871 19.4538C20.7168 19.024 20.9583 18.4411 20.9583 17.8333V8.66667C20.9583 8.05888 20.7168 7.47598 20.2871 7.04621C19.8573 6.61644 19.2744 6.375 18.6666 6.375H11.5011L10.02 4.15331C9.90407 3.97944 9.70893 3.875 9.49996 3.875H5.33329ZM9.49996 13.0417C9.15478 13.0417 8.87496 13.3215 8.87496 13.6667C8.87496 14.0118 9.15478 14.2917 9.49996 14.2917H14.5C14.8451 14.2917 15.125 14.0118 15.125 13.6667C15.125 13.3215 14.8451 13.0417 14.5 13.0417H9.49996Z" fill="black"/>
</svg>
