<svg width="24" height="24" viewBox="0 0 24 24" fill="none" xmlns="http://www.w3.org/2000/svg">
<g clip-path="url(#clip0_775_13719)">
<path fill-rule="evenodd" clip-rule="evenodd" d="M5.58922 3.42745C5.68596 3.1939 5.91386 3.04163 6.16664 3.04163H17.8333C18.1785 3.04163 18.4583 3.32145 18.4583 3.66663V9.49996C18.4583 9.84514 18.1785 10.125 17.8333 10.125H13.5089L18.2753 14.8914C18.454 15.0701 18.5075 15.3389 18.4107 15.5725C18.314 15.806 18.0861 15.9583 17.8333 15.9583H12.625V21.1666C12.625 21.4194 12.4727 21.6473 12.2392 21.7441C12.0056 21.8408 11.7368 21.7873 11.558 21.6086L5.7247 15.7752C5.60749 15.658 5.54164 15.4991 5.54164 15.3333V9.49996C5.54164 9.15478 5.82147 8.87496 6.16664 8.87496H10.4911L5.7247 4.10857C5.54595 3.92982 5.49248 3.661 5.58922 3.42745ZM12.2589 8.87496H17.2083V4.29163H7.67553L12.2589 8.87496ZM11.7411 10.125H6.79164V14.7083H16.3244L11.7411 10.125ZM7.67553 15.9583L11.375 19.6577V15.9583H7.67553Z" fill="black"/>
</g>
<defs>
<clipPath id="clip0_775_13719">
<rect width="20" height="20" fill="white" transform="translate(2 2)"/>
</clipPath>
</defs>
</svg>
