<svg width="24" height="24" viewBox="0 0 24 24" fill="none" xmlns="http://www.w3.org/2000/svg">
<g clip-path="url(#clip0_775_13726)">
<path d="M9.49996 17.8334C5.33329 19.0834 5.33329 15.75 3.66663 15.3334M15.3333 20.3334V17.1084C15.3646 16.711 15.3109 16.3115 15.1758 15.9365C15.0407 15.5615 14.8274 15.2195 14.55 14.9334C17.1666 14.6417 19.9166 13.65 19.9166 9.10003C19.9164 7.93655 19.4689 6.8177 18.6666 5.97503C19.0465 4.95712 19.0196 3.83199 18.5916 2.83336C18.5916 2.83336 17.6083 2.5417 15.3333 4.0667C13.4233 3.54905 11.41 3.54905 9.49996 4.0667C7.22496 2.5417 6.24163 2.83336 6.24163 2.83336C5.81361 3.83199 5.78675 4.95712 6.16663 5.97503C5.3584 6.82395 4.91039 7.95292 4.91663 9.12503C4.91663 13.6417 7.66663 14.6334 10.2833 14.9584C10.0091 15.2417 9.79768 15.5795 9.66272 15.95C9.52775 16.3204 9.4723 16.7151 9.49996 17.1084V20.3334" stroke="black" stroke-width="1.25" stroke-linecap="round" stroke-linejoin="round"/>
</g>
<defs>
<clipPath id="clip0_775_13726">
<rect width="20" height="20" fill="white" transform="translate(2 2)"/>
</clipPath>
</defs>
</svg>
