<svg width="24" height="24" viewBox="0 0 24 24" fill="none" xmlns="http://www.w3.org/2000/svg">
<g clip-path="url(#clip0_775_13727)">
<g clip-path="url(#clip1_775_13727)">
<path fill-rule="evenodd" clip-rule="evenodd" d="M6.25597 4.80394L8.03074 10.2519C8.11455 10.5092 8.35441 10.6833 8.625 10.6833H15.375C15.6458 10.6833 15.8857 10.5089 15.9694 10.2514L17.739 4.805L19.5139 10.2681L20.5681 13.3894C20.5708 13.403 20.5697 13.4171 20.5649 13.4302C20.5592 13.4453 20.5489 13.4582 20.5353 13.467C20.5259 13.4731 20.5166 13.4794 20.5076 13.4861L12 19.669L3.49529 13.4881C3.49505 13.488 3.49552 13.4883 3.49529 13.4881C3.4829 13.4788 3.47299 13.4653 3.46827 13.4505C3.46346 13.4354 3.46354 13.4192 3.4685 13.4042L6.25597 4.80394ZM6.43789 4.12835L6.4359 4.13018C6.43629 4.12983 6.43667 4.12947 6.43706 4.12912C6.43743 4.12878 6.43752 4.12869 6.43789 4.12835ZM5.59629 3.20413C5.77735 3.03926 6.01343 2.94788 6.25833 2.94788C6.50375 2.94788 6.7403 3.03965 6.92151 3.20517L6.93436 3.21724C7.05174 3.3307 7.13872 3.47178 7.18738 3.62752L9.07872 9.4333H14.9209L16.8139 3.60684C16.8175 3.59597 16.8213 3.58519 16.8254 3.57452C16.8802 3.43294 16.9672 3.30611 17.0796 3.20413C17.2607 3.03927 17.4968 2.94788 17.7417 2.94788C17.9871 2.94788 18.2236 3.03965 18.4048 3.20517L18.4177 3.21724C18.5352 3.33078 18.6222 3.47198 18.6708 3.62785L20.7016 9.87843L21.7588 13.0083C21.7616 13.0167 21.7643 13.0251 21.7667 13.0335C21.8464 13.3072 21.8358 13.5993 21.7363 13.8664C21.6391 14.1274 21.4622 14.351 21.231 14.5056L12.3674 20.9472C12.1484 21.1064 11.8516 21.1064 11.6326 20.9472L2.75756 14.4972L2.75471 14.4951C2.5295 14.3295 2.36244 14.0969 2.27745 13.8306C2.1927 13.565 2.19386 13.2795 2.28074 13.0147C2.28099 13.0139 2.28124 13.0132 2.2815 13.0124L5.33058 3.60684C5.33412 3.59597 5.33795 3.58519 5.34207 3.57452C5.39683 3.43295 5.48388 3.30611 5.59629 3.20413Z" fill="black"/>
</g>
</g>
<defs>
<clipPath id="clip0_775_13727">
<rect width="20" height="20" fill="white" transform="translate(2 2)"/>
</clipPath>
<clipPath id="clip1_775_13727">
<rect width="20" height="20" fill="white" transform="translate(2 2)"/>
</clipPath>
</defs>
</svg>
