<svg width="24" height="24" viewBox="0 0 24 24" fill="none" xmlns="http://www.w3.org/2000/svg">
<path fill-rule="evenodd" clip-rule="evenodd" d="M10.58 4.42214C7.20071 5.05141 4.5966 7.88533 4.3166 11.375H8.06853C8.23618 8.86169 9.1099 6.45267 10.58 4.42214ZM12 3.04163C7.05241 3.04163 3.04163 7.05241 3.04163 12C3.04163 16.9475 7.05241 20.9583 12 20.9583C16.9475 20.9583 20.9583 16.9475 20.9583 12C20.9583 7.05241 16.9475 3.04163 12 3.04163ZM13.4199 4.42214C14.89 6.45267 15.7637 8.86169 15.9314 11.375H19.6833C19.4033 7.88533 16.7992 5.05141 13.4199 4.42214ZM14.6783 11.375C14.4964 8.90351 13.5611 6.54705 12 4.6239C10.4388 6.54705 9.50355 8.90351 9.3216 11.375H14.6783ZM9.3216 12.625H14.6783C14.4964 15.0964 13.5611 17.4529 12 19.376C10.4388 17.4529 9.50355 15.0964 9.3216 12.625ZM8.06853 12.625H4.3166C4.5966 16.1146 7.20071 18.9485 10.58 19.5778C9.10991 17.5472 8.23618 15.1382 8.06853 12.625ZM13.4199 19.5778C14.89 17.5472 15.7637 15.1382 15.9314 12.625H19.6833C19.4033 16.1146 16.7992 18.9485 13.4199 19.5778Z" fill="black"/>
</svg>
