<svg width="24" height="24" viewBox="0 0 24 24" fill="none" xmlns="http://www.w3.org/2000/svg">
<path fill-rule="evenodd" clip-rule="evenodd" d="M7.13864 7.13864C8.42795 5.84933 10.1766 5.125 12 5.125C13.8234 5.125 15.572 5.84933 16.8614 7.13864C18.1507 8.42795 18.875 10.1766 18.875 12V13.0417H17C16.3922 13.0417 15.8093 13.2831 15.3795 13.7129C14.9498 14.1427 14.7083 14.7255 14.7083 15.3333V17.8333C14.7083 18.4411 14.9498 19.024 15.3795 19.4538C15.8093 19.8836 16.3922 20.125 17 20.125H17.8333C18.4411 20.125 19.024 19.8836 19.4538 19.4538C19.8836 19.024 20.125 18.4411 20.125 17.8333V17V13.6667V12C20.125 9.84512 19.269 7.77849 17.7452 6.25476C16.2215 4.73102 14.1549 3.875 12 3.875C9.84512 3.875 7.77849 4.73102 6.25476 6.25476C4.73102 7.77849 3.875 9.84512 3.875 12V13.6667V17V17.8333C3.875 18.4411 4.11644 19.024 4.54621 19.4538C4.97598 19.8836 5.55888 20.125 6.16667 20.125H7C7.60779 20.125 8.19068 19.8836 8.62045 19.4538C9.05022 19.024 9.29167 18.4411 9.29167 17.8333V15.3333C9.29167 14.7255 9.05022 14.1427 8.62045 13.7129C8.19068 13.2831 7.60779 13.0417 7 13.0417H5.125V12C5.125 10.1766 5.84933 8.42795 7.13864 7.13864ZM5.125 14.2917V17V17.8333C5.125 18.1096 5.23475 18.3746 5.4301 18.5699C5.62545 18.7653 5.8904 18.875 6.16667 18.875H7C7.27627 18.875 7.54122 18.7653 7.73657 18.5699C7.93192 18.3746 8.04167 18.1096 8.04167 17.8333V15.3333C8.04167 15.0571 7.93192 14.7921 7.73657 14.5968C7.54122 14.4014 7.27627 14.2917 7 14.2917H5.125ZM18.875 14.2917H17C16.7237 14.2917 16.4588 14.4014 16.2634 14.5968C16.0681 14.7921 15.9583 15.0571 15.9583 15.3333V17.8333C15.9583 18.1096 16.0681 18.3746 16.2634 18.5699C16.4588 18.7653 16.7237 18.875 17 18.875H17.8333C18.1096 18.875 18.3746 18.7653 18.5699 18.5699C18.7653 18.3746 18.875 18.1096 18.875 17.8333V17V14.2917Z" fill="black"/>
</svg>
