<svg width="24" height="24" viewBox="0 0 24 24" fill="none" xmlns="http://www.w3.org/2000/svg">
<path fill-rule="evenodd" clip-rule="evenodd" d="M12 4.29163C7.74276 4.29163 4.29163 7.74276 4.29163 12C4.29163 16.2572 7.74276 19.7083 12 19.7083C16.2572 19.7083 19.7083 16.2572 19.7083 12C19.7083 7.74276 16.2572 4.29163 12 4.29163ZM3.04163 12C3.04163 7.05241 7.05241 3.04163 12 3.04163C16.9475 3.04163 20.9583 7.05241 20.9583 12C20.9583 16.9475 16.9475 20.9583 12 20.9583C7.05241 20.9583 3.04163 16.9475 3.04163 12ZM12.2503 8.48156C11.8139 8.4067 11.365 8.48871 10.9833 8.71307C10.6015 8.93743 10.3115 9.28965 10.1645 9.70736C10.05 10.033 9.69318 10.2041 9.36756 10.0895C9.04194 9.975 8.87083 9.61818 8.98538 9.29256C9.23028 8.59638 9.71366 8.00934 10.3499 7.6354C10.9862 7.26147 11.7342 7.12478 12.4616 7.24955C13.189 7.37431 13.8487 7.75248 14.324 8.31707C14.7992 8.88158 15.0593 9.59606 15.0583 10.334V10.3333H14.4333L15.0583 10.3342C15.0578 11.4988 14.1926 12.2866 13.53 12.7283C13.1796 12.9619 12.8336 13.1344 12.5778 13.2482C12.4489 13.3054 12.3407 13.3488 12.2632 13.3783C12.2244 13.3931 12.1932 13.4044 12.1707 13.4124L12.1438 13.4218L12.1356 13.4247L12.1328 13.4256L12.1317 13.4259L12.1313 13.4261C12.1311 13.4262 12.1309 13.4262 11.9435 12.864L12.1309 13.4262C11.8035 13.5354 11.4495 13.3584 11.3404 13.0309C11.2313 12.7038 11.4078 12.3502 11.7347 12.2407L11.7347 12.2407L11.7351 12.2406L11.7353 12.2405L11.7357 12.2404L11.7371 12.2399L11.752 12.2346C11.7662 12.2296 11.7887 12.2214 11.8182 12.2102C11.8775 12.1876 11.9645 12.1528 12.0701 12.1059C12.2829 12.0113 12.562 11.8713 12.8366 11.6883C13.4239 11.2968 13.8083 10.8348 13.8083 10.3333L13.8083 10.3324C13.809 9.88956 13.6529 9.46082 13.3677 9.12207C13.0826 8.78331 12.6867 8.55641 12.2503 8.48156ZM12 15.5416C11.6548 15.5416 11.375 15.8214 11.375 16.1666C11.375 16.5118 11.6548 16.7916 12 16.7916H12.0083C12.3535 16.7916 12.6333 16.5118 12.6333 16.1666C12.6333 15.8214 12.3535 15.5416 12.0083 15.5416H12Z" fill="black"/>
</svg>
