<svg width="24" height="24" viewBox="0 0 24 24" fill="none" xmlns="http://www.w3.org/2000/svg">
<path fill-rule="evenodd" clip-rule="evenodd" d="M6.16667 5.125C5.59137 5.125 5.125 5.59137 5.125 6.16667V17.8333C5.125 18.3286 5.47065 18.7432 5.93389 18.8489L14.8914 9.89139C15.1355 9.64731 15.5312 9.64731 15.7753 9.89139L18.875 12.9911V6.16667C18.875 5.59137 18.4086 5.125 17.8333 5.125H6.16667ZM18.875 14.7589L15.3333 11.2172L7.67555 18.875H17.8333C18.4086 18.875 18.875 18.4086 18.875 17.8333V14.7589ZM3.875 6.16667C3.875 4.90101 4.90101 3.875 6.16667 3.875H17.8333C19.099 3.875 20.125 4.90101 20.125 6.16667V17.8333C20.125 19.099 19.099 20.125 17.8333 20.125H6.16667C4.90101 20.125 3.875 19.099 3.875 17.8333V6.16667ZM9.08333 8.45833C8.73816 8.45833 8.45833 8.73816 8.45833 9.08333C8.45833 9.42851 8.73816 9.70833 9.08333 9.70833C9.42851 9.70833 9.70833 9.42851 9.70833 9.08333C9.70833 8.73816 9.42851 8.45833 9.08333 8.45833ZM7.20833 9.08333C7.20833 8.0478 8.0478 7.20833 9.08333 7.20833C10.1189 7.20833 10.9583 8.0478 10.9583 9.08333C10.9583 10.1189 10.1189 10.9583 9.08333 10.9583C8.0478 10.9583 7.20833 10.1189 7.20833 9.08333Z" fill="black"/>
</svg>
