<svg width="24" height="24" viewBox="0 0 24 24" fill="none" xmlns="http://www.w3.org/2000/svg">
<path fill-rule="evenodd" clip-rule="evenodd" d="M12 4.29163C7.74283 4.29163 4.29169 7.74276 4.29169 12C4.29169 16.2572 7.74283 19.7083 12 19.7083C16.2572 19.7083 19.7084 16.2572 19.7084 12C19.7084 7.74276 16.2572 4.29163 12 4.29163ZM3.04169 12C3.04169 7.05241 7.05247 3.04163 12 3.04163C16.9476 3.04163 20.9584 7.05241 20.9584 12C20.9584 16.9475 16.9476 20.9583 12 20.9583C7.05247 20.9583 3.04169 16.9475 3.04169 12ZM12 11.375C12.3452 11.375 12.625 11.6548 12.625 12V15.3333C12.625 15.6785 12.3452 15.9583 12 15.9583C11.6548 15.9583 11.375 15.6785 11.375 15.3333V12C11.375 11.6548 11.6548 11.375 12 11.375ZM12 8.04163C11.6548 8.04163 11.375 8.32145 11.375 8.66663C11.375 9.0118 11.6548 9.29163 12 9.29163H12.0084C12.3535 9.29163 12.6334 9.0118 12.6334 8.66663C12.6334 8.32145 12.3535 8.04163 12.0084 8.04163H12Z" fill="black"/>
</svg>
