<svg width="24" height="24" viewBox="0 0 24 24" fill="none" xmlns="http://www.w3.org/2000/svg">
<path fill-rule="evenodd" clip-rule="evenodd" d="M7.83335 4.29163C5.87735 4.29163 4.29169 5.87728 4.29169 7.83329V16.1666C4.29169 18.1226 5.87735 19.7083 7.83335 19.7083H16.1667C18.1227 19.7083 19.7084 18.1226 19.7084 16.1666V7.83329C19.7084 5.87728 18.1227 4.29163 16.1667 4.29163H7.83335ZM3.04169 7.83329C3.04169 5.18693 5.18699 3.04163 7.83335 3.04163H16.1667C18.8131 3.04163 20.9584 5.18693 20.9584 7.83329V16.1666C20.9584 18.813 18.8131 20.9583 16.1667 20.9583H7.83335C5.18699 20.9583 3.04169 18.813 3.04169 16.1666V7.83329ZM12.4333 9.28487C11.8698 9.20131 11.2943 9.29756 10.7887 9.55993C10.2831 9.82229 9.87301 10.2374 9.6169 10.7463C9.36078 11.2551 9.27164 11.8318 9.36214 12.3942C9.45264 12.9566 9.71818 13.4762 10.121 13.879C10.5238 14.2818 11.0434 14.5473 11.6058 14.6378C12.1682 14.7283 12.7449 14.6392 13.2537 14.3831C13.7626 14.127 14.1777 13.7169 14.4401 13.2113C14.7024 12.7056 14.7987 12.1301 14.7151 11.5666C14.6299 10.9918 14.362 10.4597 13.9512 10.0488C13.5403 9.63794 13.0081 9.3701 12.4333 9.28487ZM10.213 8.4504C10.952 8.06693 11.7931 7.92626 12.6167 8.04839C13.4568 8.17296 14.2345 8.56442 14.835 9.16494C15.4356 9.76546 15.827 10.5432 15.9516 11.3833C16.0737 12.2069 15.933 13.048 15.5496 13.787C15.1661 14.526 14.5594 15.1253 13.8157 15.4996C13.072 15.8739 12.2292 16.0042 11.4072 15.872C10.5852 15.7397 9.82583 15.3516 9.23711 14.7629C8.64839 14.1741 8.26029 13.4148 8.12801 12.5928C7.99574 11.7708 8.12603 10.928 8.50035 10.1843C8.87467 9.44059 9.47396 8.83386 10.213 8.4504ZM16.5834 6.79163C16.2382 6.79163 15.9584 7.07145 15.9584 7.41663C15.9584 7.7618 16.2382 8.04163 16.5834 8.04163H16.5917C16.9369 8.04163 17.2167 7.7618 17.2167 7.41663C17.2167 7.07145 16.9369 6.79163 16.5917 6.79163H16.5834Z" fill="black"/>
</svg>
