<svg width="24" height="24" viewBox="0 0 24 24" fill="none" xmlns="http://www.w3.org/2000/svg">
<path fill-rule="evenodd" clip-rule="evenodd" d="M14.5146 4.7083H17.8333C18.1785 4.7083 18.4583 4.98812 18.4583 5.3333C18.4583 5.67848 18.1785 5.9583 17.8333 5.9583H14.9331L10.4018 18.0416H13.6666C14.0118 18.0416 14.2916 18.3215 14.2916 18.6666C14.2916 19.0118 14.0118 19.2916 13.6666 19.2916H9.51438C9.50473 19.2919 9.49504 19.2919 9.48535 19.2916H6.16663C5.82145 19.2916 5.54163 19.0118 5.54163 18.6666C5.54163 18.3215 5.82145 18.0416 6.16663 18.0416H9.06683L13.5981 5.9583H10.3333C9.98811 5.9583 9.70829 5.67848 9.70829 5.3333C9.70829 4.98812 9.98811 4.7083 10.3333 4.7083H14.4856C14.4952 4.70807 14.5049 4.70807 14.5146 4.7083Z" fill="black"/>
</svg>
