<svg width="24" height="24" viewBox="0 0 24 24" fill="none" xmlns="http://www.w3.org/2000/svg">
<g clip-path="url(#clip0_775_13742)">
<path fill-rule="evenodd" clip-rule="evenodd" d="M19.9419 3.22468C20.186 3.46876 20.186 3.86449 19.9419 4.10857L18.7172 5.33329L20.7753 7.39135C21.0193 7.63543 21.0193 8.03116 20.7753 8.27523L17.8586 11.1919C17.7414 11.3091 17.5824 11.375 17.4166 11.375C17.2509 11.375 17.0919 11.3091 16.9747 11.1919L14.9167 9.13384L12.3516 11.6989C12.6465 12.0704 12.8899 12.4811 13.0743 12.9202C13.3404 13.5535 13.4785 14.2332 13.4808 14.9201C13.4831 15.607 13.3495 16.2875 13.0877 16.9226C12.8259 17.5576 12.4411 18.1346 11.9554 18.6204C11.4697 19.1061 10.8927 19.4909 10.2576 19.7527C9.62256 20.0145 8.94198 20.1481 8.25508 20.1458C7.56818 20.1435 6.88852 20.0054 6.25523 19.7393C5.62195 19.4733 5.04754 19.0846 4.56509 18.5956L4.5604 18.5908C3.61166 17.6085 3.08672 16.2929 3.09859 14.9273C3.11045 13.5617 3.65821 12.2554 4.62387 11.2897C5.58954 10.324 6.89586 9.77626 8.26146 9.76439C9.42055 9.75432 10.5436 10.131 11.4575 10.8253L19.058 3.22468C19.3021 2.98061 19.6978 2.98061 19.9419 3.22468ZM11.0781 12.1451C11.0708 12.1387 11.0637 12.1321 11.0566 12.1253C10.3101 11.4043 9.31019 11.0053 8.27233 11.0143C7.23446 11.0234 6.24166 11.4397 5.50776 12.1736C4.77385 12.9075 4.35756 13.9003 4.34854 14.9381C4.33953 15.9749 4.73764 16.9737 5.45721 17.72C5.82339 18.0905 6.25911 18.3851 6.73939 18.5869C7.22068 18.7891 7.73723 18.8941 8.25927 18.8958C8.78132 18.8976 9.29855 18.796 9.78119 18.5971C10.2638 18.3981 10.7024 18.1056 11.0715 17.7365C11.4406 17.3673 11.7331 16.9288 11.9321 16.4462C12.1311 15.9635 12.2326 15.4463 12.2308 14.9242C12.2291 14.4022 12.1241 13.8857 11.9219 13.4044C11.7243 12.9341 11.4378 12.5065 11.0781 12.1451ZM15.8005 8.24996L17.4166 9.86608L19.4494 7.83329L17.8333 6.21718L15.8005 8.24996Z" fill="black"/>
</g>
<defs>
<clipPath id="clip0_775_13742">
<rect width="20" height="20" fill="white" transform="translate(2 2)"/>
</clipPath>
</defs>
</svg>
