<svg width="24" height="24" viewBox="0 0 24 24" fill="none" xmlns="http://www.w3.org/2000/svg">
<path fill-rule="evenodd" clip-rule="evenodd" d="M11.7205 3.10761C11.8964 3.01963 12.1035 3.01963 12.2795 3.10761L20.6128 7.27428C20.8246 7.38015 20.9583 7.59656 20.9583 7.83329C20.9583 8.07002 20.8246 8.28644 20.6128 8.39231L12.2795 12.559C12.1035 12.647 11.8964 12.647 11.7205 12.559L3.38713 8.39231C3.17539 8.28644 3.04164 8.07002 3.04164 7.83329C3.04164 7.59656 3.17539 7.38015 3.38713 7.27428L11.7205 3.10761ZM5.06418 7.83329L12 11.3012L18.9358 7.83329L12 4.3654L5.06418 7.83329ZM3.10762 15.8871C3.26199 15.5784 3.63741 15.4532 3.94615 15.6076L12 19.6345L20.0538 15.6076C20.3625 15.4532 20.738 15.5784 20.8923 15.8871C21.0467 16.1959 20.9216 16.5713 20.6128 16.7256L12.2795 20.8923C12.1035 20.9803 11.8964 20.9803 11.7205 20.8923L3.38713 16.7256C3.0784 16.5713 2.95326 16.1959 3.10762 15.8871ZM3.94615 11.4409C3.63741 11.2866 3.26199 11.4117 3.10762 11.7205C2.95326 12.0292 3.0784 12.4046 3.38713 12.559L11.7205 16.7256C11.8964 16.8136 12.1035 16.8136 12.2795 16.7256L20.6128 12.559C20.9216 12.4046 21.0467 12.0292 20.8923 11.7205C20.738 11.4117 20.3625 11.2866 20.0538 11.4409L12 15.4679L3.94615 11.4409Z" fill="black"/>
</svg>
