<svg width="24" height="24" viewBox="0 0 24 24" fill="none" xmlns="http://www.w3.org/2000/svg">
<path fill-rule="evenodd" clip-rule="evenodd" d="M6.16667 5.125C5.59137 5.125 5.125 5.59137 5.125 6.16667V8.875H9.5H18.875V6.16667C18.875 5.59137 18.4086 5.125 17.8333 5.125H6.16667ZM8.875 10.125H5.125V17.8333C5.125 18.4086 5.59137 18.875 6.16667 18.875H8.875V10.125ZM10.125 18.875V10.125H18.875V17.8333C18.875 18.4086 18.4086 18.875 17.8333 18.875H10.125ZM9.5 20.125H6.16667C4.90101 20.125 3.875 19.099 3.875 17.8333V9.5V6.16667C3.875 4.90101 4.90101 3.875 6.16667 3.875H17.8333C19.099 3.875 20.125 4.90101 20.125 6.16667V9.5V17.8333C20.125 19.099 19.099 20.125 17.8333 20.125H9.5Z" fill="black"/>
</svg>
