<svg width="24" height="24" viewBox="0 0 24 24" fill="none" xmlns="http://www.w3.org/2000/svg">
<g clip-path="url(#clip0_775_13746)">
<path d="M14.5 7.83337H17C17.5472 7.83337 18.089 7.94115 18.5946 8.15054C19.1001 8.35994 19.5594 8.66685 19.9463 9.05376C20.3332 9.44067 20.6401 9.9 20.8495 10.4055C21.0589 10.911 21.1667 11.4529 21.1667 12C21.1667 12.5472 21.0589 13.089 20.8495 13.5946C20.6401 14.1001 20.3332 14.5594 19.9463 14.9463C19.5594 15.3332 19.1001 15.6401 18.5946 15.8495C18.089 16.0589 17.5472 16.1667 17 16.1667H14.5M9.50004 16.1667H7.00004C6.45287 16.1667 5.91105 16.0589 5.40553 15.8495C4.9 15.6401 4.44067 15.3332 4.05376 14.9463C3.27236 14.1649 2.83337 13.1051 2.83337 12C2.83337 10.895 3.27236 9.83516 4.05376 9.05376C4.83516 8.27236 5.89497 7.83337 7.00004 7.83337H9.50004" stroke="black" stroke-width="1.25" stroke-linecap="round" stroke-linejoin="round"/>
<path d="M8.66663 12H15.3333" stroke="black" stroke-width="1.25" stroke-linecap="round" stroke-linejoin="round"/>
</g>
<defs>
<clipPath id="clip0_775_13746">
<rect width="20" height="20" fill="white" transform="translate(2 2)"/>
</clipPath>
</defs>
</svg>
