<svg width="24" height="24" viewBox="0 0 24 24" fill="none" xmlns="http://www.w3.org/2000/svg">
<path fill-rule="evenodd" clip-rule="evenodd" d="M9.49566 5.32896C10.1599 4.66476 11.0607 4.29163 12 4.29163C12.9393 4.29163 13.8401 4.66476 14.5043 5.32896C15.1685 5.99315 15.5417 6.89398 15.5417 7.83329V10.5416H8.45833V7.83329C8.45833 6.89398 8.83147 5.99315 9.49566 5.32896ZM7.20833 10.5416V7.83329C7.20833 6.56246 7.71317 5.34368 8.61178 4.44507C9.51039 3.54646 10.7292 3.04163 12 3.04163C13.2708 3.04163 14.4896 3.54646 15.3882 4.44507C16.2868 5.34368 16.7917 6.56246 16.7917 7.83329V10.5416H17.8333C19.099 10.5416 20.125 11.5676 20.125 12.8333V18.6666C20.125 19.9323 19.099 20.9583 17.8333 20.9583H6.16667C4.90101 20.9583 3.875 19.9323 3.875 18.6666V12.8333C3.875 11.5676 4.90101 10.5416 6.16667 10.5416H7.20833ZM16.1667 11.7916H7.83333H6.16667C5.59137 11.7916 5.125 12.258 5.125 12.8333V18.6666C5.125 19.2419 5.59137 19.7083 6.16667 19.7083H17.8333C18.4086 19.7083 18.875 19.2419 18.875 18.6666V12.8333C18.875 12.258 18.4086 11.7916 17.8333 11.7916H16.1667Z" fill="black"/>
</svg>
