<svg width="24" height="24" viewBox="0 0 24 24" fill="none" xmlns="http://www.w3.org/2000/svg">
<path fill-rule="evenodd" clip-rule="evenodd" d="M8.6631 3.04168C8.54766 3.04232 8.43963 3.07426 8.34707 3.12945L2.52325 6.45735C2.32851 6.56862 2.20833 6.77571 2.20833 7V20.3333C2.20833 20.5561 2.32693 20.7621 2.51963 20.8739C2.71233 20.9857 2.94998 20.9865 3.14342 20.876L8.68633 17.7086L15.0426 20.8867C15.1237 20.9294 15.2154 20.9548 15.3127 20.958C15.3195 20.9582 15.3264 20.9583 15.3333 20.9583C15.3333 20.9583 15.3333 20.9583 15.3333 20.9583C15.4501 20.9583 15.5594 20.9263 15.653 20.8705L21.4768 17.5427C21.6715 17.4314 21.7917 17.2243 21.7917 17V3.66667C21.7917 3.44387 21.6731 3.23792 21.4804 3.1261C21.2877 3.01427 21.05 3.01348 20.8566 3.12401L15.3137 6.29139L8.95744 3.11328C8.87203 3.06831 8.77493 3.04253 8.6719 3.04169L8.66667 3.04167L8.6631 3.04168ZM15.9583 19.2563L20.5417 16.6373V4.74365L15.9583 7.3627V19.2563ZM14.7083 7.38627L9.29167 4.67794V16.6137L14.7083 19.3221V7.38627ZM3.45833 7.3627L8.04167 4.74365V16.6373L3.45833 19.2563V7.3627Z" fill="black"/>
</svg>
