<svg width="24" height="24" viewBox="0 0 24 24" fill="none" xmlns="http://www.w3.org/2000/svg">
<g clip-path="url(#clip0_775_13788)">
<path d="M19.5 12.6583C19.369 14.0768 18.8366 15.4287 17.9652 16.5557C17.0939 17.6826 15.9196 18.5382 14.5798 19.0221C13.24 19.5061 11.79 19.5984 10.3996 19.2884C9.00922 18.9784 7.73587 18.2788 6.72856 17.2715C5.72125 16.2642 5.02166 14.9908 4.71163 13.6004C4.4016 12.21 4.49397 10.7601 4.97792 9.42025C5.46188 8.08042 6.3174 6.90614 7.44438 6.03479C8.57137 5.16345 9.9232 4.63109 11.3417 4.5C10.5112 5.62356 10.1116 7.00787 10.2155 8.40118C10.3194 9.79448 10.9199 11.1042 11.9079 12.0922C12.8958 13.0801 14.2056 13.6807 15.5989 13.7846C16.9922 13.8885 18.3765 13.4888 19.5 12.6583Z" stroke="black" stroke-width="1.25" stroke-linecap="round" stroke-linejoin="round"/>
</g>
<defs>
<clipPath id="clip0_775_13788">
<rect width="20" height="20" fill="white" transform="translate(2 2)"/>
</clipPath>
</defs>
</svg>
