<svg width="24" height="24" viewBox="0 0 24 24" fill="none" xmlns="http://www.w3.org/2000/svg">
<g clip-path="url(#clip0_775_13792)">
<path d="M12 12.8334C12.4603 12.8334 12.8334 12.4603 12.8334 12.0001C12.8334 11.5398 12.4603 11.1667 12 11.1667C11.5398 11.1667 11.1667 11.5398 11.1667 12.0001C11.1667 12.4603 11.5398 12.8334 12 12.8334Z" stroke="black" stroke-width="1.25" stroke-linecap="round" stroke-linejoin="round"/>
<path d="M12 6.99992C12.4603 6.99992 12.8334 6.62682 12.8334 6.16659C12.8334 5.70635 12.4603 5.33325 12 5.33325C11.5398 5.33325 11.1667 5.70635 11.1667 6.16659C11.1667 6.62682 11.5398 6.99992 12 6.99992Z" stroke="black" stroke-width="1.25" stroke-linecap="round" stroke-linejoin="round"/>
<path d="M12 18.6667C12.4603 18.6667 12.8334 18.2936 12.8334 17.8333C12.8334 17.3731 12.4603 17 12 17C11.5398 17 11.1667 17.3731 11.1667 17.8333C11.1667 18.2936 11.5398 18.6667 12 18.6667Z" stroke="black" stroke-width="1.25" stroke-linecap="round" stroke-linejoin="round"/>
</g>
<defs>
<clipPath id="clip0_775_13792">
<rect width="20" height="20" fill="white" transform="translate(2 2)"/>
</clipPath>
</defs>
</svg>
