<svg width="24" height="24" viewBox="0 0 24 24" fill="none" xmlns="http://www.w3.org/2000/svg">
<g clip-path="url(#clip0_775_13790)">
<path fill-rule="evenodd" clip-rule="evenodd" d="M6.16665 10.6667C5.43027 10.6667 4.83331 11.2637 4.83331 12.0001C4.83331 12.7365 5.43027 13.3334 6.16665 13.3334C6.90303 13.3334 7.49998 12.7365 7.49998 12.0001C7.49998 11.2637 6.90303 10.6667 6.16665 10.6667ZM12 10.6667C11.2636 10.6667 10.6667 11.2637 10.6667 12.0001C10.6667 12.7365 11.2636 13.3334 12 13.3334C12.7364 13.3334 13.3334 12.7365 13.3334 12.0001C13.3334 11.2637 12.7364 10.6667 12 10.6667ZM17.8333 10.6667C17.097 10.6667 16.5 11.2637 16.5 12.0001C16.5 12.7365 17.097 13.3334 17.8333 13.3334C18.5697 13.3334 19.1667 12.7365 19.1667 12.0001C19.1667 11.2637 18.5697 10.6667 17.8333 10.6667Z" fill="black"/>
</g>
<defs>
<clipPath id="clip0_775_13790">
<rect width="20" height="20" fill="white" transform="translate(2 2)"/>
</clipPath>
</defs>
</svg>
