<svg width="24" height="24" viewBox="0 0 24 24" fill="none" xmlns="http://www.w3.org/2000/svg">
<path fill-rule="evenodd" clip-rule="evenodd" d="M12 3.04346C11.5982 3.04346 11.2035 3.14909 10.8555 3.34974L10.8542 3.35048L8.16025 4.88985C8.00716 4.91217 7.86356 4.99089 7.76249 5.11715L5.02324 6.68242L5.02083 6.68381C4.73318 6.84989 4.4858 7.07608 4.29507 7.346C4.25245 7.3864 4.21485 7.43354 4.18395 7.48696C4.15694 7.53365 4.13665 7.58238 4.12277 7.63203C3.96051 7.95211 3.87537 8.30681 3.875 8.66675V15.3341C3.87541 15.7359 3.9815 16.1306 4.18261 16.4786C4.38373 16.8265 4.6728 17.1154 5.02083 17.3163L5.02325 17.3177L10.8542 20.6497L10.8556 20.6505C11.1088 20.7965 11.3867 20.8921 11.6741 20.9334C11.769 20.9915 11.8806 21.025 12 21.025C12.1194 21.025 12.231 20.9915 12.3259 20.9334C12.6132 20.8921 12.8912 20.7965 13.1444 20.6505L13.1458 20.6497L18.9768 17.3177L18.9792 17.3163C19.3272 17.1154 19.6163 16.8265 19.8174 16.4786C20.0185 16.1306 20.1246 15.7353 20.125 15.3334V8.66611C20.1246 8.30602 20.0394 7.95168 19.877 7.6316C19.8631 7.58209 19.8429 7.53351 19.816 7.48696C19.7851 7.43364 19.7476 7.38659 19.7051 7.34625C19.5143 7.07621 19.2669 6.84994 18.9792 6.68381L13.1458 3.35048L13.1445 3.34971C12.7964 3.14907 12.4018 3.04346 12 3.04346ZM12.625 19.5076L18.3542 16.2338L18.3552 16.2332C18.5129 16.1419 18.644 16.0108 18.7352 15.853C18.8266 15.6948 18.8748 15.5154 18.875 15.3328V8.75331L12.625 12.3687V19.5076ZM11.375 12.3688L5.125 8.75336V15.3331C5.12524 15.5156 5.17346 15.6949 5.26482 15.853C5.35604 16.0108 5.48707 16.1419 5.6448 16.2332L5.64583 16.2338L11.375 19.5076V12.3688ZM12.5232 4.4344L18.2186 7.68891L15.7543 9.11443L9.54895 5.536L11.4768 4.43441L11.4792 4.43301C11.6375 4.34159 11.8171 4.29346 12 4.29346C12.1829 4.29346 12.3625 4.34159 12.5208 4.43301L12.5232 4.4344ZM12 11.2862L14.5052 9.83703L8.29213 6.25418L5.78131 7.68893L12 11.2862Z" fill="black"/>
</svg>
