<svg width="24" height="24" viewBox="0 0 24 24" fill="none" xmlns="http://www.w3.org/2000/svg">
<path fill-rule="evenodd" clip-rule="evenodd" d="M3.22468 3.22481C3.38727 3.06222 3.61715 3.00794 3.82467 3.06196L15.8966 5.97588C16.1332 6.03298 16.3151 6.22221 16.3628 6.46086L17.3838 11.5657L17.3914 11.5581C17.6355 11.314 18.0312 11.314 18.2753 11.5581L20.7753 14.0581C21.0194 14.3021 21.0194 14.6979 20.7753 14.9419L14.9419 20.7753C14.6979 21.0194 14.3021 21.0194 14.0581 20.7753L11.5581 18.2753C11.314 18.0312 11.314 17.6355 11.5581 17.3914L11.5655 17.3839L6.46073 16.363C6.22209 16.3152 6.03286 16.1333 5.97575 15.8967L3.06183 3.82479C3.00781 3.61727 3.0621 3.38739 3.22468 3.22481ZM9.16535 10.0494L4.7954 5.6794L7.09722 15.2155L12.6278 16.3216L16.3215 12.628L15.2154 7.09734L5.67928 4.79552L10.0492 9.16544C10.3798 8.98045 10.7609 8.875 11.1667 8.875C12.4323 8.875 13.4583 9.90101 13.4583 11.1667C13.4583 12.4323 12.4323 13.4583 11.1667 13.4583C9.90101 13.4583 8.875 12.4323 8.875 11.1667C8.875 10.761 8.98042 10.3799 9.16535 10.0494ZM10.4196 10.4408C10.2373 10.6284 10.125 10.8844 10.125 11.1667C10.125 11.742 10.5914 12.2083 11.1667 12.2083C11.742 12.2083 12.2083 11.742 12.2083 11.1667C12.2083 10.5914 11.742 10.125 11.1667 10.125C10.8844 10.125 10.6283 10.2373 10.4407 10.4197C10.4373 10.4233 10.4338 10.4268 10.4302 10.4304C10.4267 10.4339 10.4232 10.4373 10.4196 10.4408ZM13.2698 17.4474L13.2752 17.442L17.4419 13.2754L17.4473 13.2699L17.8333 12.8839L19.4494 14.5L14.5 19.4494L12.8839 17.8333L13.2698 17.4474Z" fill="black"/>
</svg>
