<svg width="24" height="24" viewBox="0 0 24 24" fill="none" xmlns="http://www.w3.org/2000/svg">
<path fill-rule="evenodd" clip-rule="evenodd" d="M12 4.29175C7.74276 4.29175 4.29163 7.74289 4.29163 12.0001C4.29163 16.2573 7.74276 19.7084 12 19.7084C16.2572 19.7084 19.7083 16.2573 19.7083 12.0001C19.7083 7.74289 16.2572 4.29175 12 4.29175ZM3.04163 12.0001C3.04163 7.05253 7.05241 3.04175 12 3.04175C16.9475 3.04175 20.9583 7.05253 20.9583 12.0001C20.9583 16.9476 16.9475 20.9584 12 20.9584C7.05241 20.9584 3.04163 16.9476 3.04163 12.0001ZM12 8.04175C12.3451 8.04175 12.625 8.32157 12.625 8.66675V11.3751H15.3333C15.6785 11.3751 15.9583 11.6549 15.9583 12.0001C15.9583 12.3453 15.6785 12.6251 15.3333 12.6251H12.625V15.3334C12.625 15.6786 12.3451 15.9584 12 15.9584C11.6548 15.9584 11.375 15.6786 11.375 15.3334V12.6251H8.66663C8.32145 12.6251 8.04163 12.3453 8.04163 12.0001C8.04163 11.6549 8.32145 11.3751 8.66663 11.3751H11.375V8.66675C11.375 8.32157 11.6548 8.04175 12 8.04175Z" fill="black"/>
</svg>
