<svg width="24" height="24" viewBox="0 0 24 24" fill="none" xmlns="http://www.w3.org/2000/svg">
<path fill-rule="evenodd" clip-rule="evenodd" d="M12.625 6.16675C12.625 5.82157 12.3451 5.54175 12 5.54175C11.6548 5.54175 11.375 5.82157 11.375 6.16675V11.3751H6.16663C5.82145 11.3751 5.54163 11.6549 5.54163 12.0001C5.54163 12.3453 5.82145 12.6251 6.16663 12.6251H11.375V17.8334C11.375 18.1786 11.6548 18.4584 12 18.4584C12.3451 18.4584 12.625 18.1786 12.625 17.8334V12.6251H17.8333C18.1785 12.6251 18.4583 12.3453 18.4583 12.0001C18.4583 11.6549 18.1785 11.3751 17.8333 11.3751H12.625V6.16675Z" fill="black"/>
</svg>
