<svg width="24" height="24" viewBox="0 0 24 24" fill="none" xmlns="http://www.w3.org/2000/svg">
<path fill-rule="evenodd" clip-rule="evenodd" d="M6.16667 5.125C5.59137 5.125 5.125 5.59137 5.125 6.16667V17.8333C5.125 18.4086 5.59137 18.875 6.16667 18.875H17.8333C18.4086 18.875 18.875 18.4086 18.875 17.8333V6.16667C18.875 5.59137 18.4086 5.125 17.8333 5.125H6.16667ZM3.875 6.16667C3.875 4.90101 4.90101 3.875 6.16667 3.875H17.8333C19.099 3.875 20.125 4.90101 20.125 6.16667V17.8333C20.125 19.099 19.099 20.125 17.8333 20.125H6.16667C4.90101 20.125 3.875 19.099 3.875 17.8333V6.16667ZM12 8.04167C12.3452 8.04167 12.625 8.32149 12.625 8.66667V11.375H15.3333C15.6785 11.375 15.9583 11.6548 15.9583 12C15.9583 12.3452 15.6785 12.625 15.3333 12.625H12.625V15.3333C12.625 15.6785 12.3452 15.9583 12 15.9583C11.6548 15.9583 11.375 15.6785 11.375 15.3333V12.625H8.66667C8.32149 12.625 8.04167 12.3452 8.04167 12C8.04167 11.6548 8.32149 11.375 8.66667 11.375H11.375V8.66667C11.375 8.32149 11.6548 8.04167 12 8.04167Z" fill="black"/>
</svg>
