<svg width="24" height="24" viewBox="0 0 24 24" fill="none" xmlns="http://www.w3.org/2000/svg">
<path fill-rule="evenodd" clip-rule="evenodd" d="M4.59672 5.4301C4.79207 5.23475 5.05703 5.125 5.33329 5.125H18.6666C18.9429 5.125 19.2078 5.23475 19.4032 5.4301C19.5985 5.62545 19.7083 5.8904 19.7083 6.16667V11.1667C19.7083 13.211 18.8962 15.1717 17.4506 16.6173C16.005 18.0629 14.0443 18.875 12 18.875C10.9877 18.875 9.98533 18.6756 9.05011 18.2882C8.11489 17.9009 7.26513 17.3331 6.54934 16.6173C5.10375 15.1717 4.29163 13.211 4.29163 11.1667V6.16667C4.29163 5.8904 4.40137 5.62545 4.59672 5.4301ZM5.33329 3.875C4.7255 3.875 4.14261 4.11644 3.71284 4.54621C3.28307 4.97598 3.04163 5.55888 3.04163 6.16667V11.1667C3.04163 13.5426 3.98545 15.8212 5.66546 17.5012C6.49732 18.333 7.48488 18.9929 8.57175 19.4431C9.65863 19.8933 10.8235 20.125 12 20.125C14.3759 20.125 16.6544 19.1812 18.3345 17.5012C20.0145 15.8212 20.9583 13.5426 20.9583 11.1667V6.16667C20.9583 5.55888 20.7168 4.97598 20.2871 4.54621C19.8573 4.11644 19.2744 3.875 18.6666 3.875H5.33329ZM9.10857 9.89139C8.86449 9.64731 8.46876 9.64731 8.22468 9.89139C7.98061 10.1355 7.98061 10.5312 8.22468 10.7753L11.558 14.1086C11.8021 14.3527 12.1978 14.3527 12.4419 14.1086L15.7752 10.7753C16.0193 10.5312 16.0193 10.1355 15.7752 9.89139C15.5312 9.64731 15.1354 9.64731 14.8914 9.89139L12 12.7828L9.10857 9.89139Z" fill="black"/>
</svg>
