<svg width="24" height="24" viewBox="0 0 24 24" fill="none" xmlns="http://www.w3.org/2000/svg">
<path fill-rule="evenodd" clip-rule="evenodd" d="M6.37496 3.66675C6.37496 3.32157 6.65478 3.04175 6.99996 3.04175H17C17.3451 3.04175 17.625 3.32157 17.625 3.66675V8.87508H18.6666C19.2744 8.87508 19.8573 9.11652 20.2871 9.5463C20.7168 9.97607 20.9583 10.559 20.9583 11.1667V15.3334C20.9583 15.9412 20.7168 16.5241 20.2871 16.9539C19.8573 17.3836 19.2744 17.6251 18.6666 17.6251H17.625V20.3334C17.625 20.6786 17.3451 20.9584 17 20.9584H6.99996C6.65478 20.9584 6.37496 20.6786 6.37496 20.3334V17.6251H5.33329C4.7255 17.6251 4.14261 17.3836 3.71284 16.9539C3.28307 16.5241 3.04163 15.9412 3.04163 15.3334V11.1667C3.04163 10.559 3.28307 9.97607 3.71284 9.5463C4.14261 9.11652 4.7255 8.87508 5.33329 8.87508H6.37496V3.66675ZM7.62496 17.0001V19.7084H16.375V17.0001V14.2917H7.62496V17.0001ZM17.625 16.3751V13.6667C17.625 13.3216 17.3451 13.0417 17 13.0417H6.99996C6.65478 13.0417 6.37496 13.3216 6.37496 13.6667V16.3751H5.33329C5.05703 16.3751 4.79207 16.2653 4.59672 16.07C4.40137 15.8746 4.29163 15.6097 4.29163 15.3334V11.1667C4.29163 10.8905 4.40137 10.6255 4.59672 10.4302C4.79207 10.2348 5.05703 10.1251 5.33329 10.1251H6.99996H17H18.6666C18.9429 10.1251 19.2078 10.2348 19.4032 10.4302C19.5985 10.6255 19.7083 10.8905 19.7083 11.1667V15.3334C19.7083 15.6097 19.5985 15.8746 19.4032 16.07C19.2078 16.2653 18.9429 16.3751 18.6666 16.3751H17.625ZM16.375 4.29175V8.87508H7.62496V4.29175H16.375Z" fill="black"/>
</svg>
