<svg width="24" height="24" viewBox="0 0 24 24" fill="none" xmlns="http://www.w3.org/2000/svg">
<g clip-path="url(#clip0_775_13833)">
<path d="M2.83331 5.33325V10.3333H7.83331" stroke="black" stroke-width="1.25" stroke-linecap="round" stroke-linejoin="round"/>
<path d="M4.92498 14.5C5.46531 16.0337 6.48943 17.3502 7.84303 18.2512C9.19663 19.1522 10.8064 19.5889 12.4297 19.4954C14.0531 19.402 15.6021 18.7835 16.8434 17.7332C18.0847 16.6828 18.951 15.2575 19.3118 13.672C19.6726 12.0865 19.5084 10.4267 18.8438 8.94262C18.1793 7.45857 17.0504 6.2307 15.6273 5.44401C14.2043 4.65732 12.5641 4.35442 10.9539 4.58097C9.34369 4.80751 7.85074 5.55122 6.69998 6.70004L2.83331 10.3334" stroke="black" stroke-width="1.25" stroke-linecap="round" stroke-linejoin="round"/>
</g>
<defs>
<clipPath id="clip0_775_13833">
<rect width="20" height="20" fill="white" transform="translate(2 2)"/>
</clipPath>
</defs>
</svg>
