<svg width="24" height="24" viewBox="0 0 24 24" fill="none" xmlns="http://www.w3.org/2000/svg">
<g clip-path="url(#clip0_775_13836)">
<path d="M21.1667 5.33325V10.3333H16.1667" stroke="black" stroke-width="1.25" stroke-linecap="round" stroke-linejoin="round"/>
<path d="M19.075 14.5001C18.5333 16.0334 17.508 17.349 16.1535 18.2488C14.799 19.1487 13.1887 19.5839 11.5654 19.4889C9.94199 19.3939 8.39346 18.7739 7.15313 17.7223C5.9128 16.6707 5.04785 15.2444 4.68864 13.6585C4.32942 12.0725 4.4954 10.4127 5.16155 8.92932C5.82771 7.44588 6.95795 6.21915 8.38196 5.43396C9.80598 4.64877 11.4466 4.34768 13.0566 4.57605C14.6667 4.80441 16.1588 5.54988 17.3083 6.70009L21.1667 10.3334" stroke="black" stroke-width="1.25" stroke-linecap="round" stroke-linejoin="round"/>
</g>
<defs>
<clipPath id="clip0_775_13836">
<rect width="20" height="20" fill="white" transform="translate(2 2)"/>
</clipPath>
</defs>
</svg>
