<svg width="24" height="24" viewBox="0 0 24 24" fill="none" xmlns="http://www.w3.org/2000/svg">
<path fill-rule="evenodd" clip-rule="evenodd" d="M17 4.29175C15.9645 4.29175 15.125 5.13121 15.125 6.16675C15.125 6.49568 15.2097 6.80484 15.3585 7.07359C15.3665 7.0854 15.3742 7.09755 15.3815 7.11006C15.3887 7.12248 15.3955 7.13504 15.4018 7.14772C15.7317 7.6841 16.3241 8.04175 17 8.04175C18.0355 8.04175 18.875 7.20228 18.875 6.16675C18.875 5.13121 18.0355 4.29175 17 4.29175ZM14.6698 8.24903C15.242 8.88896 16.074 9.29175 17 9.29175C18.7259 9.29175 20.125 7.89264 20.125 6.16675C20.125 4.44086 18.7259 3.04175 17 3.04175C15.2741 3.04175 13.875 4.44086 13.875 6.16675C13.875 6.51754 13.9328 6.85484 14.0394 7.16963L9.33022 9.9178C8.75798 9.27787 7.92603 8.87508 7 8.87508C5.27411 8.87508 3.875 10.2742 3.875 12.0001C3.875 13.726 5.27411 15.1251 7 15.1251C7.92616 15.1251 8.75822 14.7222 9.33046 14.0821L14.0407 16.8268C13.9333 17.1427 13.875 17.4812 13.875 17.8334C13.875 19.5593 15.2741 20.9584 17 20.9584C18.7259 20.9584 20.125 19.5593 20.125 17.8334C20.125 16.1075 18.7259 14.7084 17 14.7084C16.0754 14.7084 15.2446 15.11 14.6724 15.7482L9.96072 13.0026C10.0672 12.6879 10.125 12.3507 10.125 12.0001C10.125 11.6493 10.0672 11.312 9.9606 10.9972L14.6698 8.24903ZM8.59822 11.0191C8.60451 11.0318 8.61128 11.0444 8.61853 11.0568C8.62583 11.0693 8.6335 11.0814 8.64151 11.0932C8.7903 11.362 8.875 11.6711 8.875 12.0001C8.875 12.329 8.7903 12.6382 8.64152 12.9069C8.63343 12.9188 8.62569 12.9311 8.61833 12.9437C8.61116 12.956 8.60446 12.9685 8.59822 12.9811C8.26829 13.5174 7.67591 13.8751 7 13.8751C5.96447 13.8751 5.125 13.0356 5.125 12.0001C5.125 10.9645 5.96447 10.1251 7 10.1251C7.67591 10.1251 8.26829 10.4827 8.59822 11.0191ZM15.125 17.8334C15.125 17.5211 15.2013 17.2267 15.3364 16.9677C15.3559 16.9435 15.3739 16.9175 15.39 16.8898C15.4056 16.863 15.419 16.8356 15.4302 16.8077C15.765 16.2963 16.3431 15.9584 17 15.9584C18.0355 15.9584 18.875 16.7979 18.875 17.8334C18.875 18.8689 18.0355 19.7084 17 19.7084C15.9645 19.7084 15.125 18.8689 15.125 17.8334Z" fill="black"/>
</svg>
