<svg width="24" height="24" viewBox="0 0 24 24" fill="none" xmlns="http://www.w3.org/2000/svg">
<path fill-rule="evenodd" clip-rule="evenodd" d="M12.2393 3.08917C12.313 3.11967 12.3821 3.16488 12.442 3.22481C12.442 3.22483 12.442 3.22486 12.4421 3.22489L15.7753 6.55814C16.0194 6.80222 16.0194 7.19795 15.7753 7.44202C15.5312 7.6861 15.1355 7.6861 14.8914 7.44202L12.625 5.17563V14.5001C12.625 14.8453 12.3452 15.1251 12 15.1251C11.6549 15.1251 11.375 14.8453 11.375 14.5001V5.17563L9.10865 7.44202C8.86457 7.6861 8.46884 7.6861 8.22477 7.44202C7.98069 7.19795 7.98069 6.80222 8.22477 6.55814L11.5581 3.22481C11.6712 3.1117 11.8275 3.04175 12 3.04175C12.0848 3.04175 12.1656 3.05861 12.2393 3.08917ZM5.33337 11.3751C5.67855 11.3751 5.95837 11.6549 5.95837 12.0001V18.6667C5.95837 18.943 6.06812 19.208 6.26347 19.4033C6.45882 19.5987 6.72377 19.7084 7.00004 19.7084H17C17.2763 19.7084 17.5413 19.5987 17.7366 19.4033C17.932 19.208 18.0417 18.943 18.0417 18.6667V12.0001C18.0417 11.6549 18.3215 11.3751 18.6667 11.3751C19.0119 11.3751 19.2917 11.6549 19.2917 12.0001V18.6667C19.2917 19.2745 19.0503 19.8574 18.6205 20.2872C18.1907 20.717 17.6078 20.9584 17 20.9584H7.00004C6.39225 20.9584 5.80936 20.717 5.37959 20.2872C4.94982 19.8574 4.70837 19.2745 4.70837 18.6667V12.0001C4.70837 11.6549 4.9882 11.3751 5.33337 11.3751Z" fill="black"/>
</svg>
