<svg width="24" height="24" viewBox="0 0 24 24" fill="none" xmlns="http://www.w3.org/2000/svg">
<g clip-path="url(#clip0_775_13863)">
<path fill-rule="evenodd" clip-rule="evenodd" d="M12 4.29175C7.74276 4.29175 4.29163 7.74289 4.29163 12.0001C4.29163 16.2573 7.74276 19.7084 12 19.7084C16.2572 19.7084 19.7083 16.2573 19.7083 12.0001C19.7083 7.74289 16.2572 4.29175 12 4.29175ZM3.04163 12.0001C3.04163 7.05253 7.05241 3.04175 12 3.04175C16.9475 3.04175 20.9583 7.05253 20.9583 12.0001C20.9583 16.9476 16.9475 20.9584 12 20.9584C7.05241 20.9584 3.04163 16.9476 3.04163 12.0001Z" fill="black"/>
<path fill-rule="evenodd" clip-rule="evenodd" d="M5.66633 5.66646C5.91041 5.42238 6.30614 5.42238 6.55022 5.66646L18.3336 17.4498C18.5776 17.6939 18.5776 18.0896 18.3336 18.3337C18.0895 18.5778 17.6937 18.5778 17.4497 18.3337L5.66633 6.55034C5.42226 6.30626 5.42226 5.91053 5.66633 5.66646Z" fill="black"/>
</g>
<defs>
<clipPath id="clip0_775_13863">
<rect width="20" height="20" fill="white" transform="translate(2 2)"/>
</clipPath>
</defs>
</svg>
