<svg width="24" height="24" viewBox="0 0 24 24" fill="none" xmlns="http://www.w3.org/2000/svg">
<g clip-path="url(#clip0_775_13872)">
<path fill-rule="evenodd" clip-rule="evenodd" d="M12 4.29175C7.74276 4.29175 4.29163 7.74289 4.29163 12.0001C4.29163 16.2573 7.74276 19.7084 12 19.7084C16.2572 19.7084 19.7083 16.2573 19.7083 12.0001C19.7083 7.74289 16.2572 4.29175 12 4.29175ZM3.04163 12.0001C3.04163 7.05253 7.05241 3.04175 12 3.04175C16.9475 3.04175 20.9583 7.05253 20.9583 12.0001C20.9583 16.9476 16.9475 20.9584 12 20.9584C7.05241 20.9584 3.04163 16.9476 3.04163 12.0001Z" fill="black"/>
<path fill-rule="evenodd" clip-rule="evenodd" d="M8.29166 13.1668C8.56781 12.9597 8.95956 13.0156 9.16666 13.2918L8.66666 13.6668C9.16666 13.2918 9.16652 13.2916 9.16638 13.2914L9.16613 13.2911L9.16571 13.2905L9.1652 13.2898C9.16513 13.2898 9.1651 13.2897 9.1651 13.2897C9.1651 13.2897 9.16523 13.2899 9.16548 13.2902L9.17124 13.2976C9.17737 13.3053 9.18806 13.3186 9.20318 13.3366C9.23346 13.3727 9.28128 13.4275 9.34577 13.4948C9.47527 13.6299 9.66894 13.8123 9.91969 13.9947C10.4236 14.3611 11.1305 14.7085 12 14.7085C12.8695 14.7085 13.5764 14.3611 14.0803 13.9947C14.331 13.8123 14.5247 13.6299 14.6542 13.4948C14.7187 13.4275 14.7665 13.3727 14.7968 13.3366C14.8119 13.3186 14.8226 13.3053 14.8288 13.2976L14.8345 13.2902L14.8343 13.2905L14.8339 13.2911M14.8348 13.2898C14.835 13.2896 14.8349 13.2897 14.8345 13.2902L14.8348 13.2898ZM8.29166 13.1668C8.01552 13.3739 7.95956 13.7656 8.16666 14.0418L8.29166 13.1668ZM8.16666 14.0418L8.66666 13.6668L8.16666 14.0418ZM14.8155 15.0056C14.1736 15.4724 13.2139 15.9585 12 15.9585C10.7861 15.9585 9.82641 15.4724 9.18447 15.0056C8.8623 14.7713 8.61327 14.537 8.44328 14.3596C8.35804 14.2707 8.29192 14.1953 8.24571 14.1402C8.22258 14.1126 8.20437 14.0901 8.19118 14.0734L8.17514 14.0529L8.16996 14.0461L8.16807 14.0437L8.16731 14.0426L8.16697 14.0422C8.16681 14.042 8.16666 14.0418 8.66666 13.6668M14.8155 15.0056C15.1377 14.7713 15.3867 14.537 15.5567 14.3596L14.8155 15.0056ZM15.5567 14.3596C15.642 14.2707 15.7081 14.1953 15.7543 14.1402L15.5567 14.3596ZM15.7543 14.1402C15.7774 14.1126 15.7956 14.0901 15.8088 14.0734L15.7543 14.1402ZM15.8088 14.0734L15.8248 14.0529L15.8088 14.0734ZM15.8248 14.0529L15.83 14.0461L15.8248 14.0529ZM15.83 14.0461L15.8319 14.0437L15.83 14.0461ZM15.8319 14.0437L15.8327 14.0426L15.8319 14.0437ZM15.8327 14.0426L15.833 14.0422L15.8327 14.0426ZM15.833 14.0422C15.8332 14.042 15.8333 14.0418 15.3333 13.6668L15.833 14.0422Z" fill="black"/>
<path fill-rule="evenodd" clip-rule="evenodd" d="M8.875 9.5C8.875 9.15482 9.15482 8.875 9.5 8.875H9.50833C9.85351 8.875 10.1333 9.15482 10.1333 9.5C10.1333 9.84518 9.85351 10.125 9.50833 10.125H9.5C9.15482 10.125 8.875 9.84518 8.875 9.5Z" fill="black"/>
<path fill-rule="evenodd" clip-rule="evenodd" d="M13.875 9.5C13.875 9.15482 14.1548 8.875 14.5 8.875H14.5083C14.8535 8.875 15.1333 9.15482 15.1333 9.5C15.1333 9.84518 14.8535 10.125 14.5083 10.125H14.5C14.1548 10.125 13.875 9.84518 13.875 9.5Z" fill="black"/>
</g>
<defs>
<clipPath id="clip0_775_13872">
<rect width="20" height="20" fill="white" transform="translate(2 2)"/>
</clipPath>
</defs>
</svg>
