<svg width="24" height="24" viewBox="0 0 24 24" fill="none" xmlns="http://www.w3.org/2000/svg">
<g clip-path="url(#clip0_775_13869)">
<path d="M17 3.66675H7.00004C6.07957 3.66675 5.33337 4.41294 5.33337 5.33341V18.6667C5.33337 19.5872 6.07957 20.3334 7.00004 20.3334H17C17.9205 20.3334 18.6667 19.5872 18.6667 18.6667V5.33341C18.6667 4.41294 17.9205 3.66675 17 3.66675Z" stroke="black" stroke-width="1.25" stroke-linecap="round" stroke-linejoin="round"/>
<path d="M12 16.9999C13.8409 16.9999 15.3333 15.5075 15.3333 13.6666C15.3333 11.8256 13.8409 10.3333 12 10.3333C10.159 10.3333 8.66663 11.8256 8.66663 13.6666C8.66663 15.5075 10.159 16.9999 12 16.9999Z" stroke="black" stroke-width="1.25" stroke-linecap="round" stroke-linejoin="round"/>
<path d="M12 7H12.0083" stroke="black" stroke-width="1.25" stroke-linecap="round" stroke-linejoin="round"/>
</g>
<defs>
<clipPath id="clip0_775_13869">
<rect width="20" height="20" fill="white" transform="translate(2 2)"/>
</clipPath>
</defs>
</svg>
