<svg width="24" height="24" viewBox="0 0 24 24" fill="none" xmlns="http://www.w3.org/2000/svg">
<g clip-path="url(#clip0_775_13878)">
<path fill-rule="evenodd" clip-rule="evenodd" d="M12 3.04175C12.2379 3.04175 12.4551 3.17679 12.5604 3.39011L14.9901 8.31246L20.4237 9.10665C20.6591 9.14105 20.8545 9.30606 20.9278 9.53231C21.0012 9.75857 20.9398 10.0068 20.7694 10.1728L16.8382 14.0018L17.766 19.4111C17.8062 19.6456 17.7098 19.8826 17.5173 20.0224C17.3248 20.1622 17.0696 20.1807 16.8591 20.0699L12 17.5146L7.14088 20.0699C6.93031 20.1807 6.67513 20.1622 6.48264 20.0224C6.29016 19.8826 6.19375 19.6456 6.23397 19.4111L7.16173 14.0018L3.23056 10.1728C3.06017 10.0068 2.99875 9.75857 3.07212 9.53231C3.14548 9.30606 3.3409 9.14105 3.57625 9.10665L9.00981 8.31246L11.4395 3.39011C11.5448 3.17679 11.7621 3.04175 12 3.04175ZM12 5.07878L9.98542 9.16005C9.89446 9.34433 9.71872 9.47212 9.51537 9.50184L5.0094 10.1605L8.26939 13.3357C8.41681 13.4793 8.4841 13.6862 8.44932 13.8891L7.68009 18.374L11.7091 16.2552C11.8912 16.1595 12.1088 16.1595 12.2909 16.2552L16.3199 18.374L15.5506 13.8891C15.5159 13.6862 15.5831 13.4793 15.7306 13.3357L18.9906 10.1605L14.4846 9.50184C14.2812 9.47212 14.1055 9.34433 14.0145 9.16005L12 5.07878Z" fill="black"/>
</g>
<defs>
<clipPath id="clip0_775_13878">
<rect width="20" height="20" fill="white" transform="translate(2 2)"/>
</clipPath>
</defs>
</svg>
