<svg width="24" height="24" viewBox="0 0 24 24" fill="none" xmlns="http://www.w3.org/2000/svg">
<path fill-rule="evenodd" clip-rule="evenodd" d="M5.95837 5.33341C5.95837 4.75812 6.42474 4.29175 7.00004 4.29175H17C17.5753 4.29175 18.0417 4.75812 18.0417 5.33341V18.6667C18.0417 19.242 17.5753 19.7084 17 19.7084H7.00004C6.42474 19.7084 5.95837 19.242 5.95837 18.6667V5.33341ZM7.00004 3.04175C5.73439 3.04175 4.70837 4.06776 4.70837 5.33341V18.6667C4.70837 19.9324 5.73439 20.9584 7.00004 20.9584H17C18.2657 20.9584 19.2917 19.9324 19.2917 18.6667V5.33341C19.2917 4.06776 18.2657 3.04175 17 3.04175H7.00004ZM12 16.3751C11.6549 16.3751 11.375 16.6549 11.375 17.0001C11.375 17.3453 11.6549 17.6251 12 17.6251H12.0084C12.3536 17.6251 12.6334 17.3453 12.6334 17.0001C12.6334 16.6549 12.3536 16.3751 12.0084 16.3751H12Z" fill="black"/>
</svg>
