<svg width="24" height="24" viewBox="0 0 24 24" fill="none" xmlns="http://www.w3.org/2000/svg">
<path fill-rule="evenodd" clip-rule="evenodd" d="M3.66669 3.04175C3.32151 3.04175 3.04169 3.32157 3.04169 3.66675V12.0001C3.04169 12.166 3.10763 12.325 3.225 12.4423L10.3828 19.5918L8.87338 16.3173L8.87378 16.3177L10.3833 19.5923C10.5961 19.8051 10.8486 19.974 11.1266 20.0892C11.4048 20.2045 11.703 20.2639 12.0042 20.2639C12.3053 20.2639 12.6036 20.2045 12.8818 20.0892C13.1599 19.9739 13.4125 19.805 13.6253 19.592L13.6255 19.5918L19.6003 13.617L19.6016 13.6157C20.0284 13.1863 20.268 12.6055 20.268 12.0001C20.268 11.3947 20.0284 10.8138 19.6016 10.3845L19.6003 10.3831L12.442 3.22481C12.3248 3.1076 12.1658 3.04175 12 3.04175H3.66669ZM4.29169 6.37825L3.04169 3.66675L4.29169 6.37835V11.741L8.87338 16.3173L4.29169 6.37835V6.37825ZM4.29169 6.37825L8.87378 16.3177L11.2667 18.7079L11.2672 18.7084C11.364 18.8052 11.4788 18.8821 11.6053 18.9345C11.7317 18.9869 11.8673 19.0139 12.0042 19.0139C12.1411 19.0139 12.2766 18.9869 12.4031 18.9345C12.5295 18.8821 12.6444 18.8052 12.7412 18.7084L12.7414 18.7081L18.7151 12.7345L18.7158 12.7338C18.9094 12.5387 19.018 12.2749 19.018 12.0001C19.018 11.7252 18.9093 11.4614 18.7157 11.2663L18.7151 11.2657L11.7411 4.29175H4.29169V6.37825ZM7.83335 7.20841C7.48818 7.20841 7.20835 7.48824 7.20835 7.83341C7.20835 8.17859 7.48818 8.45841 7.83335 8.45841H7.84169C8.18686 8.45841 8.46669 8.17859 8.46669 7.83341C8.46669 7.48824 8.18686 7.20841 7.84169 7.20841H7.83335Z" fill="black"/>
</svg>
