<svg width="24" height="24" viewBox="0 0 24 24" fill="none" xmlns="http://www.w3.org/2000/svg">
<path fill-rule="evenodd" clip-rule="evenodd" d="M12 4.29175C7.74283 4.29175 4.29169 7.74289 4.29169 12.0001C4.29169 16.2573 7.74283 19.7084 12 19.7084C16.2572 19.7084 19.7084 16.2573 19.7084 12.0001C19.7084 7.74289 16.2572 4.29175 12 4.29175ZM3.04169 12.0001C3.04169 7.05253 7.05247 3.04175 12 3.04175C16.9476 3.04175 20.9584 7.05253 20.9584 12.0001C20.9584 16.9476 16.9476 20.9584 12 20.9584C7.05247 20.9584 3.04169 16.9476 3.04169 12.0001ZM12 7.62508C9.58377 7.62508 7.62502 9.58384 7.62502 12.0001C7.62502 14.4163 9.58377 16.3751 12 16.3751C14.4163 16.3751 16.375 14.4163 16.375 12.0001C16.375 9.58384 14.4163 7.62508 12 7.62508ZM6.37502 12.0001C6.37502 8.89348 8.89342 6.37508 12 6.37508C15.1066 6.37508 17.625 8.89348 17.625 12.0001C17.625 15.1067 15.1066 17.6251 12 17.6251C8.89342 17.6251 6.37502 15.1067 6.37502 12.0001ZM10.9584 12.0001C10.9584 11.4248 11.4247 10.9584 12 10.9584C12.5753 10.9584 13.0417 11.4248 13.0417 12.0001C13.0417 12.5754 12.5753 13.0417 12 13.0417C11.4247 13.0417 10.9584 12.5754 10.9584 12.0001ZM12 9.70841C10.7344 9.70841 9.70835 10.7344 9.70835 12.0001C9.70835 13.2657 10.7344 14.2917 12 14.2917C13.2657 14.2917 14.2917 13.2657 14.2917 12.0001C14.2917 10.7344 13.2657 9.70841 12 9.70841Z" fill="black"/>
</svg>
