<svg width="24" height="24" viewBox="0 0 24 24" fill="none" xmlns="http://www.w3.org/2000/svg">
<path fill-rule="evenodd" clip-rule="evenodd" d="M5.77525 5.72481C5.53118 5.48073 5.13545 5.48073 4.89137 5.72481C4.64729 5.96888 4.64729 6.36461 4.89137 6.60869L9.44943 11.1667L4.89137 15.7248C4.64729 15.9689 4.64729 16.3646 4.89137 16.6087C5.13545 16.8528 5.53118 16.8528 5.77525 16.6087L10.7753 11.6087C11.0193 11.3646 11.0193 10.9689 10.7753 10.7248L5.77525 5.72481ZM12 17.2084C11.6548 17.2084 11.375 17.4882 11.375 17.8334C11.375 18.1786 11.6548 18.4584 12 18.4584H18.6666C19.0118 18.4584 19.2916 18.1786 19.2916 17.8334C19.2916 17.4882 19.0118 17.2084 18.6666 17.2084H12Z" fill="black"/>
</svg>
