<svg width="24" height="24" viewBox="0 0 24 24" fill="none" xmlns="http://www.w3.org/2000/svg">
<g clip-path="url(#clip0_775_13913)">
<path fill-rule="evenodd" clip-rule="evenodd" d="M19.2725 4.60482C19.0307 4.39734 18.7212 4.28583 18.4027 4.29146L18.3917 4.29166L16.7917 4.29156V12.2082H18.4027C18.7213 12.2139 19.0307 12.1024 19.2725 11.895C19.5046 11.6957 19.6587 11.4213 19.7084 11.1203V5.37944C19.6587 5.07845 19.5046 4.80405 19.2725 4.60482ZM15.5417 12.7006V4.29156H6.75963C6.50841 4.28872 6.26464 4.37673 6.07322 4.53943C5.8818 4.70214 5.75563 4.92855 5.71796 5.17694L4.56795 12.677C4.56793 12.6772 4.56797 12.6769 4.56795 12.677C4.54537 12.8262 4.5554 12.9789 4.59746 13.1238C4.63956 13.2688 4.71269 13.4029 4.81177 13.5169C4.91086 13.6308 5.03353 13.7218 5.1713 13.7837C5.30906 13.8455 5.45862 13.8766 5.60961 13.8749L5.61669 13.8749L10.3334 13.8749C10.6785 13.8749 10.9584 14.1547 10.9584 14.4999V17.8332C10.9584 18.3305 11.1559 18.8074 11.5075 19.1591C11.7662 19.4177 12.0927 19.593 12.4452 19.6676L15.5417 12.7006ZM16.5729 13.4582L13.4045 20.5871C13.3042 20.8128 13.0804 20.9582 12.8334 20.9582C12.0046 20.9582 11.2097 20.629 10.6236 20.0429C10.0376 19.4569 9.70836 18.662 9.70836 17.8332V15.1249H5.61995C5.28906 15.1281 4.96139 15.0596 4.65947 14.9241C4.35639 14.7881 4.0865 14.5878 3.86851 14.3371C3.65053 14.0864 3.48965 13.7913 3.39703 13.4723C3.3044 13.1532 3.28225 12.8179 3.3321 12.4894L4.48209 4.98952C4.48206 4.9897 4.48212 4.98934 4.48209 4.98952C4.56506 4.44327 4.84267 3.94485 5.26366 3.58701C5.68381 3.22988 6.21862 3.03624 6.76994 3.04156H18.3866C19.0092 3.03199 19.614 3.25062 20.0866 3.65633C20.5608 4.06332 20.869 4.63023 20.9527 5.24945C20.9565 5.27722 20.9584 5.30521 20.9584 5.33323V11.1666C20.9584 11.1946 20.9565 11.2226 20.9527 11.2503C20.869 11.8696 20.5608 12.4365 20.0866 12.8435C19.614 13.2492 19.0093 13.4678 18.3866 13.4582H16.5729Z" fill="black"/>
</g>
<defs>
<clipPath id="clip0_775_13913">
<rect width="20" height="20" fill="white" transform="translate(2 2)"/>
</clipPath>
</defs>
</svg>
