<svg width="24" height="24" viewBox="0 0 24 24" fill="none" xmlns="http://www.w3.org/2000/svg">
<g clip-path="url(#clip0_775_13925)">
<path fill-rule="evenodd" clip-rule="evenodd" d="M16.2333 4.38278C15.6806 4.26621 15.1076 4.25712 14.5461 4.35944C13.6711 4.51885 12.8656 4.94113 12.2367 5.56999C11.6079 6.19884 11.1856 7.00442 11.0262 7.87935C10.8667 8.75429 10.9778 9.65703 11.3444 10.4673C11.4517 10.7043 11.4009 10.9829 11.2169 11.1669L5.45861 16.9252C5.2443 17.1395 5.1239 17.4302 5.1239 17.7333C5.1239 18.0364 5.2443 18.327 5.45861 18.5413C5.67292 18.7556 5.96359 18.876 6.26667 18.876C6.56975 18.876 6.86042 18.7556 7.07473 18.5413L12.8331 12.783C13.017 12.5991 13.2957 12.5483 13.5327 12.6555C14.3429 13.0222 15.2457 13.1332 16.1206 12.9738C16.9955 12.8144 17.8011 12.3921 18.43 11.7632C19.0588 11.1344 19.4811 10.3288 19.6405 9.45387C19.7428 8.89232 19.7337 8.31931 19.6172 7.76666L17.1875 10.1963C16.9149 10.4635 16.5484 10.6132 16.1667 10.6132C15.7849 10.6132 15.4184 10.4635 15.1458 10.1963L15.1414 10.1919L13.8036 8.85413C13.5364 8.58153 13.3868 8.215 13.3868 7.83328C13.3868 7.45155 13.5365 7.08505 13.8037 6.81244L13.808 6.80798L16.2333 4.38278ZM14.322 3.12968C15.4469 2.92472 16.6076 3.06746 17.6493 3.53886C17.8363 3.62345 17.9698 3.79439 18.0065 3.99624C18.0433 4.19809 17.9787 4.40514 17.8336 4.55022L14.6949 7.68895C14.6576 7.72773 14.6368 7.77944 14.6368 7.83328C14.6368 7.8871 14.6576 7.93882 14.6949 7.9776L16.0223 9.30504C16.0611 9.34231 16.1128 9.36316 16.1667 9.36316C16.2205 9.36316 16.2722 9.34232 16.311 9.30506L19.4497 6.16633C19.5948 6.02126 19.8019 5.95662 20.0037 5.9934C20.2055 6.03018 20.3765 6.16368 20.4611 6.35061C20.9325 7.39235 21.0752 8.55301 20.8703 9.67793C20.6653 10.8028 20.1224 11.8386 19.3138 12.6471C18.5053 13.4556 17.4696 13.9986 16.3447 14.2035C15.3642 14.3822 14.3566 14.2967 13.4242 13.9597L7.95861 19.4252C7.50988 19.8739 6.90127 20.126 6.26667 20.126C5.63207 20.126 5.02346 19.8739 4.57473 19.4252C4.126 18.9765 3.8739 18.3679 3.8739 17.7333C3.8739 17.0987 4.126 16.4901 4.57473 16.0413L10.0403 10.5758C9.70326 9.64339 9.61776 8.63576 9.79641 7.65529C10.0014 6.53037 10.5443 5.49463 11.3528 4.6861C12.1614 3.87757 13.1971 3.33465 14.322 3.12968Z" fill="black"/>
</g>
<defs>
<clipPath id="clip0_775_13925">
<rect width="20" height="20" fill="white" transform="translate(2 2)"/>
</clipPath>
</defs>
</svg>
