<svg width="24" height="24" viewBox="0 0 24 24" fill="none" xmlns="http://www.w3.org/2000/svg">
<path fill-rule="evenodd" clip-rule="evenodd" d="M21.7428 6.75725C21.714 6.68878 21.6724 6.62441 21.6181 6.56774C21.6119 6.56122 21.6055 6.55483 21.599 6.54858C21.4867 6.44106 21.3344 6.375 21.1667 6.375C21.1666 6.375 21.1665 6.375 21.1665 6.375L16.1667 6.375C15.8215 6.375 15.5417 6.65482 15.5417 7C15.5417 7.34518 15.8215 7.625 16.1667 7.625H19.6578L13.25 14.0328L9.52532 10.3081C9.4081 10.1908 9.24913 10.125 9.08337 10.125C8.91761 10.125 8.75864 10.1908 8.64143 10.3081L2.39143 16.5581C2.14735 16.8021 2.14735 17.1979 2.39143 17.4419C2.63551 17.686 3.03124 17.686 3.27532 17.4419L9.08337 11.6339L12.8081 15.3586C12.9253 15.4758 13.0843 15.5417 13.25 15.5417C13.4158 15.5417 13.5748 15.4758 13.692 15.3586L20.5417 8.50888V12C20.5417 12.3452 20.8215 12.625 21.1667 12.625C21.5119 12.625 21.7917 12.3452 21.7917 12V7C21.7917 6.91391 21.7743 6.83188 21.7428 6.75725Z" fill="black"/>
</svg>
