<svg width="24" height="24" viewBox="0 0 24 24" fill="none" xmlns="http://www.w3.org/2000/svg">
<path fill-rule="evenodd" clip-rule="evenodd" d="M3.27532 6.55806C3.03124 6.31398 2.63551 6.31398 2.39143 6.55806C2.14735 6.80214 2.14735 7.19786 2.39143 7.44194L8.64143 13.6919C8.75864 13.8092 8.91761 13.875 9.08337 13.875C9.24913 13.875 9.4081 13.8092 9.52532 13.6919L13.25 9.96722L19.6578 16.375H16.1667C15.8215 16.375 15.5417 16.6548 15.5417 17C15.5417 17.3452 15.8215 17.625 16.1667 17.625H21.1667C21.2515 17.625 21.3323 17.6081 21.4059 17.5776C21.4757 17.5487 21.5413 17.5067 21.599 17.4514C21.6055 17.4452 21.6119 17.4388 21.6181 17.4323C21.7256 17.32 21.7917 17.1677 21.7917 17V12C21.7917 11.6548 21.5119 11.375 21.1667 11.375C20.8215 11.375 20.5417 11.6548 20.5417 12V15.4911L13.692 8.64139C13.5748 8.52418 13.4158 8.45833 13.25 8.45833C13.0843 8.45833 12.9253 8.52418 12.8081 8.64139L9.08337 12.3661L3.27532 6.55806Z" fill="black"/>
</svg>
