<svg width="24" height="24" viewBox="0 0 24 24" fill="none" xmlns="http://www.w3.org/2000/svg">
<g clip-path="url(#clip0_775_13892)">
<path fill-rule="evenodd" clip-rule="evenodd" d="M14.1788 4.15321C15.013 3.83484 15.9248 3.78033 16.7909 3.99704C17.5197 4.17941 18.1867 4.54645 18.7289 5.05967C19.467 4.80095 20.1663 4.44088 20.8064 3.98935C21.0193 3.83919 21.303 3.83682 21.5184 3.98343C21.7337 4.13003 21.8355 4.39484 21.7739 4.64797C21.4894 5.81634 20.9115 6.89086 20.0973 7.77098C20.1152 7.92929 20.1245 8.08853 20.125 8.24801L20.125 8.25008C20.125 13.2605 17.7165 16.9168 14.2728 18.7497C10.8443 20.5746 6.45261 20.5591 2.52979 18.3798C2.27678 18.2392 2.15338 17.9433 2.23153 17.6646C2.30969 17.386 2.56896 17.1974 2.85816 17.2089C4.42835 17.2714 5.98127 16.9249 7.36785 16.2121C5.96585 15.4152 4.98535 14.4472 4.32353 13.4022C3.51072 12.1188 3.20231 10.7571 3.14646 9.52846C3.09074 8.30255 3.28554 7.19627 3.49125 6.40088C3.59447 6.00174 3.70148 5.67694 3.78364 5.44969C3.82475 5.33596 3.85976 5.24637 3.88511 5.18379C3.89779 5.15249 3.90806 5.12792 3.9155 5.11044L3.92447 5.08957L3.92596 5.08614C3.93517 5.0648 3.94562 5.04382 3.95733 5.02333L4.49998 5.33341L5.01146 4.97422C5.79415 6.08873 6.84033 6.99238 8.05682 7.60468C9.09161 8.12553 10.2223 8.4218 11.375 8.47696V8.2791C11.3639 7.38787 11.6264 6.51463 12.127 5.77714C12.6285 5.03845 13.3447 4.47158 14.1788 4.15321ZM4.72715 6.61639C4.71857 6.64827 4.70999 6.68077 4.70143 6.71386C4.51651 7.42889 4.34673 8.40594 4.39517 9.4717C4.44349 10.5347 4.708 11.673 5.37956 12.7334C6.0486 13.7898 7.14543 14.8067 8.92049 15.5956C9.12786 15.6878 9.26899 15.8851 9.28917 16.1112C9.30936 16.3372 9.20543 16.5564 9.01767 16.6839C7.89624 17.4451 6.64314 17.9733 5.33227 18.2475C8.26485 19.2034 11.2659 18.9341 13.6855 17.6463C16.6999 16.0418 18.8747 12.8235 18.875 8.25104C18.8743 8.05797 18.8557 7.86539 18.8194 7.67576C18.7803 7.47084 18.8459 7.2599 18.9945 7.11341C19.3542 6.7586 19.6644 6.36014 19.9187 5.92904C19.5333 6.10269 19.1363 6.25126 18.7302 6.37354C18.4948 6.44442 18.2397 6.37072 18.0784 6.18523C17.6605 5.70476 17.1052 5.36422 16.4875 5.20966C15.8698 5.0551 15.2195 5.09398 14.6246 5.32104C14.0297 5.5481 13.5189 5.95238 13.1612 6.47921C12.8036 7.00604 12.6164 7.63 12.6249 8.2667L12.625 8.27508H12.625V9.10841C12.625 9.44728 12.3549 9.72442 12.0162 9.7332C10.4487 9.77385 8.89545 9.4262 7.49483 8.72122C6.44773 8.19419 5.51024 7.47967 4.72715 6.61639Z" fill="black"/>
</g>
<defs>
<clipPath id="clip0_775_13892">
<rect width="20" height="20" fill="white" transform="translate(2 2)"/>
</clipPath>
</defs>
</svg>
