<svg width="24" height="24" viewBox="0 0 24 24" fill="none" xmlns="http://www.w3.org/2000/svg">
<path fill-rule="evenodd" clip-rule="evenodd" d="M4.70831 5.33325C4.70831 4.98807 4.98814 4.70825 5.33331 4.70825H12H18.6666C19.0118 4.70825 19.2916 4.98807 19.2916 5.33325V7.83325C19.2916 8.17843 19.0118 8.45825 18.6666 8.45825C18.3215 8.45825 18.0416 8.17843 18.0416 7.83325V5.95825H12.625V18.0416H14.5C14.8452 18.0416 15.125 18.3214 15.125 18.6666C15.125 19.0118 14.8452 19.2916 14.5 19.2916H12.0011C12.0007 19.2916 12.0003 19.2916 12 19.2916C11.9996 19.2916 11.9992 19.2916 11.9989 19.2916H9.49998C9.1548 19.2916 8.87498 19.0118 8.87498 18.6666C8.87498 18.3214 9.1548 18.0416 9.49998 18.0416H11.375V5.95825H5.95831V7.83325C5.95831 8.17843 5.67849 8.45825 5.33331 8.45825C4.98814 8.45825 4.70831 8.17843 4.70831 7.83325V5.33325Z" fill="black"/>
</svg>
