<svg width="24" height="24" viewBox="0 0 24 24" fill="none" xmlns="http://www.w3.org/2000/svg">
<g clip-path="url(#clip0_775_13899)">
<path fill-rule="evenodd" clip-rule="evenodd" d="M5.38543 5.599C7.19547 3.95351 9.55384 3.04175 12 3.04175C14.4462 3.04175 16.8046 3.95351 18.6147 5.599C20.4247 7.2445 21.5564 9.50556 21.7889 11.9407C21.8056 12.116 21.7476 12.2902 21.6292 12.4205C21.5107 12.5508 21.3428 12.6251 21.1667 12.6251H12.625V17.8334C12.625 18.3307 12.8226 18.8076 13.1742 19.1592C13.5258 19.5109 14.0028 19.7084 14.5 19.7084C14.9973 19.7084 15.4742 19.5109 15.8259 19.1592C16.1775 18.8076 16.375 18.3307 16.375 17.8334C16.375 17.4882 16.6549 17.2084 17 17.2084C17.3452 17.2084 17.625 17.4882 17.625 17.8334C17.625 18.6622 17.2958 19.4571 16.7098 20.0431C16.1237 20.6292 15.3288 20.9584 14.5 20.9584C13.6712 20.9584 12.8764 20.6292 12.2903 20.0431C11.7043 19.4571 11.375 18.6622 11.375 17.8334V12.6251H2.83338C2.65729 12.6251 2.48937 12.5508 2.37091 12.4205C2.25246 12.2902 2.19447 12.116 2.2112 11.9407C2.44365 9.50556 3.57539 7.2445 5.38543 5.599ZM20.4513 11.3751C20.1208 9.51293 19.1828 7.80478 17.7738 6.52393C16.1939 5.08761 14.1353 4.29175 12 4.29175C9.8648 4.29175 7.80622 5.08761 6.22627 6.52393C4.81733 7.80478 3.87924 9.51293 3.54878 11.3751H20.4513Z" fill="black"/>
</g>
<defs>
<clipPath id="clip0_775_13899">
<rect width="20" height="20" fill="white" transform="translate(2 2)"/>
</clipPath>
</defs>
</svg>
