<svg width="24" height="24" viewBox="0 0 24 24" fill="none" xmlns="http://www.w3.org/2000/svg">
<path fill-rule="evenodd" clip-rule="evenodd" d="M7.62504 4.5C7.62504 4.15482 7.34522 3.875 7.00004 3.875C6.65486 3.875 6.37504 4.15482 6.37504 4.5V10.3333C6.37504 11.8252 6.96767 13.2559 8.02256 14.3108C9.07746 15.3657 10.5082 15.9583 12 15.9583C13.4919 15.9583 14.9226 15.3657 15.9775 14.3108C17.0324 13.2559 17.625 11.8252 17.625 10.3333V4.5C17.625 4.15482 17.3452 3.875 17 3.875C16.6549 3.875 16.375 4.15482 16.375 4.5V10.3333C16.375 11.4937 15.9141 12.6065 15.0936 13.4269C14.2732 14.2474 13.1604 14.7083 12 14.7083C10.8397 14.7083 9.72692 14.2474 8.90645 13.4269C8.08598 12.6065 7.62504 11.4937 7.62504 10.3333V4.5ZM5.33337 18.875C4.9882 18.875 4.70837 19.1548 4.70837 19.5C4.70837 19.8452 4.9882 20.125 5.33337 20.125H18.6667C19.0119 20.125 19.2917 19.8452 19.2917 19.5C19.2917 19.1548 19.0119 18.875 18.6667 18.875H5.33337Z" fill="black"/>
</svg>
