<svg width="24" height="24" viewBox="0 0 24 24" fill="none" xmlns="http://www.w3.org/2000/svg">
<path fill-rule="evenodd" clip-rule="evenodd" d="M9.29171 7.83333C9.29171 6.33756 10.5043 5.125 12 5.125C13.4958 5.125 14.7084 6.33756 14.7084 7.83333C14.7084 9.3291 13.4958 10.5417 12 10.5417C10.5043 10.5417 9.29171 9.3291 9.29171 7.83333ZM12 3.875C9.81391 3.875 8.04171 5.64721 8.04171 7.83333C8.04171 10.0195 9.81391 11.7917 12 11.7917C14.1862 11.7917 15.9584 10.0195 15.9584 7.83333C15.9584 5.64721 14.1862 3.875 12 3.875ZM8.66671 13.875C7.61689 13.875 6.61007 14.292 5.86774 15.0344C5.12541 15.7767 4.70837 16.7835 4.70837 17.8333V19.5C4.70837 19.8452 4.9882 20.125 5.33337 20.125C5.67855 20.125 5.95837 19.8452 5.95837 19.5V17.8333C5.95837 17.115 6.24372 16.4262 6.75163 15.9183C7.25954 15.4103 7.94841 15.125 8.66671 15.125H15.3334C16.0517 15.125 16.7405 15.4103 17.2485 15.9183C17.7564 16.4262 18.0417 17.115 18.0417 17.8333V19.5C18.0417 19.8452 18.3215 20.125 18.6667 20.125C19.0119 20.125 19.2917 19.8452 19.2917 19.5V17.8333C19.2917 16.7835 18.8747 15.7767 18.1323 15.0344C17.39 14.292 16.3832 13.875 15.3334 13.875H8.66671Z" fill="black"/>
</svg>
