<svg width="24" height="24" viewBox="0 0 24 24" fill="none" xmlns="http://www.w3.org/2000/svg">
<path fill-rule="evenodd" clip-rule="evenodd" d="M6.79171 7.83333C6.79171 6.33756 8.00427 5.125 9.50004 5.125C10.9958 5.125 12.2084 6.33756 12.2084 7.83333C12.2084 9.3291 10.9958 10.5417 9.50004 10.5417C8.00427 10.5417 6.79171 9.3291 6.79171 7.83333ZM9.50004 3.875C7.31391 3.875 5.54171 5.64721 5.54171 7.83333C5.54171 10.0195 7.31391 11.7917 9.50004 11.7917C11.6862 11.7917 13.4584 10.0195 13.4584 7.83333C13.4584 5.64721 11.6862 3.875 9.50004 3.875ZM6.16671 13.875C5.11689 13.875 4.11007 14.292 3.36774 15.0344C2.62541 15.7767 2.20837 16.7835 2.20837 17.8333V19.5C2.20837 19.8452 2.4882 20.125 2.83337 20.125C3.17855 20.125 3.45837 19.8452 3.45837 19.5V17.8333C3.45837 17.115 3.74372 16.4262 4.25163 15.9183C4.75954 15.4103 5.44841 15.125 6.16671 15.125H12.8334C13.5517 15.125 14.2405 15.4103 14.7485 15.9183C15.2564 16.4262 15.5417 17.115 15.5417 17.8333V19.5C15.5417 19.8452 15.8215 20.125 16.1667 20.125C16.5119 20.125 16.7917 19.8452 16.7917 19.5V17.8333C16.7917 16.7835 16.3747 15.7767 15.6323 15.0344C14.89 14.292 13.8832 13.875 12.8334 13.875H6.16671ZM18.0616 14.4521C18.1478 14.1179 18.4887 13.9169 18.823 14.0032C19.6721 14.2224 20.4245 14.7175 20.9618 15.4107C21.4991 16.1038 21.7911 16.9558 21.7917 17.8329V17.8333V19.5C21.7917 19.8452 21.5119 20.125 21.1667 20.125C20.8215 20.125 20.5417 19.8452 20.5417 19.5V17.8338V17.8336C20.5412 17.2336 20.3415 16.6507 19.9739 16.1765C19.6062 15.7022 19.0915 15.3635 18.5105 15.2135C18.1762 15.1272 17.9753 14.7863 18.0616 14.4521ZM15.4884 4.00286C15.154 3.91725 14.8135 4.11892 14.7279 4.45331C14.6423 4.7877 14.844 5.12818 15.1783 5.2138C15.7609 5.36296 16.2773 5.70178 16.646 6.17682C17.0148 6.65187 17.2149 7.23614 17.2149 7.8375C17.2149 8.43886 17.0148 9.02313 16.646 9.49817C16.2773 9.97322 15.7609 10.312 15.1783 10.4612C14.844 10.5468 14.6423 10.8873 14.7279 11.2217C14.8135 11.5561 15.154 11.7578 15.4884 11.6721C16.3399 11.4541 17.0945 10.9589 17.6335 10.2646C18.1724 9.57034 18.4649 8.71642 18.4649 7.8375C18.4649 6.95858 18.1724 6.10466 17.6335 5.41036C17.0945 4.71606 16.3399 4.22087 15.4884 4.00286Z" fill="black"/>
</svg>
