<svg width="24" height="24" viewBox="0 0 24 24" fill="none" xmlns="http://www.w3.org/2000/svg">
<path fill-rule="evenodd" clip-rule="evenodd" d="M3.45837 7.83341C3.45837 7.25812 3.92474 6.79175 4.50004 6.79175H13.6667C14.242 6.79175 14.7084 7.25812 14.7084 7.83341V12.0001V16.1667C14.7084 16.742 14.242 17.2084 13.6667 17.2084H4.50004C3.92474 17.2084 3.45837 16.742 3.45837 16.1667V7.83341ZM15.9584 10.7856V7.83341C15.9584 6.56776 14.9324 5.54175 13.6667 5.54175H4.50004C3.23439 5.54175 2.20837 6.56776 2.20837 7.83341V16.1667C2.20837 17.4324 3.23439 18.4584 4.50004 18.4584H13.6667C14.9324 18.4584 15.9584 17.4324 15.9584 16.1667V13.2146L20.8034 16.6753C20.9939 16.8114 21.2445 16.8296 21.4527 16.7225C21.6609 16.6153 21.7917 16.4009 21.7917 16.1667V7.83341C21.7917 7.5993 21.6609 7.38481 21.4527 7.27768C21.2445 7.17056 20.9939 7.18875 20.8034 7.32483L15.9584 10.7856ZM20.5417 14.9523L16.4087 12.0001L20.5417 9.04791V14.9523Z" fill="black"/>
</svg>
