<svg width="24" height="24" viewBox="0 0 24 24" fill="none" xmlns="http://www.w3.org/2000/svg">
<path fill-rule="evenodd" clip-rule="evenodd" d="M6.58337 8.45825C4.85748 8.45825 3.45837 9.85736 3.45837 11.5833C3.45837 13.3091 4.85748 14.7083 6.58337 14.7083C6.58396 14.7083 6.58454 14.7083 6.58512 14.7083C8.31021 14.7073 9.70837 13.3086 9.70837 11.5833C9.70837 9.85736 8.30926 8.45825 6.58337 8.45825ZM9.64524 14.7083C10.4556 13.9142 10.9584 12.8074 10.9584 11.5833C10.9584 9.16701 8.99962 7.20825 6.58337 7.20825C4.16713 7.20825 2.20837 9.16701 2.20837 11.5833C2.20837 13.9995 4.16713 15.9583 6.58337 15.9583H17.4167C19.833 15.9583 21.7917 13.9995 21.7917 11.5833C21.7917 9.16701 19.833 7.20825 17.4167 7.20825C15.0005 7.20825 13.0417 9.16701 13.0417 11.5833C13.0417 12.8074 13.5445 13.9142 14.3548 14.7083H9.64524ZM17.415 14.7083C17.4155 14.7083 17.4161 14.7083 17.4167 14.7083C17.4169 14.7083 17.4172 14.7083 17.4174 14.7083C19.143 14.7079 20.5417 13.3089 20.5417 11.5833C20.5417 9.85736 19.1426 8.45825 17.4167 8.45825C15.6908 8.45825 14.2917 9.85736 14.2917 11.5833C14.2917 13.3086 15.6899 14.7073 17.415 14.7083Z" fill="black"/>
</svg>
