<svg width="24" height="24" viewBox="0 0 24 24" fill="none" xmlns="http://www.w3.org/2000/svg">
<path fill-rule="evenodd" clip-rule="evenodd" d="M11.7917 6.16675C11.7917 5.9265 11.654 5.70751 11.4374 5.60344C11.2209 5.49936 10.9639 5.52863 10.7763 5.67871L6.78078 8.87509H3.66669C3.32151 8.87509 3.04169 9.15491 3.04169 9.50009V14.5001C3.04169 14.8453 3.32151 15.1251 3.66669 15.1251H6.78078L10.7763 18.3215C10.9639 18.4715 11.2209 18.5008 11.4374 18.3967C11.654 18.2927 11.7917 18.0737 11.7917 17.8334V6.16675ZM7.39045 9.98813L10.5417 7.46714V16.533L7.39045 14.012C7.27963 13.9234 7.14194 13.8751 7.00002 13.8751H4.29169V10.1251H7.00002C7.14194 10.1251 7.27963 10.0768 7.39045 9.98813ZM15.392 8.60821C15.148 8.3641 14.7523 8.36404 14.5081 8.60808C14.264 8.85212 14.264 9.24785 14.508 9.49196C15.172 10.1561 15.545 11.0568 15.545 11.9959C15.545 12.935 15.172 13.8357 14.508 14.4999C14.264 14.744 14.264 15.1397 14.5081 15.3838C14.7523 15.6278 15.148 15.6277 15.392 15.3836C16.2903 14.4851 16.795 13.2665 16.795 11.9959C16.795 10.7253 16.2903 9.50678 15.392 8.60821Z" fill="black"/>
</svg>
