<svg width="24" height="24" viewBox="0 0 24 24" fill="none" xmlns="http://www.w3.org/2000/svg">
<g clip-path="url(#clip0_775_13922)">
<path fill-rule="evenodd" clip-rule="evenodd" d="M11.4374 5.60344C11.6539 5.70751 11.7916 5.9265 11.7916 6.16675V17.8334C11.7916 18.0737 11.6539 18.2927 11.4374 18.3967C11.2208 18.5008 10.9638 18.4715 10.7762 18.3215L6.78072 15.1251H3.66663C3.32145 15.1251 3.04163 14.8453 3.04163 14.5001V9.50009C3.04163 9.15491 3.32145 8.87509 3.66663 8.87509H6.78072L10.7762 5.67871C10.9638 5.52863 11.2208 5.49936 11.4374 5.60344ZM10.5416 7.46714L7.39039 9.98813C7.27957 10.0768 7.14188 10.1251 6.99996 10.1251H4.29163V13.8751H6.99996C7.14188 13.8751 7.27957 13.9234 7.39039 14.012L10.5416 16.533V7.46714Z" fill="black"/>
</g>
<defs>
<clipPath id="clip0_775_13922">
<rect width="20" height="20" fill="white" transform="translate(2 2)"/>
</clipPath>
</defs>
</svg>
