<svg width="24" height="24" viewBox="0 0 24 24" fill="none" xmlns="http://www.w3.org/2000/svg">
<path fill-rule="evenodd" clip-rule="evenodd" d="M2.39143 2.39131C2.63551 2.14723 3.03124 2.14723 3.27532 2.39131L7.53228 6.64827C7.53903 6.65473 7.54565 6.66135 7.55213 6.66812L10.8523 9.96826C10.898 10.0029 10.9391 10.0438 10.974 10.09L21.6086 20.7246C21.8527 20.9687 21.8527 21.3644 21.6086 21.6085C21.3646 21.8526 20.9688 21.8526 20.7248 21.6085L15.1245 16.0083C14.9357 16.0807 14.7153 16.0603 14.5381 15.9344C13.7978 15.4085 12.9123 15.126 12.0042 15.126C11.0962 15.126 10.2106 15.4085 9.47035 15.9344C9.18896 16.1343 8.79878 16.0683 8.59887 15.7869C8.39895 15.5055 8.465 15.1153 8.74639 14.9154C9.69815 14.2392 10.8367 13.876 12.0042 13.876C12.374 13.876 12.741 13.9124 13.1 13.9837L10.2601 11.1439C8.90272 11.4305 7.63446 12.0457 6.56761 12.9377C6.30279 13.1591 5.90863 13.124 5.68722 12.8591C5.46581 12.5943 5.501 12.2002 5.76581 11.9788C6.78578 11.126 7.96621 10.4937 9.23256 10.1163L6.95303 7.83679C5.72977 8.36537 4.59702 9.08452 3.5973 9.9682C3.33868 10.1968 2.9437 10.1725 2.71509 9.91385C2.48649 9.65522 2.51082 9.26024 2.76945 9.03164C3.7449 8.16941 4.83559 7.44972 6.00883 6.89259L2.39143 3.27519C2.14735 3.03112 2.14735 2.63539 2.39143 2.39131ZM15.3717 10.9425C15.5231 10.6323 15.8973 10.5035 16.2075 10.6549C16.9369 11.0109 17.6189 11.4566 18.2377 11.9817C18.5009 12.205 18.5333 12.5994 18.3099 12.8626C18.0866 13.1258 17.6922 13.1581 17.429 12.9348C16.8896 12.4771 16.295 12.0886 15.6593 11.7783C15.349 11.6269 15.2203 11.2527 15.3717 10.9425ZM16.0086 7.4403C14.3887 6.90126 12.6769 6.69412 10.9752 6.83123C10.6312 6.85896 10.3298 6.60251 10.3021 6.25845C10.2743 5.91439 10.5308 5.61299 10.8748 5.58527C12.7439 5.43467 14.6241 5.66219 16.4033 6.25424C18.1824 6.8463 19.8241 7.79075 21.2302 9.03123C21.489 9.25959 21.5137 9.65454 21.2854 9.91339C21.057 10.1722 20.6621 10.197 20.4032 9.9686C19.123 8.83921 17.6284 7.97933 16.0086 7.4403ZM12 18.0416C11.6549 18.0416 11.375 18.3214 11.375 18.6666C11.375 19.0118 11.6549 19.2916 12 19.2916H12.0084C12.3536 19.2916 12.6334 19.0118 12.6334 18.6666C12.6334 18.3214 12.3536 18.0416 12.0084 18.0416H12Z" fill="black"/>
</svg>
