<svg width="24" height="24" viewBox="0 0 24 24" fill="none" xmlns="http://www.w3.org/2000/svg">
<g clip-path="url(#clip0_775_13936)">
<path fill-rule="evenodd" clip-rule="evenodd" d="M11.3756 5.97803C11.2073 5.94475 11.0333 5.95358 10.8692 6.00373C10.7051 6.05389 10.5559 6.14382 10.4349 6.26553C10.1915 6.51033 9.79579 6.51151 9.551 6.26815C9.3062 6.0248 9.30502 5.62907 9.54838 5.38427C9.81456 5.11651 10.1428 4.91866 10.5039 4.80831C10.8649 4.69796 11.2477 4.67854 11.6181 4.75176C11.9885 4.82499 12.335 4.98859 12.627 5.22803C12.9189 5.46748 13.1471 5.77533 13.2914 6.12424C13.4357 6.47315 13.4915 6.85231 13.4539 7.22799C13.4163 7.60368 13.2865 7.96426 13.076 8.27769C12.8655 8.59111 12.5808 8.84767 12.2472 9.02455C11.9141 9.20121 11.5425 9.29292 11.1654 9.29157C11.1649 9.29157 11.1645 9.29157 11.164 9.29157L11.1666 8.66657V9.29157H11.1654H3.66663C3.32145 9.29157 3.04163 9.01175 3.04163 8.66657C3.04163 8.32139 3.32145 8.04157 3.66663 8.04157H11.1693C11.3409 8.04229 11.51 8.0006 11.6616 7.9202C11.8132 7.8398 11.9427 7.72319 12.0383 7.58072C12.134 7.43826 12.193 7.27435 12.2101 7.10359C12.2272 6.93282 12.2018 6.76048 12.1362 6.60188C12.0707 6.44329 11.9669 6.30335 11.8342 6.19452C11.7015 6.08568 11.544 6.01131 11.3756 5.97803ZM18.5315 8.48641C18.2964 8.43954 18.0535 8.4513 17.8241 8.52066C17.5948 8.59002 17.386 8.71484 17.2163 8.88407C16.972 9.12784 16.5762 9.12734 16.3325 8.88295C16.0887 8.63857 16.0892 8.24284 16.3336 7.99907C16.6487 7.68478 17.0363 7.45298 17.4623 7.32417C17.8883 7.19536 18.3395 7.1735 18.7759 7.26055C19.2124 7.34759 19.6206 7.54084 19.9646 7.82321C20.3086 8.10558 20.5777 8.46837 20.7481 8.87949C20.9186 9.2906 20.985 9.73738 20.9417 10.1803C20.8984 10.6232 20.7465 11.0486 20.4997 11.4189C20.2528 11.7892 19.9185 12.093 19.5263 12.3033C19.1341 12.5137 18.6961 12.6241 18.2511 12.6249L3.66663 12.6249C3.32145 12.6249 3.04163 12.3451 3.04163 11.9999C3.04163 11.6547 3.32145 11.3749 3.66663 11.3749H18.2493C18.4888 11.3744 18.7245 11.3149 18.9355 11.2017C19.1467 11.0885 19.3267 10.9249 19.4596 10.7255C19.5926 10.5262 19.6743 10.2971 19.6976 10.0586C19.721 9.82009 19.6852 9.57951 19.5934 9.35814C19.5016 9.13677 19.3567 8.94142 19.1715 8.78938C18.9863 8.63733 18.7665 8.53327 18.5315 8.48641ZM13.6655 14.7082C14.0425 14.7069 14.4141 14.7986 14.7472 14.9753C15.0808 15.1521 15.3655 15.4087 15.576 15.7221C15.7865 16.0355 15.9163 16.3961 15.9539 16.7718C15.9915 17.1475 15.9357 17.5267 15.7914 17.8756C15.6471 18.2245 15.4189 18.5323 15.127 18.7718C14.835 19.0112 14.4885 19.1748 14.1181 19.248C13.7477 19.3213 13.3649 19.3018 13.0039 19.1915C12.6428 19.0812 12.3146 18.8833 12.0484 18.6155C11.805 18.3707 11.8062 17.975 12.051 17.7317C12.2958 17.4883 12.6915 17.4895 12.9349 17.7343C13.0559 17.856 13.2051 17.9459 13.3692 17.9961C13.5333 18.0462 13.7073 18.0551 13.8756 18.0218C14.044 17.9885 14.2015 17.9141 14.3342 17.8053C14.4669 17.6965 14.5707 17.5565 14.6362 17.3979C14.7018 17.2393 14.7272 17.067 14.7101 16.8962C14.693 16.7255 14.634 16.5616 14.5383 16.4191C14.4427 16.2766 14.3132 16.16 14.1616 16.0796C14.01 15.9992 13.8409 15.9575 13.6692 15.9582L13.6666 15.9582H3.66663C3.32145 15.9582 3.04163 15.6784 3.04163 15.3332C3.04163 14.9881 3.32145 14.7082 3.66663 14.7082H13.6655Z" fill="black"/>
</g>
<defs>
<clipPath id="clip0_775_13936">
<rect width="20" height="20" fill="white" transform="translate(2 2)"/>
</clipPath>
</defs>
</svg>
