<svg width="24" height="24" viewBox="0 0 24 24" fill="none" xmlns="http://www.w3.org/2000/svg">
<path fill-rule="evenodd" clip-rule="evenodd" d="M12 4.29175C7.74276 4.29175 4.29163 7.74289 4.29163 12.0001C4.29163 16.2573 7.74276 19.7084 12 19.7084C16.2572 19.7084 19.7083 16.2573 19.7083 12.0001C19.7083 7.74289 16.2572 4.29175 12 4.29175ZM3.04163 12.0001C3.04163 7.05253 7.05241 3.04175 12 3.04175C16.9475 3.04175 20.9583 7.05253 20.9583 12.0001C20.9583 16.9476 16.9475 20.9584 12 20.9584C7.05241 20.9584 3.04163 16.9476 3.04163 12.0001ZM14.9419 9.05814C15.186 9.30222 15.186 9.69795 14.9419 9.94202L12.8838 12.0001L14.9419 14.0581C15.186 14.3022 15.186 14.6979 14.9419 14.942C14.6978 15.1861 14.3021 15.1861 14.058 14.942L12 12.884L9.9419 14.942C9.69782 15.1861 9.30209 15.1861 9.05802 14.942C8.81394 14.6979 8.81394 14.3022 9.05802 14.0581L11.1161 12.0001L9.05802 9.94202C8.81394 9.69795 8.81394 9.30222 9.05802 9.05814C9.30209 8.81406 9.69782 8.81406 9.9419 9.05814L12 11.1162L14.058 9.05814C14.3021 8.81406 14.6978 8.81406 14.9419 9.05814Z" fill="black"/>
</svg>
