<svg width="24" height="24" viewBox="0 0 24 24" fill="none" xmlns="http://www.w3.org/2000/svg">
<path fill-rule="evenodd" clip-rule="evenodd" d="M8.10802 3.22481C8.22523 3.1076 8.3842 3.04175 8.54996 3.04175H15.45C15.6157 3.04175 15.7747 3.1076 15.8919 3.22481L20.7752 8.10814C20.8924 8.22535 20.9583 8.38432 20.9583 8.55008V15.4501C20.9583 15.6158 20.8924 15.7748 20.7752 15.892L15.8919 20.7754C15.7747 20.8926 15.6157 20.9584 15.45 20.9584H8.54996C8.3842 20.9584 8.22523 20.8926 8.10802 20.7754L3.22468 15.892C3.10747 15.7748 3.04163 15.6158 3.04163 15.4501V8.55008C3.04163 8.38432 3.10747 8.22535 3.22468 8.10814L8.10802 3.22481ZM8.80884 4.29175L4.29163 8.80896V15.1912L8.80884 19.7084H15.1911L19.7083 15.1912V8.80897L15.1911 4.29175H8.80884ZM14.9419 9.05814C15.186 9.30222 15.186 9.69795 14.9419 9.94202L12.8838 12.0001L14.9419 14.0581C15.186 14.3022 15.186 14.6979 14.9419 14.942C14.6978 15.1861 14.3021 15.1861 14.058 14.942L12 12.884L9.9419 14.942C9.69782 15.1861 9.30209 15.1861 9.05802 14.942C8.81394 14.6979 8.81394 14.3022 9.05802 14.0581L11.1161 12.0001L9.05802 9.94202C8.81394 9.69795 8.81394 9.30222 9.05802 9.05814C9.30209 8.81406 9.69782 8.81406 9.9419 9.05814L12 11.1162L14.058 9.05814C14.3021 8.81406 14.6978 8.81406 14.9419 9.05814Z" fill="black"/>
</svg>
