<svg width="24" height="24" viewBox="0 0 24 24" fill="none" xmlns="http://www.w3.org/2000/svg">
<path fill-rule="evenodd" clip-rule="evenodd" d="M6.16667 5.125C5.59137 5.125 5.125 5.59137 5.125 6.16667V17.8333C5.125 18.4086 5.59137 18.875 6.16667 18.875H17.8333C18.4086 18.875 18.875 18.4086 18.875 17.8333V6.16667C18.875 5.59137 18.4086 5.125 17.8333 5.125H6.16667ZM3.875 6.16667C3.875 4.90101 4.90101 3.875 6.16667 3.875H17.8333C19.099 3.875 20.125 4.90101 20.125 6.16667V17.8333C20.125 19.099 19.099 20.125 17.8333 20.125H6.16667C4.90101 20.125 3.875 19.099 3.875 17.8333V6.16667ZM9.05806 9.05806C9.30214 8.81398 9.69786 8.81398 9.94194 9.05806L12 11.1161L14.0581 9.05806C14.3021 8.81398 14.6979 8.81398 14.9419 9.05806C15.186 9.30214 15.186 9.69786 14.9419 9.94194L12.8839 12L14.9419 14.0581C15.186 14.3021 15.186 14.6979 14.9419 14.9419C14.6979 15.186 14.3021 15.186 14.0581 14.9419L12 12.8839L9.94194 14.9419C9.69786 15.186 9.30214 15.186 9.05806 14.9419C8.81398 14.6979 8.81398 14.3021 9.05806 14.0581L11.1161 12L9.05806 9.94194C8.81398 9.69786 8.81398 9.30214 9.05806 9.05806Z" fill="black"/>
</svg>
