<svg width="24" height="24" viewBox="0 0 24 24" fill="none" xmlns="http://www.w3.org/2000/svg">
<path fill-rule="evenodd" clip-rule="evenodd" d="M12 5.33325C12 4.70825 12 4.70825 11.9999 4.70825H11.9997H11.9988H11.9955L11.9829 4.70826L11.9339 4.70835L11.7479 4.70901C11.5873 4.70976 11.3565 4.71127 11.0751 4.71428C10.5126 4.72029 9.74702 4.73233 8.93563 4.75644C8.12524 4.78053 7.26418 4.81679 6.51237 4.87163C5.77805 4.92519 5.095 4.99965 4.67189 5.11281L4.67187 5.11274L4.66322 5.11519C4.16509 5.25612 3.71297 5.52601 3.35253 5.8976C2.99209 6.26918 2.7361 6.72931 2.6104 7.2315C2.60702 7.24501 2.60409 7.25863 2.60162 7.27233C2.33272 8.76343 2.20108 10.276 2.20835 11.7912C2.19898 13.3177 2.33063 14.8419 2.60162 16.3442C2.60528 16.3645 2.60995 16.3846 2.6156 16.4044C2.75417 16.891 3.0159 17.3337 3.3755 17.6895C3.7351 18.0454 4.18041 18.3026 4.66841 18.4361L4.67189 18.437C5.095 18.5502 5.77805 18.6247 6.51237 18.6782C7.26418 18.733 8.12524 18.7693 8.93563 18.7934C9.74702 18.8175 10.5126 18.8295 11.0751 18.8356C11.3565 18.8386 11.5873 18.8401 11.7479 18.8408L11.9339 18.8415L11.9829 18.8416L11.9955 18.8416L11.9988 18.8416H11.9997H11.9999C12 18.8416 12 18.8416 12 18.2166C12 18.8416 12.0001 18.8416 12.0001 18.8416H12.0004H12.0012L12.0045 18.8416L12.0172 18.8416L12.0661 18.8415L12.2521 18.8408C12.4128 18.8401 12.6436 18.8386 12.9249 18.8356C13.4874 18.8295 14.253 18.8175 15.0644 18.7934C15.8748 18.7693 16.7359 18.733 17.4877 18.6782C18.222 18.6247 18.9051 18.5502 19.3282 18.437L19.3282 18.4371L19.3368 18.4346C19.835 18.2937 20.2871 18.0238 20.6475 17.6522C21.008 17.2807 21.264 16.8205 21.3897 16.3183C21.393 16.3048 21.396 16.2912 21.3984 16.2775C21.6653 14.7974 21.7969 13.2962 21.7917 11.7923C21.8011 10.2657 21.6694 8.7414 21.3984 7.23897C21.396 7.22528 21.393 7.21167 21.3897 7.19816C21.264 6.69598 21.008 6.23585 20.6475 5.86426C20.2871 5.49268 19.835 5.22279 19.3368 5.08186C19.3296 5.0798 19.3223 5.07788 19.315 5.07609C18.8968 4.97398 18.2183 4.90621 17.4837 4.85729C16.733 4.8073 15.8728 4.77421 15.0628 4.75223C14.2519 4.73023 13.4866 4.71924 12.9244 4.71375C12.6431 4.711 12.4124 4.70963 12.2519 4.70894L12.066 4.70834L12.0171 4.70826L12.0045 4.70825H12.0012H12.0004H12.0001C12.0001 4.70825 12 4.70825 12 5.33325ZM12 5.33325L12 5.95825H11.9998L11.9991 5.95825L11.9962 5.95825L11.9842 5.95826L11.9367 5.95834L11.7538 5.95899C11.5953 5.95974 11.367 5.96123 11.0885 5.96421C10.5312 5.97017 9.77387 5.98209 8.97276 6.00589C8.17065 6.02973 7.32962 6.06534 6.60331 6.11831C5.86317 6.1723 5.29401 6.24118 4.99919 6.31921C4.71443 6.40059 4.45601 6.5553 4.24977 6.76792C4.047 6.97696 3.9017 7.23474 3.82781 7.51622C3.57494 8.92609 3.45128 10.3561 3.45835 11.7885L3.45839 11.7955H3.45835C3.44931 13.2351 3.57235 14.6725 3.8259 16.0896C3.90746 16.3586 4.05481 16.6032 4.25479 16.8011C4.46116 17.0053 4.71662 17.153 4.99657 17.2299C5.29063 17.3083 5.86097 17.3774 6.60331 17.4315C7.32962 17.4845 8.17065 17.5201 8.97276 17.5439C9.77387 17.5677 10.5312 17.5797 11.0885 17.5856C11.367 17.5886 11.5953 17.5901 11.7538 17.5908L11.9367 17.5915L11.9842 17.5916L11.9962 17.5916L11.9991 17.5916H11.9998H12L12 18.2166L12.0001 17.5916H12.0002H12.0009L12.0039 17.5916L12.0158 17.5916L12.0634 17.5915L12.2462 17.5908C12.4047 17.5901 12.633 17.5886 12.9116 17.5856C13.4689 17.5797 14.2262 17.5677 15.0273 17.5439C15.8294 17.5201 16.6704 17.4845 17.3967 17.4315C18.1369 17.3775 18.706 17.3087 19.0009 17.2306C19.2856 17.1493 19.544 16.9945 19.7503 16.7819C19.9531 16.5729 20.0984 16.3151 20.1722 16.0336C20.4231 14.6344 20.5468 13.2154 20.5417 11.7938L20.5417 11.7877H20.5417C20.5508 10.3444 20.4271 8.90344 20.1723 7.48289C20.0984 7.20141 19.9531 6.94363 19.7503 6.73458C19.5456 6.52358 19.2895 6.3696 19.0073 6.28774C18.7058 6.21597 18.1352 6.15344 17.4007 6.10453C16.6733 6.05608 15.8314 6.02354 15.0289 6.00177C14.2274 5.98002 13.4697 5.96914 12.9122 5.96369C12.6335 5.96097 12.4051 5.95961 12.2465 5.95893L12.0635 5.95834L12.0159 5.95826L12.0039 5.95825L12.0009 5.95825L12.0002 5.95825H12.0001L12 5.33325ZM10.434 8.52329C10.2405 8.41327 10.0031 8.41443 9.81077 8.52634C9.61838 8.63825 9.50003 8.84402 9.50003 9.06658V14.5166C9.50003 14.7391 9.61838 14.9449 9.81077 15.0568C10.0031 15.1687 10.2405 15.1699 10.434 15.0599L15.2257 12.3349C15.421 12.2238 15.5417 12.0163 15.5417 11.7916C15.5417 11.5668 15.421 11.3594 15.2257 11.2483L10.434 8.52329ZM13.6524 11.7916L10.75 13.4422V10.141L13.6524 11.7916Z" fill="black"/>
</svg>
