<svg width="24" height="24" viewBox="0 0 24 24" fill="none" xmlns="http://www.w3.org/2000/svg">
<g clip-path="url(#clip0_775_13950)">
<path fill-rule="evenodd" clip-rule="evenodd" d="M3.27532 2.39131C3.03124 2.14723 2.63551 2.14723 2.39143 2.39131C2.14735 2.63539 2.14735 3.03112 2.39143 3.27519L7.82118 8.70494L4.0199 13.2665C3.86465 13.4528 3.83118 13.7121 3.93405 13.9317C4.03691 14.1513 4.25753 14.2916 4.50004 14.2916H11.2921L10.5465 20.2557C10.5121 20.531 10.6633 20.7961 10.9178 20.9066C11.1723 21.017 11.4692 20.9465 11.6468 20.7334L15.3754 16.2591L20.7248 21.6085C20.9688 21.8526 21.3646 21.8526 21.6086 21.6085C21.8527 21.3644 21.8527 20.9687 21.6086 20.7246L15.7808 14.8968C15.7775 14.8935 15.7742 14.8901 15.7708 14.8868L9.11416 8.23015C9.11087 8.22679 9.10754 8.22346 9.10417 8.22016L3.27532 2.39131ZM8.70871 9.59247L5.83444 13.0416H12C12.0638 13.0416 12.1265 13.0513 12.1862 13.0699L8.70871 9.59247ZM12.5967 13.4804C12.623 13.5647 12.6314 13.6545 12.6202 13.7441L12.0513 18.2955L14.4878 15.3716L12.5967 13.4804ZM13.4536 3.74362C13.4878 3.4683 13.3364 3.20338 13.0818 3.09309C12.8273 2.9828 12.5304 3.05354 12.353 3.26679L10.328 5.70013C10.1072 5.96545 10.1433 6.35953 10.4086 6.58033C10.6739 6.80113 11.068 6.76503 11.2888 6.49971L11.9504 5.70465L11.7215 7.54788C11.6789 7.89042 11.9221 8.2026 12.2647 8.24515C12.6072 8.2877 12.9194 8.0445 12.9619 7.70196L13.4536 3.74362ZM15.05 9.70825C14.7049 9.70825 14.425 9.98807 14.425 10.3333C14.425 10.6784 14.7049 10.9583 15.05 10.9583H18.1639L16.9953 12.3576C16.7741 12.6226 16.8095 13.0167 17.0744 13.238C17.3394 13.4592 17.7335 13.4238 17.9548 13.1589L19.9798 10.7339C20.1353 10.5476 20.169 10.2882 20.0662 10.0684C19.9634 9.84867 19.7427 9.70825 19.5 9.70825H15.05Z" fill="black"/>
</g>
<defs>
<clipPath id="clip0_775_13950">
<rect width="20" height="20" fill="white" transform="translate(2 2)"/>
</clipPath>
</defs>
</svg>
