<svg width="24" height="24" viewBox="0 0 24 24" fill="none" xmlns="http://www.w3.org/2000/svg">
<g clip-path="url(#clip0_775_13891)">
<path fill-rule="evenodd" clip-rule="evenodd" d="M13.0822 3.09347C13.3367 3.20395 13.4879 3.46899 13.4535 3.7443L12.708 9.70845H19.5C19.7425 9.70845 19.9631 9.84874 20.066 10.0684C20.1689 10.288 20.1354 10.5473 19.9801 10.7336L11.6468 20.7336C11.4692 20.9467 11.1723 21.0172 10.9178 20.9068C10.6633 20.7963 10.5121 20.5312 10.5465 20.2559L11.292 14.2918H4.50001C4.2575 14.2918 4.03688 14.1515 3.93401 13.9319C3.83115 13.7123 3.86462 13.453 4.01987 13.2667L12.3532 3.26667C12.5308 3.05352 12.8277 2.98299 13.0822 3.09347ZM5.83441 13.0418H12C12.1793 13.0418 12.3499 13.1188 12.4686 13.2532C12.5872 13.3876 12.6424 13.5664 12.6202 13.7443L12.0513 18.2957L18.1656 10.9584H12C11.8207 10.9584 11.6501 10.8815 11.5315 10.7471C11.4128 10.6127 11.3576 10.4338 11.3798 10.2559L11.9488 5.70457L5.83441 13.0418Z" fill="black"/>
</g>
<defs>
<clipPath id="clip0_775_13891">
<rect width="20" height="20" fill="white" transform="translate(2 2)"/>
</clipPath>
</defs>
</svg>
