<svg width="24" height="24" viewBox="0 0 24 24" fill="none" xmlns="http://www.w3.org/2000/svg">
<path fill-rule="evenodd" clip-rule="evenodd" d="M11.1667 5.125C7.82995 5.125 5.125 7.82995 5.125 11.1667C5.125 14.5034 7.82995 17.2083 11.1667 17.2083C12.8005 17.2083 14.2829 16.5598 15.3704 15.5061C15.3891 15.4806 15.41 15.4561 15.4331 15.4331C15.4561 15.41 15.4806 15.3891 15.5061 15.3704C16.5598 14.2829 17.2083 12.8005 17.2083 11.1667C17.2083 7.82995 14.5034 5.125 11.1667 5.125ZM11.1667 18.4583C12.9552 18.4583 14.5933 17.8144 15.8619 16.7457L19.0581 19.9419C19.3021 20.186 19.6979 20.186 19.9419 19.9419C20.186 19.6979 20.186 19.3021 19.9419 19.0581L16.7457 15.8619C17.8144 14.5933 18.4583 12.9552 18.4583 11.1667C18.4583 7.13959 15.1937 3.875 11.1667 3.875C7.13959 3.875 3.875 7.13959 3.875 11.1667C3.875 15.1937 7.13959 18.4583 11.1667 18.4583ZM8.66667 10.5417C8.32149 10.5417 8.04167 10.8215 8.04167 11.1667C8.04167 11.5118 8.32149 11.7917 8.66667 11.7917H13.6667C14.0118 11.7917 14.2917 11.5118 14.2917 11.1667C14.2917 10.8215 14.0118 10.5417 13.6667 10.5417H8.66667Z" fill="black"/>
</svg>
